  0
SECTION
  2
HEADER
  9
$ACADVER
  1
AC1032
  9
$ACADMAINTVER
 90
4
  9
$DWGCODEPAGE
  3
ANSI_1252
  9
$LASTSAVEDBY
  1
ezdxf
  9
$REQUIREDVERSIONS
160
0
  9
$INSBASE
 10
0.0
 20
0.0
 30
0.0
  9
$EXTMIN
 10
1e+20
 20
1e+20
 30
1e+20
  9
$EXTMAX
 10
-1e+20
 20
-1e+20
 30
-1e+20
  9
$LIMMIN
 10
0.0
 20
0.0
  9
$LIMMAX
 10
420.0
 20
297.0
  9
$ORTHOMODE
 70
0
  9
$REGENMODE
 70
1
  9
$FILLMODE
 70
1
  9
$QTEXTMODE
 70
0
  9
$MIRRTEXT
 70
1
  9
$LTSCALE
 40
1.0
  9
$ATTMODE
 70
1
  9
$TEXTSIZE
 40
2.5
  9
$TRACEWID
 40
1.0
  9
$TEXTSTYLE
  7
OpenSans
  9
$CLAYER
  8
0
  9
$CELTYPE
  6
ByLayer
  9
$CECOLOR
 62
256
  9
$CELTSCALE
 40
1.0
  9
$DISPSILH
 70
0
  9
$DIMSCALE
 40
1.0
  9
$DIMASZ
 40
0.175
  9
$DIMEXO
 40
0.125
  9
$DIMDLI
 40
3.75
  9
$DIMRND
 40
0.0
  9
$DIMDLE
 40
0.0
  9
$DIMEXE
 40
0.375
  9
$DIMTP
 40
0.0
  9
$DIMTM
 40
0.0
  9
$DIMTXT
 40
0.25
  9
$DIMCEN
 40
2.5
  9
$DIMTSZ
 40
0.0
  9
$DIMTOL
 70
0
  9
$DIMLIM
 70
0
  9
$DIMTIH
 70
0
  9
$DIMTOH
 70
0
  9
$DIMSE1
 70
0
  9
$DIMSE2
 70
0
  9
$DIMTAD
 70
1
  9
$DIMZIN
 70
12
  9
$DIMBLK
  1
ARCHTICK
  9
$DIMASO
 70
1
  9
$DIMSHO
 70
1
  9
$DIMPOST
  1

  9
$DIMAPOST
  1

  9
$DIMALT
 70
0
  9
$DIMALTD
 70
3
  9
$DIMALTF
 40
0.03937007874
  9
$DIMLFAC
 40
100.0
  9
$DIMTOFL
 70
1
  9
$DIMTVP
 40
0.0
  9
$DIMTIX
 70
0
  9
$DIMSOXD
 70
0
  9
$DIMSAH
 70
0
  9
$DIMBLK1
  1

  9
$DIMBLK2
  1

  9
$DIMSTYLE
  2
EZDXF
  9
$DIMCLRD
 70
0
  9
$DIMCLRE
 70
0
  9
$DIMCLRT
 70
0
  9
$DIMTFAC
 40
0.5
  9
$DIMGAP
 40
0.1
  9
$DIMJUST
 70
0
  9
$DIMSD1
 70
0
  9
$DIMSD2
 70
0
  9
$DIMTOLJ
 70
0
  9
$DIMTZIN
 70
8
  9
$DIMALTZ
 70
0
  9
$DIMALTTZ
 70
0
  9
$DIMUPT
 70
1
  9
$DIMDEC
 70
2
  9
$DIMTDEC
 70
2
  9
$DIMALTU
 70
2
  9
$DIMALTTD
 70
3
  9
$DIMTXSTY
  7
OpenSansCondensed-Light
  9
$DIMAUNIT
 70
0
  9
$DIMADEC
 70
2
  9
$DIMALTRND
 40
0.0
  9
$DIMAZIN
 70
3
  9
$DIMDSEP
 70
46
  9
$DIMATFIT
 70
3
  9
$DIMFRAC
 70
0
  9
$DIMLDRBLK
  1

  9
$DIMLUNIT
 70
2
  9
$DIMLWD
 70
-2
  9
$DIMLWE
 70
-2
  9
$DIMTMOVE
 70
2
  9
$DIMFXL
 40
1.0
  9
$DIMFXLON
 70
0
  9
$DIMJOGANG
 40
0.785398163397
  9
$DIMTFILL
 70
0
  9
$DIMTFILLCLR
 70
0
  9
$DIMARCSYM
 70
0
  9
$DIMLTYPE
  6

  9
$DIMLTEX1
  6

  9
$DIMLTEX2
  6

  9
$DIMTXTDIRECTION
 70
0
  9
$LUNITS
 70
2
  9
$LUPREC
 70
4
  9
$SKETCHINC
 40
1.0
  9
$FILLETRAD
 40
10.0
  9
$AUNITS
 70
0
  9
$AUPREC
 70
2
  9
$MENU
  1
.
  9
$ELEVATION
 40
0.0
  9
$PELEVATION
 40
0.0
  9
$THICKNESS
 40
0.0
  9
$LIMCHECK
 70
0
  9
$CHAMFERA
 40
0.0
  9
$CHAMFERB
 40
0.0
  9
$CHAMFERC
 40
0.0
  9
$CHAMFERD
 40
0.0
  9
$SKPOLY
 70
0
  9
$TDCREATE
 40
2461323.1380092595
  9
$TDUCREATE
 40
2458532.153996898
  9
$TDUPDATE
 40
2461323.1380092595
  9
$TDUUPDATE
 40
2458532.1544311
  9
$TDINDWG
 40
0.0
  9
$TDUSRTIMER
 40
0.0
  9
$USRTIMER
 70
1
  9
$ANGBASE
 50
0.0
  9
$ANGDIR
 70
0
  9
$PDMODE
 70
0
  9
$PDSIZE
 40
0.0
  9
$PLINEWID
 40
0.0
  9
$SPLFRAME
 70
0
  9
$SPLINETYPE
 70
6
  9
$SPLINESEGS
 70
8
  9
$HANDSEED
  5
247
  9
$SURFTAB1
 70
6
  9
$SURFTAB2
 70
6
  9
$SURFTYPE
 70
6
  9
$SURFU
 70
6
  9
$SURFV
 70
6
  9
$UCSBASE
  2

  9
$UCSNAME
  2

  9
$UCSORG
 10
0.0
 20
0.0
 30
0.0
  9
$UCSXDIR
 10
1.0
 20
0.0
 30
0.0
  9
$UCSYDIR
 10
0.0
 20
1.0
 30
0.0
  9
$UCSORTHOREF
  2

  9
$UCSORTHOVIEW
 70
0
  9
$UCSORGTOP
 10
0.0
 20
0.0
 30
0.0
  9
$UCSORGBOTTOM
 10
0.0
 20
0.0
 30
0.0
  9
$UCSORGLEFT
 10
0.0
 20
0.0
 30
0.0
  9
$UCSORGRIGHT
 10
0.0
 20
0.0
 30
0.0
  9
$UCSORGFRONT
 10
0.0
 20
0.0
 30
0.0
  9
$UCSORGBACK
 10
0.0
 20
0.0
 30
0.0
  9
$PUCSBASE
  2

  9
$PUCSNAME
  2

  9
$PUCSORG
 10
0.0
 20
0.0
 30
0.0
  9
$PUCSXDIR
 10
1.0
 20
0.0
 30
0.0
  9
$PUCSYDIR
 10
0.0
 20
1.0
 30
0.0
  9
$PUCSORTHOREF
  2

  9
$PUCSORTHOVIEW
 70
0
  9
$PUCSORGTOP
 10
0.0
 20
0.0
 30
0.0
  9
$PUCSORGBOTTOM
 10
0.0
 20
0.0
 30
0.0
  9
$PUCSORGLEFT
 10
0.0
 20
0.0
 30
0.0
  9
$PUCSORGRIGHT
 10
0.0
 20
0.0
 30
0.0
  9
$PUCSORGFRONT
 10
0.0
 20
0.0
 30
0.0
  9
$PUCSORGBACK
 10
0.0
 20
0.0
 30
0.0
  9
$USERI1
 70
0
  9
$USERI2
 70
0
  9
$USERI3
 70
0
  9
$USERI4
 70
0
  9
$USERI5
 70
0
  9
$USERR1
 40
0.0
  9
$USERR2
 40
0.0
  9
$USERR3
 40
0.0
  9
$USERR4
 40
0.0
  9
$USERR5
 40
0.0
  9
$WORLDVIEW
 70
1
  9
$SHADEDGE
 70
3
  9
$SHADEDIF
 70
70
  9
$TILEMODE
 70
1
  9
$MAXACTVP
 70
64
  9
$PINSBASE
 10
0.0
 20
0.0
 30
0.0
  9
$PLIMCHECK
 70
0
  9
$PEXTMIN
 10
1e+20
 20
1e+20
 30
1e+20
  9
$PEXTMAX
 10
-1e+20
 20
-1e+20
 30
-1e+20
  9
$PLIMMIN
 10
0.0
 20
0.0
  9
$PLIMMAX
 10
420.0
 20
297.0
  9
$UNITMODE
 70
0
  9
$VISRETAIN
 70
1
  9
$PLINEGEN
 70
0
  9
$PSLTSCALE
 70
0
  9
$TREEDEPTH
 70
3020
  9
$CMLSTYLE
  2
Standard
  9
$CMLJUST
 70
0
  9
$CMLSCALE
 40
20.0
  9
$PROXYGRAPHICS
 70
1
  9
$MEASUREMENT
 70
1
  9
$CELWEIGHT
370
-1
  9
$ENDCAPS
280
0
  9
$JOINSTYLE
280
0
  9
$LWDISPLAY
290
1
  9
$INSUNITS
 70
4
  9
$HYPERLINKBASE
  1

  9
$STYLESHEET
  1

  9
$XEDIT
290
1
  9
$CEPSNTYPE
380
0
  9
$PSTYLEMODE
290
1
  9
$FINGERPRINTGUID
  2
{A4544125-5E5D-4CBF-AFC4-5B8AA9AFFC07}
  9
$VERSIONGUID
  2
{2565D61F-89B0-4250-A56D-57940A0AD09E}
  9
$EXTNAMES
290
1
  9
$PSVPSCALE
 40
0.0
  9
$OLESTARTUP
290
0
  9
$SORTENTS
280
127
  9
$INDEXCTL
280
0
  9
$HIDETEXT
280
1
  9
$XCLIPFRAME
280
1
  9
$HALOGAP
280
0
  9
$OBSCOLOR
 70
257
  9
$OBSLTYPE
280
0
  9
$INTERSECTIONDISPLAY
280
0
  9
$INTERSECTIONCOLOR
 70
257
  9
$DIMASSOC
280
2
  9
$PROJECTNAME
  1

  9
$CAMERADISPLAY
290
0
  9
$LENSLENGTH
 40
50.0
  9
$CAMERAHEIGHT
 40
0.0
  9
$STEPSPERSEC
 40
24.0
  9
$STEPSIZE
 40
100.0
  9
$3DDWFPREC
 40
2.0
  9
$PSOLWIDTH
 40
0.005
  9
$PSOLHEIGHT
 40
0.08
  9
$LOFTANG1
 40
1.570796326795
  9
$LOFTANG2
 40
1.570796326795
  9
$LOFTMAG1
 40
0.0
  9
$LOFTMAG2
 40
0.0
  9
$LOFTPARAM
 70
7
  9
$LOFTNORMALS
280
1
  9
$LATITUDE
 40
37.795
  9
$LONGITUDE
 40
-122.394
  9
$NORTHDIRECTION
 40
0.0
  9
$TIMEZONE
 70
-8000
  9
$LIGHTGLYPHDISPLAY
280
1
  9
$TILEMODELIGHTSYNCH
280
1
  9
$CMATERIAL
347
20
  9
$SOLIDHIST
280
0
  9
$SHOWHIST
280
1
  9
$DWFFRAME
280
2
  9
$DGNFRAME
280
2
  9
$REALWORLDSCALE
290
1
  9
$INTERFERECOLOR
 62
256
  9
$CSHADOW
280
0
  9
$SHADOWPLANELOCATION
 40
0.0
  0
ENDSEC
  0
SECTION
  2
CLASSES
  0
CLASS
  1
ACDBDICTIONARYWDFLT
  2
AcDbDictionaryWithDefault
  3
ObjectDBX Classes
 90
0
 91
0
280
0
281
0
  0
CLASS
  1
SUN
  2
AcDbSun
  3
SCENEOE
 90
1153
 91
0
280
0
281
0
  0
CLASS
  1
VISUALSTYLE
  2
AcDbVisualStyle
  3
ObjectDBX Classes
 90
4095
 91
0
280
0
281
0
  0
CLASS
  1
MATERIAL
  2
AcDbMaterial
  3
ObjectDBX Classes
 90
1153
 91
0
280
0
281
0
  0
CLASS
  1
SCALE
  2
AcDbScale
  3
ObjectDBX Classes
 90
1153
 91
0
280
0
281
0
  0
CLASS
  1
TABLESTYLE
  2
AcDbTableStyle
  3
ObjectDBX Classes
 90
4095
 91
0
280
0
281
0
  0
CLASS
  1
MLEADERSTYLE
  2
AcDbMLeaderStyle
  3
ACDB_MLEADERSTYLE_CLASS
 90
4095
 91
0
280
0
281
0
  0
CLASS
  1
DICTIONARYVAR
  2
AcDbDictionaryVar
  3
ObjectDBX Classes
 90
0
 91
0
280
0
281
0
  0
CLASS
  1
CELLSTYLEMAP
  2
AcDbCellStyleMap
  3
ObjectDBX Classes
 90
1152
 91
0
280
0
281
0
  0
CLASS
  1
MENTALRAYRENDERSETTINGS
  2
AcDbMentalRayRenderSettings
  3
SCENEOE
 90
1024
 91
0
280
0
281
0
  0
CLASS
  1
ACDBDETAILVIEWSTYLE
  2
AcDbDetailViewStyle
  3
ObjectDBX Classes
 90
1025
 91
0
280
0
281
0
  0
CLASS
  1
ACDBSECTIONVIEWSTYLE
  2
AcDbSectionViewStyle
  3
ObjectDBX Classes
 90
1025
 91
0
280
0
281
0
  0
CLASS
  1
RASTERVARIABLES
  2
AcDbRasterVariables
  3
ISM
 90
0
 91
0
280
0
281
0
  0
CLASS
  1
ACDBPLACEHOLDER
  2
AcDbPlaceHolder
  3
ObjectDBX Classes
 90
0
 91
0
280
0
281
0
  0
CLASS
  1
LAYOUT
  2
AcDbLayout
  3
ObjectDBX Classes
 90
0
 91
0
280
0
281
0
  0
ENDSEC
  0
SECTION
  2
TABLES
  0
TABLE
  2
VPORT
  5
8
330
0
100
AcDbSymbolTable
 70
1
  0
VPORT
  5
23
330
8
100
AcDbSymbolTableRecord
100
AcDbViewportTableRecord
  2
*Active
 70
0
 10
0.0
 20
0.0
 11
1.0
 21
1.0
 12
0.0
 22
0.0
 13
0.0
 23
0.0
 14
0.5
 24
0.5
 15
0.5
 25
0.5
 16
0.0
 26
0.0
 36
1.0
 17
0.0
 27
0.0
 37
0.0
 40
1000.0
 41
1.34
 42
50.0
 43
0.0
 44
0.0
 50
0.0
 51
0.0
 71
0
 72
1000
 73
1
 74
3
 75
0
 76
0
 77
0
 78
0
281
0
 65
0
146
0.0
  0
ENDTAB
  0
TABLE
  2
LTYPE
  5
2
330
0
100
AcDbSymbolTable
 70
21
  0
LTYPE
  5
24
330
2
100
AcDbSymbolTableRecord
100
AcDbLinetypeTableRecord
  2
ByBlock
 70
0
  3

 72
65
 73
0
 40
0.0
  0
LTYPE
  5
25
330
2
100
AcDbSymbolTableRecord
100
AcDbLinetypeTableRecord
  2
ByLayer
 70
0
  3

 72
65
 73
0
 40
0.0
  0
LTYPE
  5
26
330
2
100
AcDbSymbolTableRecord
100
AcDbLinetypeTableRecord
  2
Continuous
 70
0
  3

 72
65
 73
0
 40
0.0
  0
LTYPE
  5
2F
330
2
100
AcDbSymbolTableRecord
100
AcDbLinetypeTableRecord
  2
CENTER
 70
0
  3
Center ____ _ ____ _ ____ _ ____ _ ____ _ ____
 72
65
 73
4
 40
5.08
 49
3.175
 74
0
 49
-0.635
 74
0
 49
0.635
 74
0
 49
-0.635
 74
0
  0
LTYPE
  5
30
330
2
100
AcDbSymbolTableRecord
100
AcDbLinetypeTableRecord
  2
CENTERX2
 70
0
  3
Center (2x) ________  __  ________  __  ________
 72
65
 73
4
 40
8.89
 49
6.35
 74
0
 49
-0.635
 74
0
 49
1.27
 74
0
 49
-0.635
 74
0
  0
LTYPE
  5
31
330
2
100
AcDbSymbolTableRecord
100
AcDbLinetypeTableRecord
  2
CENTER2
 70
0
  3
Center (.5x) ____ _ ____ _ ____ _ ____ _ ____
 72
65
 73
4
 40
2.54
 49
1.587
 74
0
 49
-0.318
 74
0
 49
0.318
 74
0
 49
-0.318
 74
0
  0
LTYPE
  5
32
330
2
100
AcDbSymbolTableRecord
100
AcDbLinetypeTableRecord
  2
DASHED
 70
0
  3
Dashed __ __ __ __ __ __ __ __ __ __ __ __ __ _
 72
65
 73
2
 40
1.524
 49
1.27
 74
0
 49
-0.254
 74
0
  0
LTYPE
  5
33
330
2
100
AcDbSymbolTableRecord
100
AcDbLinetypeTableRecord
  2
DASHEDX2
 70
0
  3
Dashed (2x) ____  ____  ____  ____  ____  ____
 72
65
 73
2
 40
3.048
 49
2.54
 74
0
 49
-0.508
 74
0
  0
LTYPE
  5
34
330
2
100
AcDbSymbolTableRecord
100
AcDbLinetypeTableRecord
  2
DASHED2
 70
0
  3
Dashed (.5x) _ _ _ _ _ _ _ _ _ _ _ _ _ _
 72
65
 73
2
 40
0.762
 49
0.635
 74
0
 49
-0.127
 74
0
  0
LTYPE
  5
35
330
2
100
AcDbSymbolTableRecord
100
AcDbLinetypeTableRecord
  2
PHANTOM
 70
0
  3
Phantom ______  __  __  ______  __  __  ______
 72
65
 73
6
 40
6.35
 49
3.175
 74
0
 49
-0.635
 74
0
 49
0.635
 74
0
 49
-0.635
 74
0
 49
0.635
 74
0
 49
-0.635
 74
0
  0
LTYPE
  5
36
330
2
100
AcDbSymbolTableRecord
100
AcDbLinetypeTableRecord
  2
PHANTOMX2
 70
0
  3
Phantom (2x)____________    ____    ____    ____________
 72
65
 73
6
 40
10.795
 49
6.35
 74
0
 49
-0.635
 74
0
 49
1.27
 74
0
 49
-0.635
 74
0
 49
1.27
 74
0
 49
-0.635
 74
0
  0
LTYPE
  5
37
330
2
100
AcDbSymbolTableRecord
100
AcDbLinetypeTableRecord
  2
PHANTOM2
 70
0
  3
Phantom (.5x) ___ _ _ ___ _ _ ___ _ _ ___ _ _ ___
 72
65
 73
6
 40
3.175
 49
1.587
 74
0
 49
-0.318
 74
0
 49
0.318
 74
0
 49
-0.318
 74
0
 49
0.318
 74
0
 49
-0.318
 74
0
  0
LTYPE
  5
38
330
2
100
AcDbSymbolTableRecord
100
AcDbLinetypeTableRecord
  2
DASHDOT
 70
0
  3
Dash dot __ . __ . __ . __ . __ . __ . __ . __
 72
65
 73
4
 40
3.556
 49
2.54
 74
0
 49
-0.508
 74
0
 49
0.0
 74
0
 49
-0.508
 74
0
  0
LTYPE
  5
39
330
2
100
AcDbSymbolTableRecord
100
AcDbLinetypeTableRecord
  2
DASHDOTX2
 70
0
  3
Dash dot (2x) ____  .  ____  .  ____  .  ____
 72
65
 73
4
 40
6.096
 49
5.08
 74
0
 49
-0.508
 74
0
 49
0.0
 74
0
 49
-0.508
 74
0
  0
LTYPE
  5
3A
330
2
100
AcDbSymbolTableRecord
100
AcDbLinetypeTableRecord
  2
DASHDOT2
 70
0
  3
Dash dot (.5x) _ . _ . _ . _ . _ . _ . _ . _
 72
65
 73
4
 40
1.778
 49
1.27
 74
0
 49
-0.254
 74
0
 49
0.0
 74
0
 49
-0.254
 74
0
  0
LTYPE
  5
3B
330
2
100
AcDbSymbolTableRecord
100
AcDbLinetypeTableRecord
  2
DOT
 70
0
  3
Dot .  .  .  .  .  .  .  .  .  .  .  .  .  .  .  .
 72
65
 73
2
 40
0.508
 49
0.0
 74
0
 49
-0.508
 74
0
  0
LTYPE
  5
3C
330
2
100
AcDbSymbolTableRecord
100
AcDbLinetypeTableRecord
  2
DOTX2
 70
0
  3
Dot (2x) .    .    .    .    .    .    .    . 
 72
65
 73
2
 40
1.016
 49
0.0
 74
0
 49
-1.016
 74
0
  0
LTYPE
  5
3D
330
2
100
AcDbSymbolTableRecord
100
AcDbLinetypeTableRecord
  2
DOT2
 70
0
  3
Dot (.5) . . . . . . . . . . . . . . . . . . . 
 72
65
 73
2
 40
0.254
 49
0.0
 74
0
 49
-0.254
 74
0
  0
LTYPE
  5
3E
330
2
100
AcDbSymbolTableRecord
100
AcDbLinetypeTableRecord
  2
DIVIDE
 70
0
  3
Divide __ . . __ . . __ . . __ . . __ . . __
 72
65
 73
6
 40
4.064
 49
2.54
 74
0
 49
-0.508
 74
0
 49
0.0
 74
0
 49
-0.508
 74
0
 49
0.0
 74
0
 49
-0.508
 74
0
  0
LTYPE
  5
3F
330
2
100
AcDbSymbolTableRecord
100
AcDbLinetypeTableRecord
  2
DIVIDEX2
 70
0
  3
Divide (2x) ____  . .  ____  . .  ____  . .  ____
 72
65
 73
6
 40
6.604
 49
5.08
 74
0
 49
-0.508
 74
0
 49
0.0
 74
0
 49
-0.508
 74
0
 49
0.0
 74
0
 49
-0.508
 74
0
  0
LTYPE
  5
40
330
2
100
AcDbSymbolTableRecord
100
AcDbLinetypeTableRecord
  2
DIVIDE2
 70
0
  3
Divide(.5x) _ . _ . _ . _ . _ . _ . _ . _
 72
65
 73
6
 40
2.032
 49
1.27
 74
0
 49
-0.254
 74
0
 49
0.0
 74
0
 49
-0.254
 74
0
 49
0.0
 74
0
 49
-0.254
 74
0
  0
ENDTAB
  0
TABLE
  2
LAYER
  5
1
330
0
100
AcDbSymbolTable
 70
36
  0
LAYER
  5
27
330
1
100
AcDbSymbolTableRecord
100
AcDbLayerTableRecord
  2
0
 70
0
 62
7
  6
Continuous
370
-3
390
13
347
21
  0
LAYER
  5
28
330
1
100
AcDbSymbolTableRecord
100
AcDbLayerTableRecord
  2
Defpoints
 70
0
 62
7
  6
Continuous
290
0
370
-3
390
13
347
21
  0
LAYER
  5
8A
330
1
100
AcDbSymbolTableRecord
100
AcDbLayerTableRecord
  2
0-SHEET
 70
0
 62
7
  6
CONTINUOUS
370
50
390
13
347
21
  0
LAYER
  5
8B
330
1
100
AcDbSymbolTableRecord
100
AcDbLayerTableRecord
  2
0-TITLE
 70
0
 62
7
  6
CONTINUOUS
370
18
390
13
347
21
  0
LAYER
  5
8C
330
1
100
AcDbSymbolTableRecord
100
AcDbLayerTableRecord
  2
0-TITLE-TXT
 70
0
 62
7
  6
CONTINUOUS
370
13
390
13
347
21
  0
LAYER
  5
8D
330
1
100
AcDbSymbolTableRecord
100
AcDbLayerTableRecord
  2
A-WALL
 70
0
 62
250
  6
CONTINUOUS
370
35
390
13
347
21
  0
LAYER
  5
8E
330
1
100
AcDbSymbolTableRecord
100
AcDbLayerTableRecord
  2
A-WALL-FILL
 70
0
 62
250
  6
CONTINUOUS
370
0
390
13
347
21
  0
LAYER
  5
8F
330
1
100
AcDbSymbolTableRecord
100
AcDbLayerTableRecord
  2
A-WALL-NEW
 70
0
 62
5
  6
CONTINUOUS
370
35
390
13
347
21
  0
LAYER
  5
90
330
1
100
AcDbSymbolTableRecord
100
AcDbLayerTableRecord
  2
A-WALL-DEMO
 70
0
 62
1
  6
DASHED
370
35
390
13
347
21
  0
LAYER
  5
91
330
1
100
AcDbSymbolTableRecord
100
AcDbLayerTableRecord
  2
A-DOOR
 70
0
 62
7
  6
CONTINUOUS
370
18
390
13
347
21
  0
LAYER
  5
92
330
1
100
AcDbSymbolTableRecord
100
AcDbLayerTableRecord
  2
A-WIND
 70
0
 62
7
  6
CONTINUOUS
370
13
390
13
347
21
  0
LAYER
  5
93
330
1
100
AcDbSymbolTableRecord
100
AcDbLayerTableRecord
  2
A-STAIR
 70
0
 62
7
  6
CONTINUOUS
370
13
390
13
347
21
  0
LAYER
  5
94
330
1
100
AcDbSymbolTableRecord
100
AcDbLayerTableRecord
  2
A-DETAIL
 70
0
 62
7
  6
CONTINUOUS
370
13
390
13
347
21
  0
LAYER
  5
95
330
1
100
AcDbSymbolTableRecord
100
AcDbLayerTableRecord
  2
A-GRID
 70
0
 62
8
  6
DASHED
370
13
390
13
347
21
  0
LAYER
  5
96
330
1
100
AcDbSymbolTableRecord
100
AcDbLayerTableRecord
  2
A-GRID-TAG
 70
0
 62
7
  6
CONTINUOUS
370
18
390
13
347
21
  0
LAYER
  5
97
330
1
100
AcDbSymbolTableRecord
100
AcDbLayerTableRecord
  2
A-SITE
 70
0
 62
8
  6
CONTINUOUS
370
13
390
13
347
21
  0
LAYER
  5
98
330
1
100
AcDbSymbolTableRecord
100
AcDbLayerTableRecord
  2
I-FURN
 70
0
 62
7
  6
CONTINUOUS
370
13
390
13
347
21
  0
LAYER
  5
99
330
1
100
AcDbSymbolTableRecord
100
AcDbLayerTableRecord
  2
I-JOIN
 70
0
 62
6
  6
CONTINUOUS
370
25
390
13
347
21
  0
LAYER
  5
9A
330
1
100
AcDbSymbolTableRecord
100
AcDbLayerTableRecord
  2
I-JOIN-HIDDEN
 70
0
 62
6
  6
DASHED
370
13
390
13
347
21
  0
LAYER
  5
9B
330
1
100
AcDbSymbolTableRecord
100
AcDbLayerTableRecord
  2
I-JOIN-ELEV
 70
0
 62
7
  6
CONTINUOUS
370
25
390
13
347
21
  0
LAYER
  5
9C
330
1
100
AcDbSymbolTableRecord
100
AcDbLayerTableRecord
  2
I-JOIN-THIN
 70
0
 62
7
  6
CONTINUOUS
370
13
390
13
347
21
  0
LAYER
  5
9D
330
1
100
AcDbSymbolTableRecord
100
AcDbLayerTableRecord
  2
I-JOIN-HATCH
 70
0
 62
8
  6
CONTINUOUS
370
9
390
13
347
21
  0
LAYER
  5
9E
330
1
100
AcDbSymbolTableRecord
100
AcDbLayerTableRecord
  2
I-CEIL
 70
0
 62
7
  6
CONTINUOUS
370
18
390
13
347
21
  0
LAYER
  5
9F
330
1
100
AcDbSymbolTableRecord
100
AcDbLayerTableRecord
  2
I-CEIL-COVE
 70
0
 62
1
  6
DASHED
370
18
390
13
347
21
  0
LAYER
  5
A0
330
1
100
AcDbSymbolTableRecord
100
AcDbLayerTableRecord
  2
I-LITE
 70
0
 62
1
  6
CONTINUOUS
370
18
390
13
347
21
  0
LAYER
  5
A1
330
1
100
AcDbSymbolTableRecord
100
AcDbLayerTableRecord
  2
I-POWR
 70
0
 62
1
  6
CONTINUOUS
370
18
390
13
347
21
  0
LAYER
  5
A2
330
1
100
AcDbSymbolTableRecord
100
AcDbLayerTableRecord
  2
I-FLOR
 70
0
 62
8
  6
CONTINUOUS
370
9
390
13
347
21
  0
LAYER
  5
A3
330
1
100
AcDbSymbolTableRecord
100
AcDbLayerTableRecord
  2
I-CURT
 70
0
 62
6
  6
CONTINUOUS
370
25
390
13
347
21
  0
LAYER
  5
A4
330
1
100
AcDbSymbolTableRecord
100
AcDbLayerTableRecord
  2
I-FINISH
 70
0
 62
6
  6
CONTINUOUS
370
50
390
13
347
21
  0
LAYER
  5
A5
330
1
100
AcDbSymbolTableRecord
100
AcDbLayerTableRecord
  2
I-TAG
 70
0
 62
5
  6
CONTINUOUS
370
13
390
13
347
21
  0
LAYER
  5
A6
330
1
100
AcDbSymbolTableRecord
100
AcDbLayerTableRecord
  2
I-NOTE
 70
0
 62
1
  6
CONTINUOUS
370
13
390
13
347
21
  0
LAYER
  5
A7
330
1
100
AcDbSymbolTableRecord
100
AcDbLayerTableRecord
  2
I-DIM
 70
0
 62
5
  6
CONTINUOUS
370
13
390
13
347
21
  0
LAYER
  5
A8
330
1
100
AcDbSymbolTableRecord
100
AcDbLayerTableRecord
  2
I-TEXT
 70
0
 62
7
  6
CONTINUOUS
370
13
390
13
347
21
  0
LAYER
  5
A9
330
1
100
AcDbSymbolTableRecord
100
AcDbLayerTableRecord
  2
I-ROOM
 70
0
 62
7
  6
CONTINUOUS
370
13
390
13
347
21
  0
LAYER
  5
AA
330
1
100
AcDbSymbolTableRecord
100
AcDbLayerTableRecord
  2
I-SYMB
 70
0
 62
6
  6
CONTINUOUS
370
18
390
13
347
21
  0
LAYER
  5
AB
330
1
100
AcDbSymbolTableRecord
100
AcDbLayerTableRecord
  2
I-WATER
 70
0
 62
5
  6
CONTINUOUS
370
18
390
13
347
21
  0
ENDTAB
  0
TABLE
  2
STYLE
  5
5
330
0
100
AcDbSymbolTable
 70
27
  0
STYLE
  5
29
330
5
100
AcDbSymbolTableRecord
100
AcDbTextStyleTableRecord
  2
Standard
 70
0
 40
0.0
 41
1.0
 50
0.0
 71
0
 42
2.5
  3
arial.ttf
  4

  0
STYLE
  5
41
330
5
100
AcDbSymbolTableRecord
100
AcDbTextStyleTableRecord
  2
OpenSans-Light
 70
0
 40
0.0
 41
1.0
 50
0.0
 71
0
 42
2.5
  3
OpenSans-Light.ttf
  4

  0
STYLE
  5
42
330
5
100
AcDbSymbolTableRecord
100
AcDbTextStyleTableRecord
  2
OpenSans-Light-Italic
 70
0
 40
0.0
 41
1.0
 50
0.0
 71
0
 42
2.5
  3
OpenSans-LightItalic.ttf
  4

  0
STYLE
  5
43
330
5
100
AcDbSymbolTableRecord
100
AcDbTextStyleTableRecord
  2
OpenSans
 70
0
 40
0.0
 41
1.0
 50
0.0
 71
0
 42
2.5
  3
OpenSans-Regular.ttf
  4

  0
STYLE
  5
44
330
5
100
AcDbSymbolTableRecord
100
AcDbTextStyleTableRecord
  2
OpenSans-Italic
 70
0
 40
0.0
 41
1.0
 50
0.0
 71
0
 42
2.5
  3
OpenSans-Italic.ttf
  4

  0
STYLE
  5
45
330
5
100
AcDbSymbolTableRecord
100
AcDbTextStyleTableRecord
  2
OpenSans-SemiBold
 70
0
 40
0.0
 41
1.0
 50
0.0
 71
0
 42
2.5
  3
OpenSans-SemiBold.ttf
  4

  0
STYLE
  5
46
330
5
100
AcDbSymbolTableRecord
100
AcDbTextStyleTableRecord
  2
OpenSans-SemiBoldItalic
 70
0
 40
0.0
 41
1.0
 50
0.0
 71
0
 42
2.5
  3
OpenSans-SemiBoldItalic.ttf
  4

  0
STYLE
  5
47
330
5
100
AcDbSymbolTableRecord
100
AcDbTextStyleTableRecord
  2
OpenSans-Bold
 70
0
 40
0.0
 41
1.0
 50
0.0
 71
0
 42
2.5
  3
OpenSans-Bold.ttf
  4

  0
STYLE
  5
48
330
5
100
AcDbSymbolTableRecord
100
AcDbTextStyleTableRecord
  2
OpenSans-BoldItalic
 70
0
 40
0.0
 41
1.0
 50
0.0
 71
0
 42
2.5
  3
OpenSans-BoldItalic.ttf
  4

  0
STYLE
  5
49
330
5
100
AcDbSymbolTableRecord
100
AcDbTextStyleTableRecord
  2
OpenSans-ExtraBold
 70
0
 40
0.0
 41
1.0
 50
0.0
 71
0
 42
2.5
  3
OpenSans-ExtraBold.ttf
  4

  0
STYLE
  5
4A
330
5
100
AcDbSymbolTableRecord
100
AcDbTextStyleTableRecord
  2
OpenSans-ExtraBoldItalic
 70
0
 40
0.0
 41
1.0
 50
0.0
 71
0
 42
2.5
  3
OpenSans-ExtraBoldItalic.ttf
  4

  0
STYLE
  5
4B
330
5
100
AcDbSymbolTableRecord
100
AcDbTextStyleTableRecord
  2
OpenSansCondensed-Bold
 70
0
 40
0.0
 41
1.0
 50
0.0
 71
0
 42
2.5
  3
OpenSansCondensed-Bold.ttf
  4

  0
STYLE
  5
4C
330
5
100
AcDbSymbolTableRecord
100
AcDbTextStyleTableRecord
  2
OpenSansCondensed-Light
 70
0
 40
0.0
 41
1.0
 50
0.0
 71
0
 42
2.5
  3
OpenSansCondensed-Light.ttf
  4

  0
STYLE
  5
4D
330
5
100
AcDbSymbolTableRecord
100
AcDbTextStyleTableRecord
  2
OpenSansCondensed-Italic
 70
0
 40
0.0
 41
1.0
 50
0.0
 71
0
 42
2.5
  3
OpenSansCondensed-LightItalic.ttf
  4

  0
STYLE
  5
4E
330
5
100
AcDbSymbolTableRecord
100
AcDbTextStyleTableRecord
  2
LiberationSans
 70
0
 40
0.0
 41
1.0
 50
0.0
 71
0
 42
2.5
  3
LiberationSans-Regular.ttf
  4

  0
STYLE
  5
4F
330
5
100
AcDbSymbolTableRecord
100
AcDbTextStyleTableRecord
  2
LiberationSans-Bold
 70
0
 40
0.0
 41
1.0
 50
0.0
 71
0
 42
2.5
  3
LiberationSans-Bold.ttf
  4

  0
STYLE
  5
50
330
5
100
AcDbSymbolTableRecord
100
AcDbTextStyleTableRecord
  2
LiberationSans-BoldItalic
 70
0
 40
0.0
 41
1.0
 50
0.0
 71
0
 42
2.5
  3
LiberationSans-BoldItalic.ttf
  4

  0
STYLE
  5
51
330
5
100
AcDbSymbolTableRecord
100
AcDbTextStyleTableRecord
  2
LiberationSans-Italic
 70
0
 40
0.0
 41
1.0
 50
0.0
 71
0
 42
2.5
  3
LiberationSans-Italic.ttf
  4

  0
STYLE
  5
52
330
5
100
AcDbSymbolTableRecord
100
AcDbTextStyleTableRecord
  2
LiberationSerif
 70
0
 40
0.0
 41
1.0
 50
0.0
 71
0
 42
2.5
  3
LiberationSerif-Regular.ttf
  4

  0
STYLE
  5
53
330
5
100
AcDbSymbolTableRecord
100
AcDbTextStyleTableRecord
  2
LiberationSerif-Bold
 70
0
 40
0.0
 41
1.0
 50
0.0
 71
0
 42
2.5
  3
LiberationSerif-Bold.ttf
  4

  0
STYLE
  5
54
330
5
100
AcDbSymbolTableRecord
100
AcDbTextStyleTableRecord
  2
LiberationSerif-BoldItalic
 70
0
 40
0.0
 41
1.0
 50
0.0
 71
0
 42
2.5
  3
LiberationSerif-BoldItalic.ttf
  4

  0
STYLE
  5
55
330
5
100
AcDbSymbolTableRecord
100
AcDbTextStyleTableRecord
  2
LiberationSerif-Italic
 70
0
 40
0.0
 41
1.0
 50
0.0
 71
0
 42
2.5
  3
LiberationSerif-Italic.ttf
  4

  0
STYLE
  5
56
330
5
100
AcDbSymbolTableRecord
100
AcDbTextStyleTableRecord
  2
LiberationMono
 70
0
 40
0.0
 41
1.0
 50
0.0
 71
0
 42
2.5
  3
LiberationMono-Regular.ttf
  4

  0
STYLE
  5
57
330
5
100
AcDbSymbolTableRecord
100
AcDbTextStyleTableRecord
  2
LiberationMono-Bold
 70
0
 40
0.0
 41
1.0
 50
0.0
 71
0
 42
2.5
  3
LiberationMono-Bold.ttf
  4

  0
STYLE
  5
58
330
5
100
AcDbSymbolTableRecord
100
AcDbTextStyleTableRecord
  2
LiberationMono-BoldItalic
 70
0
 40
0.0
 41
1.0
 50
0.0
 71
0
 42
2.5
  3
LiberationMono-BoldItalic.ttf
  4

  0
STYLE
  5
59
330
5
100
AcDbSymbolTableRecord
100
AcDbTextStyleTableRecord
  2
LiberationMono-Italic
 70
0
 40
0.0
 41
1.0
 50
0.0
 71
0
 42
2.5
  3
LiberationMono-Italic.ttf
  4

  0
STYLE
  5
AC
330
5
100
AcDbSymbolTableRecord
100
AcDbTextStyleTableRecord
  2
ARIAL-N
 70
0
 40
0.0
 41
1.0
 50
0.0
 71
0
 42
2.5
  3
arialn.ttf
  4

  0
ENDTAB
  0
TABLE
  2
VIEW
  5
7
330
0
100
AcDbSymbolTable
 70
0
  0
ENDTAB
  0
TABLE
  2
UCS
  5
6
330
0
100
AcDbSymbolTable
 70
0
  0
ENDTAB
  0
TABLE
  2
APPID
  5
3
330
0
100
AcDbSymbolTable
 70
3
  0
APPID
  5
2A
330
3
100
AcDbSymbolTableRecord
100
AcDbRegAppTableRecord
  2
ACAD
 70
0
  0
APPID
  5
244
330
3
100
AcDbSymbolTableRecord
100
AcDbRegAppTableRecord
  2
HATCHBACKGROUNDCOLOR
 70
0
  0
APPID
  5
245
330
3
100
AcDbSymbolTableRecord
100
AcDbRegAppTableRecord
  2
EZDXF
 70
0
  0
ENDTAB
  0
TABLE
  2
DIMSTYLE
  5
4
330
0
100
AcDbSymbolTable
 70
12
100
AcDbDimStyleTable
  0
DIMSTYLE
105
2B
330
4
100
AcDbSymbolTableRecord
100
AcDbDimStyleTableRecord
  2
Standard
 70
0
 40
1.0
 41
2.5
 42
0.625
 43
3.75
 44
1.25
 45
0.0
 46
0.0
 47
0.0
 48
0.0
 49
2.5
140
2.5
141
2.5
142
0.0
143
0.03937007874
144
1.0
145
0.0
146
1.0
147
0.625
148
0.0
 69
0
 70
0
 71
0
 72
0
 73
0
 74
0
 75
0
 76
0
 77
1
 78
8
 79
3
170
0
171
3
172
1
173
0
174
0
175
0
176
0
177
0
178
0
179
2
271
2
272
2
273
2
274
3
275
0
276
0
277
2
278
44
279
0
280
0
281
0
282
0
283
0
284
8
285
0
286
0
288
0
289
3
290
0
371
-2
372
-2
  0
DIMSTYLE
105
73
330
4
100
AcDbSymbolTableRecord
100
AcDbDimStyleTableRecord
  2
EZDXF
 70
0
 40
1.0
 41
0.175
 42
0.125
 43
3.75
 44
0.375
 45
0.0
 46
0.0
 47
0.0
 48
0.0
 49
2.5
140
0.25
141
2.5
142
0.0
143
0.03937007874
144
100.0
145
0.0
146
0.5
147
0.1
148
0.0
 69
0
 70
0
 71
0
 72
0
 73
0
 74
0
 75
0
 76
0
 77
1
 78
12
 79
3
170
0
171
3
172
1
173
0
174
0
175
0
176
0
177
0
178
0
179
2
271
2
272
2
273
2
274
3
275
0
276
0
277
2
278
46
279
2
280
0
281
0
282
0
283
0
284
8
285
0
286
0
288
1
289
3
290
0
340
4C
342
74
371
-2
372
-2
  0
DIMSTYLE
105
7C
330
4
100
AcDbSymbolTableRecord
100
AcDbDimStyleTableRecord
  2
EZ_M_100_H25_CM
 70
0
 40
1.0
 41
0.25
 42
0.125
 43
3.75
 44
0.375
 45
0.0
 46
0.0
 47
0.0
 48
0.0
 49
2.5
140
0.25
141
2.5
142
0.125
143
0.03937007874
144
100.0
145
0.0
146
0.5
147
0.1
148
0.0
 69
0
 70
0
 71
0
 72
0
 73
0
 74
0
 75
0
 76
0
 77
1
 78
12
 79
3
170
0
171
3
172
1
173
0
174
0
175
0
176
0
177
0
178
0
179
2
271
2
272
2
273
2
274
3
275
0
276
0
277
2
278
46
279
2
280
0
281
0
282
0
283
0
284
8
285
0
286
0
288
1
289
3
290
0
340
4C
371
-2
372
-2
  0
DIMSTYLE
105
7D
330
4
100
AcDbSymbolTableRecord
100
AcDbDimStyleTableRecord
  2
EZ_M_50_H25_CM
 70
0
 40
1.0
 41
0.125
 42
0.0625
 43
3.75
 44
0.1875
 45
0.0
 46
0.0
 47
0.0
 48
0.0
 49
2.5
140
0.125
141
2.5
142
0.0625
143
0.03937007874
144
100.0
145
0.0
146
0.5
147
0.05
148
0.0
 69
0
 70
0
 71
0
 72
0
 73
0
 74
0
 75
0
 76
0
 77
1
 78
12
 79
3
170
0
171
3
172
1
173
0
174
0
175
0
176
0
177
0
178
0
179
2
271
2
272
2
273
2
274
3
275
0
276
0
277
2
278
46
279
2
280
0
281
0
282
0
283
0
284
8
285
0
286
0
288
1
289
3
290
0
340
4C
371
-2
372
-2
  0
DIMSTYLE
105
7E
330
4
100
AcDbSymbolTableRecord
100
AcDbDimStyleTableRecord
  2
EZ_M_25_H25_CM
 70
0
 40
1.0
 41
0.0625
 42
0.03125
 43
3.75
 44
0.09375
 45
0.0
 46
0.0
 47
0.0
 48
0.0
 49
2.5
140
0.0625
141
2.5
142
0.03125
143
0.03937007874
144
100.0
145
0.0
146
0.5
147
0.025
148
0.0
 69
0
 70
0
 71
0
 72
0
 73
0
 74
0
 75
0
 76
0
 77
1
 78
12
 79
3
170
0
171
3
172
1
173
0
174
0
175
0
176
0
177
0
178
0
179
2
271
2
272
2
273
2
274
3
275
0
276
0
277
2
278
46
279
2
280
0
281
0
282
0
283
0
284
8
285
0
286
0
288
1
289
3
290
0
340
4C
371
-2
372
-2
  0
DIMSTYLE
105
7F
330
4
100
AcDbSymbolTableRecord
100
AcDbDimStyleTableRecord
  2
EZ_M_20_H25_CM
 70
0
 40
1.0
 41
0.05
 42
0.025
 43
3.75
 44
0.07500000000000001
 45
0.0
 46
0.0
 47
0.0
 48
0.0
 49
2.5
140
0.05
141
2.5
142
0.025
143
0.03937007874
144
100.0
145
0.0
146
0.5
147
0.020000000000000004
148
0.0
 69
0
 70
0
 71
0
 72
0
 73
0
 74
0
 75
0
 76
0
 77
1
 78
12
 79
3
170
0
171
3
172
1
173
0
174
0
175
0
176
0
177
0
178
0
179
2
271
2
272
2
273
2
274
3
275
0
276
0
277
2
278
46
279
2
280
0
281
0
282
0
283
0
284
8
285
0
286
0
288
1
289
3
290
0
340
4C
371
-2
372
-2
  0
DIMSTYLE
105
80
330
4
100
AcDbSymbolTableRecord
100
AcDbDimStyleTableRecord
  2
EZ_M_10_H25_CM
 70
0
 40
1.0
 41
0.025
 42
0.0125
 43
3.75
 44
0.037500000000000006
 45
0.0
 46
0.0
 47
0.0
 48
0.0
 49
2.5
140
0.025
141
2.5
142
0.0125
143
0.03937007874
144
100.0
145
0.0
146
0.5
147
0.010000000000000002
148
0.0
 69
0
 70
0
 71
0
 72
0
 73
0
 74
0
 75
0
 76
0
 77
1
 78
12
 79
3
170
0
171
3
172
1
173
0
174
0
175
0
176
0
177
0
178
0
179
2
271
2
272
2
273
2
274
3
275
0
276
0
277
2
278
46
279
2
280
0
281
0
282
0
283
0
284
8
285
0
286
0
288
1
289
3
290
0
340
4C
371
-2
372
-2
  0
DIMSTYLE
105
81
330
4
100
AcDbSymbolTableRecord
100
AcDbDimStyleTableRecord
  2
EZ_M_5_H25_CM
 70
0
 40
1.0
 41
0.0125
 42
0.00625
 43
3.75
 44
0.018750000000000003
 45
0.0
 46
0.0
 47
0.0
 48
0.0
 49
2.5
140
0.0125
141
2.5
142
0.00625
143
0.03937007874
144
100.0
145
0.0
146
0.5
147
0.005000000000000001
148
0.0
 69
0
 70
0
 71
0
 72
0
 73
0
 74
0
 75
0
 76
0
 77
1
 78
12
 79
3
170
0
171
3
172
1
173
0
174
0
175
0
176
0
177
0
178
0
179
2
271
2
272
2
273
2
274
3
275
0
276
0
277
2
278
46
279
2
280
0
281
0
282
0
283
0
284
8
285
0
286
0
288
1
289
3
290
0
340
4C
371
-2
372
-2
  0
DIMSTYLE
105
82
330
4
100
AcDbSymbolTableRecord
100
AcDbDimStyleTableRecord
  2
EZ_M_1_H25_CM
 70
0
 40
1.0
 41
0.0025
 42
0.00125
 43
3.75
 44
0.00375
 45
0.0
 46
0.0
 47
0.0
 48
0.0
 49
2.5
140
0.0025
141
2.5
142
0.00125
143
0.03937007874
144
100.0
145
0.0
146
0.5
147
0.001
148
0.0
 69
0
 70
0
 71
0
 72
0
 73
0
 74
0
 75
0
 76
0
 77
1
 78
12
 79
3
170
0
171
3
172
1
173
0
174
0
175
0
176
0
177
0
178
0
179
2
271
2
272
2
273
2
274
3
275
0
276
0
277
2
278
46
279
2
280
0
281
0
282
0
283
0
284
8
285
0
286
0
288
1
289
3
290
0
340
4C
371
-2
372
-2
  0
DIMSTYLE
105
83
330
4
100
AcDbSymbolTableRecord
100
AcDbDimStyleTableRecord
  2
EZ_RADIUS
 70
0
 40
1.0
 41
0.25
 42
0.125
 43
3.75
 44
0.375
 45
0.0
 46
0.0
 47
0.0
 48
0.0
 49
2.5
140
0.25
141
0.0
142
0.0
143
0.03937007874
144
100.0
145
0.0
146
0.5
147
0.1
148
0.0
 69
0
 70
0
 71
0
 72
0
 73
0
 74
0
 75
0
 76
0
 77
1
 78
12
 79
3
170
0
171
3
172
0
173
0
174
0
175
0
176
0
177
0
178
0
179
2
271
2
272
2
273
2
274
3
275
0
276
0
277
2
278
46
279
1
280
0
281
0
282
0
283
0
284
8
285
0
286
0
288
1
289
3
290
0
340
4C
342
84
371
-2
372
-2
  0
DIMSTYLE
105
88
330
4
100
AcDbSymbolTableRecord
100
AcDbDimStyleTableRecord
  2
EZ_RADIUS_INSIDE
 70
0
 40
1.0
 41
0.25
 42
0.125
 43
3.75
 44
0.375
 45
0.0
 46
0.0
 47
0.0
 48
0.0
 49
2.5
140
0.25
141
0.0
142
0.0
143
0.03937007874
144
100.0
145
0.0
146
0.5
147
0.1
148
0.0
 69
0
 70
0
 71
0
 72
0
 73
0
 74
0
 75
0
 76
0
 77
0
 78
12
 79
3
170
0
171
3
172
0
173
0
174
1
175
0
176
0
177
0
178
0
179
2
271
2
272
2
273
2
274
3
275
0
276
0
277
2
278
46
279
0
280
0
281
0
282
0
283
0
284
8
285
0
286
0
288
1
289
0
290
0
340
4C
342
84
371
-2
372
-2
  0
DIMSTYLE
105
89
330
4
100
AcDbSymbolTableRecord
100
AcDbDimStyleTableRecord
  2
EZ_CURVED
 70
0
 40
1.0
 41
0.25
 42
0.125
 43
3.75
 44
0.375
 45
0.0
 46
0.0
 47
0.0
 48
0.0
 49
2.5
140
0.25
141
2.5
142
0.0
143
0.03937007874
144
100.0
145
0.0
146
0.5
147
0.1
148
0.0
 69
0
 70
0
 71
0
 72
0
 73
0
 74
0
 75
0
 76
0
 77
1
 78
12
 79
2
 90
2
170
0
171
3
172
1
173
0
174
0
175
0
176
0
177
0
178
0
179
2
271
2
272
2
273
2
274
3
275
0
276
0
277
2
278
46
279
2
280
0
281
0
282
0
283
0
284
8
285
0
286
0
288
1
289
3
290
0
340
4C
371
-2
372
-2
  0
ENDTAB
  0
TABLE
  2
BLOCK_RECORD
  5
9
330
0
100
AcDbSymbolTable
 70
5
  0
BLOCK_RECORD
  5
17
330
9
100
AcDbSymbolTableRecord
100
AcDbBlockTableRecord
  2
*Model_Space
340
1A
 70
0
280
1
281
0
  0
BLOCK_RECORD
  5
1B
330
9
100
AcDbSymbolTableRecord
100
AcDbBlockTableRecord
  2
*Paper_Space
340
1E
 70
0
280
1
281
0
  0
BLOCK_RECORD
  5
74
330
9
100
AcDbSymbolTableRecord
100
AcDbBlockTableRecord
  2
_ARCHTICK
340
0
 70
0
280
1
281
0
  0
BLOCK_RECORD
  5
78
330
9
100
AcDbSymbolTableRecord
100
AcDbBlockTableRecord
  2
_CLOSEDFILLED
340
0
 70
0
280
1
281
0
  0
BLOCK_RECORD
  5
84
330
9
100
AcDbSymbolTableRecord
100
AcDbBlockTableRecord
  2
_CLOSEDBLANK
340
0
 70
0
280
1
281
0
  0
ENDTAB
  0
ENDSEC
  0
SECTION
  2
BLOCKS
  0
BLOCK
  5
18
330
17
100
AcDbEntity
  8
0
100
AcDbBlockBegin
  2
*Model_Space
 70
0
 10
0.0
 20
0.0
 30
0.0
  3
*Model_Space
  1

  0
ENDBLK
  5
19
330
17
100
AcDbEntity
  8
0
100
AcDbBlockEnd
  0
BLOCK
  5
1C
330
1B
100
AcDbEntity
  8
0
100
AcDbBlockBegin
  2
*Paper_Space
 70
0
 10
0.0
 20
0.0
 30
0.0
  3
*Paper_Space
  1

  0
ENDBLK
  5
1D
330
1B
100
AcDbEntity
  8
0
100
AcDbBlockEnd
  0
BLOCK
  5
75
330
74
100
AcDbEntity
  8
0
100
AcDbBlockBegin
  2
_ARCHTICK
 70
0
 10
0.0
 20
0.0
 30
0.0
  3
_ARCHTICK
  1

  0
LWPOLYLINE
  5
77
330
74
100
AcDbEntity
  8
0
  6
BYBLOCK
 62
0
100
AcDbPolyline
 90
2
 70
0
 43
0.15
 10
-0.5
 20
-0.5
 10
0.5
 20
0.5
  0
ENDBLK
  5
76
330
74
100
AcDbEntity
  8
0
100
AcDbBlockEnd
  0
BLOCK
  5
79
330
78
100
AcDbEntity
  8
0
100
AcDbBlockBegin
  2
_CLOSEDFILLED
 70
0
 10
0.0
 20
0.0
 30
0.0
  3
_CLOSEDFILLED
  1

  0
SOLID
  5
7B
330
78
100
AcDbEntity
  8
0
  6
BYBLOCK
 62
0
100
AcDbTrace
 10
-1.0
 20
0.16439898372402537
 30
0.0
 11
0.0
 21
0.0
 31
0.0
 12
-1.0
 22
-0.16439898372402537
 32
0.0
 13
-1.0
 23
-0.16439898372402537
 33
0.0
  0
ENDBLK
  5
7A
330
78
100
AcDbEntity
  8
0
100
AcDbBlockEnd
  0
BLOCK
  5
85
330
84
100
AcDbEntity
  8
0
100
AcDbBlockBegin
  2
_CLOSEDBLANK
 70
0
 10
0.0
 20
0.0
 30
0.0
  3
_CLOSEDBLANK
  1

  0
LWPOLYLINE
  5
87
330
84
100
AcDbEntity
  8
0
  6
BYBLOCK
 62
0
100
AcDbPolyline
 90
3
 70
1
 10
-1.0
 20
0.16439898372402537
 10
0.0
 20
0.0
 10
-1.0
 20
-0.16439898372402537
  0
ENDBLK
  5
86
330
84
100
AcDbEntity
  8
0
100
AcDbBlockEnd
  0
ENDSEC
  0
SECTION
  2
ENTITIES
  0
LWPOLYLINE
  5
AD
330
17
100
AcDbEntity
  8
0-SHEET
100
AcDbPolyline
 90
4
 70
1
 10
5.0
 20
5.0
 10
415.0
 20
5.0
 10
415.0
 20
292.0
 10
5.0
 20
292.0
  0
LINE
  5
AE
330
17
100
AcDbEntity
  8
0-TITLE
100
AcDbLine
 10
5.0
 20
31.5
 30
0.0
 11
415.0
 21
31.5
 31
0.0
  0
LINE
  5
AF
330
17
100
AcDbEntity
  8
0-TITLE
100
AcDbLine
 10
5.0
 20
12.0
 30
0.0
 11
415.0
 21
12.0
 31
0.0
  0
LINE
  5
B0
330
17
100
AcDbEntity
  8
0-TITLE
100
AcDbLine
 10
97.0
 20
12.0
 30
0.0
 11
97.0
 21
31.5
 31
0.0
  0
LINE
  5
B1
330
17
100
AcDbEntity
  8
0-TITLE
100
AcDbLine
 10
219.0
 20
12.0
 30
0.0
 11
219.0
 21
31.5
 31
0.0
  0
LINE
  5
B2
330
17
100
AcDbEntity
  8
0-TITLE
100
AcDbLine
 10
287.0
 20
12.0
 30
0.0
 11
287.0
 21
31.5
 31
0.0
  0
LINE
  5
B3
330
17
100
AcDbEntity
  8
0-TITLE
100
AcDbLine
 10
345.0
 20
12.0
 30
0.0
 11
345.0
 21
31.5
 31
0.0
  0
LINE
  5
B4
330
17
100
AcDbEntity
  8
0-TITLE
100
AcDbLine
 10
5.0
 20
18.5
 30
0.0
 11
219.0
 21
18.5
 31
0.0
  0
LINE
  5
B5
330
17
100
AcDbEntity
  8
0-TITLE
100
AcDbLine
 10
5.0
 20
25.0
 30
0.0
 11
219.0
 21
25.0
 31
0.0
  0
TEXT
  5
B6
330
17
100
AcDbEntity
  8
0-TITLE-TXT
100
AcDbText
 10
6.5
 20
28.25
 30
0.0
 40
1.9
  1
PROJECT TYPE :
 11
6.5
 21
28.25
 31
0.0
100
AcDbText
 73
2
  0
TEXT
  5
B7
330
17
100
AcDbEntity
  8
0-TITLE-TXT
100
AcDbText
 10
95.5
 20
28.25
 30
0.0
 40
1.9
  1
DESIGN & BUILD
 72
2
 11
95.5
 21
28.25
 31
0.0
100
AcDbText
 73
2
  0
TEXT
  5
B8
330
17
100
AcDbEntity
  8
0-TITLE-TXT
100
AcDbText
 10
6.5
 20
21.75
 30
0.0
 40
1.9
  1
PROJECT :
 11
6.5
 21
21.75
 31
0.0
100
AcDbText
 73
2
  0
TEXT
  5
B9
330
17
100
AcDbEntity
  8
0-TITLE-TXT
100
AcDbText
 10
95.5
 20
21.75
 30
0.0
 40
1.9
  1
HANA RESIDENCE, TROPICANA AMAN
 72
2
 11
95.5
 21
21.75
 31
0.0
100
AcDbText
 73
2
  0
TEXT
  5
BA
330
17
100
AcDbEntity
  8
0-TITLE-TXT
100
AcDbText
 10
6.5
 20
15.25
 30
0.0
 40
1.9
  1
CLIENT :
 11
6.5
 21
15.25
 31
0.0
100
AcDbText
 73
2
  0
TEXT
  5
BB
330
17
100
AcDbEntity
  8
0-TITLE-TXT
100
AcDbText
 10
95.5
 20
15.25
 30
0.0
 40
1.9
  1
MS SHEON & MR TEE
 72
2
 11
95.5
 21
15.25
 31
0.0
100
AcDbText
 73
2
  0
LINE
  5
BC
330
17
100
AcDbEntity
  8
0-TITLE
100
AcDbLine
 10
158.0
 20
18.5
 30
0.0
 11
158.0
 21
25.0
 31
0.0
  0
TEXT
  5
BD
330
17
100
AcDbEntity
  8
0-TITLE-TXT
100
AcDbText
 10
98.5
 20
28.25
 30
0.0
 40
1.9
  1
DRAWING TITLE :
 11
98.5
 21
28.25
 31
0.0
100
AcDbText
 73
2
  0
TEXT
  5
BE
330
17
100
AcDbEntity
  8
0-TITLE-TXT
100
AcDbText
 10
217.5
 20
28.25
 30
0.0
 40
1.9
  1
DRY KITCHEN DRINK COUNTER & STORAGE WALL ELEVATION
 72
2
 11
217.5
 21
28.25
 31
0.0
100
AcDbText
 73
2
  0
TEXT
  5
BF
330
17
100
AcDbEntity
  8
0-TITLE-TXT
100
AcDbText
 10
98.5
 20
21.75
 30
0.0
 40
1.9
  1
INTERIOR DESIGNER :
 11
98.5
 21
21.75
 31
0.0
100
AcDbText
 73
2
  0
TEXT
  5
C0
330
17
100
AcDbEntity
  8
0-TITLE-TXT
100
AcDbText
 10
156.5
 20
21.75
 30
0.0
 40
1.9
  1
YANXIANG & YS
 72
2
 11
156.5
 21
21.75
 31
0.0
100
AcDbText
 73
2
  0
TEXT
  5
C1
330
17
100
AcDbEntity
  8
0-TITLE-TXT
100
AcDbText
 10
159.5
 20
21.75
 30
0.0
 40
1.9
  1
SALE PERSON :
 11
159.5
 21
21.75
 31
0.0
100
AcDbText
 73
2
  0
TEXT
  5
C2
330
17
100
AcDbEntity
  8
0-TITLE-TXT
100
AcDbText
 10
217.5
 20
21.75
 30
0.0
 40
1.9
  1
RAYMOND
 72
2
 11
217.5
 21
21.75
 31
0.0
100
AcDbText
 73
2
  0
TEXT
  5
C3
330
17
100
AcDbEntity
  8
0-TITLE-TXT
100
AcDbText
 10
98.5
 20
15.25
 30
0.0
 40
1.9
  1
CHECK BY :
 11
98.5
 21
15.25
 31
0.0
100
AcDbText
 73
2
  0
TEXT
  5
C4
330
17
100
AcDbEntity
  8
0-TITLE-TXT
100
AcDbText
 10
156.5
 20
15.25
 30
0.0
 40
1.9
  1
RAYMOND
 72
2
 11
156.5
 21
15.25
 31
0.0
100
AcDbText
 73
2
  0
TEXT
  5
C5
330
17
100
AcDbEntity
  8
0-TITLE-TXT
100
AcDbText
 10
217.5
 20
15.25
 30
0.0
 40
1.9
  1
ID.02.05
 72
2
 11
217.5
 21
15.25
 31
0.0
100
AcDbText
 73
2
  0
TEXT
  5
C6
330
17
100
AcDbEntity
  8
0-TITLE-TXT
100
AcDbText
 10
220.2
 20
29.9
 30
0.0
 40
1.8
  1
DRAWING'S STATUS :
 11
220.2
 21
29.9
 31
0.0
100
AcDbText
 73
2
  0
LINE
  5
C7
330
17
100
AcDbEntity
  8
0-TITLE
100
AcDbLine
 10
219.0
 20
28.3
 30
0.0
 11
287.0
 21
28.3
 31
0.0
  0
LINE
  5
C8
330
17
100
AcDbEntity
  8
0-TITLE
100
AcDbLine
 10
255.0
 20
12.0
 30
0.0
 11
255.0
 21
28.3
 31
0.0
  0
TEXT
  5
C9
330
17
100
AcDbEntity
  8
0-TITLE-TXT
100
AcDbText
 10
220.2
 20
26.67
 30
0.0
 40
1.45
  1
1ST DRAFT (R0)
 11
220.2
 21
26.67
 31
0.0
100
AcDbText
 73
2
  0
TEXT
  5
CA
330
17
100
AcDbEntity
  8
0-TITLE-TXT
100
AcDbText
 10
256.2
 20
26.67
 30
0.0
 40
1.45
  1
09 OCT' 26
 11
256.2
 21
26.67
 31
0.0
100
AcDbText
 73
2
  0
TEXT
  5
CB
330
17
100
AcDbEntity
  8
0-TITLE-TXT
100
AcDbText
 10
220.2
 20
23.41
 30
0.0
 40
1.45
  1
AMENDMENT 01
 11
220.2
 21
23.41
 31
0.0
100
AcDbText
 73
2
  0
TEXT
  5
CC
330
17
100
AcDbEntity
  8
0-TITLE-TXT
100
AcDbText
 10
256.2
 20
23.41
 30
0.0
 40
1.45
  1

 11
256.2
 21
23.41
 31
0.0
100
AcDbText
 73
2
  0
LINE
  5
CD
330
17
100
AcDbEntity
  8
0-TITLE
100
AcDbLine
 10
219.0
 20
25.04
 30
0.0
 11
287.0
 21
25.04
 31
0.0
  0
TEXT
  5
CE
330
17
100
AcDbEntity
  8
0-TITLE-TXT
100
AcDbText
 10
220.2
 20
20.15
 30
0.0
 40
1.45
  1
AMENDMENT 02
 11
220.2
 21
20.15
 31
0.0
100
AcDbText
 73
2
  0
TEXT
  5
CF
330
17
100
AcDbEntity
  8
0-TITLE-TXT
100
AcDbText
 10
256.2
 20
20.15
 30
0.0
 40
1.45
  1

 11
256.2
 21
20.15
 31
0.0
100
AcDbText
 73
2
  0
LINE
  5
D0
330
17
100
AcDbEntity
  8
0-TITLE
100
AcDbLine
 10
219.0
 20
21.78
 30
0.0
 11
287.0
 21
21.78
 31
0.0
  0
TEXT
  5
D1
330
17
100
AcDbEntity
  8
0-TITLE-TXT
100
AcDbText
 10
220.2
 20
16.89
 30
0.0
 40
1.45
  1
AMENDMENT 03
 11
220.2
 21
16.89
 31
0.0
100
AcDbText
 73
2
  0
TEXT
  5
D2
330
17
100
AcDbEntity
  8
0-TITLE-TXT
100
AcDbText
 10
256.2
 20
16.89
 30
0.0
 40
1.45
  1

 11
256.2
 21
16.89
 31
0.0
100
AcDbText
 73
2
  0
LINE
  5
D3
330
17
100
AcDbEntity
  8
0-TITLE
100
AcDbLine
 10
219.0
 20
18.52
 30
0.0
 11
287.0
 21
18.52
 31
0.0
  0
TEXT
  5
D4
330
17
100
AcDbEntity
  8
0-TITLE-TXT
100
AcDbText
 10
220.2
 20
13.629999999999999
 30
0.0
 40
1.45
  1
AMENDMENT 04
 11
220.2
 21
13.629999999999999
 31
0.0
100
AcDbText
 73
2
  0
TEXT
  5
D5
330
17
100
AcDbEntity
  8
0-TITLE-TXT
100
AcDbText
 10
256.2
 20
13.629999999999999
 30
0.0
 40
1.45
  1

 11
256.2
 21
13.629999999999999
 31
0.0
100
AcDbText
 73
2
  0
LINE
  5
D6
330
17
100
AcDbEntity
  8
0-TITLE
100
AcDbLine
 10
219.0
 20
15.26
 30
0.0
 11
287.0
 21
15.26
 31
0.0
  0
TEXT
  5
D7
330
17
100
AcDbEntity
  8
0-TITLE-TXT
100
AcDbText
 10
288.2
 20
29.9
 30
0.0
 40
1.4
  1
ALL DRAWINGS ARE COPY-RIGHT OF:
 11
288.2
 21
29.9
 31
0.0
100
AcDbText
 73
2
  0
TEXT
  5
D8
330
17
100
AcDbEntity
  8
0-TITLE-TXT
100
AcDbText
 10
289.0
 20
18.0
 30
0.0
 40
5.6
  1
groo
 11
289.0
 21
18.0
 31
0.0
100
AcDbText
  0
TEXT
  5
D9
330
17
100
AcDbEntity
  8
0-TITLE-TXT
100
AcDbText
 10
293.0
 20
14.6
 30
0.0
 40
1.8
  1
space
 11
293.0
 21
14.6
 31
0.0
100
AcDbText
  0
TEXT
  5
DA
330
17
100
AcDbEntity
  8
0-TITLE-TXT
100
AcDbText
 10
309.5
 20
26.9
 30
0.0
 40
1.12
  1
GROO SPACE SDN BHD (1662567-V)
 11
309.5
 21
26.9
 31
0.0
100
AcDbText
 73
2
  0
TEXT
  5
DB
330
17
100
AcDbEntity
  8
0-TITLE-TXT
100
AcDbText
 10
309.5
 20
24.299999999999997
 30
0.0
 40
1.12
  1
LEVEL 3A, WISMA JAG, JALAN DESA UTAMA,
 11
309.5
 21
24.299999999999997
 31
0.0
100
AcDbText
 73
2
  0
TEXT
  5
DC
330
17
100
AcDbEntity
  8
0-TITLE-TXT
100
AcDbText
 10
309.5
 20
21.7
 30
0.0
 40
1.12
  1
TAMAN DESA, 58100 KUALA LUMPUR
 11
309.5
 21
21.7
 31
0.0
100
AcDbText
 73
2
  0
TEXT
  5
DD
330
17
100
AcDbEntity
  8
0-TITLE-TXT
100
AcDbText
 10
309.5
 20
19.099999999999998
 30
0.0
 40
1.12
  1
T: +6016-913 6785 / +6012-528 7212
 11
309.5
 21
19.099999999999998
 31
0.0
100
AcDbText
 73
2
  0
TEXT
  5
DE
330
17
100
AcDbEntity
  8
0-TITLE-TXT
100
AcDbText
 10
309.5
 20
16.5
 30
0.0
 40
1.12
  1
E: groospacemy@gmail.com  IG: @groospace.my
 11
309.5
 21
16.5
 31
0.0
100
AcDbText
 73
2
  0
TEXT
  5
DF
330
17
100
AcDbEntity
  8
0-TITLE-TXT
100
AcDbText
 10
346.2
 20
29.9
 30
0.0
 40
1.8
  1
CLIENTS ACKNOWLEDGE & SIGN :
 11
346.2
 21
29.9
 31
0.0
100
AcDbText
 73
2
  0
TEXT
  5
E0
330
17
100
AcDbEntity
  8
0-TITLE-TXT
100
AcDbText
 10
6.5
 20
9.7
 30
0.0
 40
1.55
  1
"NOTICE TO CONTRACTOR: DO NOT SCALE DRAWINGS. All dimensions and site levels must be Verified In Field (V.I.F.) before any fabrication or commencement of work.
 11
6.5
 21
9.7
 31
0.0
100
AcDbText
 73
2
  0
TEXT
  5
E1
330
17
100
AcDbEntity
  8
0-TITLE-TXT
100
AcDbText
 10
6.5
 20
7.1
 30
0.0
 40
1.55
  1
Any discrepancies between these drawings and actual site conditions must be reported to the Designer immediately for clarification. Failure to do so will be at the Contractor's own risk."
 11
6.5
 21
7.1
 31
0.0
100
AcDbText
 73
2
  0
LWPOLYLINE
  5
E2
330
17
100
AcDbEntity
  8
A-WALL
100
AcDbPolyline
 90
4
 70
1
 10
18.0
 20
73.78571428571429
 10
22.285714285714285
 20
73.78571428571429
 10
22.285714285714285
 20
181.78571428571428
 10
18.0
 20
181.78571428571428
  0
HATCH
  5
E3
330
17
100
AcDbEntity
  8
I-JOIN-HATCH
 62
7
100
AcDbHatch
 10
0.0
 20
0.0
 30
0.0
210
0.0
220
0.0
230
1.0
  2
ANSI31
 70
0
 71
0
 91
1
 92
3
 72
0
 73
1
 93
4
 10
18.0
 20
73.78571428571429
 10
22.285714285714285
 20
73.78571428571429
 10
22.285714285714285
 20
181.78571428571428
 10
18.0
 20
181.78571428571428
 97
0
 75
1
 76
1
 52
0.0
 41
1.8666666666666667
 77
0
 78
1
 53
45.0
 43
0.0
 44
0.0
 45
-4.1907861899
 46
4.1907861899
 79
0
 98
0
  0
LWPOLYLINE
  5
E4
330
17
100
AcDbEntity
  8
A-WALL
100
AcDbPolyline
 90
4
 70
1
 10
169.7142857142857
 20
73.78571428571429
 10
174.0
 20
73.78571428571429
 10
174.0
 20
181.78571428571428
 10
169.7142857142857
 20
181.78571428571428
  0
HATCH
  5
E5
330
17
100
AcDbEntity
  8
I-JOIN-HATCH
 62
7
100
AcDbHatch
 10
0.0
 20
0.0
 30
0.0
210
0.0
220
0.0
230
1.0
  2
ANSI31
 70
0
 71
0
 91
1
 92
3
 72
0
 73
1
 93
4
 10
169.7142857142857
 20
73.78571428571429
 10
174.0
 20
73.78571428571429
 10
174.0
 20
181.78571428571428
 10
169.7142857142857
 20
181.78571428571428
 97
0
 75
1
 76
1
 52
0.0
 41
1.8666666666666667
 77
0
 78
1
 53
45.0
 43
0.0
 44
0.0
 45
-4.1907861899
 46
4.1907861899
 79
0
 98
0
  0
LINE
  5
E6
330
17
100
AcDbEntity
  8
A-WALL
100
AcDbLine
 10
9.428571428571429
 20
75.5
 30
0.0
 11
182.57142857142856
 21
75.5
 31
0.0
  0
LINE
  5
E7
330
17
100
AcDbEntity
  8
I-CEIL
100
AcDbLine
 10
9.428571428571429
 20
178.35714285714283
 30
0.0
 11
182.57142857142856
 21
178.35714285714283
 31
0.0
  0
LWPOLYLINE
  5
E8
330
17
100
AcDbEntity
  8
I-NOTE
 62
1
100
AcDbPolyline
 90
3
 70
1
 10
194.0
 20
178.35714285714283
 10
192.8
 20
180.03714285714284
 10
195.2
 20
180.03714285714284
  0
TEXT
  5
E9
330
17
100
AcDbEntity
  8
I-TEXT
100
AcDbText
 10
192.0
 20
178.55714285714282
 30
0.0
 40
1.6
  1
CL 3600
 72
2
 11
192.0
 21
178.55714285714282
 31
0.0
100
AcDbText
 73
1
  0
LWPOLYLINE
  5
EA
330
17
100
AcDbEntity
  8
I-NOTE
 62
1
100
AcDbPolyline
 90
3
 70
1
 10
194.0
 20
75.5
 10
192.8
 20
77.18
 10
195.2
 20
77.18
  0
TEXT
  5
EB
330
17
100
AcDbEntity
  8
I-TEXT
100
AcDbText
 10
192.0
 20
75.7
 30
0.0
 40
1.6
  1
FFL 000
 72
2
 11
192.0
 21
75.7
 31
0.0
100
AcDbText
 73
1
  0
LWPOLYLINE
  5
EC
330
17
100
AcDbEntity
  8
I-JOIN-THIN
100
AcDbPolyline
 90
4
 70
1
 10
22.285714285714285
 20
75.5
 10
169.7142857142857
 20
75.5
 10
169.7142857142857
 20
78.35714285714286
 10
22.285714285714285
 20
78.35714285714286
  0
LWPOLYLINE
  5
ED
330
17
100
AcDbEntity
  8
I-JOIN-THIN
100
AcDbPolyline
 90
4
 70
1
 10
22.285714285714285
 20
177.78571428571428
 10
169.7142857142857
 20
177.78571428571428
 10
169.7142857142857
 20
178.35714285714283
 10
22.285714285714285
 20
178.35714285714283
  0
LWPOLYLINE
  5
EE
330
17
100
AcDbEntity
  8
I-JOIN-ELEV
100
AcDbPolyline
 90
4
 70
1
 10
22.285714285714285
 20
78.35714285714286
 10
46.57142857142857
 20
78.35714285714286
 10
46.57142857142857
 20
177.78571428571428
 10
22.285714285714285
 20
177.78571428571428
  0
TEXT
  5
EF
330
17
100
AcDbEntity
  8
I-TEXT
100
AcDbText
 10
34.42857142857143
 20
80.92857142857143
 30
0.0
 40
1.3
  1
HIDDEN DOOR
 72
1
 11
34.42857142857143
 21
80.92857142857143
 31
0.0
100
AcDbText
 73
2
  0
LWPOLYLINE
  5
F0
330
17
100
AcDbEntity
  8
I-JOIN-ELEV
100
AcDbPolyline
 90
4
 70
1
 10
46.57142857142857
 20
78.35714285714286
 10
78.0
 20
78.35714285714286
 10
78.0
 20
138.35714285714286
 10
46.57142857142857
 20
138.35714285714286
  0
LINE
  5
F1
330
17
100
AcDbEntity
  8
I-JOIN-ELEV
100
AcDbLine
 10
62.285714285714285
 20
78.35714285714286
 30
0.0
 11
62.285714285714285
 21
138.35714285714286
 31
0.0
  0
LWPOLYLINE
  5
F2
330
17
100
AcDbEntity
  8
I-JOIN-HIDDEN
100
AcDbPolyline
 90
3
 70
0
 10
62.285714285714285
 20
78.35714285714286
 10
46.57142857142857
 20
108.35714285714286
 10
62.285714285714285
 20
138.35714285714286
  0
LWPOLYLINE
  5
F3
330
17
100
AcDbEntity
  8
I-JOIN-HIDDEN
100
AcDbPolyline
 90
3
 70
0
 10
62.285714285714285
 20
78.35714285714286
 10
78.0
 20
108.35714285714286
 10
62.285714285714285
 20
138.35714285714286
  0
LWPOLYLINE
  5
F4
330
17
100
AcDbEntity
  8
I-JOIN-ELEV
100
AcDbPolyline
 90
4
 70
1
 10
46.57142857142857
 20
138.35714285714286
 10
78.0
 20
138.35714285714286
 10
78.0
 20
177.78571428571428
 10
46.57142857142857
 20
177.78571428571428
  0
LINE
  5
F5
330
17
100
AcDbEntity
  8
I-JOIN-ELEV
100
AcDbLine
 10
62.285714285714285
 20
138.35714285714286
 30
0.0
 11
62.285714285714285
 21
177.78571428571428
 31
0.0
  0
LWPOLYLINE
  5
F6
330
17
100
AcDbEntity
  8
I-JOIN-HIDDEN
100
AcDbPolyline
 90
3
 70
0
 10
62.285714285714285
 20
138.35714285714286
 10
46.57142857142857
 20
158.07142857142856
 10
62.285714285714285
 20
177.78571428571428
  0
LWPOLYLINE
  5
F7
330
17
100
AcDbEntity
  8
I-JOIN-HIDDEN
100
AcDbPolyline
 90
3
 70
0
 10
62.285714285714285
 20
138.35714285714286
 10
78.0
 20
158.07142857142856
 10
62.285714285714285
 20
177.78571428571428
  0
LWPOLYLINE
  5
F8
330
17
100
AcDbEntity
  8
I-JOIN-ELEV
100
AcDbPolyline
 90
4
 70
1
 10
78.0
 20
78.35714285714286
 10
120.85714285714286
 20
78.35714285714286
 10
120.85714285714286
 20
85.78571428571428
 10
78.0
 20
85.78571428571428
  0
LINE
  5
F9
330
17
100
AcDbEntity
  8
I-JOIN-THIN
100
AcDbLine
 10
84.42857142857142
 20
84.78571428571428
 30
0.0
 11
93.0
 21
84.78571428571428
 31
0.0
  0
LINE
  5
FA
330
17
100
AcDbEntity
  8
I-JOIN-ELEV
100
AcDbLine
 10
99.42857142857142
 20
78.35714285714286
 30
0.0
 11
99.42857142857142
 21
85.78571428571428
 31
0.0
  0
LINE
  5
FB
330
17
100
AcDbEntity
  8
I-JOIN-THIN
100
AcDbLine
 10
105.85714285714286
 20
84.78571428571428
 30
0.0
 11
114.42857142857142
 21
84.78571428571428
 31
0.0
  0
TEXT
  5
FC
330
17
100
AcDbEntity
  8
I-TEXT
100
AcDbText
 10
99.42857142857142
 20
82.07142857142857
 30
0.0
 40
1.4
  1
DRAWER
 72
1
 11
99.42857142857142
 21
82.07142857142857
 31
0.0
100
AcDbText
 73
2
  0
LWPOLYLINE
  5
FD
330
17
100
AcDbEntity
  8
I-JOIN-ELEV
100
AcDbPolyline
 90
4
 70
1
 10
78.0
 20
85.78571428571428
 10
120.85714285714286
 20
85.78571428571428
 10
120.85714285714286
 20
93.21428571428572
 10
78.0
 20
93.21428571428572
  0
LINE
  5
FE
330
17
100
AcDbEntity
  8
I-JOIN-THIN
100
AcDbLine
 10
84.42857142857142
 20
92.21428571428572
 30
0.0
 11
93.0
 21
92.21428571428572
 31
0.0
  0
LINE
  5
FF
330
17
100
AcDbEntity
  8
I-JOIN-ELEV
100
AcDbLine
 10
99.42857142857142
 20
85.78571428571428
 30
0.0
 11
99.42857142857142
 21
93.21428571428572
 31
0.0
  0
LINE
  5
100
330
17
100
AcDbEntity
  8
I-JOIN-THIN
100
AcDbLine
 10
105.85714285714286
 20
92.21428571428572
 30
0.0
 11
114.42857142857142
 21
92.21428571428572
 31
0.0
  0
TEXT
  5
101
330
17
100
AcDbEntity
  8
I-TEXT
100
AcDbText
 10
99.42857142857142
 20
89.5
 30
0.0
 40
1.4
  1
DRAWER
 72
1
 11
99.42857142857142
 21
89.5
 31
0.0
100
AcDbText
 73
2
  0
LWPOLYLINE
  5
102
330
17
100
AcDbEntity
  8
I-JOIN-ELEV
100
AcDbPolyline
 90
4
 70
1
 10
78.0
 20
93.21428571428572
 10
120.85714285714286
 20
93.21428571428572
 10
120.85714285714286
 20
100.64285714285714
 10
78.0
 20
100.64285714285714
  0
LINE
  5
103
330
17
100
AcDbEntity
  8
I-JOIN-THIN
100
AcDbLine
 10
84.42857142857142
 20
99.64285714285714
 30
0.0
 11
93.0
 21
99.64285714285714
 31
0.0
  0
LINE
  5
104
330
17
100
AcDbEntity
  8
I-JOIN-ELEV
100
AcDbLine
 10
99.42857142857142
 20
93.21428571428572
 30
0.0
 11
99.42857142857142
 21
100.64285714285714
 31
0.0
  0
LINE
  5
105
330
17
100
AcDbEntity
  8
I-JOIN-THIN
100
AcDbLine
 10
105.85714285714286
 20
99.64285714285714
 30
0.0
 11
114.42857142857142
 21
99.64285714285714
 31
0.0
  0
TEXT
  5
106
330
17
100
AcDbEntity
  8
I-TEXT
100
AcDbText
 10
99.42857142857142
 20
96.92857142857143
 30
0.0
 40
1.4
  1
DRAWER
 72
1
 11
99.42857142857142
 21
96.92857142857143
 31
0.0
100
AcDbText
 73
2
  0
LWPOLYLINE
  5
107
330
17
100
AcDbEntity
  8
I-JOIN-ELEV
100
AcDbPolyline
 90
4
 70
1
 10
77.71428571428571
 20
100.64285714285714
 10
121.14285714285714
 20
100.64285714285714
 10
121.14285714285714
 20
101.5
 10
77.71428571428571
 20
101.5
  0
LWPOLYLINE
  5
108
330
17
100
AcDbEntity
  8
I-JOIN-ELEV
100
AcDbPolyline
 90
4
 70
1
 10
78.0
 20
101.5
 10
120.85714285714286
 20
101.5
 10
120.85714285714286
 20
144.35714285714286
 10
78.0
 20
144.35714285714286
  0
LWPOLYLINE
  5
109
330
17
100
AcDbEntity
  8
I-JOIN-THIN
100
AcDbPolyline
 90
4
 70
1
 10
78.45714285714286
 20
101.95714285714286
 10
120.4
 20
101.95714285714286
 10
120.4
 20
143.89999999999998
 10
78.45714285714286
 20
143.89999999999998
  0
LINE
  5
10A
330
17
100
AcDbEntity
  8
I-JOIN-ELEV
100
AcDbLine
 10
78.45714285714286
 20
115.78571428571428
 30
0.0
 11
120.4
 21
115.78571428571428
 31
0.0
  0
LINE
  5
10B
330
17
100
AcDbEntity
  8
I-LITE
 62
1
100
AcDbLine
 10
79.14285714285714
 20
115.35714285714286
 30
0.0
 11
119.71428571428572
 21
115.35714285714286
 31
0.0
  0
LINE
  5
10C
330
17
100
AcDbEntity
  8
I-JOIN-ELEV
100
AcDbLine
 10
78.45714285714286
 20
130.07142857142856
 30
0.0
 11
120.4
 21
130.07142857142856
 31
0.0
  0
LINE
  5
10D
330
17
100
AcDbEntity
  8
I-LITE
 62
1
100
AcDbLine
 10
79.14285714285714
 20
129.64285714285714
 30
0.0
 11
119.71428571428572
 21
129.64285714285714
 31
0.0
  0
HATCH
  5
10E
330
17
100
AcDbEntity
  8
I-JOIN-HATCH
 62
7
100
AcDbHatch
 10
0.0
 20
0.0
 30
0.0
210
0.0
220
0.0
230
1.0
  2
ANSI32
 70
0
 71
0
 91
1
 92
3
 72
0
 73
1
 93
4
 10
78.45714285714286
 20
101.95714285714286
 10
120.4
 20
101.95714285714286
 10
120.4
 20
143.89999999999998
 10
78.45714285714286
 20
143.89999999999998
 97
0
 75
1
 76
1
 52
90.0
 41
1.05
 77
0
 78
2
 53
135.0
 43
0.0
 44
0.0
 45
-7.0719516953
 46
-7.0719516953
 79
0
 53
135.0
 43
0.0
 44
4.7146344557
 45
-7.0719516953
 46
-7.0719516953
 79
0
 98
0
  0
LWPOLYLINE
  5
10F
330
17
100
AcDbEntity
  8
I-JOIN-ELEV
100
AcDbPolyline
 90
4
 70
1
 10
78.0
 20
144.35714285714286
 10
120.85714285714286
 20
144.35714285714286
 10
120.85714285714286
 20
176.64285714285714
 10
78.0
 20
176.64285714285714
  0
LINE
  5
110
330
17
100
AcDbEntity
  8
I-JOIN-ELEV
100
AcDbLine
 10
99.42857142857142
 20
144.35714285714286
 30
0.0
 11
99.42857142857142
 21
176.64285714285714
 31
0.0
  0
LWPOLYLINE
  5
111
330
17
100
AcDbEntity
  8
I-JOIN-HIDDEN
100
AcDbPolyline
 90
3
 70
0
 10
99.42857142857142
 20
144.35714285714286
 10
78.0
 20
160.5
 10
99.42857142857142
 20
176.64285714285714
  0
LWPOLYLINE
  5
112
330
17
100
AcDbEntity
  8
I-JOIN-HIDDEN
100
AcDbPolyline
 90
3
 70
0
 10
99.42857142857142
 20
144.35714285714286
 10
120.85714285714286
 20
160.5
 10
99.42857142857142
 20
176.64285714285714
  0
LWPOLYLINE
  5
113
330
17
100
AcDbEntity
  8
I-JOIN-ELEV
100
AcDbPolyline
 90
4
 70
1
 10
120.85714285714286
 20
78.35714285714286
 10
145.14285714285714
 20
78.35714285714286
 10
145.14285714285714
 20
101.78571428571428
 10
120.85714285714286
 20
101.78571428571428
  0
LWPOLYLINE
  5
114
330
17
100
AcDbEntity
  8
I-JOIN-THIN
100
AcDbPolyline
 90
4
 70
1
 10
121.42857142857142
 20
78.92857142857143
 10
144.57142857142856
 20
78.92857142857143
 10
144.57142857142856
 20
101.21428571428571
 10
121.42857142857142
 20
101.21428571428571
  0
TEXT
  5
115
330
17
100
AcDbEntity
  8
I-TEXT
100
AcDbText
 10
133.0
 20
90.07142857142857
 30
0.0
 40
1.5
  1
WINE CHILLER
 72
1
 11
133.0
 21
90.07142857142857
 31
0.0
100
AcDbText
 73
2
  0
TEXT
  5
116
330
17
100
AcDbEntity
  8
I-TEXT
100
AcDbText
 10
133.0
 20
86.07142857142857
 30
0.0
 40
1.2
  1
(BY OWNER)
 72
1
 11
133.0
 21
86.07142857142857
 31
0.0
100
AcDbText
 73
2
  0
LWPOLYLINE
  5
117
330
17
100
AcDbEntity
  8
I-JOIN-ELEV
100
AcDbPolyline
 90
4
 70
1
 10
120.57142857142856
 20
101.78571428571428
 10
145.42857142857142
 20
101.78571428571428
 10
145.42857142857142
 20
102.64285714285714
 10
120.57142857142856
 20
102.64285714285714
  0
LWPOLYLINE
  5
118
330
17
100
AcDbEntity
  8
I-JOIN-ELEV
100
AcDbPolyline
 90
4
 70
1
 10
120.85714285714286
 20
102.64285714285714
 10
145.14285714285714
 20
102.64285714285714
 10
145.14285714285714
 20
139.78571428571428
 10
120.85714285714286
 20
139.78571428571428
  0
LWPOLYLINE
  5
119
330
17
100
AcDbEntity
  8
I-JOIN-THIN
100
AcDbPolyline
 90
4
 70
1
 10
121.31428571428572
 20
103.1
 10
144.68571428571428
 20
103.1
 10
144.68571428571428
 20
139.32857142857142
 10
121.31428571428572
 20
139.32857142857142
  0
LINE
  5
11A
330
17
100
AcDbEntity
  8
I-JOIN-ELEV
100
AcDbLine
 10
121.31428571428572
 20
111.92857142857143
 30
0.0
 11
144.68571428571428
 21
111.92857142857143
 31
0.0
  0
LINE
  5
11B
330
17
100
AcDbEntity
  8
I-LITE
 62
1
100
AcDbLine
 10
122.0
 20
111.5
 30
0.0
 11
144.0
 21
111.5
 31
0.0
  0
LINE
  5
11C
330
17
100
AcDbEntity
  8
I-JOIN-ELEV
100
AcDbLine
 10
121.31428571428572
 20
121.21428571428572
 30
0.0
 11
144.68571428571428
 21
121.21428571428572
 31
0.0
  0
LINE
  5
11D
330
17
100
AcDbEntity
  8
I-LITE
 62
1
100
AcDbLine
 10
122.0
 20
120.78571428571428
 30
0.0
 11
144.0
 21
120.78571428571428
 31
0.0
  0
LINE
  5
11E
330
17
100
AcDbEntity
  8
I-JOIN-ELEV
100
AcDbLine
 10
121.31428571428572
 20
130.5
 30
0.0
 11
144.68571428571428
 21
130.5
 31
0.0
  0
LINE
  5
11F
330
17
100
AcDbEntity
  8
I-LITE
 62
1
100
AcDbLine
 10
122.0
 20
130.07142857142856
 30
0.0
 11
144.0
 21
130.07142857142856
 31
0.0
  0
HATCH
  5
120
330
17
100
AcDbEntity
  8
I-JOIN-HATCH
 62
7
100
AcDbHatch
 10
0.0
 20
0.0
 30
0.0
210
0.0
220
0.0
230
1.0
  2
ANSI32
 70
0
 71
0
 91
1
 92
3
 72
0
 73
1
 93
4
 10
121.31428571428572
 20
103.1
 10
144.68571428571428
 20
103.1
 10
144.68571428571428
 20
139.32857142857142
 10
121.31428571428572
 20
139.32857142857142
 97
0
 75
1
 76
1
 52
90.0
 41
1.05
 77
0
 78
2
 53
135.0
 43
0.0
 44
0.0
 45
-7.0719516953
 46
-7.0719516953
 79
0
 53
135.0
 43
0.0
 44
4.7146344557
 45
-7.0719516953
 46
-7.0719516953
 79
0
 98
0
  0
TEXT
  5
121
330
17
100
AcDbEntity
  8
I-TEXT
100
AcDbText
 10
133.0
 20
105.21428571428571
 30
0.0
 40
1.3
  1
WINE DISPLAY
 72
1
 11
133.0
 21
105.21428571428571
 31
0.0
100
AcDbText
 73
2
  0
LWPOLYLINE
  5
122
330
17
100
AcDbEntity
  8
I-JOIN-ELEV
100
AcDbPolyline
 90
4
 70
1
 10
120.85714285714286
 20
139.78571428571428
 10
145.14285714285714
 20
139.78571428571428
 10
145.14285714285714
 20
177.78571428571428
 10
120.85714285714286
 20
177.78571428571428
  0
LINE
  5
123
330
17
100
AcDbEntity
  8
I-JOIN-ELEV
100
AcDbLine
 10
133.0
 20
139.78571428571428
 30
0.0
 11
133.0
 21
177.78571428571428
 31
0.0
  0
LWPOLYLINE
  5
124
330
17
100
AcDbEntity
  8
I-JOIN-HIDDEN
100
AcDbPolyline
 90
3
 70
0
 10
133.0
 20
139.78571428571428
 10
120.85714285714286
 20
158.78571428571428
 10
133.0
 20
177.78571428571428
  0
LWPOLYLINE
  5
125
330
17
100
AcDbEntity
  8
I-JOIN-HIDDEN
100
AcDbPolyline
 90
3
 70
0
 10
133.0
 20
139.78571428571428
 10
145.14285714285714
 20
158.78571428571428
 10
133.0
 20
177.78571428571428
  0
LWPOLYLINE
  5
126
330
17
100
AcDbEntity
  8
I-JOIN-ELEV
100
AcDbPolyline
 90
4
 70
1
 10
145.14285714285714
 20
78.35714285714286
 10
169.7142857142857
 20
78.35714285714286
 10
169.7142857142857
 20
177.78571428571428
 10
145.14285714285714
 20
177.78571428571428
  0
LWPOLYLINE
  5
127
330
17
100
AcDbEntity
  8
I-JOIN-HIDDEN
100
AcDbPolyline
 90
3
 70
0
 10
145.14285714285714
 20
78.35714285714286
 10
169.7142857142857
 20
128.07142857142856
 10
145.14285714285714
 20
177.78571428571428
  0
LWPOLYLINE
  5
128
330
17
100
AcDbEntity
  8
I-JOIN-ELEV
100
AcDbPolyline
 90
4
 70
1
 10
22.285714285714285
 20
78.35714285714286
 10
169.7142857142857
 20
78.35714285714286
 10
169.7142857142857
 20
177.78571428571428
 10
22.285714285714285
 20
177.78571428571428
  0
LWPOLYLINE
  5
129
330
17
100
AcDbEntity
  8
I-TAG
100
AcDbPolyline
 90
26
 70
1
 10
32.47857142857143
 20
175.66071428571428
 10
31.993285719004202
 20
175.59682521000627
 10
31.541071428571428
 20
175.4095119178101
 10
31.15274621384665
 20
175.11153950043905
 10
30.854773796475605
 20
174.72321428571428
 10
30.667460504279425
 20
174.2709999952815
 10
30.603571428571428
 20
173.78571428571428
 10
30.667460504279425
 20
173.30042857614706
 10
30.854773796475605
 20
172.84821428571428
 10
31.15274621384665
 20
172.4598890709895
 10
31.541071428571428
 20
172.16191665361845
 10
31.993285719004202
 20
171.97460336142228
 10
32.47857142857143
 20
171.91071428571428
 10
36.37857142857143
 20
171.91071428571428
 10
36.863857138138656
 20
171.97460336142228
 10
37.31607142857143
 20
172.16191665361845
 10
37.70439664329621
 20
172.4598890709895
 10
38.002369060667256
 20
172.84821428571428
 10
38.189682352863436
 20
173.30042857614706
 10
38.25357142857143
 20
173.78571428571428
 10
38.189682352863436
 20
174.2709999952815
 10
38.002369060667256
 20
174.72321428571428
 10
37.704396643296214
 20
175.11153950043905
 10
37.31607142857143
 20
175.4095119178101
 10
36.86385713813866
 20
175.59682521000627
 10
36.37857142857143
 20
175.66071428571428
  0
TEXT
  5
12A
330
17
100
AcDbEntity
  8
I-TAG
100
AcDbText
 10
34.42857142857143
 20
173.78571428571428
 30
0.0
 40
1.275
  1
M02
 72
1
 11
34.42857142857143
 21
173.78571428571428
 31
0.0
100
AcDbText
 73
2
  0
LWPOLYLINE
  5
12B
330
17
100
AcDbEntity
  8
I-TAG
100
AcDbPolyline
 90
26
 70
1
 10
60.33571428571428
 20
136.23214285714286
 10
59.85042857614705
 20
136.16825378143486
 10
59.39821428571428
 20
135.9809404892387
 10
59.00988907098951
 20
135.68296807186763
 10
58.71191665361846
 20
135.29464285714286
 10
58.52460336142228
 20
134.84242856671008
 10
58.46071428571428
 20
134.35714285714286
 10
58.52460336142228
 20
133.87185714757564
 10
58.71191665361846
 20
133.41964285714286
 10
59.0098890709895
 20
133.0313176424181
 10
59.39821428571428
 20
132.73334522504703
 10
59.85042857614705
 20
132.54603193285087
 10
60.33571428571428
 20
132.48214285714286
 10
64.23571428571428
 20
132.48214285714286
 10
64.7209999952815
 20
132.54603193285087
 10
65.17321428571428
 20
132.73334522504703
 10
65.56153950043905
 20
133.0313176424181
 10
65.8595119178101
 20
133.41964285714286
 10
66.04682521000629
 20
133.87185714757564
 10
66.11071428571428
 20
134.35714285714286
 10
66.04682521000629
 20
134.84242856671008
 10
65.8595119178101
 20
135.29464285714286
 10
65.56153950043905
 20
135.68296807186763
 10
65.17321428571428
 20
135.9809404892387
 10
64.7209999952815
 20
136.16825378143486
 10
64.23571428571428
 20
136.23214285714286
  0
TEXT
  5
12C
330
17
100
AcDbEntity
  8
I-TAG
100
AcDbText
 10
62.285714285714285
 20
134.35714285714286
 30
0.0
 40
1.275
  1
M02
 72
1
 11
62.285714285714285
 21
134.35714285714286
 31
0.0
100
AcDbText
 73
2
  0
LWPOLYLINE
  5
12D
330
17
100
AcDbEntity
  8
I-TAG
100
AcDbPolyline
 90
26
 70
1
 10
60.33571428571428
 20
175.66071428571428
 10
59.85042857614705
 20
175.59682521000627
 10
59.39821428571428
 20
175.4095119178101
 10
59.00988907098951
 20
175.11153950043905
 10
58.71191665361846
 20
174.72321428571428
 10
58.52460336142228
 20
174.2709999952815
 10
58.46071428571428
 20
173.78571428571428
 10
58.52460336142228
 20
173.30042857614706
 10
58.71191665361846
 20
172.84821428571428
 10
59.0098890709895
 20
172.4598890709895
 10
59.39821428571428
 20
172.16191665361845
 10
59.85042857614705
 20
171.97460336142228
 10
60.33571428571428
 20
171.91071428571428
 10
64.23571428571428
 20
171.91071428571428
 10
64.7209999952815
 20
171.97460336142228
 10
65.17321428571428
 20
172.16191665361845
 10
65.56153950043905
 20
172.4598890709895
 10
65.8595119178101
 20
172.84821428571428
 10
66.04682521000629
 20
173.30042857614706
 10
66.11071428571428
 20
173.78571428571428
 10
66.04682521000629
 20
174.2709999952815
 10
65.8595119178101
 20
174.72321428571428
 10
65.56153950043905
 20
175.11153950043905
 10
65.17321428571428
 20
175.4095119178101
 10
64.7209999952815
 20
175.59682521000627
 10
64.23571428571428
 20
175.66071428571428
  0
TEXT
  5
12E
330
17
100
AcDbEntity
  8
I-TAG
100
AcDbText
 10
62.285714285714285
 20
173.78571428571428
 30
0.0
 40
1.275
  1
M02
 72
1
 11
62.285714285714285
 21
173.78571428571428
 31
0.0
100
AcDbText
 73
2
  0
LWPOLYLINE
  5
12F
330
17
100
AcDbEntity
  8
I-TAG
100
AcDbPolyline
 90
26
 70
1
 10
97.47857142857141
 20
83.66071428571429
 10
96.99328571900419
 20
83.5968252100063
 10
96.54107142857141
 20
83.40951191781011
 10
96.15274621384664
 20
83.11153950043906
 10
95.8547737964756
 20
82.72321428571429
 10
95.6674605042794
 20
82.27099999528151
 10
95.60357142857141
 20
81.78571428571429
 10
95.6674605042794
 20
81.30042857614707
 10
95.8547737964756
 20
80.84821428571429
 10
96.15274621384664
 20
80.45988907098952
 10
96.54107142857141
 20
80.16191665361848
 10
96.99328571900419
 20
79.97460336142228
 10
97.47857142857141
 20
79.91071428571429
 10
101.37857142857142
 20
79.91071428571429
 10
101.86385713813864
 20
79.97460336142228
 10
102.31607142857142
 20
80.16191665361848
 10
102.70439664329619
 20
80.45988907098952
 10
103.00236906066723
 20
80.84821428571429
 10
103.18968235286343
 20
81.30042857614707
 10
103.25357142857142
 20
81.78571428571429
 10
103.18968235286343
 20
82.27099999528151
 10
103.00236906066723
 20
82.72321428571429
 10
102.70439664329619
 20
83.11153950043906
 10
102.31607142857142
 20
83.40951191781012
 10
101.86385713813864
 20
83.5968252100063
 10
101.37857142857142
 20
83.66071428571429
  0
TEXT
  5
130
330
17
100
AcDbEntity
  8
I-TAG
100
AcDbText
 10
99.42857142857142
 20
81.78571428571429
 30
0.0
 40
1.275
  1
L01
 72
1
 11
99.42857142857142
 21
81.78571428571429
 31
0.0
100
AcDbText
 73
2
  0
LWPOLYLINE
  5
131
330
17
100
AcDbEntity
  8
I-TAG
100
AcDbPolyline
 90
26
 70
1
 10
97.47857142857141
 20
91.08928571428571
 10
96.99328571900419
 20
91.02539663857772
 10
96.54107142857141
 20
90.83808334638152
 10
96.15274621384664
 20
90.54011092901048
 10
95.8547737964756
 20
90.15178571428571
 10
95.6674605042794
 20
89.69957142385293
 10
95.60357142857141
 20
89.21428571428571
 10
95.6674605042794
 20
88.72900000471849
 10
95.8547737964756
 20
88.27678571428571
 10
96.15274621384664
 20
87.88846049956094
 10
96.54107142857141
 20
87.59048808218989
 10
96.99328571900419
 20
87.4031747899937
 10
97.47857142857141
 20
87.33928571428571
 10
101.37857142857142
 20
87.33928571428571
 10
101.86385713813864
 20
87.4031747899937
 10
102.31607142857142
 20
87.59048808218989
 10
102.70439664329619
 20
87.88846049956094
 10
103.00236906066723
 20
88.27678571428571
 10
103.18968235286343
 20
88.72900000471849
 10
103.25357142857142
 20
89.21428571428571
 10
103.18968235286343
 20
89.69957142385293
 10
103.00236906066723
 20
90.15178571428571
 10
102.70439664329619
 20
90.54011092901048
 10
102.31607142857142
 20
90.83808334638154
 10
101.86385713813864
 20
91.02539663857772
 10
101.37857142857142
 20
91.08928571428571
  0
TEXT
  5
132
330
17
100
AcDbEntity
  8
I-TAG
100
AcDbText
 10
99.42857142857142
 20
89.21428571428571
 30
0.0
 40
1.275
  1
L01
 72
1
 11
99.42857142857142
 21
89.21428571428571
 31
0.0
100
AcDbText
 73
2
  0
LWPOLYLINE
  5
133
330
17
100
AcDbEntity
  8
I-TAG
100
AcDbPolyline
 90
26
 70
1
 10
97.47857142857141
 20
98.51785714285714
 10
96.99328571900419
 20
98.45396806714915
 10
96.54107142857141
 20
98.26665477495297
 10
96.15274621384664
 20
97.96868235758191
 10
95.8547737964756
 20
97.58035714285714
 10
95.6674605042794
 20
97.12814285242436
 10
95.60357142857141
 20
96.64285714285714
 10
95.6674605042794
 20
96.15757143328992
 10
95.8547737964756
 20
95.70535714285714
 10
96.15274621384664
 20
95.31703192813237
 10
96.54107142857141
 20
95.01905951076132
 10
96.99328571900419
 20
94.83174621856513
 10
97.47857142857141
 20
94.76785714285714
 10
101.37857142857142
 20
94.76785714285714
 10
101.86385713813864
 20
94.83174621856513
 10
102.31607142857142
 20
95.01905951076132
 10
102.70439664329619
 20
95.31703192813237
 10
103.00236906066723
 20
95.70535714285714
 10
103.18968235286343
 20
96.15757143328992
 10
103.25357142857142
 20
96.64285714285714
 10
103.18968235286343
 20
97.12814285242436
 10
103.00236906066723
 20
97.58035714285714
 10
102.70439664329619
 20
97.96868235758191
 10
102.31607142857142
 20
98.26665477495297
 10
101.86385713813864
 20
98.45396806714915
 10
101.37857142857142
 20
98.51785714285714
  0
TEXT
  5
134
330
17
100
AcDbEntity
  8
I-TAG
100
AcDbText
 10
99.42857142857142
 20
96.64285714285714
 30
0.0
 40
1.275
  1
L01
 72
1
 11
99.42857142857142
 21
96.64285714285714
 31
0.0
100
AcDbText
 73
2
  0
LWPOLYLINE
  5
135
330
17
100
AcDbEntity
  8
I-TAG
100
AcDbPolyline
 90
26
 70
1
 10
97.47857142857141
 20
142.23214285714286
 10
96.99328571900419
 20
142.16825378143486
 10
96.54107142857141
 20
141.9809404892387
 10
96.15274621384664
 20
141.68296807186763
 10
95.8547737964756
 20
141.29464285714286
 10
95.6674605042794
 20
140.84242856671008
 10
95.60357142857141
 20
140.35714285714286
 10
95.6674605042794
 20
139.87185714757564
 10
95.8547737964756
 20
139.41964285714286
 10
96.15274621384664
 20
139.0313176424181
 10
96.54107142857141
 20
138.73334522504703
 10
96.99328571900419
 20
138.54603193285087
 10
97.47857142857141
 20
138.48214285714286
 10
101.37857142857142
 20
138.48214285714286
 10
101.86385713813864
 20
138.54603193285087
 10
102.31607142857142
 20
138.73334522504703
 10
102.70439664329619
 20
139.0313176424181
 10
103.00236906066723
 20
139.41964285714286
 10
103.18968235286343
 20
139.87185714757564
 10
103.25357142857142
 20
140.35714285714286
 10
103.18968235286343
 20
140.84242856671008
 10
103.00236906066723
 20
141.29464285714286
 10
102.70439664329619
 20
141.68296807186763
 10
102.31607142857142
 20
141.9809404892387
 10
101.86385713813864
 20
142.16825378143486
 10
101.37857142857142
 20
142.23214285714286
  0
TEXT
  5
136
330
17
100
AcDbEntity
  8
I-TAG
100
AcDbText
 10
99.42857142857142
 20
140.35714285714286
 30
0.0
 40
1.275
  1
L01
 72
1
 11
99.42857142857142
 21
140.35714285714286
 31
0.0
100
AcDbText
 73
2
  0
LWPOLYLINE
  5
137
330
17
100
AcDbEntity
  8
I-TAG
100
AcDbPolyline
 90
26
 70
1
 10
97.47857142857141
 20
174.51785714285714
 10
96.99328571900419
 20
174.45396806714913
 10
96.54107142857141
 20
174.26665477495297
 10
96.15274621384664
 20
173.9686823575819
 10
95.8547737964756
 20
173.58035714285714
 10
95.6674605042794
 20
173.12814285242436
 10
95.60357142857141
 20
172.64285714285714
 10
95.6674605042794
 20
172.15757143328992
 10
95.8547737964756
 20
171.70535714285714
 10
96.15274621384664
 20
171.31703192813237
 10
96.54107142857141
 20
171.0190595107613
 10
96.99328571900419
 20
170.83174621856514
 10
97.47857142857141
 20
170.76785714285714
 10
101.37857142857142
 20
170.76785714285714
 10
101.86385713813864
 20
170.83174621856514
 10
102.31607142857142
 20
171.0190595107613
 10
102.70439664329619
 20
171.31703192813237
 10
103.00236906066723
 20
171.70535714285714
 10
103.18968235286343
 20
172.15757143328992
 10
103.25357142857142
 20
172.64285714285714
 10
103.18968235286343
 20
173.12814285242436
 10
103.00236906066723
 20
173.58035714285714
 10
102.70439664329619
 20
173.9686823575819
 10
102.31607142857142
 20
174.26665477495297
 10
101.86385713813864
 20
174.45396806714913
 10
101.37857142857142
 20
174.51785714285714
  0
TEXT
  5
138
330
17
100
AcDbEntity
  8
I-TAG
100
AcDbText
 10
99.42857142857142
 20
172.64285714285714
 30
0.0
 40
1.275
  1
M02
 72
1
 11
99.42857142857142
 21
172.64285714285714
 31
0.0
100
AcDbText
 73
2
  0
LWPOLYLINE
  5
139
330
17
100
AcDbEntity
  8
I-TAG
100
AcDbPolyline
 90
26
 70
1
 10
131.05
 20
137.66071428571428
 10
130.5647142904328
 20
137.59682521000627
 10
130.1125
 20
137.4095119178101
 10
129.72417478527524
 20
137.11153950043905
 10
129.42620236790418
 20
136.72321428571428
 10
129.23888907570802
 20
136.2709999952815
 10
129.175
 20
135.78571428571428
 10
129.23888907570802
 20
135.30042857614706
 10
129.42620236790418
 20
134.84821428571428
 10
129.72417478527524
 20
134.4598890709895
 10
130.1125
 20
134.16191665361845
 10
130.5647142904328
 20
133.97460336142228
 10
131.05
 20
133.91071428571428
 10
134.95
 20
133.91071428571428
 10
135.4352857095672
 20
133.97460336142228
 10
135.8875
 20
134.16191665361845
 10
136.27582521472476
 20
134.4598890709895
 10
136.57379763209582
 20
134.84821428571428
 10
136.76111092429198
 20
135.30042857614706
 10
136.825
 20
135.78571428571428
 10
136.76111092429198
 20
136.2709999952815
 10
136.57379763209582
 20
136.72321428571428
 10
136.27582521472476
 20
137.11153950043905
 10
135.8875
 20
137.4095119178101
 10
135.4352857095672
 20
137.59682521000627
 10
134.95
 20
137.66071428571428
  0
TEXT
  5
13A
330
17
100
AcDbEntity
  8
I-TAG
100
AcDbText
 10
133.0
 20
135.78571428571428
 30
0.0
 40
1.275
  1
L01
 72
1
 11
133.0
 21
135.78571428571428
 31
0.0
100
AcDbText
 73
2
  0
LWPOLYLINE
  5
13B
330
17
100
AcDbEntity
  8
I-TAG
100
AcDbPolyline
 90
26
 70
1
 10
131.05
 20
175.66071428571428
 10
130.5647142904328
 20
175.59682521000627
 10
130.1125
 20
175.4095119178101
 10
129.72417478527524
 20
175.11153950043905
 10
129.42620236790418
 20
174.72321428571428
 10
129.23888907570802
 20
174.2709999952815
 10
129.175
 20
173.78571428571428
 10
129.23888907570802
 20
173.30042857614706
 10
129.42620236790418
 20
172.84821428571428
 10
129.72417478527524
 20
172.4598890709895
 10
130.1125
 20
172.16191665361845
 10
130.5647142904328
 20
171.97460336142228
 10
131.05
 20
171.91071428571428
 10
134.95
 20
171.91071428571428
 10
135.4352857095672
 20
171.97460336142228
 10
135.8875
 20
172.16191665361845
 10
136.27582521472476
 20
172.4598890709895
 10
136.57379763209582
 20
172.84821428571428
 10
136.76111092429198
 20
173.30042857614706
 10
136.825
 20
173.78571428571428
 10
136.76111092429198
 20
174.2709999952815
 10
136.57379763209582
 20
174.72321428571428
 10
136.27582521472476
 20
175.11153950043905
 10
135.8875
 20
175.4095119178101
 10
135.4352857095672
 20
175.59682521000627
 10
134.95
 20
175.66071428571428
  0
TEXT
  5
13C
330
17
100
AcDbEntity
  8
I-TAG
100
AcDbText
 10
133.0
 20
173.78571428571428
 30
0.0
 40
1.275
  1
M02
 72
1
 11
133.0
 21
173.78571428571428
 31
0.0
100
AcDbText
 73
2
  0
LWPOLYLINE
  5
13D
330
17
100
AcDbEntity
  8
I-TAG
100
AcDbPolyline
 90
26
 70
1
 10
155.47857142857143
 20
175.66071428571428
 10
154.9932857190042
 20
175.59682521000627
 10
154.54107142857143
 20
175.4095119178101
 10
154.15274621384665
 20
175.11153950043905
 10
153.8547737964756
 20
174.72321428571428
 10
153.66746050427943
 20
174.2709999952815
 10
153.60357142857143
 20
173.78571428571428
 10
153.66746050427943
 20
173.30042857614706
 10
153.8547737964756
 20
172.84821428571428
 10
154.15274621384665
 20
172.4598890709895
 10
154.54107142857143
 20
172.16191665361845
 10
154.9932857190042
 20
171.97460336142228
 10
155.47857142857143
 20
171.91071428571428
 10
159.3785714285714
 20
171.91071428571428
 10
159.86385713813863
 20
171.97460336142228
 10
160.3160714285714
 20
172.16191665361845
 10
160.70439664329618
 20
172.4598890709895
 10
161.00236906066723
 20
172.84821428571428
 10
161.1896823528634
 20
173.30042857614706
 10
161.2535714285714
 20
173.78571428571428
 10
161.1896823528634
 20
174.2709999952815
 10
161.00236906066723
 20
174.72321428571428
 10
160.70439664329618
 20
175.11153950043905
 10
160.3160714285714
 20
175.4095119178101
 10
159.86385713813863
 20
175.59682521000627
 10
159.3785714285714
 20
175.66071428571428
  0
TEXT
  5
13E
330
17
100
AcDbEntity
  8
I-TAG
100
AcDbText
 10
157.42857142857142
 20
173.78571428571428
 30
0.0
 40
1.275
  1
M02
 72
1
 11
157.42857142857142
 21
173.78571428571428
 31
0.0
100
AcDbText
 73
2
  0
LINE
  5
13F
330
17
100
AcDbEntity
  8
I-DIM
100
AcDbLine
 10
22.285714285714285
 20
74.3
 30
0.0
 11
22.285714285714285
 21
65.33333333333333
 31
0.0
  0
LINE
  5
140
330
17
100
AcDbEntity
  8
I-DIM
100
AcDbLine
 10
46.57142857142857
 20
74.3
 30
0.0
 11
46.57142857142857
 21
65.33333333333333
 31
0.0
  0
LINE
  5
141
330
17
100
AcDbEntity
  8
I-DIM
100
AcDbLine
 10
20.785714285714285
 20
66.83333333333333
 30
0.0
 11
48.07142857142857
 21
66.83333333333333
 31
0.0
  0
LINE
  5
142
330
17
100
AcDbEntity
  8
I-DIM
100
AcDbLine
 10
21.185714285714283
 20
65.73333333333333
 30
0.0
 11
23.385714285714286
 21
67.93333333333334
 31
0.0
  0
LINE
  5
143
330
17
100
AcDbEntity
  8
I-DIM
100
AcDbLine
 10
45.47142857142857
 20
65.73333333333333
 30
0.0
 11
47.67142857142857
 21
67.93333333333334
 31
0.0
  0
TEXT
  5
144
330
17
100
AcDbEntity
  8
I-DIM
100
AcDbText
 10
34.42857142857143
 20
67.73333333333333
 30
0.0
 40
1.9
  1
850
 72
1
 11
34.42857142857143
 21
67.73333333333333
 31
0.0
100
AcDbText
 73
1
  0
LINE
  5
145
330
17
100
AcDbEntity
  8
I-DIM
100
AcDbLine
 10
46.57142857142857
 20
74.3
 30
0.0
 11
46.57142857142857
 21
65.33333333333333
 31
0.0
  0
LINE
  5
146
330
17
100
AcDbEntity
  8
I-DIM
100
AcDbLine
 10
78.0
 20
74.3
 30
0.0
 11
78.0
 21
65.33333333333333
 31
0.0
  0
LINE
  5
147
330
17
100
AcDbEntity
  8
I-DIM
100
AcDbLine
 10
45.07142857142857
 20
66.83333333333333
 30
0.0
 11
79.5
 21
66.83333333333333
 31
0.0
  0
LINE
  5
148
330
17
100
AcDbEntity
  8
I-DIM
100
AcDbLine
 10
45.47142857142857
 20
65.73333333333333
 30
0.0
 11
47.67142857142857
 21
67.93333333333334
 31
0.0
  0
LINE
  5
149
330
17
100
AcDbEntity
  8
I-DIM
100
AcDbLine
 10
76.9
 20
65.73333333333333
 30
0.0
 11
79.1
 21
67.93333333333334
 31
0.0
  0
TEXT
  5
14A
330
17
100
AcDbEntity
  8
I-DIM
100
AcDbText
 10
62.285714285714285
 20
67.73333333333333
 30
0.0
 40
1.9
  1
1100
 72
1
 11
62.285714285714285
 21
67.73333333333333
 31
0.0
100
AcDbText
 73
1
  0
LINE
  5
14B
330
17
100
AcDbEntity
  8
I-DIM
100
AcDbLine
 10
78.0
 20
74.3
 30
0.0
 11
78.0
 21
65.33333333333333
 31
0.0
  0
LINE
  5
14C
330
17
100
AcDbEntity
  8
I-DIM
100
AcDbLine
 10
120.85714285714286
 20
74.3
 30
0.0
 11
120.85714285714286
 21
65.33333333333333
 31
0.0
  0
LINE
  5
14D
330
17
100
AcDbEntity
  8
I-DIM
100
AcDbLine
 10
76.5
 20
66.83333333333333
 30
0.0
 11
122.35714285714286
 21
66.83333333333333
 31
0.0
  0
LINE
  5
14E
330
17
100
AcDbEntity
  8
I-DIM
100
AcDbLine
 10
76.9
 20
65.73333333333333
 30
0.0
 11
79.1
 21
67.93333333333334
 31
0.0
  0
LINE
  5
14F
330
17
100
AcDbEntity
  8
I-DIM
100
AcDbLine
 10
119.75714285714287
 20
65.73333333333333
 30
0.0
 11
121.95714285714286
 21
67.93333333333334
 31
0.0
  0
TEXT
  5
150
330
17
100
AcDbEntity
  8
I-DIM
100
AcDbText
 10
99.42857142857142
 20
67.73333333333333
 30
0.0
 40
1.9
  1
1500
 72
1
 11
99.42857142857142
 21
67.73333333333333
 31
0.0
100
AcDbText
 73
1
  0
LINE
  5
151
330
17
100
AcDbEntity
  8
I-DIM
100
AcDbLine
 10
120.85714285714286
 20
74.3
 30
0.0
 11
120.85714285714286
 21
65.33333333333333
 31
0.0
  0
LINE
  5
152
330
17
100
AcDbEntity
  8
I-DIM
100
AcDbLine
 10
145.14285714285714
 20
74.3
 30
0.0
 11
145.14285714285714
 21
65.33333333333333
 31
0.0
  0
LINE
  5
153
330
17
100
AcDbEntity
  8
I-DIM
100
AcDbLine
 10
119.35714285714286
 20
66.83333333333333
 30
0.0
 11
146.64285714285714
 21
66.83333333333333
 31
0.0
  0
LINE
  5
154
330
17
100
AcDbEntity
  8
I-DIM
100
AcDbLine
 10
119.75714285714287
 20
65.73333333333333
 30
0.0
 11
121.95714285714286
 21
67.93333333333334
 31
0.0
  0
LINE
  5
155
330
17
100
AcDbEntity
  8
I-DIM
100
AcDbLine
 10
144.04285714285714
 20
65.73333333333333
 30
0.0
 11
146.24285714285713
 21
67.93333333333334
 31
0.0
  0
TEXT
  5
156
330
17
100
AcDbEntity
  8
I-DIM
100
AcDbText
 10
133.0
 20
67.73333333333333
 30
0.0
 40
1.9
  1
850
 72
1
 11
133.0
 21
67.73333333333333
 31
0.0
100
AcDbText
 73
1
  0
LINE
  5
157
330
17
100
AcDbEntity
  8
I-DIM
100
AcDbLine
 10
145.14285714285714
 20
74.3
 30
0.0
 11
145.14285714285714
 21
65.33333333333333
 31
0.0
  0
LINE
  5
158
330
17
100
AcDbEntity
  8
I-DIM
100
AcDbLine
 10
169.7142857142857
 20
74.3
 30
0.0
 11
169.7142857142857
 21
65.33333333333333
 31
0.0
  0
LINE
  5
159
330
17
100
AcDbEntity
  8
I-DIM
100
AcDbLine
 10
143.64285714285714
 20
66.83333333333333
 30
0.0
 11
171.2142857142857
 21
66.83333333333333
 31
0.0
  0
LINE
  5
15A
330
17
100
AcDbEntity
  8
I-DIM
100
AcDbLine
 10
144.04285714285714
 20
65.73333333333333
 30
0.0
 11
146.24285714285713
 21
67.93333333333334
 31
0.0
  0
LINE
  5
15B
330
17
100
AcDbEntity
  8
I-DIM
100
AcDbLine
 10
168.6142857142857
 20
65.73333333333333
 30
0.0
 11
170.8142857142857
 21
67.93333333333334
 31
0.0
  0
TEXT
  5
15C
330
17
100
AcDbEntity
  8
I-DIM
100
AcDbText
 10
157.42857142857142
 20
67.73333333333333
 30
0.0
 40
1.9
  1
860
 72
1
 11
157.42857142857142
 21
67.73333333333333
 31
0.0
100
AcDbText
 73
1
  0
LINE
  5
15D
330
17
100
AcDbEntity
  8
I-DIM
100
AcDbLine
 10
22.285714285714285
 20
179.55714285714285
 30
0.0
 11
22.285714285714285
 21
187.52380952380952
 31
0.0
  0
LINE
  5
15E
330
17
100
AcDbEntity
  8
I-DIM
100
AcDbLine
 10
169.7142857142857
 20
179.55714285714285
 30
0.0
 11
169.7142857142857
 21
187.52380952380952
 31
0.0
  0
LINE
  5
15F
330
17
100
AcDbEntity
  8
I-DIM
100
AcDbLine
 10
20.785714285714285
 20
186.02380952380952
 30
0.0
 11
171.2142857142857
 21
186.02380952380952
 31
0.0
  0
LINE
  5
160
330
17
100
AcDbEntity
  8
I-DIM
100
AcDbLine
 10
21.185714285714283
 20
184.92380952380952
 30
0.0
 11
23.385714285714286
 21
187.12380952380954
 31
0.0
  0
LINE
  5
161
330
17
100
AcDbEntity
  8
I-DIM
100
AcDbLine
 10
168.6142857142857
 20
184.92380952380952
 30
0.0
 11
170.8142857142857
 21
187.12380952380954
 31
0.0
  0
TEXT
  5
162
330
17
100
AcDbEntity
  8
I-DIM
100
AcDbText
 10
96.0
 20
186.92380952380952
 30
0.0
 40
1.9
  1
5160
 72
1
 11
96.0
 21
186.92380952380952
 31
0.0
100
AcDbText
 73
1
  0
LINE
  5
163
330
17
100
AcDbEntity
  8
I-DIM
100
AcDbLine
 10
170.9142857142857
 20
75.5
 30
0.0
 11
182.83333333333334
 21
75.5
 31
0.0
  0
LINE
  5
164
330
17
100
AcDbEntity
  8
I-DIM
100
AcDbLine
 10
170.9142857142857
 20
78.35714285714286
 30
0.0
 11
182.83333333333334
 21
78.35714285714286
 31
0.0
  0
LINE
  5
165
330
17
100
AcDbEntity
  8
I-DIM
100
AcDbLine
 10
181.33333333333334
 20
74.0
 30
0.0
 11
181.33333333333334
 21
79.85714285714286
 31
0.0
  0
LINE
  5
166
330
17
100
AcDbEntity
  8
I-DIM
100
AcDbLine
 10
182.43333333333334
 20
74.4
 30
0.0
 11
180.23333333333332
 21
76.6
 31
0.0
  0
LINE
  5
167
330
17
100
AcDbEntity
  8
I-DIM
100
AcDbLine
 10
182.43333333333334
 20
77.25714285714285
 30
0.0
 11
180.23333333333332
 21
79.45714285714286
 31
0.0
  0
TEXT
  5
168
330
17
100
AcDbEntity
  8
I-DIM
100
AcDbText
 10
180.43333333333334
 20
76.92857142857143
 30
0.0
 40
1.8
  1
100
 50
90.0
 72
1
 11
180.43333333333334
 21
76.92857142857143
 31
0.0
100
AcDbText
 73
1
  0
LINE
  5
169
330
17
100
AcDbEntity
  8
I-DIM
100
AcDbLine
 10
170.9142857142857
 20
78.35714285714286
 30
0.0
 11
182.83333333333334
 21
78.35714285714286
 31
0.0
  0
LINE
  5
16A
330
17
100
AcDbEntity
  8
I-DIM
100
AcDbLine
 10
170.9142857142857
 20
177.78571428571428
 30
0.0
 11
182.83333333333334
 21
177.78571428571428
 31
0.0
  0
LINE
  5
16B
330
17
100
AcDbEntity
  8
I-DIM
100
AcDbLine
 10
181.33333333333334
 20
76.85714285714286
 30
0.0
 11
181.33333333333334
 21
179.28571428571428
 31
0.0
  0
LINE
  5
16C
330
17
100
AcDbEntity
  8
I-DIM
100
AcDbLine
 10
182.43333333333334
 20
77.25714285714285
 30
0.0
 11
180.23333333333332
 21
79.45714285714286
 31
0.0
  0
LINE
  5
16D
330
17
100
AcDbEntity
  8
I-DIM
100
AcDbLine
 10
182.43333333333334
 20
176.68571428571428
 30
0.0
 11
180.23333333333332
 21
178.8857142857143
 31
0.0
  0
TEXT
  5
16E
330
17
100
AcDbEntity
  8
I-DIM
100
AcDbText
 10
180.43333333333334
 20
128.07142857142856
 30
0.0
 40
1.8
  1
3480
 50
90.0
 72
1
 11
180.43333333333334
 21
128.07142857142856
 31
0.0
100
AcDbText
 73
1
  0
LINE
  5
16F
330
17
100
AcDbEntity
  8
I-DIM
100
AcDbLine
 10
170.9142857142857
 20
177.78571428571428
 30
0.0
 11
182.83333333333334
 21
177.78571428571428
 31
0.0
  0
LINE
  5
170
330
17
100
AcDbEntity
  8
I-DIM
100
AcDbLine
 10
170.9142857142857
 20
178.35714285714283
 30
0.0
 11
182.83333333333334
 21
178.35714285714283
 31
0.0
  0
LINE
  5
171
330
17
100
AcDbEntity
  8
I-DIM
100
AcDbLine
 10
181.33333333333334
 20
176.28571428571428
 30
0.0
 11
181.33333333333334
 21
179.85714285714283
 31
0.0
  0
LINE
  5
172
330
17
100
AcDbEntity
  8
I-DIM
100
AcDbLine
 10
182.43333333333334
 20
176.68571428571428
 30
0.0
 11
180.23333333333332
 21
178.8857142857143
 31
0.0
  0
LINE
  5
173
330
17
100
AcDbEntity
  8
I-DIM
100
AcDbLine
 10
182.43333333333334
 20
177.25714285714287
 30
0.0
 11
180.23333333333332
 21
179.45714285714286
 31
0.0
  0
TEXT
  5
174
330
17
100
AcDbEntity
  8
I-DIM
100
AcDbText
 10
180.43333333333334
 20
178.07142857142856
 30
0.0
 40
1.8
  1
20
 50
90.0
 72
1
 11
180.43333333333334
 21
178.07142857142856
 31
0.0
100
AcDbText
 73
1
  0
LINE
  5
175
330
17
100
AcDbEntity
  8
I-DIM
100
AcDbLine
 10
21.085714285714285
 20
75.5
 30
0.0
 11
5.5
 21
75.5
 31
0.0
  0
LINE
  5
176
330
17
100
AcDbEntity
  8
I-DIM
100
AcDbLine
 10
21.085714285714285
 20
178.35714285714283
 30
0.0
 11
5.5
 21
178.35714285714283
 31
0.0
  0
LINE
  5
177
330
17
100
AcDbEntity
  8
I-DIM
100
AcDbLine
 10
7.0
 20
74.0
 30
0.0
 11
7.0
 21
179.85714285714283
 31
0.0
  0
LINE
  5
178
330
17
100
AcDbEntity
  8
I-DIM
100
AcDbLine
 10
8.1
 20
74.4
 30
0.0
 11
5.899999999999999
 21
76.6
 31
0.0
  0
LINE
  5
179
330
17
100
AcDbEntity
  8
I-DIM
100
AcDbLine
 10
8.1
 20
177.25714285714287
 30
0.0
 11
5.899999999999999
 21
179.45714285714286
 31
0.0
  0
TEXT
  5
17A
330
17
100
AcDbEntity
  8
I-DIM
100
AcDbText
 10
6.099999999999998
 20
126.92857142857142
 30
0.0
 40
1.9
  1
3600
 50
90.0
 72
1
 11
6.099999999999998
 21
126.92857142857142
 31
0.0
100
AcDbText
 73
1
  0
CIRCLE
  5
17B
330
17
100
AcDbEntity
  8
I-TEXT
100
AcDbCircle
 10
24.785714285714285
 20
49.5
 30
0.0
 40
4.5
  0
TEXT
  5
17C
330
17
100
AcDbEntity
  8
I-TEXT
100
AcDbText
 10
31.285714285714285
 20
50.4
 30
0.0
 40
2.8
  1
ELEVATION A
 11
31.285714285714285
 21
50.4
 31
0.0
100
AcDbText
  0
LINE
  5
17D
330
17
100
AcDbEntity
  8
I-TEXT
100
AcDbLine
 10
29.285714285714285
 20
49.5
 30
0.0
 11
74.28571428571428
 21
49.5
 31
0.0
  0
TEXT
  5
17E
330
17
100
AcDbEntity
  8
I-TEXT
100
AcDbText
 10
31.285714285714285
 20
46.3
 30
0.0
 40
2.4
  1
1:35
 11
31.285714285714285
 21
46.3
 31
0.0
100
AcDbText
  0
LINE
  5
17F
330
17
100
AcDbEntity
  8
I-NOTE
 62
7
100
AcDbLine
 10
40.5
 20
128.07142857142856
 30
0.0
 11
189.0
 21
155.72857142857143
 31
0.0
  0
CIRCLE
  5
180
330
17
100
AcDbEntity
  8
I-NOTE
 62
7
100
AcDbCircle
 10
40.5
 20
128.07142857142856
 30
0.0
 40
0.45
  0
TEXT
  5
181
330
17
100
AcDbEntity
  8
I-NOTE
 62
7
100
AcDbText
 10
189.8
 20
158.19357142857143
 30
0.0
 40
1.7
  1
TOP MIX
 11
189.8
 21
158.19357142857143
 31
0.0
100
AcDbText
 73
2
  0
TEXT
  5
182
330
17
100
AcDbEntity
  8
I-NOTE
 62
7
100
AcDbText
 10
189.8
 20
155.72857142857143
 30
0.0
 40
1.7
  1
M1-1002DM COTTON WHITE
 11
189.8
 21
155.72857142857143
 31
0.0
100
AcDbText
 73
2
  0
TEXT
  5
183
330
17
100
AcDbEntity
  8
I-NOTE
 62
1
100
AcDbText
 10
189.8
 20
153.26357142857142
 30
0.0
 40
1.7
  1
MELAMINE 16MM
 11
189.8
 21
153.26357142857142
 31
0.0
100
AcDbText
 73
2
  0
LINE
  5
184
330
17
100
AcDbEntity
  8
I-NOTE
 62
7
100
AcDbLine
 10
110.14285714285714
 20
82.07142857142857
 30
0.0
 11
189.0
 21
138.39523809523808
 31
0.0
  0
CIRCLE
  5
185
330
17
100
AcDbEntity
  8
I-NOTE
 62
7
100
AcDbCircle
 10
110.14285714285714
 20
82.07142857142857
 30
0.0
 40
0.45
  0
TEXT
  5
186
330
17
100
AcDbEntity
  8
I-NOTE
 62
7
100
AcDbText
 10
189.8
 20
140.8602380952381
 30
0.0
 40
1.7
  1
PANEL PLUS
 11
189.8
 21
140.8602380952381
 31
0.0
100
AcDbText
 73
2
  0
TEXT
  5
187
330
17
100
AcDbEntity
  8
I-NOTE
 62
7
100
AcDbText
 10
189.8
 20
138.39523809523808
 30
0.0
 40
1.7
  1
PL0242 BW OAK
 11
189.8
 21
138.39523809523808
 31
0.0
100
AcDbText
 73
2
  0
TEXT
  5
188
330
17
100
AcDbEntity
  8
I-NOTE
 62
1
100
AcDbText
 10
189.8
 20
135.93023809523808
 30
0.0
 40
1.7
  1
PLYWOOD + LAMINATE
 11
189.8
 21
135.93023809523808
 31
0.0
100
AcDbText
 73
2
  0
LINE
  5
189
330
17
100
AcDbEntity
  8
I-NOTE
 62
7
100
AcDbLine
 10
110.14285714285714
 20
101.07142857142857
 30
0.0
 11
189.0
 21
121.06190476190477
 31
0.0
  0
CIRCLE
  5
18A
330
17
100
AcDbEntity
  8
I-NOTE
 62
7
100
AcDbCircle
 10
110.14285714285714
 20
101.07142857142857
 30
0.0
 40
0.45
  0
TEXT
  5
18B
330
17
100
AcDbEntity
  8
I-NOTE
 62
7
100
AcDbText
 10
189.8
 20
123.52690476190477
 30
0.0
 40
1.7
  1
TBC
 11
189.8
 21
123.52690476190477
 31
0.0
100
AcDbText
 73
2
  0
TEXT
  5
18C
330
17
100
AcDbEntity
  8
I-NOTE
 62
7
100
AcDbText
 10
189.8
 20
121.06190476190477
 30
0.0
 40
1.7
  1
SINTERED STONE 12MM
 11
189.8
 21
121.06190476190477
 31
0.0
100
AcDbText
 73
2
  0
TEXT
  5
18D
330
17
100
AcDbEntity
  8
I-NOTE
 62
1
100
AcDbText
 10
189.8
 20
118.59690476190477
 30
0.0
 40
1.7
  1
SINTERED
 11
189.8
 21
118.59690476190477
 31
0.0
100
AcDbText
 73
2
  0
LINE
  5
18E
330
17
100
AcDbEntity
  8
A-WALL
100
AcDbLine
 10
213.1428571428571
 20
75.5
 30
0.0
 11
247.42857142857142
 21
75.5
 31
0.0
  0
LWPOLYLINE
  5
18F
330
17
100
AcDbEntity
  8
I-NOTE
 62
1
100
AcDbPolyline
 90
3
 70
1
 10
261.71428571428567
 20
75.5
 10
260.5142857142857
 20
77.18
 10
262.91428571428565
 20
77.18
  0
TEXT
  5
190
330
17
100
AcDbEntity
  8
I-TEXT
100
AcDbText
 10
259.71428571428567
 20
75.7
 30
0.0
 40
1.6
  1
FFL 000
 72
2
 11
259.71428571428567
 21
75.7
 31
0.0
100
AcDbText
 73
1
  0
LWPOLYLINE
  5
191
330
17
100
AcDbEntity
  8
A-WALL
100
AcDbPolyline
 90
4
 70
1
 10
238.85714285714283
 20
73.78571428571429
 10
243.1428571428571
 20
73.78571428571429
 10
243.1428571428571
 20
181.78571428571428
 10
238.85714285714283
 20
181.78571428571428
  0
HATCH
  5
192
330
17
100
AcDbEntity
  8
I-JOIN-HATCH
 62
7
100
AcDbHatch
 10
0.0
 20
0.0
 30
0.0
210
0.0
220
0.0
230
1.0
  2
ANSI31
 70
0
 71
0
 91
1
 92
3
 72
0
 73
1
 93
4
 10
238.85714285714283
 20
73.78571428571429
 10
243.1428571428571
 20
73.78571428571429
 10
243.1428571428571
 20
181.78571428571428
 10
238.85714285714283
 20
181.78571428571428
 97
0
 75
1
 76
1
 52
0.0
 41
1.8666666666666667
 77
0
 78
1
 53
45.0
 43
0.0
 44
0.0
 45
-4.1907861899
 46
4.1907861899
 79
0
 98
0
  0
LINE
  5
193
330
17
100
AcDbEntity
  8
I-CEIL
100
AcDbLine
 10
213.1428571428571
 20
178.35714285714283
 30
0.0
 11
247.42857142857142
 21
178.35714285714283
 31
0.0
  0
LWPOLYLINE
  5
194
330
17
100
AcDbEntity
  8
I-NOTE
 62
1
100
AcDbPolyline
 90
3
 70
1
 10
261.71428571428567
 20
178.35714285714283
 10
260.5142857142857
 20
180.03714285714284
 10
262.91428571428565
 20
180.03714285714284
  0
TEXT
  5
195
330
17
100
AcDbEntity
  8
I-TEXT
100
AcDbText
 10
259.71428571428567
 20
178.55714285714282
 30
0.0
 40
1.6
  1
CL 3600
 72
2
 11
259.71428571428567
 21
178.55714285714282
 31
0.0
100
AcDbText
 73
1
  0
LWPOLYLINE
  5
196
330
17
100
AcDbEntity
  8
I-JOIN-THIN
100
AcDbPolyline
 90
4
 70
1
 10
223.42857142857142
 20
75.5
 10
238.34285714285713
 20
75.5
 10
238.34285714285713
 20
78.35714285714286
 10
223.42857142857142
 20
78.35714285714286
  0
LWPOLYLINE
  5
197
330
17
100
AcDbEntity
  8
I-JOIN-ELEV
100
AcDbPolyline
 90
4
 70
1
 10
222.2285714285714
 20
78.35714285714286
 10
238.34285714285713
 20
78.35714285714286
 10
238.34285714285713
 20
85.78571428571428
 10
222.2285714285714
 20
85.78571428571428
  0
LWPOLYLINE
  5
198
330
17
100
AcDbEntity
  8
I-JOIN-THIN
100
AcDbPolyline
 90
4
 70
1
 10
238.34285714285713
 20
78.35714285714286
 10
238.85714285714283
 20
78.35714285714286
 10
238.85714285714283
 20
85.78571428571428
 10
238.34285714285713
 20
85.78571428571428
  0
LWPOLYLINE
  5
199
330
17
100
AcDbEntity
  8
I-JOIN-ELEV
100
AcDbPolyline
 90
4
 70
1
 10
221.7142857142857
 20
78.35714285714286
 10
222.2285714285714
 20
78.35714285714286
 10
222.2285714285714
 20
85.78571428571428
 10
221.7142857142857
 20
85.78571428571428
  0
LWPOLYLINE
  5
19A
330
17
100
AcDbEntity
  8
I-JOIN-ELEV
100
AcDbPolyline
 90
4
 70
1
 10
222.2285714285714
 20
85.78571428571428
 10
238.34285714285713
 20
85.78571428571428
 10
238.34285714285713
 20
93.21428571428572
 10
222.2285714285714
 20
93.21428571428572
  0
LWPOLYLINE
  5
19B
330
17
100
AcDbEntity
  8
I-JOIN-THIN
100
AcDbPolyline
 90
4
 70
1
 10
238.34285714285713
 20
85.78571428571428
 10
238.85714285714283
 20
85.78571428571428
 10
238.85714285714283
 20
93.21428571428572
 10
238.34285714285713
 20
93.21428571428572
  0
LWPOLYLINE
  5
19C
330
17
100
AcDbEntity
  8
I-JOIN-ELEV
100
AcDbPolyline
 90
4
 70
1
 10
221.7142857142857
 20
85.78571428571428
 10
222.2285714285714
 20
85.78571428571428
 10
222.2285714285714
 20
93.21428571428572
 10
221.7142857142857
 20
93.21428571428572
  0
LWPOLYLINE
  5
19D
330
17
100
AcDbEntity
  8
I-JOIN-ELEV
100
AcDbPolyline
 90
4
 70
1
 10
222.2285714285714
 20
93.21428571428572
 10
238.34285714285713
 20
93.21428571428572
 10
238.34285714285713
 20
100.64285714285714
 10
222.2285714285714
 20
100.64285714285714
  0
LWPOLYLINE
  5
19E
330
17
100
AcDbEntity
  8
I-JOIN-THIN
100
AcDbPolyline
 90
4
 70
1
 10
238.34285714285713
 20
93.21428571428572
 10
238.85714285714283
 20
93.21428571428572
 10
238.85714285714283
 20
100.64285714285714
 10
238.34285714285713
 20
100.64285714285714
  0
LWPOLYLINE
  5
19F
330
17
100
AcDbEntity
  8
I-JOIN-ELEV
100
AcDbPolyline
 90
4
 70
1
 10
221.7142857142857
 20
93.21428571428572
 10
222.2285714285714
 20
93.21428571428572
 10
222.2285714285714
 20
100.64285714285714
 10
221.7142857142857
 20
100.64285714285714
  0
LWPOLYLINE
  5
1A0
330
17
100
AcDbEntity
  8
I-JOIN-ELEV
100
AcDbPolyline
 90
4
 70
1
 10
221.42857142857142
 20
100.64285714285714
 10
238.85714285714283
 20
100.64285714285714
 10
238.85714285714283
 20
101.5
 10
221.42857142857142
 20
101.5
  0
LWPOLYLINE
  5
1A1
330
17
100
AcDbEntity
  8
I-JOIN-ELEV
100
AcDbPolyline
 90
4
 70
1
 10
221.7142857142857
 20
101.5
 10
238.34285714285713
 20
101.5
 10
238.34285714285713
 20
144.35714285714286
 10
221.7142857142857
 20
144.35714285714286
  0
LWPOLYLINE
  5
1A2
330
17
100
AcDbEntity
  8
I-JOIN-THIN
100
AcDbPolyline
 90
4
 70
1
 10
238.34285714285713
 20
101.5
 10
238.85714285714283
 20
101.5
 10
238.85714285714283
 20
144.35714285714286
 10
238.34285714285713
 20
144.35714285714286
  0
LWPOLYLINE
  5
1A3
330
17
100
AcDbEntity
  8
I-JOIN-THIN
100
AcDbPolyline
 90
4
 70
1
 10
222.28571428571428
 20
115.52857142857142
 10
238.34285714285713
 20
115.52857142857142
 10
238.34285714285713
 20
116.04285714285714
 10
222.28571428571428
 20
116.04285714285714
  0
LINE
  5
1A4
330
17
100
AcDbEntity
  8
I-LITE
 62
1
100
AcDbLine
 10
222.85714285714283
 20
115.21428571428572
 30
0.0
 11
225.1428571428571
 21
115.21428571428572
 31
0.0
  0
LWPOLYLINE
  5
1A5
330
17
100
AcDbEntity
  8
I-JOIN-THIN
100
AcDbPolyline
 90
4
 70
1
 10
222.28571428571428
 20
129.81428571428572
 10
238.34285714285713
 20
129.81428571428572
 10
238.34285714285713
 20
130.32857142857142
 10
222.28571428571428
 20
130.32857142857142
  0
LINE
  5
1A6
330
17
100
AcDbEntity
  8
I-LITE
 62
1
100
AcDbLine
 10
222.85714285714283
 20
129.5
 30
0.0
 11
225.1428571428571
 21
129.5
 31
0.0
  0
LWPOLYLINE
  5
1A7
330
17
100
AcDbEntity
  8
I-JOIN-ELEV
100
AcDbPolyline
 90
4
 70
1
 10
222.2285714285714
 20
144.35714285714286
 10
238.34285714285713
 20
144.35714285714286
 10
238.34285714285713
 20
176.64285714285714
 10
222.2285714285714
 20
176.64285714285714
  0
LWPOLYLINE
  5
1A8
330
17
100
AcDbEntity
  8
I-JOIN-THIN
100
AcDbPolyline
 90
4
 70
1
 10
238.34285714285713
 20
144.35714285714286
 10
238.85714285714283
 20
144.35714285714286
 10
238.85714285714283
 20
176.64285714285714
 10
238.34285714285713
 20
176.64285714285714
  0
LWPOLYLINE
  5
1A9
330
17
100
AcDbEntity
  8
I-JOIN-ELEV
100
AcDbPolyline
 90
4
 70
1
 10
221.7142857142857
 20
144.35714285714286
 10
222.2285714285714
 20
144.35714285714286
 10
222.2285714285714
 20
176.64285714285714
 10
221.7142857142857
 20
176.64285714285714
  0
LWPOLYLINE
  5
1AA
330
17
100
AcDbEntity
  8
I-JOIN-THIN
100
AcDbPolyline
 90
4
 70
1
 10
222.79999999999998
 20
160.24285714285713
 10
238.34285714285713
 20
160.24285714285713
 10
238.34285714285713
 20
160.75714285714287
 10
222.79999999999998
 20
160.75714285714287
  0
LWPOLYLINE
  5
1AB
330
17
100
AcDbEntity
  8
I-JOIN-THIN
100
AcDbPolyline
 90
4
 70
1
 10
221.7142857142857
 20
177.78571428571428
 10
238.85714285714283
 20
177.78571428571428
 10
238.85714285714283
 20
178.35714285714283
 10
221.7142857142857
 20
178.35714285714283
  0
LINE
  5
1AC
330
17
100
AcDbEntity
  8
I-DIM
100
AcDbLine
 10
221.7142857142857
 20
72.58571428571429
 30
0.0
 11
221.7142857142857
 21
68.0
 31
0.0
  0
LINE
  5
1AD
330
17
100
AcDbEntity
  8
I-DIM
100
AcDbLine
 10
238.85714285714283
 20
72.58571428571429
 30
0.0
 11
238.85714285714283
 21
68.0
 31
0.0
  0
LINE
  5
1AE
330
17
100
AcDbEntity
  8
I-DIM
100
AcDbLine
 10
220.2142857142857
 20
69.5
 30
0.0
 11
240.35714285714283
 21
69.5
 31
0.0
  0
LINE
  5
1AF
330
17
100
AcDbEntity
  8
I-DIM
100
AcDbLine
 10
220.6142857142857
 20
68.4
 30
0.0
 11
222.8142857142857
 21
70.6
 31
0.0
  0
LINE
  5
1B0
330
17
100
AcDbEntity
  8
I-DIM
100
AcDbLine
 10
237.75714285714284
 20
68.4
 30
0.0
 11
239.95714285714283
 21
70.6
 31
0.0
  0
TEXT
  5
1B1
330
17
100
AcDbEntity
  8
I-DIM
100
AcDbText
 10
230.28571428571428
 20
70.4
 30
0.0
 40
1.8
  1
600
 72
1
 11
230.28571428571428
 21
70.4
 31
0.0
100
AcDbText
 73
1
  0
CIRCLE
  5
1B2
330
17
100
AcDbEntity
  8
I-TEXT
100
AcDbCircle
 10
224.2142857142857
 20
49.5
 30
0.0
 40
4.5
  0
TEXT
  5
1B3
330
17
100
AcDbEntity
  8
I-TEXT
100
AcDbText
 10
230.7142857142857
 20
50.4
 30
0.0
 40
2.8
  1
SECTION X-X
 11
230.7142857142857
 21
50.4
 31
0.0
100
AcDbText
  0
LINE
  5
1B4
330
17
100
AcDbEntity
  8
I-TEXT
100
AcDbLine
 10
228.7142857142857
 20
49.5
 30
0.0
 11
273.71428571428567
 21
49.5
 31
0.0
  0
TEXT
  5
1B5
330
17
100
AcDbEntity
  8
I-TEXT
100
AcDbText
 10
230.7142857142857
 20
46.3
 30
0.0
 40
2.4
  1
1:35
 11
230.7142857142857
 21
46.3
 31
0.0
100
AcDbText
  0
LWPOLYLINE
  5
1B6
330
17
100
AcDbEntity
  8
A-WALL
100
AcDbPolyline
 90
4
 70
1
 10
32.0
 20
263.7142857142857
 10
188.0
 20
263.7142857142857
 10
188.0
 20
268.0
 10
32.0
 20
268.0
  0
HATCH
  5
1B7
330
17
100
AcDbEntity
  8
I-JOIN-HATCH
 62
7
100
AcDbHatch
 10
0.0
 20
0.0
 30
0.0
210
0.0
220
0.0
230
1.0
  2
ANSI31
 70
0
 71
0
 91
1
 92
3
 72
0
 73
1
 93
4
 10
32.0
 20
263.7142857142857
 10
188.0
 20
263.7142857142857
 10
188.0
 20
268.0
 10
32.0
 20
268.0
 97
0
 75
1
 76
1
 52
0.0
 41
1.8666666666666667
 77
0
 78
1
 53
45.0
 43
0.0
 44
0.0
 45
-4.1907861899
 46
4.1907861899
 79
0
 98
0
  0
LWPOLYLINE
  5
1B8
330
17
100
AcDbEntity
  8
A-WALL
100
AcDbPolyline
 90
4
 70
1
 10
32.0
 20
242.2857142857143
 10
36.285714285714285
 20
242.2857142857143
 10
36.285714285714285
 20
263.7142857142857
 10
32.0
 20
263.7142857142857
  0
HATCH
  5
1B9
330
17
100
AcDbEntity
  8
I-JOIN-HATCH
 62
7
100
AcDbHatch
 10
0.0
 20
0.0
 30
0.0
210
0.0
220
0.0
230
1.0
  2
ANSI31
 70
0
 71
0
 91
1
 92
3
 72
0
 73
1
 93
4
 10
32.0
 20
242.2857142857143
 10
36.285714285714285
 20
242.2857142857143
 10
36.285714285714285
 20
263.7142857142857
 10
32.0
 20
263.7142857142857
 97
0
 75
1
 76
1
 52
0.0
 41
1.8666666666666667
 77
0
 78
1
 53
45.0
 43
0.0
 44
0.0
 45
-4.1907861899
 46
4.1907861899
 79
0
 98
0
  0
LWPOLYLINE
  5
1BA
330
17
100
AcDbEntity
  8
A-WALL
100
AcDbPolyline
 90
4
 70
1
 10
183.7142857142857
 20
242.2857142857143
 10
188.0
 20
242.2857142857143
 10
188.0
 20
263.7142857142857
 10
183.7142857142857
 20
263.7142857142857
  0
HATCH
  5
1BB
330
17
100
AcDbEntity
  8
I-JOIN-HATCH
 62
7
100
AcDbHatch
 10
0.0
 20
0.0
 30
0.0
210
0.0
220
0.0
230
1.0
  2
ANSI31
 70
0
 71
0
 91
1
 92
3
 72
0
 73
1
 93
4
 10
183.7142857142857
 20
242.2857142857143
 10
188.0
 20
242.2857142857143
 10
188.0
 20
263.7142857142857
 10
183.7142857142857
 20
263.7142857142857
 97
0
 75
1
 76
1
 52
0.0
 41
1.8666666666666667
 77
0
 78
1
 53
45.0
 43
0.0
 44
0.0
 45
-4.1907861899
 46
4.1907861899
 79
0
 98
0
  0
LWPOLYLINE
  5
1BC
330
17
100
AcDbEntity
  8
I-JOIN
100
AcDbPolyline
 90
4
 70
1
 10
36.285714285714285
 20
246.57142857142858
 10
183.7142857142857
 20
246.57142857142858
 10
183.7142857142857
 20
263.7142857142857
 10
36.285714285714285
 20
263.7142857142857
  0
LINE
  5
1BD
330
17
100
AcDbEntity
  8
I-JOIN
100
AcDbLine
 10
36.285714285714285
 20
246.57142857142858
 30
0.0
 11
36.285714285714285
 21
263.7142857142857
 31
0.0
  0
LINE
  5
1BE
330
17
100
AcDbEntity
  8
I-JOIN
100
AcDbLine
 10
60.57142857142857
 20
246.57142857142858
 30
0.0
 11
60.57142857142857
 21
263.7142857142857
 31
0.0
  0
LINE
  5
1BF
330
17
100
AcDbEntity
  8
I-JOIN
100
AcDbLine
 10
92.0
 20
246.57142857142858
 30
0.0
 11
92.0
 21
263.7142857142857
 31
0.0
  0
LINE
  5
1C0
330
17
100
AcDbEntity
  8
I-JOIN
100
AcDbLine
 10
134.85714285714286
 20
246.57142857142858
 30
0.0
 11
134.85714285714286
 21
263.7142857142857
 31
0.0
  0
LINE
  5
1C1
330
17
100
AcDbEntity
  8
I-JOIN
100
AcDbLine
 10
159.14285714285714
 20
246.57142857142858
 30
0.0
 11
159.14285714285714
 21
263.7142857142857
 31
0.0
  0
LINE
  5
1C2
330
17
100
AcDbEntity
  8
I-JOIN
100
AcDbLine
 10
36.285714285714285
 20
247.0857142857143
 30
0.0
 11
183.7142857142857
 21
247.0857142857143
 31
0.0
  0
CIRCLE
  5
1C3
330
17
100
AcDbEntity
  8
I-SYMB
 62
6
100
AcDbCircle
 10
110.0
 20
234.57142857142858
 30
0.0
 40
2.6
  0
HATCH
  5
1C4
330
17
100
AcDbEntity
  8
I-SYMB
 62
6
100
AcDbHatch
 10
0.0
 20
0.0
 30
0.0
210
0.0
220
0.0
230
1.0
  2
SOLID
 70
1
 71
0
 91
1
 92
3
 72
0
 73
1
 93
3
 10
110.0
 20
239.51142857142858
 10
107.57669837648521
 20
235.51355873306792
 10
112.42330162351479
 20
235.51355873306792
 97
0
 75
1
 76
1
 98
0
  0
TEXT
  5
1C5
330
17
100
AcDbEntity
  8
I-SYMB
 62
6
100
AcDbText
 10
110.0
 20
234.57142857142858
 30
0.0
 40
2.7300000000000004
  1
A
 72
1
 11
110.0
 21
234.57142857142858
 31
0.0
100
AcDbText
 73
2
  0
LINE
  5
1C6
330
17
100
AcDbEntity
  8
I-SYMB
 62
6
100
AcDbLine
 10
113.42857142857142
 20
239.42857142857144
 30
0.0
 11
113.42857142857142
 21
272.2857142857143
 31
0.0
  0
CIRCLE
  5
1C7
330
17
100
AcDbEntity
  8
I-SYMB
 62
6
100
AcDbCircle
 10
113.42857142857142
 20
239.42857142857144
 30
0.0
 40
2.2
  0
TEXT
  5
1C8
330
17
100
AcDbEntity
  8
I-SYMB
 62
6
100
AcDbText
 10
113.42857142857142
 20
239.42857142857144
 30
0.0
 40
2.2
  1
X
 72
1
 11
113.42857142857142
 21
239.42857142857144
 31
0.0
100
AcDbText
 73
2
  0
CIRCLE
  5
1C9
330
17
100
AcDbEntity
  8
I-SYMB
 62
6
100
AcDbCircle
 10
113.42857142857142
 20
272.2857142857143
 30
0.0
 40
2.2
  0
TEXT
  5
1CA
330
17
100
AcDbEntity
  8
I-SYMB
 62
6
100
AcDbText
 10
113.42857142857142
 20
272.2857142857143
 30
0.0
 40
2.2
  1
X
 72
1
 11
113.42857142857142
 21
272.2857142857143
 31
0.0
100
AcDbText
 73
2
  0
LINE
  5
1CB
330
17
100
AcDbEntity
  8
I-DIM
100
AcDbLine
 10
36.285714285714285
 20
269.2
 30
0.0
 11
36.285714285714285
 21
275.7857142857143
 31
0.0
  0
LINE
  5
1CC
330
17
100
AcDbEntity
  8
I-DIM
100
AcDbLine
 10
183.7142857142857
 20
269.2
 30
0.0
 11
183.7142857142857
 21
275.7857142857143
 31
0.0
  0
LINE
  5
1CD
330
17
100
AcDbEntity
  8
I-DIM
100
AcDbLine
 10
34.785714285714285
 20
274.2857142857143
 30
0.0
 11
185.2142857142857
 21
274.2857142857143
 31
0.0
  0
LINE
  5
1CE
330
17
100
AcDbEntity
  8
I-DIM
100
AcDbLine
 10
35.18571428571428
 20
273.1857142857143
 30
0.0
 11
37.385714285714286
 21
275.3857142857143
 31
0.0
  0
LINE
  5
1CF
330
17
100
AcDbEntity
  8
I-DIM
100
AcDbLine
 10
182.6142857142857
 20
273.1857142857143
 30
0.0
 11
184.8142857142857
 21
275.3857142857143
 31
0.0
  0
TEXT
  5
1D0
330
17
100
AcDbEntity
  8
I-DIM
100
AcDbText
 10
110.0
 20
275.1857142857143
 30
0.0
 40
1.8
  1
5160
 72
1
 11
110.0
 21
275.1857142857143
 31
0.0
100
AcDbText
 73
1
  0
LINE
  5
1D1
330
17
100
AcDbEntity
  8
I-DIM
100
AcDbLine
 10
36.285714285714285
 20
245.3714285714286
 30
0.0
 11
36.285714285714285
 21
240.21428571428572
 31
0.0
  0
LINE
  5
1D2
330
17
100
AcDbEntity
  8
I-DIM
100
AcDbLine
 10
60.57142857142857
 20
245.3714285714286
 30
0.0
 11
60.57142857142857
 21
240.21428571428572
 31
0.0
  0
LINE
  5
1D3
330
17
100
AcDbEntity
  8
I-DIM
100
AcDbLine
 10
34.785714285714285
 20
241.71428571428572
 30
0.0
 11
62.07142857142857
 21
241.71428571428572
 31
0.0
  0
LINE
  5
1D4
330
17
100
AcDbEntity
  8
I-DIM
100
AcDbLine
 10
35.18571428571428
 20
240.61428571428573
 30
0.0
 11
37.385714285714286
 21
242.81428571428572
 31
0.0
  0
LINE
  5
1D5
330
17
100
AcDbEntity
  8
I-DIM
100
AcDbLine
 10
59.47142857142857
 20
240.61428571428573
 30
0.0
 11
61.67142857142857
 21
242.81428571428572
 31
0.0
  0
TEXT
  5
1D6
330
17
100
AcDbEntity
  8
I-DIM
100
AcDbText
 10
48.42857142857143
 20
242.61428571428573
 30
0.0
 40
1.6
  1
850
 72
1
 11
48.42857142857143
 21
242.61428571428573
 31
0.0
100
AcDbText
 73
1
  0
LINE
  5
1D7
330
17
100
AcDbEntity
  8
I-DIM
100
AcDbLine
 10
60.57142857142857
 20
245.3714285714286
 30
0.0
 11
60.57142857142857
 21
240.21428571428572
 31
0.0
  0
LINE
  5
1D8
330
17
100
AcDbEntity
  8
I-DIM
100
AcDbLine
 10
92.0
 20
245.3714285714286
 30
0.0
 11
92.0
 21
240.21428571428572
 31
0.0
  0
LINE
  5
1D9
330
17
100
AcDbEntity
  8
I-DIM
100
AcDbLine
 10
59.07142857142857
 20
241.71428571428572
 30
0.0
 11
93.5
 21
241.71428571428572
 31
0.0
  0
LINE
  5
1DA
330
17
100
AcDbEntity
  8
I-DIM
100
AcDbLine
 10
59.47142857142857
 20
240.61428571428573
 30
0.0
 11
61.67142857142857
 21
242.81428571428572
 31
0.0
  0
LINE
  5
1DB
330
17
100
AcDbEntity
  8
I-DIM
100
AcDbLine
 10
90.9
 20
240.61428571428573
 30
0.0
 11
93.1
 21
242.81428571428572
 31
0.0
  0
TEXT
  5
1DC
330
17
100
AcDbEntity
  8
I-DIM
100
AcDbText
 10
76.28571428571428
 20
242.61428571428573
 30
0.0
 40
1.6
  1
1100
 72
1
 11
76.28571428571428
 21
242.61428571428573
 31
0.0
100
AcDbText
 73
1
  0
LINE
  5
1DD
330
17
100
AcDbEntity
  8
I-DIM
100
AcDbLine
 10
92.0
 20
245.3714285714286
 30
0.0
 11
92.0
 21
240.21428571428572
 31
0.0
  0
LINE
  5
1DE
330
17
100
AcDbEntity
  8
I-DIM
100
AcDbLine
 10
134.85714285714286
 20
245.3714285714286
 30
0.0
 11
134.85714285714286
 21
240.21428571428572
 31
0.0
  0
LINE
  5
1DF
330
17
100
AcDbEntity
  8
I-DIM
100
AcDbLine
 10
90.5
 20
241.71428571428572
 30
0.0
 11
136.35714285714286
 21
241.71428571428572
 31
0.0
  0
LINE
  5
1E0
330
17
100
AcDbEntity
  8
I-DIM
100
AcDbLine
 10
90.9
 20
240.61428571428573
 30
0.0
 11
93.1
 21
242.81428571428572
 31
0.0
  0
LINE
  5
1E1
330
17
100
AcDbEntity
  8
I-DIM
100
AcDbLine
 10
133.75714285714287
 20
240.61428571428573
 30
0.0
 11
135.95714285714286
 21
242.81428571428572
 31
0.0
  0
TEXT
  5
1E2
330
17
100
AcDbEntity
  8
I-DIM
100
AcDbText
 10
113.42857142857142
 20
242.61428571428573
 30
0.0
 40
1.6
  1
1500
 72
1
 11
113.42857142857142
 21
242.61428571428573
 31
0.0
100
AcDbText
 73
1
  0
LINE
  5
1E3
330
17
100
AcDbEntity
  8
I-DIM
100
AcDbLine
 10
134.85714285714286
 20
245.3714285714286
 30
0.0
 11
134.85714285714286
 21
240.21428571428572
 31
0.0
  0
LINE
  5
1E4
330
17
100
AcDbEntity
  8
I-DIM
100
AcDbLine
 10
159.14285714285714
 20
245.3714285714286
 30
0.0
 11
159.14285714285714
 21
240.21428571428572
 31
0.0
  0
LINE
  5
1E5
330
17
100
AcDbEntity
  8
I-DIM
100
AcDbLine
 10
133.35714285714286
 20
241.71428571428572
 30
0.0
 11
160.64285714285714
 21
241.71428571428572
 31
0.0
  0
LINE
  5
1E6
330
17
100
AcDbEntity
  8
I-DIM
100
AcDbLine
 10
133.75714285714287
 20
240.61428571428573
 30
0.0
 11
135.95714285714286
 21
242.81428571428572
 31
0.0
  0
LINE
  5
1E7
330
17
100
AcDbEntity
  8
I-DIM
100
AcDbLine
 10
158.04285714285714
 20
240.61428571428573
 30
0.0
 11
160.24285714285713
 21
242.81428571428572
 31
0.0
  0
TEXT
  5
1E8
330
17
100
AcDbEntity
  8
I-DIM
100
AcDbText
 10
147.0
 20
242.61428571428573
 30
0.0
 40
1.6
  1
850
 72
1
 11
147.0
 21
242.61428571428573
 31
0.0
100
AcDbText
 73
1
  0
LINE
  5
1E9
330
17
100
AcDbEntity
  8
I-DIM
100
AcDbLine
 10
159.14285714285714
 20
245.3714285714286
 30
0.0
 11
159.14285714285714
 21
240.21428571428572
 31
0.0
  0
LINE
  5
1EA
330
17
100
AcDbEntity
  8
I-DIM
100
AcDbLine
 10
183.7142857142857
 20
245.3714285714286
 30
0.0
 11
183.7142857142857
 21
240.21428571428572
 31
0.0
  0
LINE
  5
1EB
330
17
100
AcDbEntity
  8
I-DIM
100
AcDbLine
 10
157.64285714285714
 20
241.71428571428572
 30
0.0
 11
185.2142857142857
 21
241.71428571428572
 31
0.0
  0
LINE
  5
1EC
330
17
100
AcDbEntity
  8
I-DIM
100
AcDbLine
 10
158.04285714285714
 20
240.61428571428573
 30
0.0
 11
160.24285714285713
 21
242.81428571428572
 31
0.0
  0
LINE
  5
1ED
330
17
100
AcDbEntity
  8
I-DIM
100
AcDbLine
 10
182.6142857142857
 20
240.61428571428573
 30
0.0
 11
184.8142857142857
 21
242.81428571428572
 31
0.0
  0
TEXT
  5
1EE
330
17
100
AcDbEntity
  8
I-DIM
100
AcDbText
 10
171.42857142857142
 20
242.61428571428573
 30
0.0
 40
1.6
  1
860
 72
1
 11
171.42857142857142
 21
242.61428571428573
 31
0.0
100
AcDbText
 73
1
  0
LINE
  5
1EF
330
17
100
AcDbEntity
  8
I-DIM
100
AcDbLine
 10
184.9142857142857
 20
246.57142857142858
 30
0.0
 11
195.5
 21
246.57142857142858
 31
0.0
  0
LINE
  5
1F0
330
17
100
AcDbEntity
  8
I-DIM
100
AcDbLine
 10
184.9142857142857
 20
263.7142857142857
 30
0.0
 11
195.5
 21
263.7142857142857
 31
0.0
  0
LINE
  5
1F1
330
17
100
AcDbEntity
  8
I-DIM
100
AcDbLine
 10
194.0
 20
245.07142857142858
 30
0.0
 11
194.0
 21
265.2142857142857
 31
0.0
  0
LINE
  5
1F2
330
17
100
AcDbEntity
  8
I-DIM
100
AcDbLine
 10
195.1
 20
245.4714285714286
 30
0.0
 11
192.89999999999998
 21
247.67142857142858
 31
0.0
  0
LINE
  5
1F3
330
17
100
AcDbEntity
  8
I-DIM
100
AcDbLine
 10
195.1
 20
262.6142857142857
 30
0.0
 11
192.89999999999998
 21
264.81428571428575
 31
0.0
  0
TEXT
  5
1F4
330
17
100
AcDbEntity
  8
I-DIM
100
AcDbText
 10
193.1
 20
255.14285714285717
 30
0.0
 40
1.6
  1
600
 50
90.0
 72
1
 11
193.1
 21
255.14285714285717
 31
0.0
100
AcDbText
 73
1
  0
CIRCLE
  5
1F5
330
17
100
AcDbEntity
  8
I-TEXT
100
AcDbCircle
 10
22.0
 20
250.57142857142858
 30
0.0
 40
7.5
  0
TEXT
  5
1F6
330
17
100
AcDbEntity
  8
I-TEXT
100
AcDbText
 10
22.0
 20
250.57142857142858
 30
0.0
 40
3.0
  1
CF05
 72
1
 11
22.0
 21
250.57142857142858
 31
0.0
100
AcDbText
 73
2
  0
TEXT
  5
1F7
330
17
100
AcDbEntity
  8
I-TEXT
100
AcDbText
 10
31.0
 20
251.77142857142857
 30
0.0
 40
2.4
  1
DRINK COUNTER & STORAGE WALL SET
 11
31.0
 21
251.77142857142857
 31
0.0
100
AcDbText
  0
LINE
  5
1F8
330
17
100
AcDbEntity
  8
I-TEXT
100
AcDbLine
 10
29.5
 20
250.57142857142858
 30
0.0
 11
94.19999999999999
 21
250.57142857142858
 31
0.0
  0
TEXT
  5
1F9
330
17
100
AcDbEntity
  8
I-TEXT
100
AcDbText
 10
31.0
 20
247.17142857142858
 30
0.0
 40
2.2
  1
1:35
 11
31.0
 21
247.17142857142858
 31
0.0
100
AcDbText
  0
CIRCLE
  5
1FA
330
17
100
AcDbEntity
  8
I-NOTE
 62
1
100
AcDbCircle
 10
228.0
 20
249.0
 30
0.0
 40
21.0
  0
CIRCLE
  5
1FB
330
17
100
AcDbEntity
  8
I-NOTE
 62
1
100
AcDbCircle
 10
210.2
 20
224.5
 30
0.0
 40
3.2
  0
TEXT
  5
1FC
330
17
100
AcDbEntity
  8
I-NOTE
 62
1
100
AcDbText
 10
215.0
 20
225.4
 30
0.0
 40
2.6
  1
DETAIL 1
 11
215.0
 21
225.4
 31
0.0
100
AcDbText
  0
LINE
  5
1FD
330
17
100
AcDbEntity
  8
I-NOTE
 62
1
100
AcDbLine
 10
213.4
 20
224.5
 30
0.0
 11
239.0
 21
224.5
 31
0.0
  0
TEXT
  5
1FE
330
17
100
AcDbEntity
  8
I-NOTE
 62
1
100
AcDbText
 10
215.0
 20
221.4
 30
0.0
 40
2.2
  1
1:5
 11
215.0
 21
221.4
 31
0.0
100
AcDbText
  0
TEXT
  5
1FF
330
17
100
AcDbEntity
  8
I-NOTE
 62
1
100
AcDbText
 10
228.0
 20
272.2
 30
0.0
 40
2.3
  1
INFILL RECESS 20MM
 72
1
 11
228.0
 21
272.2
 31
0.0
100
AcDbText
 73
1
  0
LWPOLYLINE
  5
200
330
17
100
AcDbEntity
  8
A-WALL
100
AcDbPolyline
 90
4
 70
1
 10
210.0
 20
257.0
 10
246.0
 20
257.0
 10
246.0
 20
263.0
 10
210.0
 20
263.0
  0
HATCH
  5
201
330
17
100
AcDbEntity
  8
I-JOIN-HATCH
 62
7
100
AcDbHatch
 10
0.0
 20
0.0
 30
0.0
210
0.0
220
0.0
230
1.0
  2
ANSI31
 70
0
 71
0
 91
1
 92
3
 72
0
 73
1
 93
4
 10
210.0
 20
257.0
 10
246.0
 20
257.0
 10
246.0
 20
263.0
 10
210.0
 20
263.0
 97
0
 75
1
 76
1
 52
0.0
 41
0.25
 77
0
 78
1
 53
45.0
 43
0.0
 44
0.0
 45
-0.5612660076
 46
0.5612660076
 79
0
 98
0
  0
LWPOLYLINE
  5
202
330
17
100
AcDbEntity
  8
I-JOIN-ELEV
100
AcDbPolyline
 90
4
 70
1
 10
212.0
 20
231.0
 10
240.0
 20
231.0
 10
240.0
 20
253.0
 10
212.0
 20
253.0
  0
LWPOLYLINE
  5
203
330
17
100
AcDbEntity
  8
I-JOIN-ELEV
100
AcDbPolyline
 90
4
 70
1
 10
240.0
 20
231.0
 10
243.6
 20
231.0
 10
243.6
 20
253.0
 10
240.0
 20
253.0
  0
LWPOLYLINE
  5
204
330
17
100
AcDbEntity
  8
I-JOIN-THIN
100
AcDbPolyline
 90
4
 70
1
 10
212.0
 20
253.0
 10
243.6
 20
253.0
 10
243.6
 20
257.0
 10
212.0
 20
257.0
  0
LINE
  5
205
330
17
100
AcDbEntity
  8
I-DIM
100
AcDbLine
 10
244.8
 20
253.0
 30
0.0
 11
248.7
 21
253.0
 31
0.0
  0
LINE
  5
206
330
17
100
AcDbEntity
  8
I-DIM
100
AcDbLine
 10
244.8
 20
257.0
 30
0.0
 11
248.7
 21
257.0
 31
0.0
  0
LINE
  5
207
330
17
100
AcDbEntity
  8
I-DIM
100
AcDbLine
 10
247.2
 20
251.5
 30
0.0
 11
247.2
 21
258.5
 31
0.0
  0
LINE
  5
208
330
17
100
AcDbEntity
  8
I-DIM
100
AcDbLine
 10
248.3
 20
251.9
 30
0.0
 11
246.1
 21
254.1
 31
0.0
  0
LINE
  5
209
330
17
100
AcDbEntity
  8
I-DIM
100
AcDbLine
 10
248.3
 20
255.9
 30
0.0
 11
246.1
 21
258.1
 31
0.0
  0
TEXT
  5
20A
330
17
100
AcDbEntity
  8
I-DIM
100
AcDbText
 10
246.3
 20
255.0
 30
0.0
 40
1.6
  1
20
 50
90.0
 72
1
 11
246.3
 21
255.0
 31
0.0
100
AcDbText
 73
1
  0
LINE
  5
20B
330
17
100
AcDbEntity
  8
I-NOTE
 62
1
100
AcDbLine
 10
230.0
 20
255.0
 30
0.0
 11
240.0
 21
268.0
 31
0.0
  0
CIRCLE
  5
20C
330
17
100
AcDbEntity
  8
I-NOTE
 62
1
100
AcDbCircle
 10
230.0
 20
255.0
 30
0.0
 40
0.45
  0
TEXT
  5
20D
330
17
100
AcDbEntity
  8
I-NOTE
 62
1
100
AcDbText
 10
240.8
 20
268.0
 30
0.0
 40
1.8
  1
INFILL RECESS 20MM
 11
240.8
 21
268.0
 31
0.0
100
AcDbText
 73
2
  0
CIRCLE
  5
20E
330
17
100
AcDbEntity
  8
I-NOTE
 62
1
100
AcDbCircle
 10
279.0
 20
249.0
 30
0.0
 40
21.0
  0
CIRCLE
  5
20F
330
17
100
AcDbEntity
  8
I-NOTE
 62
1
100
AcDbCircle
 10
261.2
 20
224.5
 30
0.0
 40
3.2
  0
TEXT
  5
210
330
17
100
AcDbEntity
  8
I-NOTE
 62
1
100
AcDbText
 10
266.0
 20
225.4
 30
0.0
 40
2.6
  1
DETAIL 2
 11
266.0
 21
225.4
 31
0.0
100
AcDbText
  0
LINE
  5
211
330
17
100
AcDbEntity
  8
I-NOTE
 62
1
100
AcDbLine
 10
264.4
 20
224.5
 30
0.0
 11
290.0
 21
224.5
 31
0.0
  0
TEXT
  5
212
330
17
100
AcDbEntity
  8
I-NOTE
 62
1
100
AcDbText
 10
266.0
 20
221.4
 30
0.0
 40
2.2
  1
1:5
 11
266.0
 21
221.4
 31
0.0
100
AcDbText
  0
TEXT
  5
213
330
17
100
AcDbEntity
  8
I-NOTE
 62
1
100
AcDbText
 10
279.0
 20
272.2
 30
0.0
 40
2.3
  1
LED STRIP LIGHT 3000K
 72
1
 11
279.0
 21
272.2
 31
0.0
100
AcDbText
 73
1
  0
LWPOLYLINE
  5
214
330
17
100
AcDbEntity
  8
I-JOIN-ELEV
100
AcDbPolyline
 90
4
 70
1
 10
261.0
 20
247.2
 10
297.0
 20
247.2
 10
297.0
 20
250.8
 10
261.0
 20
250.8
  0
LWPOLYLINE
  5
215
330
17
100
AcDbEntity
  8
I-LITE
 62
1
100
AcDbPolyline
 90
4
 70
1
 10
263.0
 20
245.0
 10
267.0
 20
245.0
 10
267.0
 20
247.2
 10
263.0
 20
247.2
  0
CIRCLE
  5
216
330
17
100
AcDbEntity
  8
I-LITE
 62
1
100
AcDbCircle
 10
265.0
 20
246.0
 30
0.0
 40
0.6000000000000001
  0
LINE
  5
217
330
17
100
AcDbEntity
  8
I-NOTE
 62
1
100
AcDbLine
 10
265.0
 20
246.0
 30
0.0
 11
275.0
 21
235.0
 31
0.0
  0
CIRCLE
  5
218
330
17
100
AcDbEntity
  8
I-NOTE
 62
1
100
AcDbCircle
 10
265.0
 20
246.0
 30
0.0
 40
0.45
  0
TEXT
  5
219
330
17
100
AcDbEntity
  8
I-NOTE
 62
1
100
AcDbText
 10
275.8
 20
236.305
 30
0.0
 40
1.8
  1
LED STRIP LIGHT 3000K
 11
275.8
 21
236.305
 31
0.0
100
AcDbText
 73
2
  0
TEXT
  5
21A
330
17
100
AcDbEntity
  8
I-NOTE
 62
1
100
AcDbText
 10
275.8
 20
233.695
 30
0.0
 40
1.8
  1
C/W ALU PROFILE
 11
275.8
 21
233.695
 31
0.0
100
AcDbText
 73
2
  0
CIRCLE
  5
21B
330
17
100
AcDbEntity
  8
I-NOTE
 62
1
100
AcDbCircle
 10
330.0
 20
249.0
 30
0.0
 40
21.0
  0
CIRCLE
  5
21C
330
17
100
AcDbEntity
  8
I-NOTE
 62
1
100
AcDbCircle
 10
312.2
 20
224.5
 30
0.0
 40
3.2
  0
TEXT
  5
21D
330
17
100
AcDbEntity
  8
I-NOTE
 62
1
100
AcDbText
 10
317.0
 20
225.4
 30
0.0
 40
2.6
  1
DETAIL 3
 11
317.0
 21
225.4
 31
0.0
100
AcDbText
  0
LINE
  5
21E
330
17
100
AcDbEntity
  8
I-NOTE
 62
1
100
AcDbLine
 10
315.4
 20
224.5
 30
0.0
 11
341.0
 21
224.5
 31
0.0
  0
TEXT
  5
21F
330
17
100
AcDbEntity
  8
I-NOTE
 62
1
100
AcDbText
 10
317.0
 20
221.4
 30
0.0
 40
2.2
  1
1:5
 11
317.0
 21
221.4
 31
0.0
100
AcDbText
  0
TEXT
  5
220
330
17
100
AcDbEntity
  8
I-NOTE
 62
1
100
AcDbText
 10
330.0
 20
275.4
 30
0.0
 40
2.3
  1
45° FINGER PULL
 72
1
 11
330.0
 21
275.4
 31
0.0
100
AcDbText
 73
1
  0
TEXT
  5
221
330
17
100
AcDbEntity
  8
I-NOTE
 62
1
100
AcDbText
 10
330.0
 20
272.2
 30
0.0
 40
2.3
  1
DOOR PANEL
 72
1
 11
330.0
 21
272.2
 31
0.0
100
AcDbText
 73
1
  0
LWPOLYLINE
  5
222
330
17
100
AcDbEntity
  8
I-JOIN-ELEV
100
AcDbPolyline
 90
4
 70
1
 10
312.0
 20
247.0
 10
329.2
 20
247.0
 10
329.2
 20
250.6
 10
312.0
 20
250.6
  0
LWPOLYLINE
  5
223
330
17
100
AcDbEntity
  8
I-JOIN-ELEV
100
AcDbPolyline
 90
4
 70
1
 10
330.8
 20
247.0
 10
348.0
 20
247.0
 10
348.0
 20
250.6
 10
330.8
 20
250.6
  0
LWPOLYLINE
  5
224
330
17
100
AcDbEntity
  8
I-JOIN-ELEV
100
AcDbPolyline
 90
3
 70
1
 10
329.2
 20
250.6
 10
329.2
 20
248.6
 10
327.2
 20
250.6
  0
LWPOLYLINE
  5
225
330
17
100
AcDbEntity
  8
I-JOIN-ELEV
100
AcDbPolyline
 90
3
 70
1
 10
330.8
 20
250.6
 10
330.8
 20
248.6
 10
332.8
 20
250.6
  0
LWPOLYLINE
  5
226
330
17
100
AcDbEntity
  8
I-JOIN-THIN
100
AcDbPolyline
 90
4
 70
1
 10
312.0
 20
250.6
 10
348.0
 20
250.6
 10
348.0
 20
263.0
 10
312.0
 20
263.0
  0
TEXT
  5
227
330
17
100
AcDbEntity
  8
I-NOTE
 62
1
100
AcDbText
 10
330.0
 20
243.0
 30
0.0
 40
2.2
  1
45°
 72
1
 11
330.0
 21
243.0
 31
0.0
100
AcDbText
 73
2
  0
LINE
  5
228
330
17
100
AcDbEntity
  8
I-NOTE
 62
1
100
AcDbLine
 10
328.2
 20
250.0
 30
0.0
 11
318.0
 21
235.0
 31
0.0
  0
CIRCLE
  5
229
330
17
100
AcDbEntity
  8
I-NOTE
 62
1
100
AcDbCircle
 10
328.2
 20
250.0
 30
0.0
 40
0.45
  0
TEXT
  5
22A
330
17
100
AcDbEntity
  8
I-NOTE
 62
1
100
AcDbText
 10
318.8
 20
236.305
 30
0.0
 40
1.8
  1
45° FINGER PULL
 11
318.8
 21
236.305
 31
0.0
100
AcDbText
 73
2
  0
TEXT
  5
22B
330
17
100
AcDbEntity
  8
I-NOTE
 62
1
100
AcDbText
 10
318.8
 20
233.695
 30
0.0
 40
1.8
  1
DOOR PANEL
 11
318.8
 21
233.695
 31
0.0
100
AcDbText
 73
2
  0
CIRCLE
  5
22C
330
17
100
AcDbEntity
  8
I-NOTE
 62
1
100
AcDbCircle
 10
381.0
 20
249.0
 30
0.0
 40
21.0
  0
CIRCLE
  5
22D
330
17
100
AcDbEntity
  8
I-NOTE
 62
1
100
AcDbCircle
 10
363.2
 20
224.5
 30
0.0
 40
3.2
  0
TEXT
  5
22E
330
17
100
AcDbEntity
  8
I-NOTE
 62
1
100
AcDbText
 10
368.0
 20
225.4
 30
0.0
 40
2.6
  1
DETAIL 4
 11
368.0
 21
225.4
 31
0.0
100
AcDbText
  0
LINE
  5
22F
330
17
100
AcDbEntity
  8
I-NOTE
 62
1
100
AcDbLine
 10
366.4
 20
224.5
 30
0.0
 11
392.0
 21
224.5
 31
0.0
  0
TEXT
  5
230
330
17
100
AcDbEntity
  8
I-NOTE
 62
1
100
AcDbText
 10
368.0
 20
221.4
 30
0.0
 40
2.2
  1
1:5
 11
368.0
 21
221.4
 31
0.0
100
AcDbText
  0
TEXT
  5
231
330
17
100
AcDbEntity
  8
I-NOTE
 62
1
100
AcDbText
 10
381.0
 20
272.2
 30
0.0
 40
2.3
  1
FLUSH HIDDEN DOOR
 72
1
 11
381.0
 21
272.2
 31
0.0
100
AcDbText
 73
1
  0
LWPOLYLINE
  5
232
330
17
100
AcDbEntity
  8
I-JOIN-ELEV
100
AcDbPolyline
 90
4
 70
1
 10
363.0
 20
247.0
 10
399.0
 20
247.0
 10
399.0
 20
250.6
 10
363.0
 20
250.6
  0
LWPOLYLINE
  5
233
330
17
100
AcDbEntity
  8
A-WALL
100
AcDbPolyline
 90
4
 70
1
 10
363.0
 20
250.6
 10
369.0
 20
250.6
 10
369.0
 20
265.0
 10
363.0
 20
265.0
  0
CIRCLE
  5
234
330
17
100
AcDbEntity
  8
I-JOIN-ELEV
100
AcDbCircle
 10
369.0
 20
249.0
 30
0.0
 40
1.0
  0
LINE
  5
235
330
17
100
AcDbEntity
  8
I-NOTE
 62
1
100
AcDbLine
 10
369.0
 20
249.0
 30
0.0
 11
383.0
 21
235.0
 31
0.0
  0
CIRCLE
  5
236
330
17
100
AcDbEntity
  8
I-NOTE
 62
1
100
AcDbCircle
 10
369.0
 20
249.0
 30
0.0
 40
0.45
  0
TEXT
  5
237
330
17
100
AcDbEntity
  8
I-NOTE
 62
1
100
AcDbText
 10
383.8
 20
236.305
 30
0.0
 40
1.8
  1
CONCEALED HINGE
 11
383.8
 21
236.305
 31
0.0
100
AcDbText
 73
2
  0
TEXT
  5
238
330
17
100
AcDbEntity
  8
I-NOTE
 62
1
100
AcDbText
 10
383.8
 20
233.695
 30
0.0
 40
1.8
  1
FLUSH HIDDEN DOOR
 11
383.8
 21
233.695
 31
0.0
100
AcDbText
 73
2
  0
TEXT
  5
239
330
17
100
AcDbEntity
  8
I-NOTE
 62
1
100
AcDbText
 10
262.0
 20
214.0
 30
0.0
 40
2.2
  1
NOTES:
 11
262.0
 21
214.0
 31
0.0
100
AcDbText
  0
TEXT
  5
23A
330
17
100
AcDbEntity
  8
I-NOTE
 62
1
100
AcDbText
 10
262.0
 20
210.0
 30
0.0
 40
1.75
  1
1. COFFEE STATION: 13A TWIN @ FFL 1050, WATER POINT FOR COFFEE MACHINE (TBC).
 11
262.0
 21
210.0
 31
0.0
100
AcDbText
  0
TEXT
  5
23B
330
17
100
AcDbEntity
  8
I-NOTE
 62
1
100
AcDbText
 10
262.0
 20
206.6
 30
0.0
 40
1.75
  1
2. WINE CHILLER SUPPLIED BY OWNER - CUT-OUT TO MODEL SPEC.
 11
262.0
 21
206.6
 31
0.0
100
AcDbText
  0
TEXT
  5
23C
330
17
100
AcDbEntity
  8
I-NOTE
 62
1
100
AcDbText
 10
262.0
 20
203.2
 30
0.0
 40
1.75
  1
3. OPEN NICHE BACK: SINTERED STONE / OAK (TBC).
 11
262.0
 21
203.2
 31
0.0
100
AcDbText
  0
CIRCLE
  5
23D
330
17
100
AcDbEntity
  8
I-TEXT
100
AcDbCircle
 10
406.5
 20
38.5
 30
0.0
 40
4.5
  0
LINE
  5
23E
330
17
100
AcDbEntity
  8
I-TEXT
100
AcDbLine
 10
402.0
 20
38.5
 30
0.0
 11
411.0
 21
38.5
 31
0.0
  0
TEXT
  5
23F
330
17
100
AcDbEntity
  8
I-TEXT
100
AcDbText
 10
406.5
 20
40.5
 30
0.0
 40
1.9
  1
ID
 72
1
 11
406.5
 21
40.5
 31
0.0
100
AcDbText
 73
2
  0
TEXT
  5
240
330
17
100
AcDbEntity
  8
I-TEXT
100
AcDbText
 10
406.5
 20
36.5
 30
0.0
 40
1.9
  1
02
 72
1
 11
406.5
 21
36.5
 31
0.0
100
AcDbText
 73
2
  0
TEXT
  5
241
330
17
100
AcDbEntity
  8
I-TEXT
100
AcDbText
 10
401.0
 20
39.5
 30
0.0
 40
3.4
  1
DRY KITCHEN - DRINK COUNTER & STORAGE WALL
 72
2
 11
401.0
 21
39.5
 31
0.0
100
AcDbText
 73
1
  0
LINE
  5
242
330
17
100
AcDbEntity
  8
I-TEXT
100
AcDbLine
 10
285.5
 20
38.5
 30
0.0
 11
402.0
 21
38.5
 31
0.0
  0
TEXT
  5
243
330
17
100
AcDbEntity
  8
I-TEXT
100
AcDbText
 10
401.0
 20
37.3
 30
0.0
 40
2.2
  1
ELEVATION PLAN
 72
2
 11
401.0
 21
37.3
 31
0.0
100
AcDbText
 73
3
  0
ENDSEC
  0
SECTION
  2
OBJECTS
  0
DICTIONARY
  5
A
330
0
100
AcDbDictionary
281
1
  3
ACAD_COLOR
350
B
  3
ACAD_GROUP
350
C
  3
ACAD_LAYOUT
350
D
  3
ACAD_MATERIAL
350
E
  3
ACAD_MLEADERSTYLE
350
F
  3
ACAD_MLINESTYLE
350
10
  3
ACAD_PLOTSETTINGS
350
11
  3
ACAD_PLOTSTYLENAME
350
12
  3
ACAD_SCALELIST
350
14
  3
ACAD_TABLESTYLE
350
15
  3
ACAD_VISUALSTYLE
350
16
  3
EZDXF_META
350
2D
  0
DICTIONARY
  5
B
330
A
100
AcDbDictionary
281
1
  0
DICTIONARY
  5
C
330
A
100
AcDbDictionary
281
1
  0
DICTIONARY
  5
D
330
A
100
AcDbDictionary
281
1
  3
Model
350
1A
  3
Layout1
350
1E
  0
DICTIONARY
  5
E
330
A
100
AcDbDictionary
281
1
  3
ByBlock
350
1F
  3
ByLayer
350
20
  3
Global
350
21
  0
DICTIONARY
  5
F
330
A
100
AcDbDictionary
281
1
  3
Standard
350
2C
  0
DICTIONARY
  5
10
330
A
100
AcDbDictionary
281
1
  3
Standard
350
22
  0
DICTIONARY
  5
11
330
A
100
AcDbDictionary
281
1
  0
ACDBDICTIONARYWDFLT
  5
12
330
A
100
AcDbDictionary
281
1
  3
Normal
350
13
100
AcDbDictionaryWithDefault
340
13
  0
ACDBPLACEHOLDER
  5
13
330
12
  0
DICTIONARY
  5
14
330
A
100
AcDbDictionary
281
1
  0
DICTIONARY
  5
15
330
A
100
AcDbDictionary
281
1
  0
DICTIONARY
  5
16
330
A
100
AcDbDictionary
281
1
  3
2dWireframe
350
5A
  3
Basic
350
5B
  3
Brighten
350
5C
  3
ColorChange
350
5D
  3
Conceptual
350
5E
  3
Dim
350
5F
  3
EdgeColorOff
350
60
  3
Facepattern
350
61
  3
Flat
350
62
  3
FlatWithEdges
350
63
  3
Gouraud
350
64
  3
GouraudWithEdges
350
65
  3
Hidden
350
66
  3
JitterOff
350
67
  3
Linepattern
350
68
  3
Modeling
350
69
  3
OverhangOff
350
6A
  3
Realistic
350
6B
  3
Shaded
350
6C
  3
Shaded with edges
350
6D
  3
Shades of Gray
350
6E
  3
Sketchy
350
6F
  3
Thicken
350
70
  3
Wireframe
350
71
  3
X-Ray
350
72
  0
LAYOUT
  5
1A
330
D
100
AcDbPlotSettings
  1

  4
A3
  6

 40
7.5
 41
20.0
 42
7.5
 43
20.0
 44
420.0
 45
297.0
 46
0.0
 47
0.0
 48
0.0
 49
0.0
140
0.0
141
0.0
142
1.0
143
1.0
 70
1024
 72
1
 73
0
 74
5
  7

 75
16
 76
0
 77
2
 78
300
147
1.0
148
0.0
149
0.0
100
AcDbLayout
  1
Model
 70
1
 71
0
 10
0.0
 20
0.0
 11
420.0
 21
297.0
 12
0.0
 22
0.0
 32
0.0
 14
1e+20
 24
1e+20
 34
1e+20
 15
-1e+20
 25
-1e+20
 35
-1e+20
146
0.0
 13
0.0
 23
0.0
 33
0.0
 16
1.0
 26
0.0
 36
0.0
 17
0.0
 27
1.0
 37
0.0
 76
1
330
17
  0
LAYOUT
  5
1E
330
D
100
AcDbPlotSettings
  1

  4
A3
  6

 40
7.5
 41
20.0
 42
7.5
 43
20.0
 44
420.0
 45
297.0
 46
0.0
 47
0.0
 48
0.0
 49
0.0
140
0.0
141
0.0
142
1.0
143
1.0
 70
0
 72
1
 73
0
 74
5
  7

 75
16
 76
0
 77
2
 78
300
147
1.0
148
0.0
149
0.0
100
AcDbLayout
  1
Layout1
 70
1
 71
1
 10
0.0
 20
0.0
 11
420.0
 21
297.0
 12
0.0
 22
0.0
 32
0.0
 14
1e+20
 24
1e+20
 34
1e+20
 15
-1e+20
 25
-1e+20
 35
-1e+20
146
0.0
 13
0.0
 23
0.0
 33
0.0
 16
1.0
 26
0.0
 36
0.0
 17
0.0
 27
1.0
 37
0.0
 76
1
330
1B
  0
MATERIAL
  5
1F
102
{ACAD_REACTORS
330
E
102
}
330
E
100
AcDbMaterial
  1
ByBlock
  2

 70
0
 40
1.0
 71
1
 41
1.0
 91
-1023410177
 42
1.0
 72
1
  3

 73
1
 74
1
 75
1
 44
0.5
 73
0
 45
1.0
 46
1.0
 77
1
  4

 78
1
 79
1
170
1
 48
1.0
171
1
  6

172
1
173
1
174
1
140
1.0
141
1.0
175
1
  7

176
1
177
1
178
1
143
1.0
179
1
  8

270
1
271
1
272
1
145
1.0
146
1.0
273
1
  9

274
1
275
1
276
1
 42
1.0
 72
1
  3

 73
1
 74
1
 75
1
 94
63
  0
MATERIAL
  5
20
102
{ACAD_REACTORS
330
E
102
}
330
E
100
AcDbMaterial
  1
ByLayer
  2

 70
0
 40
1.0
 71
1
 41
1.0
 91
-1023410177
 42
1.0
 72
1
  3

 73
1
 74
1
 75
1
 44
0.5
 73
0
 45
1.0
 46
1.0
 77
1
  4

 78
1
 79
1
170
1
 48
1.0
171
1
  6

172
1
173
1
174
1
140
1.0
141
1.0
175
1
  7

176
1
177
1
178
1
143
1.0
179
1
  8

270
1
271
1
272
1
145
1.0
146
1.0
273
1
  9

274
1
275
1
276
1
 42
1.0
 72
1
  3

 73
1
 74
1
 75
1
 94
63
  0
MATERIAL
  5
21
102
{ACAD_REACTORS
330
E
102
}
330
E
100
AcDbMaterial
  1
Global
  2

 70
0
 40
1.0
 71
1
 41
1.0
 91
-1023410177
 42
1.0
 72
1
  3

 73
1
 74
1
 75
1
 44
0.5
 73
0
 45
1.0
 46
1.0
 77
1
  4

 78
1
 79
1
170
1
 48
1.0
171
1
  6

172
1
173
1
174
1
140
1.0
141
1.0
175
1
  7

176
1
177
1
178
1
143
1.0
179
1
  8

270
1
271
1
272
1
145
1.0
146
1.0
273
1
  9

274
1
275
1
276
1
 42
1.0
 72
1
  3

 73
1
 74
1
 75
1
 94
63
  0
MLINESTYLE
  5
22
102
{ACAD_REACTORS
330
10
102
}
330
10
100
AcDbMlineStyle
  2
Standard
 70
0
  3

 62
256
 51
90.0
 52
90.0
 71
2
 49
0.5
 62
256
  6
BYLAYER
 49
-0.5
 62
256
  6
BYLAYER
  0
MLEADERSTYLE
  5
2C
102
{ACAD_REACTORS
330
F
102
}
330
F
100
AcDbMLeaderStyle
179
2
170
2
171
1
172
0
 90
2
 40
0.0
 41
0.0
173
1
 91
-1056964608
 92
-2
290
1
 42
2.0
291
1
 43
8.0
  3
Standard
 44
4.0
300

342
29
174
1
175
1
176
0
178
1
 93
-1056964608
 45
4.0
292
0
297
0
 46
4.0
 94
-1056964608
 47
1.0
 49
1.0
140
1.0
294
1
141
0.0
177
0
142
1.0
295
0
296
0
143
3.75
271
0
272
9
273
9
  0
DICTIONARY
  5
2D
330
A
100
AcDbDictionary
280
1
281
1
  3
CREATED_BY_EZDXF
350
2E
  3
WRITTEN_BY_EZDXF
350
246
  0
DICTIONARYVAR
  5
2E
330
2D
100
DictionaryVariables
280
0
  1
1.4.4 @ 2026-10-09T03:18:44.326706+00:00
  0
VISUALSTYLE
  5
5A
102
{ACAD_REACTORS
330
16
102
}
330
16
100
AcDbVisualStyle
  2
2dWireframe
 70
4
177
3
291
0
 70
58
 90
2
176
1
 90
2
176
1
 90
0
176
1
 90
0
176
1
 40
0.6
176
1
 40
30.0
176
1
 62
7
420
16777215
176
1
 90
1
176
1
 90
4
176
1
 62
7
176
1
 62
257
176
1
 90
1
176
1
 90
1
176
1
 40
1.0
176
1
 90
8
176
1
 62
7
176
1
 40
1.0
176
1
 90
1
176
1
 90
6
176
1
 90
2
176
1
 62
7
176
1
 90
5
176
1
 90
0
176
1
 90
0
176
1
290
0
176
1
 90
1
176
1
 40
0.0
176
1
 90
0
176
1
290
1
176
1
290
1
176
1
290
0
176
1
290
0
176
1
290
0
176
1
290
0
176
1
290
0
176
1
290
0
176
1
290
0
176
1
 90
50
176
1
 40
0.0
176
1
 40
1.0
176
1
 90
0
176
1
 62
18
420
0
176
1
 90
50
176
1
 90
3
176
1
 62
5
420
255
176
1
290
0
176
1
 90
50
176
1
 90
50
176
1
 90
50
176
1
290
0
176
1
 90
50
176
1
 62
256
176
0
 40
1.0
176
0
 90
2
176
1
  1
strokes_ogs.tif
176
1
290
0
176
1
 40
1.0
176
1
 40
1.0
176
1
  0
VISUALSTYLE
  5
5B
102
{ACAD_REACTORS
330
16
102
}
330
16
100
AcDbVisualStyle
  2
Basic
 70
7
177
3
291
1
 70
58
 90
2
176
1
 90
2
176
1
 90
0
176
1
 90
1
176
1
 40
0.6
176
1
 40
30.0
176
1
 62
7
420
16777215
176
1
 90
1
176
1
 90
4
176
1
 62
7
176
1
 62
257
176
1
 90
1
176
1
 90
1
176
1
 40
1.0
176
1
 90
8
176
1
 62
7
176
1
 40
1.0
176
1
 90
1
176
1
 90
6
176
1
 90
2
176
1
 62
7
176
1
 90
5
176
1
 90
0
176
1
 90
0
176
1
290
0
176
1
 90
1
176
1
 40
0.0
176
1
 90
0
176
1
290
0
176
1
290
1
176
1
290
1
176
1
290
0
176
1
290
0
176
1
290
0
176
1
290
0
176
1
290
0
176
1
290
0
176
1
 90
50
176
1
 40
0.0
176
1
 40
1.0
176
1
 90
0
176
1
 62
18
420
0
176
1
 90
50
176
1
 90
3
176
1
 62
5
420
255
176
1
290
0
176
1
 90
50
176
1
 90
50
176
1
 90
50
176
1
290
0
176
1
 90
50
176
1
 62
256
176
0
 40
1.0
176
0
 90
2
176
1
  1
strokes_ogs.tif
176
1
290
0
176
1
 40
1.0
176
1
 40
1.0
176
1
  0
VISUALSTYLE
  5
5C
102
{ACAD_REACTORS
330
16
102
}
330
16
100
AcDbVisualStyle
  2
Brighten
 70
12
177
3
291
1
 70
58
 90
2
176
1
 90
2
176
1
 90
0
176
1
 90
2
176
1
 40
0.6
176
1
 40
30.0
176
1
 62
7
420
16777215
176
1
 90
1
176
1
 90
4
176
1
 62
7
176
1
 62
257
176
1
 90
1
176
1
 90
1
176
1
 40
1.0
176
1
 90
8
176
1
 62
7
176
1
 40
1.0
176
1
 90
1
176
1
 90
6
176
1
 90
2
176
1
 62
7
176
1
 90
5
176
1
 90
0
176
1
 90
0
176
1
290
0
176
1
 90
1
176
1
 40
0.0
176
1
 90
0
176
1
290
0
176
1
290
1
176
1
290
1
176
1
290
0
176
1
290
0
176
1
290
0
176
1
290
0
176
1
290
0
176
1
290
0
176
1
 90
50
176
1
 40
0.0
176
1
 40
1.0
176
1
 90
0
176
1
 62
18
420
0
176
1
 90
50
176
1
 90
3
176
1
 62
5
420
255
176
1
290
0
176
1
 90
50
176
1
 90
50
176
1
 90
50
176
1
290
0
176
1
 90
50
176
1
 62
256
176
0
 40
1.0
176
0
 90
2
176
1
  1
strokes_ogs.tif
176
1
290
0
176
1
 40
1.0
176
1
 40
1.0
176
1
  0
VISUALSTYLE
  5
5D
102
{ACAD_REACTORS
330
16
102
}
330
16
100
AcDbVisualStyle
  2
ColorChange
 70
16
177
3
291
1
 70
58
 90
2
176
1
 90
2
176
1
 90
0
176
1
 90
2
176
1
 40
0.6
176
1
 40
30.0
176
1
 62
7
420
16777215
176
1
 90
1
176
1
 90
4
176
1
 62
7
176
1
 62
257
176
1
 90
1
176
1
 90
1
176
1
 40
1.0
176
1
 90
8
176
1
 62
7
176
1
 40
1.0
176
1
 90
1
176
1
 90
6
176
1
 90
2
176
1
 62
7
176
1
 90
5
176
1
 90
0
176
1
 90
0
176
1
290
0
176
1
 90
1
176
1
 40
0.0
176
1
 90
0
176
1
290
0
176
1
290
1
176
1
290
1
176
1
290
0
176
1
290
0
176
1
290
0
176
1
290
0
176
1
290
0
176
1
290
0
176
1
 90
50
176
1
 40
0.0
176
1
 40
1.0
176
1
 90
0
176
1
 62
18
420
0
176
1
 90
50
176
1
 90
3
176
1
 62
5
420
255
176
1
290
0
176
1
 90
50
176
1
 90
50
176
1
 90
50
176
1
290
0
176
1
 90
50
176
1
 62
256
176
0
 40
1.0
176
0
 90
2
176
1
  1
strokes_ogs.tif
176
1
290
0
176
1
 40
1.0
176
1
 40
1.0
176
1
  0
VISUALSTYLE
  5
5E
102
{ACAD_REACTORS
330
16
102
}
330
16
100
AcDbVisualStyle
  2
Conceptual
 70
9
177
3
291
0
 70
58
 90
2
176
1
 90
2
176
1
 90
0
176
1
 90
3
176
1
 40
0.6
176
1
 40
30.0
176
1
 62
7
420
16777215
176
1
 90
1
176
1
 90
4
176
1
 62
7
176
1
 62
257
176
1
 90
1
176
1
 90
1
176
1
 40
1.0
176
1
 90
8
176
1
 62
7
176
1
 40
1.0
176
1
 90
1
176
1
 90
6
176
1
 90
2
176
1
 62
7
176
1
 90
5
176
1
 90
0
176
1
 90
0
176
1
290
0
176
1
 90
1
176
1
 40
0.0
176
1
 90
0
176
1
290
0
176
1
290
1
176
1
290
1
176
1
290
0
176
1
290
0
176
1
290
0
176
1
290
0
176
1
290
0
176
1
290
0
176
1
 90
50
176
1
 40
0.0
176
1
 40
1.0
176
1
 90
0
176
1
 62
18
420
0
176
1
 90
50
176
1
 90
3
176
1
 62
5
420
255
176
1
290
0
176
1
 90
50
176
1
 90
50
176
1
 90
50
176
1
290
0
176
1
 90
50
176
1
 62
256
176
0
 40
1.0
176
0
 90
2
176
1
  1
strokes_ogs.tif
176
1
290
0
176
1
 40
1.0
176
1
 40
1.0
176
1
  0
VISUALSTYLE
  5
5F
102
{ACAD_REACTORS
330
16
102
}
330
16
100
AcDbVisualStyle
  2
Dim
 70
11
177
3
291
1
 70
58
 90
2
176
1
 90
2
176
1
 90
0
176
1
 90
2
176
1
 40
0.6
176
1
 40
30.0
176
1
 62
7
420
16777215
176
1
 90
1
176
1
 90
4
176
1
 62
7
176
1
 62
257
176
1
 90
1
176
1
 90
1
176
1
 40
1.0
176
1
 90
8
176
1
 62
7
176
1
 40
1.0
176
1
 90
1
176
1
 90
6
176
1
 90
2
176
1
 62
7
176
1
 90
5
176
1
 90
0
176
1
 90
0
176
1
290
0
176
1
 90
1
176
1
 40
0.0
176
1
 90
0
176
1
290
0
176
1
290
1
176
1
290
1
176
1
290
0
176
1
290
0
176
1
290
0
176
1
290
0
176
1
290
0
176
1
290
0
176
1
 90
50
176
1
 40
0.0
176
1
 40
1.0
176
1
 90
0
176
1
 62
18
420
0
176
1
 90
50
176
1
 90
3
176
1
 62
5
420
255
176
1
290
0
176
1
 90
50
176
1
 90
50
176
1
 90
50
176
1
290
0
176
1
 90
50
176
1
 62
256
176
0
 40
1.0
176
0
 90
2
176
1
  1
strokes_ogs.tif
176
1
290
0
176
1
 40
1.0
176
1
 40
1.0
176
1
  0
VISUALSTYLE
  5
60
102
{ACAD_REACTORS
330
16
102
}
330
16
100
AcDbVisualStyle
  2
EdgeColorOff
 70
22
177
3
291
1
 70
58
 90
2
176
1
 90
2
176
1
 90
0
176
1
 90
2
176
1
 40
0.6
176
1
 40
30.0
176
1
 62
7
420
16777215
176
1
 90
1
176
1
 90
4
176
1
 62
7
176
1
 62
257
176
1
 90
1
176
1
 90
1
176
1
 40
1.0
176
1
 90
8
176
1
 62
7
176
1
 40
1.0
176
1
 90
1
176
1
 90
6
176
1
 90
2
176
1
 62
7
176
1
 90
5
176
1
 90
0
176
1
 90
0
176
1
290
0
176
1
 90
1
176
1
 40
0.0
176
1
 90
0
176
1
290
0
176
1
290
1
176
1
290
1
176
1
290
0
176
1
290
0
176
1
290
0
176
1
290
0
176
1
290
0
176
1
290
0
176
1
 90
50
176
1
 40
0.0
176
1
 40
1.0
176
1
 90
0
176
1
 62
18
420
0
176
1
 90
50
176
1
 90
3
176
1
 62
5
420
255
176
1
290
0
176
1
 90
50
176
1
 90
50
176
1
 90
50
176
1
290
0
176
1
 90
50
176
1
 62
256
176
0
 40
1.0
176
0
 90
2
176
1
  1
strokes_ogs.tif
176
1
290
0
176
1
 40
1.0
176
1
 40
1.0
176
1
  0
VISUALSTYLE
  5
61
102
{ACAD_REACTORS
330
16
102
}
330
16
100
AcDbVisualStyle
  2
Facepattern
 70
15
177
3
291
1
 70
58
 90
2
176
1
 90
2
176
1
 90
0
176
1
 90
2
176
1
 40
0.6
176
1
 40
30.0
176
1
 62
7
420
16777215
176
1
 90
1
176
1
 90
4
176
1
 62
7
176
1
 62
257
176
1
 90
1
176
1
 90
1
176
1
 40
1.0
176
1
 90
8
176
1
 62
7
176
1
 40
1.0
176
1
 90
1
176
1
 90
6
176
1
 90
2
176
1
 62
7
176
1
 90
5
176
1
 90
0
176
1
 90
0
176
1
290
0
176
1
 90
1
176
1
 40
0.0
176
1
 90
0
176
1
290
0
176
1
290
1
176
1
290
1
176
1
290
0
176
1
290
0
176
1
290
0
176
1
290
0
176
1
290
0
176
1
290
0
176
1
 90
50
176
1
 40
0.0
176
1
 40
1.0
176
1
 90
0
176
1
 62
18
420
0
176
1
 90
50
176
1
 90
3
176
1
 62
5
420
255
176
1
290
0
176
1
 90
50
176
1
 90
50
176
1
 90
50
176
1
290
0
176
1
 90
50
176
1
 62
256
176
0
 40
1.0
176
0
 90
2
176
1
  1
strokes_ogs.tif
176
1
290
0
176
1
 40
1.0
176
1
 40
1.0
176
1
  0
VISUALSTYLE
  5
62
102
{ACAD_REACTORS
330
16
102
}
330
16
100
AcDbVisualStyle
  2
Flat
 70
0
177
3
291
1
 70
58
 90
2
176
1
 90
2
176
1
 90
0
176
1
 90
2
176
1
 40
0.6
176
1
 40
30.0
176
1
 62
7
420
16777215
176
1
 90
1
176
1
 90
4
176
1
 62
7
176
1
 62
257
176
1
 90
1
176
1
 90
1
176
1
 40
1.0
176
1
 90
8
176
1
 62
7
176
1
 40
1.0
176
1
 90
1
176
1
 90
6
176
1
 90
2
176
1
 62
7
176
1
 90
5
176
1
 90
0
176
1
 90
0
176
1
290
0
176
1
 90
1
176
1
 40
0.0
176
1
 90
0
176
1
290
0
176
1
290
1
176
1
290
1
176
1
290
0
176
1
290
0
176
1
290
0
176
1
290
0
176
1
290
0
176
1
290
0
176
1
 90
50
176
1
 40
0.0
176
1
 40
1.0
176
1
 90
0
176
1
 62
18
420
0
176
1
 90
50
176
1
 90
3
176
1
 62
5
420
255
176
1
290
0
176
1
 90
50
176
1
 90
50
176
1
 90
50
176
1
290
0
176
1
 90
50
176
1
 62
256
176
0
 40
1.0
176
0
 90
2
176
1
  1
strokes_ogs.tif
176
1
290
0
176
1
 40
1.0
176
1
 40
1.0
176
1
  0
VISUALSTYLE
  5
63
102
{ACAD_REACTORS
330
16
102
}
330
16
100
AcDbVisualStyle
  2
FlatWithEdges
 70
1
177
3
291
1
 70
58
 90
2
176
1
 90
2
176
1
 90
0
176
1
 90
2
176
1
 40
0.6
176
1
 40
30.0
176
1
 62
7
420
16777215
176
1
 90
1
176
1
 90
4
176
1
 62
7
176
1
 62
257
176
1
 90
1
176
1
 90
1
176
1
 40
1.0
176
1
 90
8
176
1
 62
7
176
1
 40
1.0
176
1
 90
1
176
1
 90
6
176
1
 90
2
176
1
 62
7
176
1
 90
5
176
1
 90
0
176
1
 90
0
176
1
290
0
176
1
 90
1
176
1
 40
0.0
176
1
 90
0
176
1
290
0
176
1
290
1
176
1
290
1
176
1
290
0
176
1
290
0
176
1
290
0
176
1
290
0
176
1
290
0
176
1
290
0
176
1
 90
50
176
1
 40
0.0
176
1
 40
1.0
176
1
 90
0
176
1
 62
18
420
0
176
1
 90
50
176
1
 90
3
176
1
 62
5
420
255
176
1
290
0
176
1
 90
50
176
1
 90
50
176
1
 90
50
176
1
290
0
176
1
 90
50
176
1
 62
256
176
0
 40
1.0
176
0
 90
2
176
1
  1
strokes_ogs.tif
176
1
290
0
176
1
 40
1.0
176
1
 40
1.0
176
1
  0
VISUALSTYLE
  5
64
102
{ACAD_REACTORS
330
16
102
}
330
16
100
AcDbVisualStyle
  2
Gouraud
 70
2
177
3
291
1
 70
58
 90
2
176
1
 90
2
176
1
 90
0
176
1
 90
2
176
1
 40
0.6
176
1
 40
30.0
176
1
 62
7
420
16777215
176
1
 90
1
176
1
 90
4
176
1
 62
7
176
1
 62
257
176
1
 90
1
176
1
 90
1
176
1
 40
1.0
176
1
 90
8
176
1
 62
7
176
1
 40
1.0
176
1
 90
1
176
1
 90
6
176
1
 90
2
176
1
 62
7
176
1
 90
5
176
1
 90
0
176
1
 90
0
176
1
290
0
176
1
 90
1
176
1
 40
0.0
176
1
 90
0
176
1
290
0
176
1
290
1
176
1
290
1
176
1
290
0
176
1
290
0
176
1
290
0
176
1
290
0
176
1
290
0
176
1
290
0
176
1
 90
50
176
1
 40
0.0
176
1
 40
1.0
176
1
 90
0
176
1
 62
18
420
0
176
1
 90
50
176
1
 90
3
176
1
 62
5
420
255
176
1
290
0
176
1
 90
50
176
1
 90
50
176
1
 90
50
176
1
290
0
176
1
 90
50
176
1
 62
256
176
0
 40
1.0
176
0
 90
2
176
1
  1
strokes_ogs.tif
176
1
290
0
176
1
 40
1.0
176
1
 40
1.0
176
1
  0
VISUALSTYLE
  5
65
102
{ACAD_REACTORS
330
16
102
}
330
16
100
AcDbVisualStyle
  2
GouraudWithEdges
 70
3
177
3
291
1
 70
58
 90
2
176
1
 90
2
176
1
 90
0
176
1
 90
2
176
1
 40
0.6
176
1
 40
30.0
176
1
 62
7
420
16777215
176
1
 90
1
176
1
 90
4
176
1
 62
7
176
1
 62
257
176
1
 90
1
176
1
 90
1
176
1
 40
1.0
176
1
 90
8
176
1
 62
7
176
1
 40
1.0
176
1
 90
1
176
1
 90
6
176
1
 90
2
176
1
 62
7
176
1
 90
5
176
1
 90
0
176
1
 90
0
176
1
290
0
176
1
 90
1
176
1
 40
0.0
176
1
 90
0
176
1
290
0
176
1
290
1
176
1
290
1
176
1
290
0
176
1
290
0
176
1
290
0
176
1
290
0
176
1
290
0
176
1
290
0
176
1
 90
50
176
1
 40
0.0
176
1
 40
1.0
176
1
 90
0
176
1
 62
18
420
0
176
1
 90
50
176
1
 90
3
176
1
 62
5
420
255
176
1
290
0
176
1
 90
50
176
1
 90
50
176
1
 90
50
176
1
290
0
176
1
 90
50
176
1
 62
256
176
0
 40
1.0
176
0
 90
2
176
1
  1
strokes_ogs.tif
176
1
290
0
176
1
 40
1.0
176
1
 40
1.0
176
1
  0
VISUALSTYLE
  5
66
102
{ACAD_REACTORS
330
16
102
}
330
16
100
AcDbVisualStyle
  2
Hidden
 70
6
177
3
291
0
 70
58
 90
2
176
1
 90
2
176
1
 90
0
176
1
 90
1
176
1
 40
0.6
176
1
 40
30.0
176
1
 62
7
420
16777215
176
1
 90
1
176
1
 90
4
176
1
 62
7
176
1
 62
257
176
1
 90
1
176
1
 90
1
176
1
 40
1.0
176
1
 90
8
176
1
 62
7
176
1
 40
1.0
176
1
 90
1
176
1
 90
6
176
1
 90
2
176
1
 62
7
176
1
 90
5
176
1
 90
0
176
1
 90
0
176
1
290
0
176
1
 90
1
176
1
 40
0.0
176
1
 90
0
176
1
290
0
176
1
290
1
176
1
290
1
176
1
290
0
176
1
290
0
176
1
290
0
176
1
290
0
176
1
290
0
176
1
290
0
176
1
 90
50
176
1
 40
0.0
176
1
 40
1.0
176
1
 90
0
176
1
 62
18
420
0
176
1
 90
50
176
1
 90
3
176
1
 62
5
420
255
176
1
290
0
176
1
 90
50
176
1
 90
50
176
1
 90
50
176
1
290
0
176
1
 90
50
176
1
 62
256
176
0
 40
1.0
176
0
 90
2
176
1
  1
strokes_ogs.tif
176
1
290
0
176
1
 40
1.0
176
1
 40
1.0
176
1
  0
VISUALSTYLE
  5
67
102
{ACAD_REACTORS
330
16
102
}
330
16
100
AcDbVisualStyle
  2
JitterOff
 70
20
177
3
291
1
 70
58
 90
2
176
1
 90
2
176
1
 90
0
176
1
 90
2
176
1
 40
0.6
176
1
 40
30.0
176
1
 62
7
420
16777215
176
1
 90
1
176
1
 90
4
176
1
 62
7
176
1
 62
257
176
1
 90
1
176
1
 90
1
176
1
 40
1.0
176
1
 90
8
176
1
 62
7
176
1
 40
1.0
176
1
 90
1
176
1
 90
6
176
1
 90
2
176
1
 62
7
176
1
 90
5
176
1
 90
0
176
1
 90
0
176
1
290
0
176
1
 90
1
176
1
 40
0.0
176
1
 90
0
176
1
290
0
176
1
290
1
176
1
290
1
176
1
290
0
176
1
290
0
176
1
290
0
176
1
290
0
176
1
290
0
176
1
290
0
176
1
 90
50
176
1
 40
0.0
176
1
 40
1.0
176
1
 90
0
176
1
 62
18
420
0
176
1
 90
50
176
1
 90
3
176
1
 62
5
420
255
176
1
290
0
176
1
 90
50
176
1
 90
50
176
1
 90
50
176
1
290
0
176
1
 90
50
176
1
 62
256
176
0
 40
1.0
176
0
 90
2
176
1
  1
strokes_ogs.tif
176
1
290
0
176
1
 40
1.0
176
1
 40
1.0
176
1
  0
VISUALSTYLE
  5
68
102
{ACAD_REACTORS
330
16
102
}
330
16
100
AcDbVisualStyle
  2
Linepattern
 70
14
177
3
291
1
 70
58
 90
2
176
1
 90
2
176
1
 90
0
176
1
 90
2
176
1
 40
0.6
176
1
 40
30.0
176
1
 62
7
420
16777215
176
1
 90
1
176
1
 90
4
176
1
 62
7
176
1
 62
257
176
1
 90
1
176
1
 90
1
176
1
 40
1.0
176
1
 90
8
176
1
 62
7
176
1
 40
1.0
176
1
 90
1
176
1
 90
6
176
1
 90
2
176
1
 62
7
176
1
 90
5
176
1
 90
0
176
1
 90
0
176
1
290
0
176
1
 90
1
176
1
 40
0.0
176
1
 90
0
176
1
290
0
176
1
290
1
176
1
290
1
176
1
290
0
176
1
290
0
176
1
290
0
176
1
290
0
176
1
290
0
176
1
290
0
176
1
 90
50
176
1
 40
0.0
176
1
 40
1.0
176
1
 90
0
176
1
 62
18
420
0
176
1
 90
50
176
1
 90
3
176
1
 62
5
420
255
176
1
290
0
176
1
 90
50
176
1
 90
50
176
1
 90
50
176
1
290
0
176
1
 90
50
176
1
 62
256
176
0
 40
1.0
176
0
 90
2
176
1
  1
strokes_ogs.tif
176
1
290
0
176
1
 40
1.0
176
1
 40
1.0
176
1
  0
VISUALSTYLE
  5
69
102
{ACAD_REACTORS
330
16
102
}
330
16
100
AcDbVisualStyle
  2
Modeling
 70
10
177
3
291
0
 70
58
 90
2
176
1
 90
2
176
1
 90
0
176
1
 90
2
176
1
 40
0.6
176
1
 40
30.0
176
1
 62
7
420
16777215
176
1
 90
1
176
1
 90
4
176
1
 62
7
176
1
 62
257
176
1
 90
1
176
1
 90
1
176
1
 40
1.0
176
1
 90
8
176
1
 62
7
176
1
 40
1.0
176
1
 90
1
176
1
 90
6
176
1
 90
2
176
1
 62
7
176
1
 90
5
176
1
 90
0
176
1
 90
0
176
1
290
0
176
1
 90
1
176
1
 40
0.0
176
1
 90
0
176
1
290
0
176
1
290
1
176
1
290
1
176
1
290
0
176
1
290
0
176
1
290
0
176
1
290
0
176
1
290
0
176
1
290
0
176
1
 90
50
176
1
 40
0.0
176
1
 40
1.0
176
1
 90
0
176
1
 62
18
420
0
176
1
 90
50
176
1
 90
3
176
1
 62
5
420
255
176
1
290
0
176
1
 90
50
176
1
 90
50
176
1
 90
50
176
1
290
0
176
1
 90
50
176
1
 62
256
176
0
 40
1.0
176
0
 90
2
176
1
  1
strokes_ogs.tif
176
1
290
0
176
1
 40
1.0
176
1
 40
1.0
176
1
  0
VISUALSTYLE
  5
6A
102
{ACAD_REACTORS
330
16
102
}
330
16
100
AcDbVisualStyle
  2
OverhangOff
 70
21
177
3
291
1
 70
58
 90
2
176
1
 90
2
176
1
 90
0
176
1
 90
2
176
1
 40
0.6
176
1
 40
30.0
176
1
 62
7
420
16777215
176
1
 90
1
176
1
 90
4
176
1
 62
7
176
1
 62
257
176
1
 90
1
176
1
 90
1
176
1
 40
1.0
176
1
 90
8
176
1
 62
7
176
1
 40
1.0
176
1
 90
1
176
1
 90
6
176
1
 90
2
176
1
 62
7
176
1
 90
5
176
1
 90
0
176
1
 90
0
176
1
290
0
176
1
 90
1
176
1
 40
0.0
176
1
 90
0
176
1
290
0
176
1
290
1
176
1
290
1
176
1
290
0
176
1
290
0
176
1
290
0
176
1
290
0
176
1
290
0
176
1
290
0
176
1
 90
50
176
1
 40
0.0
176
1
 40
1.0
176
1
 90
0
176
1
 62
18
420
0
176
1
 90
50
176
1
 90
3
176
1
 62
5
420
255
176
1
290
0
176
1
 90
50
176
1
 90
50
176
1
 90
50
176
1
290
0
176
1
 90
50
176
1
 62
256
176
0
 40
1.0
176
0
 90
2
176
1
  1
strokes_ogs.tif
176
1
290
0
176
1
 40
1.0
176
1
 40
1.0
176
1
  0
VISUALSTYLE
  5
6B
102
{ACAD_REACTORS
330
16
102
}
330
16
100
AcDbVisualStyle
  2
Realistic
 70
8
177
3
291
0
 70
58
 90
2
176
1
 90
2
176
1
 90
0
176
1
 90
2
176
1
 40
0.6
176
1
 40
30.0
176
1
 62
7
420
16777215
176
1
 90
1
176
1
 90
4
176
1
 62
7
176
1
 62
257
176
1
 90
1
176
1
 90
1
176
1
 40
1.0
176
1
 90
8
176
1
 62
7
176
1
 40
1.0
176
1
 90
1
176
1
 90
6
176
1
 90
2
176
1
 62
7
176
1
 90
5
176
1
 90
0
176
1
 90
0
176
1
290
0
176
1
 90
1
176
1
 40
0.0
176
1
 90
0
176
1
290
0
176
1
290
1
176
1
290
1
176
1
290
0
176
1
290
0
176
1
290
0
176
1
290
0
176
1
290
0
176
1
290
0
176
1
 90
50
176
1
 40
0.0
176
1
 40
1.0
176
1
 90
0
176
1
 62
18
420
0
176
1
 90
50
176
1
 90
3
176
1
 62
5
420
255
176
1
290
0
176
1
 90
50
176
1
 90
50
176
1
 90
50
176
1
290
0
176
1
 90
50
176
1
 62
256
176
0
 40
1.0
176
0
 90
2
176
1
  1
strokes_ogs.tif
176
1
290
0
176
1
 40
1.0
176
1
 40
1.0
176
1
  0
VISUALSTYLE
  5
6C
102
{ACAD_REACTORS
330
16
102
}
330
16
100
AcDbVisualStyle
  2
Shaded
 70
27
177
3
291
0
 70
58
 90
2
176
1
 90
2
176
1
 90
0
176
1
 90
2
176
1
 40
0.6
176
1
 40
30.0
176
1
 62
7
420
16777215
176
1
 90
1
176
1
 90
4
176
1
 62
7
176
1
 62
257
176
1
 90
1
176
1
 90
1
176
1
 40
1.0
176
1
 90
8
176
1
 62
7
176
1
 40
1.0
176
1
 90
1
176
1
 90
6
176
1
 90
2
176
1
 62
7
176
1
 90
5
176
1
 90
0
176
1
 90
0
176
1
290
0
176
1
 90
1
176
1
 40
0.0
176
1
 90
0
176
1
290
0
176
1
290
1
176
1
290
1
176
1
290
0
176
1
290
0
176
1
290
0
176
1
290
0
176
1
290
0
176
1
290
0
176
1
 90
50
176
1
 40
0.0
176
1
 40
1.0
176
1
 90
0
176
1
 62
18
420
0
176
1
 90
50
176
1
 90
3
176
1
 62
5
420
255
176
1
290
0
176
1
 90
50
176
1
 90
50
176
1
 90
50
176
1
290
0
176
1
 90
50
176
1
 62
256
176
0
 40
1.0
176
0
 90
2
176
1
  1
strokes_ogs.tif
176
1
290
0
176
1
 40
1.0
176
1
 40
1.0
176
1
  0
VISUALSTYLE
  5
6D
102
{ACAD_REACTORS
330
16
102
}
330
16
100
AcDbVisualStyle
  2
Shaded with edges
 70
26
177
3
291
0
 70
58
 90
2
176
1
 90
2
176
1
 90
0
176
1
 90
2
176
1
 40
0.6
176
1
 40
30.0
176
1
 62
7
420
16777215
176
1
 90
1
176
1
 90
4
176
1
 62
7
176
1
 62
257
176
1
 90
1
176
1
 90
1
176
1
 40
1.0
176
1
 90
8
176
1
 62
7
176
1
 40
1.0
176
1
 90
1
176
1
 90
6
176
1
 90
2
176
1
 62
7
176
1
 90
5
176
1
 90
0
176
1
 90
0
176
1
290
0
176
1
 90
1
176
1
 40
0.0
176
1
 90
0
176
1
290
0
176
1
290
1
176
1
290
1
176
1
290
0
176
1
290
0
176
1
290
0
176
1
290
0
176
1
290
0
176
1
290
0
176
1
 90
50
176
1
 40
0.0
176
1
 40
1.0
176
1
 90
0
176
1
 62
18
420
0
176
1
 90
50
176
1
 90
3
176
1
 62
5
420
255
176
1
290
0
176
1
 90
50
176
1
 90
50
176
1
 90
50
176
1
290
0
176
1
 90
50
176
1
 62
256
176
0
 40
1.0
176
0
 90
2
176
1
  1
strokes_ogs.tif
176
1
290
0
176
1
 40
1.0
176
1
 40
1.0
176
1
  0
VISUALSTYLE
  5
6E
102
{ACAD_REACTORS
330
16
102
}
330
16
100
AcDbVisualStyle
  2
Shades of Gray
 70
23
177
3
291
0
 70
58
 90
2
176
1
 90
2
176
1
 90
0
176
1
 90
2
176
1
 40
0.6
176
1
 40
30.0
176
1
 62
7
420
16777215
176
1
 90
1
176
1
 90
4
176
1
 62
7
176
1
 62
257
176
1
 90
1
176
1
 90
1
176
1
 40
1.0
176
1
 90
8
176
1
 62
7
176
1
 40
1.0
176
1
 90
1
176
1
 90
6
176
1
 90
2
176
1
 62
7
176
1
 90
5
176
1
 90
0
176
1
 90
0
176
1
290
0
176
1
 90
1
176
1
 40
0.0
176
1
 90
0
176
1
290
0
176
1
290
1
176
1
290
1
176
1
290
0
176
1
290
0
176
1
290
0
176
1
290
0
176
1
290
0
176
1
290
0
176
1
 90
50
176
1
 40
0.0
176
1
 40
1.0
176
1
 90
0
176
1
 62
18
420
0
176
1
 90
50
176
1
 90
3
176
1
 62
5
420
255
176
1
290
0
176
1
 90
50
176
1
 90
50
176
1
 90
50
176
1
290
0
176
1
 90
50
176
1
 62
256
176
0
 40
1.0
176
0
 90
2
176
1
  1
strokes_ogs.tif
176
1
290
0
176
1
 40
1.0
176
1
 40
1.0
176
1
  0
VISUALSTYLE
  5
6F
102
{ACAD_REACTORS
330
16
102
}
330
16
100
AcDbVisualStyle
  2
Sketchy
 70
24
177
3
291
0
 70
58
 90
2
176
1
 90
2
176
1
 90
0
176
1
 90
1
176
1
 40
0.6
176
1
 40
30.0
176
1
 62
7
420
16777215
176
1
 90
1
176
1
 90
4
176
1
 62
7
176
1
 62
257
176
1
 90
1
176
1
 90
1
176
1
 40
1.0
176
1
 90
8
176
1
 62
7
176
1
 40
1.0
176
1
 90
1
176
1
 90
6
176
1
 90
2
176
1
 62
7
176
1
 90
5
176
1
 90
0
176
1
 90
0
176
1
290
0
176
1
 90
1
176
1
 40
0.0
176
1
 90
0
176
1
290
0
176
1
290
1
176
1
290
1
176
1
290
0
176
1
290
0
176
1
290
0
176
1
290
0
176
1
290
0
176
1
290
0
176
1
 90
50
176
1
 40
0.0
176
1
 40
1.0
176
1
 90
0
176
1
 62
18
420
0
176
1
 90
50
176
1
 90
3
176
1
 62
5
420
255
176
1
290
0
176
1
 90
50
176
1
 90
50
176
1
 90
50
176
1
290
0
176
1
 90
50
176
1
 62
256
176
0
 40
1.0
176
0
 90
2
176
1
  1
strokes_ogs.tif
176
1
290
0
176
1
 40
1.0
176
1
 40
1.0
176
1
  0
VISUALSTYLE
  5
70
102
{ACAD_REACTORS
330
16
102
}
330
16
100
AcDbVisualStyle
  2
Thicken
 70
13
177
3
291
1
 70
58
 90
2
176
1
 90
2
176
1
 90
0
176
1
 90
2
176
1
 40
0.6
176
1
 40
30.0
176
1
 62
7
420
16777215
176
1
 90
1
176
1
 90
4
176
1
 62
7
176
1
 62
257
176
1
 90
1
176
1
 90
1
176
1
 40
1.0
176
1
 90
8
176
1
 62
7
176
1
 40
1.0
176
1
 90
1
176
1
 90
6
176
1
 90
2
176
1
 62
7
176
1
 90
5
176
1
 90
0
176
1
 90
0
176
1
290
0
176
1
 90
1
176
1
 40
0.0
176
1
 90
0
176
1
290
0
176
1
290
1
176
1
290
1
176
1
290
0
176
1
290
0
176
1
290
0
176
1
290
0
176
1
290
0
176
1
290
0
176
1
 90
50
176
1
 40
0.0
176
1
 40
1.0
176
1
 90
0
176
1
 62
18
420
0
176
1
 90
50
176
1
 90
3
176
1
 62
5
420
255
176
1
290
0
176
1
 90
50
176
1
 90
50
176
1
 90
50
176
1
290
0
176
1
 90
50
176
1
 62
256
176
0
 40
1.0
176
0
 90
2
176
1
  1
strokes_ogs.tif
176
1
290
0
176
1
 40
1.0
176
1
 40
1.0
176
1
  0
VISUALSTYLE
  5
71
102
{ACAD_REACTORS
330
16
102
}
330
16
100
AcDbVisualStyle
  2
Wireframe
 70
5
177
3
291
0
 70
58
 90
2
176
1
 90
2
176
1
 90
0
176
1
 90
0
176
1
 40
0.6
176
1
 40
30.0
176
1
 62
7
420
16777215
176
1
 90
1
176
1
 90
4
176
1
 62
7
176
1
 62
257
176
1
 90
1
176
1
 90
1
176
1
 40
1.0
176
1
 90
8
176
1
 62
7
176
1
 40
1.0
176
1
 90
1
176
1
 90
6
176
1
 90
2
176
1
 62
7
176
1
 90
5
176
1
 90
0
176
1
 90
0
176
1
290
0
176
1
 90
1
176
1
 40
0.0
176
1
 90
0
176
1
290
0
176
1
290
1
176
1
290
1
176
1
290
0
176
1
290
0
176
1
290
0
176
1
290
0
176
1
290
0
176
1
290
0
176
1
 90
50
176
1
 40
0.0
176
1
 40
1.0
176
1
 90
0
176
1
 62
18
420
0
176
1
 90
50
176
1
 90
3
176
1
 62
5
420
255
176
1
290
0
176
1
 90
50
176
1
 90
50
176
1
 90
50
176
1
290
0
176
1
 90
50
176
1
 62
256
176
0
 40
1.0
176
0
 90
2
176
1
  1
strokes_ogs.tif
176
1
290
0
176
1
 40
1.0
176
1
 40
1.0
176
1
  0
VISUALSTYLE
  5
72
102
{ACAD_REACTORS
330
16
102
}
330
16
100
AcDbVisualStyle
  2
X-Ray
 70
25
177
3
291
0
 70
58
 90
2
176
1
 90
2
176
1
 90
0
176
1
 90
2
176
1
 40
0.5
176
1
 40
30.0
176
1
 62
7
420
16777215
176
1
 90
1
176
1
 90
4
176
1
 62
7
176
1
 62
257
176
1
 90
1
176
1
 90
1
176
1
 40
1.0
176
1
 90
8
176
1
 62
7
176
1
 40
1.0
176
1
 90
1
176
1
 90
6
176
1
 90
2
176
1
 62
7
176
1
 90
5
176
1
 90
0
176
1
 90
0
176
1
290
0
176
1
 90
1
176
1
 40
0.0
176
1
 90
0
176
1
290
0
176
1
290
1
176
1
290
1
176
1
290
0
176
1
290
0
176
1
290
0
176
1
290
0
176
1
290
0
176
1
290
0
176
1
 90
50
176
1
 40
0.0
176
1
 40
1.0
176
1
 90
0
176
1
 62
18
420
0
176
1
 90
50
176
1
 90
3
176
1
 62
5
420
255
176
1
290
0
176
1
 90
50
176
1
 90
50
176
1
 90
50
176
1
290
0
176
1
 90
50
176
1
 62
256
176
0
 40
1.0
176
0
 90
2
176
1
  1
strokes_ogs.tif
176
1
290
0
176
1
 40
1.0
176
1
 40
1.0
176
1
  0
DICTIONARYVAR
  5
246
330
2D
100
DictionaryVariables
280
0
  1
1.4.4 @ 2026-10-09T03:18:44.342284+00:00
  0
ENDSEC
  0
EOF
