  0
SECTION
  2
HEADER
  9
$ACADVER
  1
AC1032
  9
$ACADMAINTVER
 90
4
  9
$DWGCODEPAGE
  3
ANSI_1252
  9
$LASTSAVEDBY
  1
ezdxf
  9
$REQUIREDVERSIONS
160
0
  9
$INSBASE
 10
0.0
 20
0.0
 30
0.0
  9
$EXTMIN
 10
1e+20
 20
1e+20
 30
1e+20
  9
$EXTMAX
 10
-1e+20
 20
-1e+20
 30
-1e+20
  9
$LIMMIN
 10
0.0
 20
0.0
  9
$LIMMAX
 10
420.0
 20
297.0
  9
$ORTHOMODE
 70
0
  9
$REGENMODE
 70
1
  9
$FILLMODE
 70
1
  9
$QTEXTMODE
 70
0
  9
$MIRRTEXT
 70
1
  9
$LTSCALE
 40
1.0
  9
$ATTMODE
 70
1
  9
$TEXTSIZE
 40
2.5
  9
$TRACEWID
 40
1.0
  9
$TEXTSTYLE
  7
OpenSans
  9
$CLAYER
  8
0
  9
$CELTYPE
  6
ByLayer
  9
$CECOLOR
 62
256
  9
$CELTSCALE
 40
1.0
  9
$DISPSILH
 70
0
  9
$DIMSCALE
 40
1.0
  9
$DIMASZ
 40
0.175
  9
$DIMEXO
 40
0.125
  9
$DIMDLI
 40
3.75
  9
$DIMRND
 40
0.0
  9
$DIMDLE
 40
0.0
  9
$DIMEXE
 40
0.375
  9
$DIMTP
 40
0.0
  9
$DIMTM
 40
0.0
  9
$DIMTXT
 40
0.25
  9
$DIMCEN
 40
2.5
  9
$DIMTSZ
 40
0.0
  9
$DIMTOL
 70
0
  9
$DIMLIM
 70
0
  9
$DIMTIH
 70
0
  9
$DIMTOH
 70
0
  9
$DIMSE1
 70
0
  9
$DIMSE2
 70
0
  9
$DIMTAD
 70
1
  9
$DIMZIN
 70
12
  9
$DIMBLK
  1
ARCHTICK
  9
$DIMASO
 70
1
  9
$DIMSHO
 70
1
  9
$DIMPOST
  1

  9
$DIMAPOST
  1

  9
$DIMALT
 70
0
  9
$DIMALTD
 70
3
  9
$DIMALTF
 40
0.03937007874
  9
$DIMLFAC
 40
100.0
  9
$DIMTOFL
 70
1
  9
$DIMTVP
 40
0.0
  9
$DIMTIX
 70
0
  9
$DIMSOXD
 70
0
  9
$DIMSAH
 70
0
  9
$DIMBLK1
  1

  9
$DIMBLK2
  1

  9
$DIMSTYLE
  2
EZDXF
  9
$DIMCLRD
 70
0
  9
$DIMCLRE
 70
0
  9
$DIMCLRT
 70
0
  9
$DIMTFAC
 40
0.5
  9
$DIMGAP
 40
0.1
  9
$DIMJUST
 70
0
  9
$DIMSD1
 70
0
  9
$DIMSD2
 70
0
  9
$DIMTOLJ
 70
0
  9
$DIMTZIN
 70
8
  9
$DIMALTZ
 70
0
  9
$DIMALTTZ
 70
0
  9
$DIMUPT
 70
1
  9
$DIMDEC
 70
2
  9
$DIMTDEC
 70
2
  9
$DIMALTU
 70
2
  9
$DIMALTTD
 70
3
  9
$DIMTXSTY
  7
OpenSansCondensed-Light
  9
$DIMAUNIT
 70
0
  9
$DIMADEC
 70
2
  9
$DIMALTRND
 40
0.0
  9
$DIMAZIN
 70
3
  9
$DIMDSEP
 70
46
  9
$DIMATFIT
 70
3
  9
$DIMFRAC
 70
0
  9
$DIMLDRBLK
  1

  9
$DIMLUNIT
 70
2
  9
$DIMLWD
 70
-2
  9
$DIMLWE
 70
-2
  9
$DIMTMOVE
 70
2
  9
$DIMFXL
 40
1.0
  9
$DIMFXLON
 70
0
  9
$DIMJOGANG
 40
0.785398163397
  9
$DIMTFILL
 70
0
  9
$DIMTFILLCLR
 70
0
  9
$DIMARCSYM
 70
0
  9
$DIMLTYPE
  6

  9
$DIMLTEX1
  6

  9
$DIMLTEX2
  6

  9
$DIMTXTDIRECTION
 70
0
  9
$LUNITS
 70
2
  9
$LUPREC
 70
4
  9
$SKETCHINC
 40
1.0
  9
$FILLETRAD
 40
10.0
  9
$AUNITS
 70
0
  9
$AUPREC
 70
2
  9
$MENU
  1
.
  9
$ELEVATION
 40
0.0
  9
$PELEVATION
 40
0.0
  9
$THICKNESS
 40
0.0
  9
$LIMCHECK
 70
0
  9
$CHAMFERA
 40
0.0
  9
$CHAMFERB
 40
0.0
  9
$CHAMFERC
 40
0.0
  9
$CHAMFERD
 40
0.0
  9
$SKPOLY
 70
0
  9
$TDCREATE
 40
2461323.137962963
  9
$TDUCREATE
 40
2458532.153996898
  9
$TDUPDATE
 40
2461323.137962963
  9
$TDUUPDATE
 40
2458532.1544311
  9
$TDINDWG
 40
0.0
  9
$TDUSRTIMER
 40
0.0
  9
$USRTIMER
 70
1
  9
$ANGBASE
 50
0.0
  9
$ANGDIR
 70
0
  9
$PDMODE
 70
0
  9
$PDSIZE
 40
0.0
  9
$PLINEWID
 40
0.0
  9
$SPLFRAME
 70
0
  9
$SPLINETYPE
 70
6
  9
$SPLINESEGS
 70
8
  9
$HANDSEED
  5
210
  9
$SURFTAB1
 70
6
  9
$SURFTAB2
 70
6
  9
$SURFTYPE
 70
6
  9
$SURFU
 70
6
  9
$SURFV
 70
6
  9
$UCSBASE
  2

  9
$UCSNAME
  2

  9
$UCSORG
 10
0.0
 20
0.0
 30
0.0
  9
$UCSXDIR
 10
1.0
 20
0.0
 30
0.0
  9
$UCSYDIR
 10
0.0
 20
1.0
 30
0.0
  9
$UCSORTHOREF
  2

  9
$UCSORTHOVIEW
 70
0
  9
$UCSORGTOP
 10
0.0
 20
0.0
 30
0.0
  9
$UCSORGBOTTOM
 10
0.0
 20
0.0
 30
0.0
  9
$UCSORGLEFT
 10
0.0
 20
0.0
 30
0.0
  9
$UCSORGRIGHT
 10
0.0
 20
0.0
 30
0.0
  9
$UCSORGFRONT
 10
0.0
 20
0.0
 30
0.0
  9
$UCSORGBACK
 10
0.0
 20
0.0
 30
0.0
  9
$PUCSBASE
  2

  9
$PUCSNAME
  2

  9
$PUCSORG
 10
0.0
 20
0.0
 30
0.0
  9
$PUCSXDIR
 10
1.0
 20
0.0
 30
0.0
  9
$PUCSYDIR
 10
0.0
 20
1.0
 30
0.0
  9
$PUCSORTHOREF
  2

  9
$PUCSORTHOVIEW
 70
0
  9
$PUCSORGTOP
 10
0.0
 20
0.0
 30
0.0
  9
$PUCSORGBOTTOM
 10
0.0
 20
0.0
 30
0.0
  9
$PUCSORGLEFT
 10
0.0
 20
0.0
 30
0.0
  9
$PUCSORGRIGHT
 10
0.0
 20
0.0
 30
0.0
  9
$PUCSORGFRONT
 10
0.0
 20
0.0
 30
0.0
  9
$PUCSORGBACK
 10
0.0
 20
0.0
 30
0.0
  9
$USERI1
 70
0
  9
$USERI2
 70
0
  9
$USERI3
 70
0
  9
$USERI4
 70
0
  9
$USERI5
 70
0
  9
$USERR1
 40
0.0
  9
$USERR2
 40
0.0
  9
$USERR3
 40
0.0
  9
$USERR4
 40
0.0
  9
$USERR5
 40
0.0
  9
$WORLDVIEW
 70
1
  9
$SHADEDGE
 70
3
  9
$SHADEDIF
 70
70
  9
$TILEMODE
 70
1
  9
$MAXACTVP
 70
64
  9
$PINSBASE
 10
0.0
 20
0.0
 30
0.0
  9
$PLIMCHECK
 70
0
  9
$PEXTMIN
 10
1e+20
 20
1e+20
 30
1e+20
  9
$PEXTMAX
 10
-1e+20
 20
-1e+20
 30
-1e+20
  9
$PLIMMIN
 10
0.0
 20
0.0
  9
$PLIMMAX
 10
420.0
 20
297.0
  9
$UNITMODE
 70
0
  9
$VISRETAIN
 70
1
  9
$PLINEGEN
 70
0
  9
$PSLTSCALE
 70
0
  9
$TREEDEPTH
 70
3020
  9
$CMLSTYLE
  2
Standard
  9
$CMLJUST
 70
0
  9
$CMLSCALE
 40
20.0
  9
$PROXYGRAPHICS
 70
1
  9
$MEASUREMENT
 70
1
  9
$CELWEIGHT
370
-1
  9
$ENDCAPS
280
0
  9
$JOINSTYLE
280
0
  9
$LWDISPLAY
290
1
  9
$INSUNITS
 70
4
  9
$HYPERLINKBASE
  1

  9
$STYLESHEET
  1

  9
$XEDIT
290
1
  9
$CEPSNTYPE
380
0
  9
$PSTYLEMODE
290
1
  9
$FINGERPRINTGUID
  2
{07EB3077-1027-4177-9C5F-0FF6A664B3D7}
  9
$VERSIONGUID
  2
{CCAB0C46-D52A-480F-BF91-78636B9F9FB5}
  9
$EXTNAMES
290
1
  9
$PSVPSCALE
 40
0.0
  9
$OLESTARTUP
290
0
  9
$SORTENTS
280
127
  9
$INDEXCTL
280
0
  9
$HIDETEXT
280
1
  9
$XCLIPFRAME
280
1
  9
$HALOGAP
280
0
  9
$OBSCOLOR
 70
257
  9
$OBSLTYPE
280
0
  9
$INTERSECTIONDISPLAY
280
0
  9
$INTERSECTIONCOLOR
 70
257
  9
$DIMASSOC
280
2
  9
$PROJECTNAME
  1

  9
$CAMERADISPLAY
290
0
  9
$LENSLENGTH
 40
50.0
  9
$CAMERAHEIGHT
 40
0.0
  9
$STEPSPERSEC
 40
24.0
  9
$STEPSIZE
 40
100.0
  9
$3DDWFPREC
 40
2.0
  9
$PSOLWIDTH
 40
0.005
  9
$PSOLHEIGHT
 40
0.08
  9
$LOFTANG1
 40
1.570796326795
  9
$LOFTANG2
 40
1.570796326795
  9
$LOFTMAG1
 40
0.0
  9
$LOFTMAG2
 40
0.0
  9
$LOFTPARAM
 70
7
  9
$LOFTNORMALS
280
1
  9
$LATITUDE
 40
37.795
  9
$LONGITUDE
 40
-122.394
  9
$NORTHDIRECTION
 40
0.0
  9
$TIMEZONE
 70
-8000
  9
$LIGHTGLYPHDISPLAY
280
1
  9
$TILEMODELIGHTSYNCH
280
1
  9
$CMATERIAL
347
20
  9
$SOLIDHIST
280
0
  9
$SHOWHIST
280
1
  9
$DWFFRAME
280
2
  9
$DGNFRAME
280
2
  9
$REALWORLDSCALE
290
1
  9
$INTERFERECOLOR
 62
256
  9
$CSHADOW
280
0
  9
$SHADOWPLANELOCATION
 40
0.0
  0
ENDSEC
  0
SECTION
  2
CLASSES
  0
CLASS
  1
ACDBDICTIONARYWDFLT
  2
AcDbDictionaryWithDefault
  3
ObjectDBX Classes
 90
0
 91
0
280
0
281
0
  0
CLASS
  1
SUN
  2
AcDbSun
  3
SCENEOE
 90
1153
 91
0
280
0
281
0
  0
CLASS
  1
VISUALSTYLE
  2
AcDbVisualStyle
  3
ObjectDBX Classes
 90
4095
 91
0
280
0
281
0
  0
CLASS
  1
MATERIAL
  2
AcDbMaterial
  3
ObjectDBX Classes
 90
1153
 91
0
280
0
281
0
  0
CLASS
  1
SCALE
  2
AcDbScale
  3
ObjectDBX Classes
 90
1153
 91
0
280
0
281
0
  0
CLASS
  1
TABLESTYLE
  2
AcDbTableStyle
  3
ObjectDBX Classes
 90
4095
 91
0
280
0
281
0
  0
CLASS
  1
MLEADERSTYLE
  2
AcDbMLeaderStyle
  3
ACDB_MLEADERSTYLE_CLASS
 90
4095
 91
0
280
0
281
0
  0
CLASS
  1
DICTIONARYVAR
  2
AcDbDictionaryVar
  3
ObjectDBX Classes
 90
0
 91
0
280
0
281
0
  0
CLASS
  1
CELLSTYLEMAP
  2
AcDbCellStyleMap
  3
ObjectDBX Classes
 90
1152
 91
0
280
0
281
0
  0
CLASS
  1
MENTALRAYRENDERSETTINGS
  2
AcDbMentalRayRenderSettings
  3
SCENEOE
 90
1024
 91
0
280
0
281
0
  0
CLASS
  1
ACDBDETAILVIEWSTYLE
  2
AcDbDetailViewStyle
  3
ObjectDBX Classes
 90
1025
 91
0
280
0
281
0
  0
CLASS
  1
ACDBSECTIONVIEWSTYLE
  2
AcDbSectionViewStyle
  3
ObjectDBX Classes
 90
1025
 91
0
280
0
281
0
  0
CLASS
  1
RASTERVARIABLES
  2
AcDbRasterVariables
  3
ISM
 90
0
 91
0
280
0
281
0
  0
CLASS
  1
ACDBPLACEHOLDER
  2
AcDbPlaceHolder
  3
ObjectDBX Classes
 90
0
 91
0
280
0
281
0
  0
CLASS
  1
LAYOUT
  2
AcDbLayout
  3
ObjectDBX Classes
 90
0
 91
0
280
0
281
0
  0
ENDSEC
  0
SECTION
  2
TABLES
  0
TABLE
  2
VPORT
  5
8
330
0
100
AcDbSymbolTable
 70
1
  0
VPORT
  5
23
330
8
100
AcDbSymbolTableRecord
100
AcDbViewportTableRecord
  2
*Active
 70
0
 10
0.0
 20
0.0
 11
1.0
 21
1.0
 12
0.0
 22
0.0
 13
0.0
 23
0.0
 14
0.5
 24
0.5
 15
0.5
 25
0.5
 16
0.0
 26
0.0
 36
1.0
 17
0.0
 27
0.0
 37
0.0
 40
1000.0
 41
1.34
 42
50.0
 43
0.0
 44
0.0
 50
0.0
 51
0.0
 71
0
 72
1000
 73
1
 74
3
 75
0
 76
0
 77
0
 78
0
281
0
 65
0
146
0.0
  0
ENDTAB
  0
TABLE
  2
LTYPE
  5
2
330
0
100
AcDbSymbolTable
 70
21
  0
LTYPE
  5
24
330
2
100
AcDbSymbolTableRecord
100
AcDbLinetypeTableRecord
  2
ByBlock
 70
0
  3

 72
65
 73
0
 40
0.0
  0
LTYPE
  5
25
330
2
100
AcDbSymbolTableRecord
100
AcDbLinetypeTableRecord
  2
ByLayer
 70
0
  3

 72
65
 73
0
 40
0.0
  0
LTYPE
  5
26
330
2
100
AcDbSymbolTableRecord
100
AcDbLinetypeTableRecord
  2
Continuous
 70
0
  3

 72
65
 73
0
 40
0.0
  0
LTYPE
  5
2F
330
2
100
AcDbSymbolTableRecord
100
AcDbLinetypeTableRecord
  2
CENTER
 70
0
  3
Center ____ _ ____ _ ____ _ ____ _ ____ _ ____
 72
65
 73
4
 40
5.08
 49
3.175
 74
0
 49
-0.635
 74
0
 49
0.635
 74
0
 49
-0.635
 74
0
  0
LTYPE
  5
30
330
2
100
AcDbSymbolTableRecord
100
AcDbLinetypeTableRecord
  2
CENTERX2
 70
0
  3
Center (2x) ________  __  ________  __  ________
 72
65
 73
4
 40
8.89
 49
6.35
 74
0
 49
-0.635
 74
0
 49
1.27
 74
0
 49
-0.635
 74
0
  0
LTYPE
  5
31
330
2
100
AcDbSymbolTableRecord
100
AcDbLinetypeTableRecord
  2
CENTER2
 70
0
  3
Center (.5x) ____ _ ____ _ ____ _ ____ _ ____
 72
65
 73
4
 40
2.54
 49
1.587
 74
0
 49
-0.318
 74
0
 49
0.318
 74
0
 49
-0.318
 74
0
  0
LTYPE
  5
32
330
2
100
AcDbSymbolTableRecord
100
AcDbLinetypeTableRecord
  2
DASHED
 70
0
  3
Dashed __ __ __ __ __ __ __ __ __ __ __ __ __ _
 72
65
 73
2
 40
1.524
 49
1.27
 74
0
 49
-0.254
 74
0
  0
LTYPE
  5
33
330
2
100
AcDbSymbolTableRecord
100
AcDbLinetypeTableRecord
  2
DASHEDX2
 70
0
  3
Dashed (2x) ____  ____  ____  ____  ____  ____
 72
65
 73
2
 40
3.048
 49
2.54
 74
0
 49
-0.508
 74
0
  0
LTYPE
  5
34
330
2
100
AcDbSymbolTableRecord
100
AcDbLinetypeTableRecord
  2
DASHED2
 70
0
  3
Dashed (.5x) _ _ _ _ _ _ _ _ _ _ _ _ _ _
 72
65
 73
2
 40
0.762
 49
0.635
 74
0
 49
-0.127
 74
0
  0
LTYPE
  5
35
330
2
100
AcDbSymbolTableRecord
100
AcDbLinetypeTableRecord
  2
PHANTOM
 70
0
  3
Phantom ______  __  __  ______  __  __  ______
 72
65
 73
6
 40
6.35
 49
3.175
 74
0
 49
-0.635
 74
0
 49
0.635
 74
0
 49
-0.635
 74
0
 49
0.635
 74
0
 49
-0.635
 74
0
  0
LTYPE
  5
36
330
2
100
AcDbSymbolTableRecord
100
AcDbLinetypeTableRecord
  2
PHANTOMX2
 70
0
  3
Phantom (2x)____________    ____    ____    ____________
 72
65
 73
6
 40
10.795
 49
6.35
 74
0
 49
-0.635
 74
0
 49
1.27
 74
0
 49
-0.635
 74
0
 49
1.27
 74
0
 49
-0.635
 74
0
  0
LTYPE
  5
37
330
2
100
AcDbSymbolTableRecord
100
AcDbLinetypeTableRecord
  2
PHANTOM2
 70
0
  3
Phantom (.5x) ___ _ _ ___ _ _ ___ _ _ ___ _ _ ___
 72
65
 73
6
 40
3.175
 49
1.587
 74
0
 49
-0.318
 74
0
 49
0.318
 74
0
 49
-0.318
 74
0
 49
0.318
 74
0
 49
-0.318
 74
0
  0
LTYPE
  5
38
330
2
100
AcDbSymbolTableRecord
100
AcDbLinetypeTableRecord
  2
DASHDOT
 70
0
  3
Dash dot __ . __ . __ . __ . __ . __ . __ . __
 72
65
 73
4
 40
3.556
 49
2.54
 74
0
 49
-0.508
 74
0
 49
0.0
 74
0
 49
-0.508
 74
0
  0
LTYPE
  5
39
330
2
100
AcDbSymbolTableRecord
100
AcDbLinetypeTableRecord
  2
DASHDOTX2
 70
0
  3
Dash dot (2x) ____  .  ____  .  ____  .  ____
 72
65
 73
4
 40
6.096
 49
5.08
 74
0
 49
-0.508
 74
0
 49
0.0
 74
0
 49
-0.508
 74
0
  0
LTYPE
  5
3A
330
2
100
AcDbSymbolTableRecord
100
AcDbLinetypeTableRecord
  2
DASHDOT2
 70
0
  3
Dash dot (.5x) _ . _ . _ . _ . _ . _ . _ . _
 72
65
 73
4
 40
1.778
 49
1.27
 74
0
 49
-0.254
 74
0
 49
0.0
 74
0
 49
-0.254
 74
0
  0
LTYPE
  5
3B
330
2
100
AcDbSymbolTableRecord
100
AcDbLinetypeTableRecord
  2
DOT
 70
0
  3
Dot .  .  .  .  .  .  .  .  .  .  .  .  .  .  .  .
 72
65
 73
2
 40
0.508
 49
0.0
 74
0
 49
-0.508
 74
0
  0
LTYPE
  5
3C
330
2
100
AcDbSymbolTableRecord
100
AcDbLinetypeTableRecord
  2
DOTX2
 70
0
  3
Dot (2x) .    .    .    .    .    .    .    . 
 72
65
 73
2
 40
1.016
 49
0.0
 74
0
 49
-1.016
 74
0
  0
LTYPE
  5
3D
330
2
100
AcDbSymbolTableRecord
100
AcDbLinetypeTableRecord
  2
DOT2
 70
0
  3
Dot (.5) . . . . . . . . . . . . . . . . . . . 
 72
65
 73
2
 40
0.254
 49
0.0
 74
0
 49
-0.254
 74
0
  0
LTYPE
  5
3E
330
2
100
AcDbSymbolTableRecord
100
AcDbLinetypeTableRecord
  2
DIVIDE
 70
0
  3
Divide __ . . __ . . __ . . __ . . __ . . __
 72
65
 73
6
 40
4.064
 49
2.54
 74
0
 49
-0.508
 74
0
 49
0.0
 74
0
 49
-0.508
 74
0
 49
0.0
 74
0
 49
-0.508
 74
0
  0
LTYPE
  5
3F
330
2
100
AcDbSymbolTableRecord
100
AcDbLinetypeTableRecord
  2
DIVIDEX2
 70
0
  3
Divide (2x) ____  . .  ____  . .  ____  . .  ____
 72
65
 73
6
 40
6.604
 49
5.08
 74
0
 49
-0.508
 74
0
 49
0.0
 74
0
 49
-0.508
 74
0
 49
0.0
 74
0
 49
-0.508
 74
0
  0
LTYPE
  5
40
330
2
100
AcDbSymbolTableRecord
100
AcDbLinetypeTableRecord
  2
DIVIDE2
 70
0
  3
Divide(.5x) _ . _ . _ . _ . _ . _ . _ . _
 72
65
 73
6
 40
2.032
 49
1.27
 74
0
 49
-0.254
 74
0
 49
0.0
 74
0
 49
-0.254
 74
0
 49
0.0
 74
0
 49
-0.254
 74
0
  0
ENDTAB
  0
TABLE
  2
LAYER
  5
1
330
0
100
AcDbSymbolTable
 70
36
  0
LAYER
  5
27
330
1
100
AcDbSymbolTableRecord
100
AcDbLayerTableRecord
  2
0
 70
0
 62
7
  6
Continuous
370
-3
390
13
347
21
  0
LAYER
  5
28
330
1
100
AcDbSymbolTableRecord
100
AcDbLayerTableRecord
  2
Defpoints
 70
0
 62
7
  6
Continuous
290
0
370
-3
390
13
347
21
  0
LAYER
  5
8A
330
1
100
AcDbSymbolTableRecord
100
AcDbLayerTableRecord
  2
0-SHEET
 70
0
 62
7
  6
CONTINUOUS
370
50
390
13
347
21
  0
LAYER
  5
8B
330
1
100
AcDbSymbolTableRecord
100
AcDbLayerTableRecord
  2
0-TITLE
 70
0
 62
7
  6
CONTINUOUS
370
18
390
13
347
21
  0
LAYER
  5
8C
330
1
100
AcDbSymbolTableRecord
100
AcDbLayerTableRecord
  2
0-TITLE-TXT
 70
0
 62
7
  6
CONTINUOUS
370
13
390
13
347
21
  0
LAYER
  5
8D
330
1
100
AcDbSymbolTableRecord
100
AcDbLayerTableRecord
  2
A-WALL
 70
0
 62
250
  6
CONTINUOUS
370
35
390
13
347
21
  0
LAYER
  5
8E
330
1
100
AcDbSymbolTableRecord
100
AcDbLayerTableRecord
  2
A-WALL-FILL
 70
0
 62
250
  6
CONTINUOUS
370
0
390
13
347
21
  0
LAYER
  5
8F
330
1
100
AcDbSymbolTableRecord
100
AcDbLayerTableRecord
  2
A-WALL-NEW
 70
0
 62
5
  6
CONTINUOUS
370
35
390
13
347
21
  0
LAYER
  5
90
330
1
100
AcDbSymbolTableRecord
100
AcDbLayerTableRecord
  2
A-WALL-DEMO
 70
0
 62
1
  6
DASHED
370
35
390
13
347
21
  0
LAYER
  5
91
330
1
100
AcDbSymbolTableRecord
100
AcDbLayerTableRecord
  2
A-DOOR
 70
0
 62
7
  6
CONTINUOUS
370
18
390
13
347
21
  0
LAYER
  5
92
330
1
100
AcDbSymbolTableRecord
100
AcDbLayerTableRecord
  2
A-WIND
 70
0
 62
7
  6
CONTINUOUS
370
13
390
13
347
21
  0
LAYER
  5
93
330
1
100
AcDbSymbolTableRecord
100
AcDbLayerTableRecord
  2
A-STAIR
 70
0
 62
7
  6
CONTINUOUS
370
13
390
13
347
21
  0
LAYER
  5
94
330
1
100
AcDbSymbolTableRecord
100
AcDbLayerTableRecord
  2
A-DETAIL
 70
0
 62
7
  6
CONTINUOUS
370
13
390
13
347
21
  0
LAYER
  5
95
330
1
100
AcDbSymbolTableRecord
100
AcDbLayerTableRecord
  2
A-GRID
 70
0
 62
8
  6
DASHED
370
13
390
13
347
21
  0
LAYER
  5
96
330
1
100
AcDbSymbolTableRecord
100
AcDbLayerTableRecord
  2
A-GRID-TAG
 70
0
 62
7
  6
CONTINUOUS
370
18
390
13
347
21
  0
LAYER
  5
97
330
1
100
AcDbSymbolTableRecord
100
AcDbLayerTableRecord
  2
A-SITE
 70
0
 62
8
  6
CONTINUOUS
370
13
390
13
347
21
  0
LAYER
  5
98
330
1
100
AcDbSymbolTableRecord
100
AcDbLayerTableRecord
  2
I-FURN
 70
0
 62
7
  6
CONTINUOUS
370
13
390
13
347
21
  0
LAYER
  5
99
330
1
100
AcDbSymbolTableRecord
100
AcDbLayerTableRecord
  2
I-JOIN
 70
0
 62
6
  6
CONTINUOUS
370
25
390
13
347
21
  0
LAYER
  5
9A
330
1
100
AcDbSymbolTableRecord
100
AcDbLayerTableRecord
  2
I-JOIN-HIDDEN
 70
0
 62
6
  6
DASHED
370
13
390
13
347
21
  0
LAYER
  5
9B
330
1
100
AcDbSymbolTableRecord
100
AcDbLayerTableRecord
  2
I-JOIN-ELEV
 70
0
 62
7
  6
CONTINUOUS
370
25
390
13
347
21
  0
LAYER
  5
9C
330
1
100
AcDbSymbolTableRecord
100
AcDbLayerTableRecord
  2
I-JOIN-THIN
 70
0
 62
7
  6
CONTINUOUS
370
13
390
13
347
21
  0
LAYER
  5
9D
330
1
100
AcDbSymbolTableRecord
100
AcDbLayerTableRecord
  2
I-JOIN-HATCH
 70
0
 62
8
  6
CONTINUOUS
370
9
390
13
347
21
  0
LAYER
  5
9E
330
1
100
AcDbSymbolTableRecord
100
AcDbLayerTableRecord
  2
I-CEIL
 70
0
 62
7
  6
CONTINUOUS
370
18
390
13
347
21
  0
LAYER
  5
9F
330
1
100
AcDbSymbolTableRecord
100
AcDbLayerTableRecord
  2
I-CEIL-COVE
 70
0
 62
1
  6
DASHED
370
18
390
13
347
21
  0
LAYER
  5
A0
330
1
100
AcDbSymbolTableRecord
100
AcDbLayerTableRecord
  2
I-LITE
 70
0
 62
1
  6
CONTINUOUS
370
18
390
13
347
21
  0
LAYER
  5
A1
330
1
100
AcDbSymbolTableRecord
100
AcDbLayerTableRecord
  2
I-POWR
 70
0
 62
1
  6
CONTINUOUS
370
18
390
13
347
21
  0
LAYER
  5
A2
330
1
100
AcDbSymbolTableRecord
100
AcDbLayerTableRecord
  2
I-FLOR
 70
0
 62
8
  6
CONTINUOUS
370
9
390
13
347
21
  0
LAYER
  5
A3
330
1
100
AcDbSymbolTableRecord
100
AcDbLayerTableRecord
  2
I-CURT
 70
0
 62
6
  6
CONTINUOUS
370
25
390
13
347
21
  0
LAYER
  5
A4
330
1
100
AcDbSymbolTableRecord
100
AcDbLayerTableRecord
  2
I-FINISH
 70
0
 62
6
  6
CONTINUOUS
370
50
390
13
347
21
  0
LAYER
  5
A5
330
1
100
AcDbSymbolTableRecord
100
AcDbLayerTableRecord
  2
I-TAG
 70
0
 62
5
  6
CONTINUOUS
370
13
390
13
347
21
  0
LAYER
  5
A6
330
1
100
AcDbSymbolTableRecord
100
AcDbLayerTableRecord
  2
I-NOTE
 70
0
 62
1
  6
CONTINUOUS
370
13
390
13
347
21
  0
LAYER
  5
A7
330
1
100
AcDbSymbolTableRecord
100
AcDbLayerTableRecord
  2
I-DIM
 70
0
 62
5
  6
CONTINUOUS
370
13
390
13
347
21
  0
LAYER
  5
A8
330
1
100
AcDbSymbolTableRecord
100
AcDbLayerTableRecord
  2
I-TEXT
 70
0
 62
7
  6
CONTINUOUS
370
13
390
13
347
21
  0
LAYER
  5
A9
330
1
100
AcDbSymbolTableRecord
100
AcDbLayerTableRecord
  2
I-ROOM
 70
0
 62
7
  6
CONTINUOUS
370
13
390
13
347
21
  0
LAYER
  5
AA
330
1
100
AcDbSymbolTableRecord
100
AcDbLayerTableRecord
  2
I-SYMB
 70
0
 62
6
  6
CONTINUOUS
370
18
390
13
347
21
  0
LAYER
  5
AB
330
1
100
AcDbSymbolTableRecord
100
AcDbLayerTableRecord
  2
I-WATER
 70
0
 62
5
  6
CONTINUOUS
370
18
390
13
347
21
  0
ENDTAB
  0
TABLE
  2
STYLE
  5
5
330
0
100
AcDbSymbolTable
 70
27
  0
STYLE
  5
29
330
5
100
AcDbSymbolTableRecord
100
AcDbTextStyleTableRecord
  2
Standard
 70
0
 40
0.0
 41
1.0
 50
0.0
 71
0
 42
2.5
  3
arial.ttf
  4

  0
STYLE
  5
41
330
5
100
AcDbSymbolTableRecord
100
AcDbTextStyleTableRecord
  2
OpenSans-Light
 70
0
 40
0.0
 41
1.0
 50
0.0
 71
0
 42
2.5
  3
OpenSans-Light.ttf
  4

  0
STYLE
  5
42
330
5
100
AcDbSymbolTableRecord
100
AcDbTextStyleTableRecord
  2
OpenSans-Light-Italic
 70
0
 40
0.0
 41
1.0
 50
0.0
 71
0
 42
2.5
  3
OpenSans-LightItalic.ttf
  4

  0
STYLE
  5
43
330
5
100
AcDbSymbolTableRecord
100
AcDbTextStyleTableRecord
  2
OpenSans
 70
0
 40
0.0
 41
1.0
 50
0.0
 71
0
 42
2.5
  3
OpenSans-Regular.ttf
  4

  0
STYLE
  5
44
330
5
100
AcDbSymbolTableRecord
100
AcDbTextStyleTableRecord
  2
OpenSans-Italic
 70
0
 40
0.0
 41
1.0
 50
0.0
 71
0
 42
2.5
  3
OpenSans-Italic.ttf
  4

  0
STYLE
  5
45
330
5
100
AcDbSymbolTableRecord
100
AcDbTextStyleTableRecord
  2
OpenSans-SemiBold
 70
0
 40
0.0
 41
1.0
 50
0.0
 71
0
 42
2.5
  3
OpenSans-SemiBold.ttf
  4

  0
STYLE
  5
46
330
5
100
AcDbSymbolTableRecord
100
AcDbTextStyleTableRecord
  2
OpenSans-SemiBoldItalic
 70
0
 40
0.0
 41
1.0
 50
0.0
 71
0
 42
2.5
  3
OpenSans-SemiBoldItalic.ttf
  4

  0
STYLE
  5
47
330
5
100
AcDbSymbolTableRecord
100
AcDbTextStyleTableRecord
  2
OpenSans-Bold
 70
0
 40
0.0
 41
1.0
 50
0.0
 71
0
 42
2.5
  3
OpenSans-Bold.ttf
  4

  0
STYLE
  5
48
330
5
100
AcDbSymbolTableRecord
100
AcDbTextStyleTableRecord
  2
OpenSans-BoldItalic
 70
0
 40
0.0
 41
1.0
 50
0.0
 71
0
 42
2.5
  3
OpenSans-BoldItalic.ttf
  4

  0
STYLE
  5
49
330
5
100
AcDbSymbolTableRecord
100
AcDbTextStyleTableRecord
  2
OpenSans-ExtraBold
 70
0
 40
0.0
 41
1.0
 50
0.0
 71
0
 42
2.5
  3
OpenSans-ExtraBold.ttf
  4

  0
STYLE
  5
4A
330
5
100
AcDbSymbolTableRecord
100
AcDbTextStyleTableRecord
  2
OpenSans-ExtraBoldItalic
 70
0
 40
0.0
 41
1.0
 50
0.0
 71
0
 42
2.5
  3
OpenSans-ExtraBoldItalic.ttf
  4

  0
STYLE
  5
4B
330
5
100
AcDbSymbolTableRecord
100
AcDbTextStyleTableRecord
  2
OpenSansCondensed-Bold
 70
0
 40
0.0
 41
1.0
 50
0.0
 71
0
 42
2.5
  3
OpenSansCondensed-Bold.ttf
  4

  0
STYLE
  5
4C
330
5
100
AcDbSymbolTableRecord
100
AcDbTextStyleTableRecord
  2
OpenSansCondensed-Light
 70
0
 40
0.0
 41
1.0
 50
0.0
 71
0
 42
2.5
  3
OpenSansCondensed-Light.ttf
  4

  0
STYLE
  5
4D
330
5
100
AcDbSymbolTableRecord
100
AcDbTextStyleTableRecord
  2
OpenSansCondensed-Italic
 70
0
 40
0.0
 41
1.0
 50
0.0
 71
0
 42
2.5
  3
OpenSansCondensed-LightItalic.ttf
  4

  0
STYLE
  5
4E
330
5
100
AcDbSymbolTableRecord
100
AcDbTextStyleTableRecord
  2
LiberationSans
 70
0
 40
0.0
 41
1.0
 50
0.0
 71
0
 42
2.5
  3
LiberationSans-Regular.ttf
  4

  0
STYLE
  5
4F
330
5
100
AcDbSymbolTableRecord
100
AcDbTextStyleTableRecord
  2
LiberationSans-Bold
 70
0
 40
0.0
 41
1.0
 50
0.0
 71
0
 42
2.5
  3
LiberationSans-Bold.ttf
  4

  0
STYLE
  5
50
330
5
100
AcDbSymbolTableRecord
100
AcDbTextStyleTableRecord
  2
LiberationSans-BoldItalic
 70
0
 40
0.0
 41
1.0
 50
0.0
 71
0
 42
2.5
  3
LiberationSans-BoldItalic.ttf
  4

  0
STYLE
  5
51
330
5
100
AcDbSymbolTableRecord
100
AcDbTextStyleTableRecord
  2
LiberationSans-Italic
 70
0
 40
0.0
 41
1.0
 50
0.0
 71
0
 42
2.5
  3
LiberationSans-Italic.ttf
  4

  0
STYLE
  5
52
330
5
100
AcDbSymbolTableRecord
100
AcDbTextStyleTableRecord
  2
LiberationSerif
 70
0
 40
0.0
 41
1.0
 50
0.0
 71
0
 42
2.5
  3
LiberationSerif-Regular.ttf
  4

  0
STYLE
  5
53
330
5
100
AcDbSymbolTableRecord
100
AcDbTextStyleTableRecord
  2
LiberationSerif-Bold
 70
0
 40
0.0
 41
1.0
 50
0.0
 71
0
 42
2.5
  3
LiberationSerif-Bold.ttf
  4

  0
STYLE
  5
54
330
5
100
AcDbSymbolTableRecord
100
AcDbTextStyleTableRecord
  2
LiberationSerif-BoldItalic
 70
0
 40
0.0
 41
1.0
 50
0.0
 71
0
 42
2.5
  3
LiberationSerif-BoldItalic.ttf
  4

  0
STYLE
  5
55
330
5
100
AcDbSymbolTableRecord
100
AcDbTextStyleTableRecord
  2
LiberationSerif-Italic
 70
0
 40
0.0
 41
1.0
 50
0.0
 71
0
 42
2.5
  3
LiberationSerif-Italic.ttf
  4

  0
STYLE
  5
56
330
5
100
AcDbSymbolTableRecord
100
AcDbTextStyleTableRecord
  2
LiberationMono
 70
0
 40
0.0
 41
1.0
 50
0.0
 71
0
 42
2.5
  3
LiberationMono-Regular.ttf
  4

  0
STYLE
  5
57
330
5
100
AcDbSymbolTableRecord
100
AcDbTextStyleTableRecord
  2
LiberationMono-Bold
 70
0
 40
0.0
 41
1.0
 50
0.0
 71
0
 42
2.5
  3
LiberationMono-Bold.ttf
  4

  0
STYLE
  5
58
330
5
100
AcDbSymbolTableRecord
100
AcDbTextStyleTableRecord
  2
LiberationMono-BoldItalic
 70
0
 40
0.0
 41
1.0
 50
0.0
 71
0
 42
2.5
  3
LiberationMono-BoldItalic.ttf
  4

  0
STYLE
  5
59
330
5
100
AcDbSymbolTableRecord
100
AcDbTextStyleTableRecord
  2
LiberationMono-Italic
 70
0
 40
0.0
 41
1.0
 50
0.0
 71
0
 42
2.5
  3
LiberationMono-Italic.ttf
  4

  0
STYLE
  5
AC
330
5
100
AcDbSymbolTableRecord
100
AcDbTextStyleTableRecord
  2
ARIAL-N
 70
0
 40
0.0
 41
1.0
 50
0.0
 71
0
 42
2.5
  3
arialn.ttf
  4

  0
ENDTAB
  0
TABLE
  2
VIEW
  5
7
330
0
100
AcDbSymbolTable
 70
0
  0
ENDTAB
  0
TABLE
  2
UCS
  5
6
330
0
100
AcDbSymbolTable
 70
0
  0
ENDTAB
  0
TABLE
  2
APPID
  5
3
330
0
100
AcDbSymbolTable
 70
3
  0
APPID
  5
2A
330
3
100
AcDbSymbolTableRecord
100
AcDbRegAppTableRecord
  2
ACAD
 70
0
  0
APPID
  5
20D
330
3
100
AcDbSymbolTableRecord
100
AcDbRegAppTableRecord
  2
HATCHBACKGROUNDCOLOR
 70
0
  0
APPID
  5
20E
330
3
100
AcDbSymbolTableRecord
100
AcDbRegAppTableRecord
  2
EZDXF
 70
0
  0
ENDTAB
  0
TABLE
  2
DIMSTYLE
  5
4
330
0
100
AcDbSymbolTable
 70
12
100
AcDbDimStyleTable
  0
DIMSTYLE
105
2B
330
4
100
AcDbSymbolTableRecord
100
AcDbDimStyleTableRecord
  2
Standard
 70
0
 40
1.0
 41
2.5
 42
0.625
 43
3.75
 44
1.25
 45
0.0
 46
0.0
 47
0.0
 48
0.0
 49
2.5
140
2.5
141
2.5
142
0.0
143
0.03937007874
144
1.0
145
0.0
146
1.0
147
0.625
148
0.0
 69
0
 70
0
 71
0
 72
0
 73
0
 74
0
 75
0
 76
0
 77
1
 78
8
 79
3
170
0
171
3
172
1
173
0
174
0
175
0
176
0
177
0
178
0
179
2
271
2
272
2
273
2
274
3
275
0
276
0
277
2
278
44
279
0
280
0
281
0
282
0
283
0
284
8
285
0
286
0
288
0
289
3
290
0
371
-2
372
-2
  0
DIMSTYLE
105
73
330
4
100
AcDbSymbolTableRecord
100
AcDbDimStyleTableRecord
  2
EZDXF
 70
0
 40
1.0
 41
0.175
 42
0.125
 43
3.75
 44
0.375
 45
0.0
 46
0.0
 47
0.0
 48
0.0
 49
2.5
140
0.25
141
2.5
142
0.0
143
0.03937007874
144
100.0
145
0.0
146
0.5
147
0.1
148
0.0
 69
0
 70
0
 71
0
 72
0
 73
0
 74
0
 75
0
 76
0
 77
1
 78
12
 79
3
170
0
171
3
172
1
173
0
174
0
175
0
176
0
177
0
178
0
179
2
271
2
272
2
273
2
274
3
275
0
276
0
277
2
278
46
279
2
280
0
281
0
282
0
283
0
284
8
285
0
286
0
288
1
289
3
290
0
340
4C
342
74
371
-2
372
-2
  0
DIMSTYLE
105
7C
330
4
100
AcDbSymbolTableRecord
100
AcDbDimStyleTableRecord
  2
EZ_M_100_H25_CM
 70
0
 40
1.0
 41
0.25
 42
0.125
 43
3.75
 44
0.375
 45
0.0
 46
0.0
 47
0.0
 48
0.0
 49
2.5
140
0.25
141
2.5
142
0.125
143
0.03937007874
144
100.0
145
0.0
146
0.5
147
0.1
148
0.0
 69
0
 70
0
 71
0
 72
0
 73
0
 74
0
 75
0
 76
0
 77
1
 78
12
 79
3
170
0
171
3
172
1
173
0
174
0
175
0
176
0
177
0
178
0
179
2
271
2
272
2
273
2
274
3
275
0
276
0
277
2
278
46
279
2
280
0
281
0
282
0
283
0
284
8
285
0
286
0
288
1
289
3
290
0
340
4C
371
-2
372
-2
  0
DIMSTYLE
105
7D
330
4
100
AcDbSymbolTableRecord
100
AcDbDimStyleTableRecord
  2
EZ_M_50_H25_CM
 70
0
 40
1.0
 41
0.125
 42
0.0625
 43
3.75
 44
0.1875
 45
0.0
 46
0.0
 47
0.0
 48
0.0
 49
2.5
140
0.125
141
2.5
142
0.0625
143
0.03937007874
144
100.0
145
0.0
146
0.5
147
0.05
148
0.0
 69
0
 70
0
 71
0
 72
0
 73
0
 74
0
 75
0
 76
0
 77
1
 78
12
 79
3
170
0
171
3
172
1
173
0
174
0
175
0
176
0
177
0
178
0
179
2
271
2
272
2
273
2
274
3
275
0
276
0
277
2
278
46
279
2
280
0
281
0
282
0
283
0
284
8
285
0
286
0
288
1
289
3
290
0
340
4C
371
-2
372
-2
  0
DIMSTYLE
105
7E
330
4
100
AcDbSymbolTableRecord
100
AcDbDimStyleTableRecord
  2
EZ_M_25_H25_CM
 70
0
 40
1.0
 41
0.0625
 42
0.03125
 43
3.75
 44
0.09375
 45
0.0
 46
0.0
 47
0.0
 48
0.0
 49
2.5
140
0.0625
141
2.5
142
0.03125
143
0.03937007874
144
100.0
145
0.0
146
0.5
147
0.025
148
0.0
 69
0
 70
0
 71
0
 72
0
 73
0
 74
0
 75
0
 76
0
 77
1
 78
12
 79
3
170
0
171
3
172
1
173
0
174
0
175
0
176
0
177
0
178
0
179
2
271
2
272
2
273
2
274
3
275
0
276
0
277
2
278
46
279
2
280
0
281
0
282
0
283
0
284
8
285
0
286
0
288
1
289
3
290
0
340
4C
371
-2
372
-2
  0
DIMSTYLE
105
7F
330
4
100
AcDbSymbolTableRecord
100
AcDbDimStyleTableRecord
  2
EZ_M_20_H25_CM
 70
0
 40
1.0
 41
0.05
 42
0.025
 43
3.75
 44
0.07500000000000001
 45
0.0
 46
0.0
 47
0.0
 48
0.0
 49
2.5
140
0.05
141
2.5
142
0.025
143
0.03937007874
144
100.0
145
0.0
146
0.5
147
0.020000000000000004
148
0.0
 69
0
 70
0
 71
0
 72
0
 73
0
 74
0
 75
0
 76
0
 77
1
 78
12
 79
3
170
0
171
3
172
1
173
0
174
0
175
0
176
0
177
0
178
0
179
2
271
2
272
2
273
2
274
3
275
0
276
0
277
2
278
46
279
2
280
0
281
0
282
0
283
0
284
8
285
0
286
0
288
1
289
3
290
0
340
4C
371
-2
372
-2
  0
DIMSTYLE
105
80
330
4
100
AcDbSymbolTableRecord
100
AcDbDimStyleTableRecord
  2
EZ_M_10_H25_CM
 70
0
 40
1.0
 41
0.025
 42
0.0125
 43
3.75
 44
0.037500000000000006
 45
0.0
 46
0.0
 47
0.0
 48
0.0
 49
2.5
140
0.025
141
2.5
142
0.0125
143
0.03937007874
144
100.0
145
0.0
146
0.5
147
0.010000000000000002
148
0.0
 69
0
 70
0
 71
0
 72
0
 73
0
 74
0
 75
0
 76
0
 77
1
 78
12
 79
3
170
0
171
3
172
1
173
0
174
0
175
0
176
0
177
0
178
0
179
2
271
2
272
2
273
2
274
3
275
0
276
0
277
2
278
46
279
2
280
0
281
0
282
0
283
0
284
8
285
0
286
0
288
1
289
3
290
0
340
4C
371
-2
372
-2
  0
DIMSTYLE
105
81
330
4
100
AcDbSymbolTableRecord
100
AcDbDimStyleTableRecord
  2
EZ_M_5_H25_CM
 70
0
 40
1.0
 41
0.0125
 42
0.00625
 43
3.75
 44
0.018750000000000003
 45
0.0
 46
0.0
 47
0.0
 48
0.0
 49
2.5
140
0.0125
141
2.5
142
0.00625
143
0.03937007874
144
100.0
145
0.0
146
0.5
147
0.005000000000000001
148
0.0
 69
0
 70
0
 71
0
 72
0
 73
0
 74
0
 75
0
 76
0
 77
1
 78
12
 79
3
170
0
171
3
172
1
173
0
174
0
175
0
176
0
177
0
178
0
179
2
271
2
272
2
273
2
274
3
275
0
276
0
277
2
278
46
279
2
280
0
281
0
282
0
283
0
284
8
285
0
286
0
288
1
289
3
290
0
340
4C
371
-2
372
-2
  0
DIMSTYLE
105
82
330
4
100
AcDbSymbolTableRecord
100
AcDbDimStyleTableRecord
  2
EZ_M_1_H25_CM
 70
0
 40
1.0
 41
0.0025
 42
0.00125
 43
3.75
 44
0.00375
 45
0.0
 46
0.0
 47
0.0
 48
0.0
 49
2.5
140
0.0025
141
2.5
142
0.00125
143
0.03937007874
144
100.0
145
0.0
146
0.5
147
0.001
148
0.0
 69
0
 70
0
 71
0
 72
0
 73
0
 74
0
 75
0
 76
0
 77
1
 78
12
 79
3
170
0
171
3
172
1
173
0
174
0
175
0
176
0
177
0
178
0
179
2
271
2
272
2
273
2
274
3
275
0
276
0
277
2
278
46
279
2
280
0
281
0
282
0
283
0
284
8
285
0
286
0
288
1
289
3
290
0
340
4C
371
-2
372
-2
  0
DIMSTYLE
105
83
330
4
100
AcDbSymbolTableRecord
100
AcDbDimStyleTableRecord
  2
EZ_RADIUS
 70
0
 40
1.0
 41
0.25
 42
0.125
 43
3.75
 44
0.375
 45
0.0
 46
0.0
 47
0.0
 48
0.0
 49
2.5
140
0.25
141
0.0
142
0.0
143
0.03937007874
144
100.0
145
0.0
146
0.5
147
0.1
148
0.0
 69
0
 70
0
 71
0
 72
0
 73
0
 74
0
 75
0
 76
0
 77
1
 78
12
 79
3
170
0
171
3
172
0
173
0
174
0
175
0
176
0
177
0
178
0
179
2
271
2
272
2
273
2
274
3
275
0
276
0
277
2
278
46
279
1
280
0
281
0
282
0
283
0
284
8
285
0
286
0
288
1
289
3
290
0
340
4C
342
84
371
-2
372
-2
  0
DIMSTYLE
105
88
330
4
100
AcDbSymbolTableRecord
100
AcDbDimStyleTableRecord
  2
EZ_RADIUS_INSIDE
 70
0
 40
1.0
 41
0.25
 42
0.125
 43
3.75
 44
0.375
 45
0.0
 46
0.0
 47
0.0
 48
0.0
 49
2.5
140
0.25
141
0.0
142
0.0
143
0.03937007874
144
100.0
145
0.0
146
0.5
147
0.1
148
0.0
 69
0
 70
0
 71
0
 72
0
 73
0
 74
0
 75
0
 76
0
 77
0
 78
12
 79
3
170
0
171
3
172
0
173
0
174
1
175
0
176
0
177
0
178
0
179
2
271
2
272
2
273
2
274
3
275
0
276
0
277
2
278
46
279
0
280
0
281
0
282
0
283
0
284
8
285
0
286
0
288
1
289
0
290
0
340
4C
342
84
371
-2
372
-2
  0
DIMSTYLE
105
89
330
4
100
AcDbSymbolTableRecord
100
AcDbDimStyleTableRecord
  2
EZ_CURVED
 70
0
 40
1.0
 41
0.25
 42
0.125
 43
3.75
 44
0.375
 45
0.0
 46
0.0
 47
0.0
 48
0.0
 49
2.5
140
0.25
141
2.5
142
0.0
143
0.03937007874
144
100.0
145
0.0
146
0.5
147
0.1
148
0.0
 69
0
 70
0
 71
0
 72
0
 73
0
 74
0
 75
0
 76
0
 77
1
 78
12
 79
2
 90
2
170
0
171
3
172
1
173
0
174
0
175
0
176
0
177
0
178
0
179
2
271
2
272
2
273
2
274
3
275
0
276
0
277
2
278
46
279
2
280
0
281
0
282
0
283
0
284
8
285
0
286
0
288
1
289
3
290
0
340
4C
371
-2
372
-2
  0
ENDTAB
  0
TABLE
  2
BLOCK_RECORD
  5
9
330
0
100
AcDbSymbolTable
 70
5
  0
BLOCK_RECORD
  5
17
330
9
100
AcDbSymbolTableRecord
100
AcDbBlockTableRecord
  2
*Model_Space
340
1A
 70
0
280
1
281
0
  0
BLOCK_RECORD
  5
1B
330
9
100
AcDbSymbolTableRecord
100
AcDbBlockTableRecord
  2
*Paper_Space
340
1E
 70
0
280
1
281
0
  0
BLOCK_RECORD
  5
74
330
9
100
AcDbSymbolTableRecord
100
AcDbBlockTableRecord
  2
_ARCHTICK
340
0
 70
0
280
1
281
0
  0
BLOCK_RECORD
  5
78
330
9
100
AcDbSymbolTableRecord
100
AcDbBlockTableRecord
  2
_CLOSEDFILLED
340
0
 70
0
280
1
281
0
  0
BLOCK_RECORD
  5
84
330
9
100
AcDbSymbolTableRecord
100
AcDbBlockTableRecord
  2
_CLOSEDBLANK
340
0
 70
0
280
1
281
0
  0
ENDTAB
  0
ENDSEC
  0
SECTION
  2
BLOCKS
  0
BLOCK
  5
18
330
17
100
AcDbEntity
  8
0
100
AcDbBlockBegin
  2
*Model_Space
 70
0
 10
0.0
 20
0.0
 30
0.0
  3
*Model_Space
  1

  0
ENDBLK
  5
19
330
17
100
AcDbEntity
  8
0
100
AcDbBlockEnd
  0
BLOCK
  5
1C
330
1B
100
AcDbEntity
  8
0
100
AcDbBlockBegin
  2
*Paper_Space
 70
0
 10
0.0
 20
0.0
 30
0.0
  3
*Paper_Space
  1

  0
ENDBLK
  5
1D
330
1B
100
AcDbEntity
  8
0
100
AcDbBlockEnd
  0
BLOCK
  5
75
330
74
100
AcDbEntity
  8
0
100
AcDbBlockBegin
  2
_ARCHTICK
 70
0
 10
0.0
 20
0.0
 30
0.0
  3
_ARCHTICK
  1

  0
LWPOLYLINE
  5
77
330
74
100
AcDbEntity
  8
0
  6
BYBLOCK
 62
0
100
AcDbPolyline
 90
2
 70
0
 43
0.15
 10
-0.5
 20
-0.5
 10
0.5
 20
0.5
  0
ENDBLK
  5
76
330
74
100
AcDbEntity
  8
0
100
AcDbBlockEnd
  0
BLOCK
  5
79
330
78
100
AcDbEntity
  8
0
100
AcDbBlockBegin
  2
_CLOSEDFILLED
 70
0
 10
0.0
 20
0.0
 30
0.0
  3
_CLOSEDFILLED
  1

  0
SOLID
  5
7B
330
78
100
AcDbEntity
  8
0
  6
BYBLOCK
 62
0
100
AcDbTrace
 10
-1.0
 20
0.16439898372402537
 30
0.0
 11
0.0
 21
0.0
 31
0.0
 12
-1.0
 22
-0.16439898372402537
 32
0.0
 13
-1.0
 23
-0.16439898372402537
 33
0.0
  0
ENDBLK
  5
7A
330
78
100
AcDbEntity
  8
0
100
AcDbBlockEnd
  0
BLOCK
  5
85
330
84
100
AcDbEntity
  8
0
100
AcDbBlockBegin
  2
_CLOSEDBLANK
 70
0
 10
0.0
 20
0.0
 30
0.0
  3
_CLOSEDBLANK
  1

  0
LWPOLYLINE
  5
87
330
84
100
AcDbEntity
  8
0
  6
BYBLOCK
 62
0
100
AcDbPolyline
 90
3
 70
1
 10
-1.0
 20
0.16439898372402537
 10
0.0
 20
0.0
 10
-1.0
 20
-0.16439898372402537
  0
ENDBLK
  5
86
330
84
100
AcDbEntity
  8
0
100
AcDbBlockEnd
  0
ENDSEC
  0
SECTION
  2
ENTITIES
  0
LWPOLYLINE
  5
AD
330
17
100
AcDbEntity
  8
0-SHEET
100
AcDbPolyline
 90
4
 70
1
 10
5.0
 20
5.0
 10
415.0
 20
5.0
 10
415.0
 20
292.0
 10
5.0
 20
292.0
  0
LINE
  5
AE
330
17
100
AcDbEntity
  8
0-TITLE
100
AcDbLine
 10
5.0
 20
31.5
 30
0.0
 11
415.0
 21
31.5
 31
0.0
  0
LINE
  5
AF
330
17
100
AcDbEntity
  8
0-TITLE
100
AcDbLine
 10
5.0
 20
12.0
 30
0.0
 11
415.0
 21
12.0
 31
0.0
  0
LINE
  5
B0
330
17
100
AcDbEntity
  8
0-TITLE
100
AcDbLine
 10
97.0
 20
12.0
 30
0.0
 11
97.0
 21
31.5
 31
0.0
  0
LINE
  5
B1
330
17
100
AcDbEntity
  8
0-TITLE
100
AcDbLine
 10
219.0
 20
12.0
 30
0.0
 11
219.0
 21
31.5
 31
0.0
  0
LINE
  5
B2
330
17
100
AcDbEntity
  8
0-TITLE
100
AcDbLine
 10
287.0
 20
12.0
 30
0.0
 11
287.0
 21
31.5
 31
0.0
  0
LINE
  5
B3
330
17
100
AcDbEntity
  8
0-TITLE
100
AcDbLine
 10
345.0
 20
12.0
 30
0.0
 11
345.0
 21
31.5
 31
0.0
  0
LINE
  5
B4
330
17
100
AcDbEntity
  8
0-TITLE
100
AcDbLine
 10
5.0
 20
18.5
 30
0.0
 11
219.0
 21
18.5
 31
0.0
  0
LINE
  5
B5
330
17
100
AcDbEntity
  8
0-TITLE
100
AcDbLine
 10
5.0
 20
25.0
 30
0.0
 11
219.0
 21
25.0
 31
0.0
  0
TEXT
  5
B6
330
17
100
AcDbEntity
  8
0-TITLE-TXT
100
AcDbText
 10
6.5
 20
28.25
 30
0.0
 40
1.9
  1
PROJECT TYPE :
 11
6.5
 21
28.25
 31
0.0
100
AcDbText
 73
2
  0
TEXT
  5
B7
330
17
100
AcDbEntity
  8
0-TITLE-TXT
100
AcDbText
 10
95.5
 20
28.25
 30
0.0
 40
1.9
  1
DESIGN & BUILD
 72
2
 11
95.5
 21
28.25
 31
0.0
100
AcDbText
 73
2
  0
TEXT
  5
B8
330
17
100
AcDbEntity
  8
0-TITLE-TXT
100
AcDbText
 10
6.5
 20
21.75
 30
0.0
 40
1.9
  1
PROJECT :
 11
6.5
 21
21.75
 31
0.0
100
AcDbText
 73
2
  0
TEXT
  5
B9
330
17
100
AcDbEntity
  8
0-TITLE-TXT
100
AcDbText
 10
95.5
 20
21.75
 30
0.0
 40
1.9
  1
HANA RESIDENCE, TROPICANA AMAN
 72
2
 11
95.5
 21
21.75
 31
0.0
100
AcDbText
 73
2
  0
TEXT
  5
BA
330
17
100
AcDbEntity
  8
0-TITLE-TXT
100
AcDbText
 10
6.5
 20
15.25
 30
0.0
 40
1.9
  1
CLIENT :
 11
6.5
 21
15.25
 31
0.0
100
AcDbText
 73
2
  0
TEXT
  5
BB
330
17
100
AcDbEntity
  8
0-TITLE-TXT
100
AcDbText
 10
95.5
 20
15.25
 30
0.0
 40
1.9
  1
MS SHEON & MR TEE
 72
2
 11
95.5
 21
15.25
 31
0.0
100
AcDbText
 73
2
  0
LINE
  5
BC
330
17
100
AcDbEntity
  8
0-TITLE
100
AcDbLine
 10
158.0
 20
18.5
 30
0.0
 11
158.0
 21
25.0
 31
0.0
  0
TEXT
  5
BD
330
17
100
AcDbEntity
  8
0-TITLE-TXT
100
AcDbText
 10
98.5
 20
28.25
 30
0.0
 40
1.9
  1
DRAWING TITLE :
 11
98.5
 21
28.25
 31
0.0
100
AcDbText
 73
2
  0
TEXT
  5
BE
330
17
100
AcDbEntity
  8
0-TITLE-TXT
100
AcDbText
 10
217.5
 20
28.25
 30
0.0
 40
1.9
  1
ENTRANCE SHOE CABINET ELEVATION
 72
2
 11
217.5
 21
28.25
 31
0.0
100
AcDbText
 73
2
  0
TEXT
  5
BF
330
17
100
AcDbEntity
  8
0-TITLE-TXT
100
AcDbText
 10
98.5
 20
21.75
 30
0.0
 40
1.9
  1
INTERIOR DESIGNER :
 11
98.5
 21
21.75
 31
0.0
100
AcDbText
 73
2
  0
TEXT
  5
C0
330
17
100
AcDbEntity
  8
0-TITLE-TXT
100
AcDbText
 10
156.5
 20
21.75
 30
0.0
 40
1.9
  1
YANXIANG & YS
 72
2
 11
156.5
 21
21.75
 31
0.0
100
AcDbText
 73
2
  0
TEXT
  5
C1
330
17
100
AcDbEntity
  8
0-TITLE-TXT
100
AcDbText
 10
159.5
 20
21.75
 30
0.0
 40
1.9
  1
SALE PERSON :
 11
159.5
 21
21.75
 31
0.0
100
AcDbText
 73
2
  0
TEXT
  5
C2
330
17
100
AcDbEntity
  8
0-TITLE-TXT
100
AcDbText
 10
217.5
 20
21.75
 30
0.0
 40
1.9
  1
RAYMOND
 72
2
 11
217.5
 21
21.75
 31
0.0
100
AcDbText
 73
2
  0
TEXT
  5
C3
330
17
100
AcDbEntity
  8
0-TITLE-TXT
100
AcDbText
 10
98.5
 20
15.25
 30
0.0
 40
1.9
  1
CHECK BY :
 11
98.5
 21
15.25
 31
0.0
100
AcDbText
 73
2
  0
TEXT
  5
C4
330
17
100
AcDbEntity
  8
0-TITLE-TXT
100
AcDbText
 10
156.5
 20
15.25
 30
0.0
 40
1.9
  1
RAYMOND
 72
2
 11
156.5
 21
15.25
 31
0.0
100
AcDbText
 73
2
  0
TEXT
  5
C5
330
17
100
AcDbEntity
  8
0-TITLE-TXT
100
AcDbText
 10
217.5
 20
15.25
 30
0.0
 40
1.9
  1
ID.02.01
 72
2
 11
217.5
 21
15.25
 31
0.0
100
AcDbText
 73
2
  0
TEXT
  5
C6
330
17
100
AcDbEntity
  8
0-TITLE-TXT
100
AcDbText
 10
220.2
 20
29.9
 30
0.0
 40
1.8
  1
DRAWING'S STATUS :
 11
220.2
 21
29.9
 31
0.0
100
AcDbText
 73
2
  0
LINE
  5
C7
330
17
100
AcDbEntity
  8
0-TITLE
100
AcDbLine
 10
219.0
 20
28.3
 30
0.0
 11
287.0
 21
28.3
 31
0.0
  0
LINE
  5
C8
330
17
100
AcDbEntity
  8
0-TITLE
100
AcDbLine
 10
255.0
 20
12.0
 30
0.0
 11
255.0
 21
28.3
 31
0.0
  0
TEXT
  5
C9
330
17
100
AcDbEntity
  8
0-TITLE-TXT
100
AcDbText
 10
220.2
 20
26.67
 30
0.0
 40
1.45
  1
1ST DRAFT (R0)
 11
220.2
 21
26.67
 31
0.0
100
AcDbText
 73
2
  0
TEXT
  5
CA
330
17
100
AcDbEntity
  8
0-TITLE-TXT
100
AcDbText
 10
256.2
 20
26.67
 30
0.0
 40
1.45
  1
09 OCT' 26
 11
256.2
 21
26.67
 31
0.0
100
AcDbText
 73
2
  0
TEXT
  5
CB
330
17
100
AcDbEntity
  8
0-TITLE-TXT
100
AcDbText
 10
220.2
 20
23.41
 30
0.0
 40
1.45
  1
AMENDMENT 01
 11
220.2
 21
23.41
 31
0.0
100
AcDbText
 73
2
  0
TEXT
  5
CC
330
17
100
AcDbEntity
  8
0-TITLE-TXT
100
AcDbText
 10
256.2
 20
23.41
 30
0.0
 40
1.45
  1

 11
256.2
 21
23.41
 31
0.0
100
AcDbText
 73
2
  0
LINE
  5
CD
330
17
100
AcDbEntity
  8
0-TITLE
100
AcDbLine
 10
219.0
 20
25.04
 30
0.0
 11
287.0
 21
25.04
 31
0.0
  0
TEXT
  5
CE
330
17
100
AcDbEntity
  8
0-TITLE-TXT
100
AcDbText
 10
220.2
 20
20.15
 30
0.0
 40
1.45
  1
AMENDMENT 02
 11
220.2
 21
20.15
 31
0.0
100
AcDbText
 73
2
  0
TEXT
  5
CF
330
17
100
AcDbEntity
  8
0-TITLE-TXT
100
AcDbText
 10
256.2
 20
20.15
 30
0.0
 40
1.45
  1

 11
256.2
 21
20.15
 31
0.0
100
AcDbText
 73
2
  0
LINE
  5
D0
330
17
100
AcDbEntity
  8
0-TITLE
100
AcDbLine
 10
219.0
 20
21.78
 30
0.0
 11
287.0
 21
21.78
 31
0.0
  0
TEXT
  5
D1
330
17
100
AcDbEntity
  8
0-TITLE-TXT
100
AcDbText
 10
220.2
 20
16.89
 30
0.0
 40
1.45
  1
AMENDMENT 03
 11
220.2
 21
16.89
 31
0.0
100
AcDbText
 73
2
  0
TEXT
  5
D2
330
17
100
AcDbEntity
  8
0-TITLE-TXT
100
AcDbText
 10
256.2
 20
16.89
 30
0.0
 40
1.45
  1

 11
256.2
 21
16.89
 31
0.0
100
AcDbText
 73
2
  0
LINE
  5
D3
330
17
100
AcDbEntity
  8
0-TITLE
100
AcDbLine
 10
219.0
 20
18.52
 30
0.0
 11
287.0
 21
18.52
 31
0.0
  0
TEXT
  5
D4
330
17
100
AcDbEntity
  8
0-TITLE-TXT
100
AcDbText
 10
220.2
 20
13.629999999999999
 30
0.0
 40
1.45
  1
AMENDMENT 04
 11
220.2
 21
13.629999999999999
 31
0.0
100
AcDbText
 73
2
  0
TEXT
  5
D5
330
17
100
AcDbEntity
  8
0-TITLE-TXT
100
AcDbText
 10
256.2
 20
13.629999999999999
 30
0.0
 40
1.45
  1

 11
256.2
 21
13.629999999999999
 31
0.0
100
AcDbText
 73
2
  0
LINE
  5
D6
330
17
100
AcDbEntity
  8
0-TITLE
100
AcDbLine
 10
219.0
 20
15.26
 30
0.0
 11
287.0
 21
15.26
 31
0.0
  0
TEXT
  5
D7
330
17
100
AcDbEntity
  8
0-TITLE-TXT
100
AcDbText
 10
288.2
 20
29.9
 30
0.0
 40
1.4
  1
ALL DRAWINGS ARE COPY-RIGHT OF:
 11
288.2
 21
29.9
 31
0.0
100
AcDbText
 73
2
  0
TEXT
  5
D8
330
17
100
AcDbEntity
  8
0-TITLE-TXT
100
AcDbText
 10
289.0
 20
18.0
 30
0.0
 40
5.6
  1
groo
 11
289.0
 21
18.0
 31
0.0
100
AcDbText
  0
TEXT
  5
D9
330
17
100
AcDbEntity
  8
0-TITLE-TXT
100
AcDbText
 10
293.0
 20
14.6
 30
0.0
 40
1.8
  1
space
 11
293.0
 21
14.6
 31
0.0
100
AcDbText
  0
TEXT
  5
DA
330
17
100
AcDbEntity
  8
0-TITLE-TXT
100
AcDbText
 10
309.5
 20
26.9
 30
0.0
 40
1.12
  1
GROO SPACE SDN BHD (1662567-V)
 11
309.5
 21
26.9
 31
0.0
100
AcDbText
 73
2
  0
TEXT
  5
DB
330
17
100
AcDbEntity
  8
0-TITLE-TXT
100
AcDbText
 10
309.5
 20
24.299999999999997
 30
0.0
 40
1.12
  1
LEVEL 3A, WISMA JAG, JALAN DESA UTAMA,
 11
309.5
 21
24.299999999999997
 31
0.0
100
AcDbText
 73
2
  0
TEXT
  5
DC
330
17
100
AcDbEntity
  8
0-TITLE-TXT
100
AcDbText
 10
309.5
 20
21.7
 30
0.0
 40
1.12
  1
TAMAN DESA, 58100 KUALA LUMPUR
 11
309.5
 21
21.7
 31
0.0
100
AcDbText
 73
2
  0
TEXT
  5
DD
330
17
100
AcDbEntity
  8
0-TITLE-TXT
100
AcDbText
 10
309.5
 20
19.099999999999998
 30
0.0
 40
1.12
  1
T: +6016-913 6785 / +6012-528 7212
 11
309.5
 21
19.099999999999998
 31
0.0
100
AcDbText
 73
2
  0
TEXT
  5
DE
330
17
100
AcDbEntity
  8
0-TITLE-TXT
100
AcDbText
 10
309.5
 20
16.5
 30
0.0
 40
1.12
  1
E: groospacemy@gmail.com  IG: @groospace.my
 11
309.5
 21
16.5
 31
0.0
100
AcDbText
 73
2
  0
TEXT
  5
DF
330
17
100
AcDbEntity
  8
0-TITLE-TXT
100
AcDbText
 10
346.2
 20
29.9
 30
0.0
 40
1.8
  1
CLIENTS ACKNOWLEDGE & SIGN :
 11
346.2
 21
29.9
 31
0.0
100
AcDbText
 73
2
  0
TEXT
  5
E0
330
17
100
AcDbEntity
  8
0-TITLE-TXT
100
AcDbText
 10
6.5
 20
9.7
 30
0.0
 40
1.55
  1
"NOTICE TO CONTRACTOR: DO NOT SCALE DRAWINGS. All dimensions and site levels must be Verified In Field (V.I.F.) before any fabrication or commencement of work.
 11
6.5
 21
9.7
 31
0.0
100
AcDbText
 73
2
  0
TEXT
  5
E1
330
17
100
AcDbEntity
  8
0-TITLE-TXT
100
AcDbText
 10
6.5
 20
7.1
 30
0.0
 40
1.55
  1
Any discrepancies between these drawings and actual site conditions must be reported to the Designer immediately for clarification. Failure to do so will be at the Contractor's own risk."
 11
6.5
 21
7.1
 31
0.0
100
AcDbText
 73
2
  0
LWPOLYLINE
  5
E2
330
17
100
AcDbEntity
  8
A-WALL
100
AcDbPolyline
 90
4
 70
1
 10
18.0
 20
73.5
 10
23.0
 20
73.5
 10
23.0
 20
179.5
 10
18.0
 20
179.5
  0
HATCH
  5
E3
330
17
100
AcDbEntity
  8
I-JOIN-HATCH
 62
7
100
AcDbHatch
 10
0.0
 20
0.0
 30
0.0
210
0.0
220
0.0
230
1.0
  2
ANSI31
 70
0
 71
0
 91
1
 92
3
 72
0
 73
1
 93
4
 10
18.0
 20
73.5
 10
23.0
 20
73.5
 10
23.0
 20
179.5
 10
18.0
 20
179.5
 97
0
 75
1
 76
1
 52
0.0
 41
1.6
 77
0
 78
1
 53
45.0
 43
0.0
 44
0.0
 45
-3.5921024485
 46
3.5921024485
 79
0
 98
0
  0
LWPOLYLINE
  5
E4
330
17
100
AcDbEntity
  8
A-WALL
100
AcDbPolyline
 90
4
 70
1
 10
63.0
 20
73.5
 10
68.0
 20
73.5
 10
68.0
 20
179.5
 10
63.0
 20
179.5
  0
HATCH
  5
E5
330
17
100
AcDbEntity
  8
I-JOIN-HATCH
 62
7
100
AcDbHatch
 10
0.0
 20
0.0
 30
0.0
210
0.0
220
0.0
230
1.0
  2
ANSI31
 70
0
 71
0
 91
1
 92
3
 72
0
 73
1
 93
4
 10
63.0
 20
73.5
 10
68.0
 20
73.5
 10
68.0
 20
179.5
 10
63.0
 20
179.5
 97
0
 75
1
 76
1
 52
0.0
 41
1.6
 77
0
 78
1
 53
45.0
 43
0.0
 44
0.0
 45
-3.5921024485
 46
3.5921024485
 79
0
 98
0
  0
LINE
  5
E6
330
17
100
AcDbEntity
  8
A-WALL
100
AcDbLine
 10
8.0
 20
75.5
 30
0.0
 11
78.0
 21
75.5
 31
0.0
  0
LINE
  5
E7
330
17
100
AcDbEntity
  8
I-CEIL
100
AcDbLine
 10
8.0
 20
175.5
 30
0.0
 11
78.0
 21
175.5
 31
0.0
  0
LWPOLYLINE
  5
E8
330
17
100
AcDbEntity
  8
I-NOTE
 62
1
100
AcDbPolyline
 90
3
 70
1
 10
91.33333333333333
 20
175.5
 10
90.13333333333333
 20
177.18
 10
92.53333333333333
 20
177.18
  0
TEXT
  5
E9
330
17
100
AcDbEntity
  8
I-TEXT
100
AcDbText
 10
89.33333333333333
 20
175.7
 30
0.0
 40
1.6
  1
CL 3000
 72
2
 11
89.33333333333333
 21
175.7
 31
0.0
100
AcDbText
 73
1
  0
LWPOLYLINE
  5
EA
330
17
100
AcDbEntity
  8
I-NOTE
 62
1
100
AcDbPolyline
 90
3
 70
1
 10
91.33333333333333
 20
75.5
 10
90.13333333333333
 20
77.18
 10
92.53333333333333
 20
77.18
  0
TEXT
  5
EB
330
17
100
AcDbEntity
  8
I-TEXT
100
AcDbText
 10
89.33333333333333
 20
75.7
 30
0.0
 40
1.6
  1
FFL 000
 72
2
 11
89.33333333333333
 21
75.7
 31
0.0
100
AcDbText
 73
1
  0
LINE
  5
EC
330
17
100
AcDbEntity
  8
I-JOIN-ELEV
100
AcDbLine
 10
23.0
 20
81.5
 30
0.0
 11
63.0
 21
81.5
 31
0.0
  0
LINE
  5
ED
330
17
100
AcDbEntity
  8
I-LITE
 62
1
100
AcDbLine
 10
24.333333333333332
 20
76.0
 30
0.0
 11
61.666666666666664
 21
76.0
 31
0.0
  0
LWPOLYLINE
  5
EE
330
17
100
AcDbEntity
  8
I-JOIN-THIN
100
AcDbPolyline
 90
4
 70
1
 10
23.0
 20
174.83333333333331
 10
63.0
 20
174.83333333333331
 10
63.0
 20
175.5
 10
23.0
 20
175.5
  0
LWPOLYLINE
  5
EF
330
17
100
AcDbEntity
  8
I-JOIN-ELEV
100
AcDbPolyline
 90
4
 70
1
 10
23.0
 20
81.5
 10
43.0
 20
81.5
 10
43.0
 20
141.5
 10
23.0
 20
141.5
  0
LWPOLYLINE
  5
F0
330
17
100
AcDbEntity
  8
I-JOIN-HIDDEN
100
AcDbPolyline
 90
3
 70
0
 10
43.0
 20
81.5
 10
23.0
 20
111.5
 10
43.0
 20
141.5
  0
LWPOLYLINE
  5
F1
330
17
100
AcDbEntity
  8
I-JOIN-ELEV
100
AcDbPolyline
 90
4
 70
1
 10
23.0
 20
141.5
 10
43.0
 20
141.5
 10
43.0
 20
174.83333333333331
 10
23.0
 20
174.83333333333331
  0
LWPOLYLINE
  5
F2
330
17
100
AcDbEntity
  8
I-JOIN-HIDDEN
100
AcDbPolyline
 90
3
 70
0
 10
43.0
 20
141.5
 10
23.0
 20
158.16666666666669
 10
43.0
 20
174.83333333333331
  0
LWPOLYLINE
  5
F3
330
17
100
AcDbEntity
  8
I-JOIN-ELEV
100
AcDbPolyline
 90
4
 70
1
 10
43.0
 20
81.5
 10
63.0
 20
81.5
 10
63.0
 20
141.5
 10
43.0
 20
141.5
  0
LWPOLYLINE
  5
F4
330
17
100
AcDbEntity
  8
I-JOIN-HIDDEN
100
AcDbPolyline
 90
3
 70
0
 10
43.0
 20
81.5
 10
63.0
 20
111.5
 10
43.0
 20
141.5
  0
LWPOLYLINE
  5
F5
330
17
100
AcDbEntity
  8
I-JOIN-ELEV
100
AcDbPolyline
 90
4
 70
1
 10
43.0
 20
141.5
 10
63.0
 20
141.5
 10
63.0
 20
174.83333333333331
 10
43.0
 20
174.83333333333331
  0
LWPOLYLINE
  5
F6
330
17
100
AcDbEntity
  8
I-JOIN-HIDDEN
100
AcDbPolyline
 90
3
 70
0
 10
43.0
 20
141.5
 10
63.0
 20
158.16666666666669
 10
43.0
 20
174.83333333333331
  0
LWPOLYLINE
  5
F7
330
17
100
AcDbEntity
  8
I-JOIN-ELEV
100
AcDbPolyline
 90
4
 70
1
 10
23.0
 20
81.5
 10
63.0
 20
81.5
 10
63.0
 20
174.83333333333331
 10
23.0
 20
174.83333333333331
  0
LWPOLYLINE
  5
F8
330
17
100
AcDbEntity
  8
I-TAG
100
AcDbPolyline
 90
26
 70
1
 10
31.05
 20
139.375
 10
30.564714290432775
 20
139.311110924292
 10
30.1125
 20
139.12379763209583
 10
29.724174785275224
 20
138.82582521472477
 10
29.426202367904178
 20
138.4375
 10
29.238889075708
 20
137.98528570956722
 10
29.175
 20
137.5
 10
29.238889075708
 20
137.01471429043278
 10
29.426202367904178
 20
136.5625
 10
29.724174785275224
 20
136.17417478527523
 10
30.1125
 20
135.87620236790417
 10
30.564714290432775
 20
135.688889075708
 10
31.05
 20
135.625
 10
34.95
 20
135.625
 10
35.435285709567225
 20
135.688889075708
 10
35.8875
 20
135.87620236790417
 10
36.275825214724776
 20
136.17417478527523
 10
36.573797632095825
 20
136.5625
 10
36.761110924292005
 20
137.01471429043278
 10
36.825
 20
137.5
 10
36.761110924292005
 20
137.98528570956722
 10
36.573797632095825
 20
138.4375
 10
36.27582521472478
 20
138.82582521472477
 10
35.8875
 20
139.12379763209583
 10
35.43528570956723
 20
139.311110924292
 10
34.95
 20
139.375
  0
TEXT
  5
F9
330
17
100
AcDbEntity
  8
I-TAG
100
AcDbText
 10
33.0
 20
137.5
 30
0.0
 40
1.275
  1
M05
 72
1
 11
33.0
 21
137.5
 31
0.0
100
AcDbText
 73
2
  0
LWPOLYLINE
  5
FA
330
17
100
AcDbEntity
  8
I-TAG
100
AcDbPolyline
 90
26
 70
1
 10
31.05
 20
172.70833333333331
 10
30.564714290432775
 20
172.6444442576253
 10
30.1125
 20
172.45713096542914
 10
29.724174785275224
 20
172.1591585480581
 10
29.426202367904178
 20
171.77083333333331
 10
29.238889075708
 20
171.31861904290054
 10
29.175
 20
170.83333333333331
 10
29.238889075708
 20
170.3480476237661
 10
29.426202367904178
 20
169.89583333333331
 10
29.724174785275224
 20
169.50750811860854
 10
30.1125
 20
169.20953570123748
 10
30.564714290432775
 20
169.02222240904132
 10
31.05
 20
168.95833333333331
 10
34.95
 20
168.95833333333331
 10
35.435285709567225
 20
169.02222240904132
 10
35.8875
 20
169.20953570123748
 10
36.275825214724776
 20
169.50750811860854
 10
36.573797632095825
 20
169.89583333333331
 10
36.761110924292005
 20
170.3480476237661
 10
36.825
 20
170.83333333333331
 10
36.761110924292005
 20
171.31861904290054
 10
36.573797632095825
 20
171.77083333333331
 10
36.27582521472478
 20
172.1591585480581
 10
35.8875
 20
172.45713096542914
 10
35.43528570956723
 20
172.6444442576253
 10
34.95
 20
172.70833333333331
  0
TEXT
  5
FB
330
17
100
AcDbEntity
  8
I-TAG
100
AcDbText
 10
33.0
 20
170.83333333333331
 30
0.0
 40
1.275
  1
M05
 72
1
 11
33.0
 21
170.83333333333331
 31
0.0
100
AcDbText
 73
2
  0
LWPOLYLINE
  5
FC
330
17
100
AcDbEntity
  8
I-TAG
100
AcDbPolyline
 90
26
 70
1
 10
51.05
 20
139.375
 10
50.56471429043277
 20
139.311110924292
 10
50.1125
 20
139.12379763209583
 10
49.724174785275224
 20
138.82582521472477
 10
49.426202367904175
 20
138.4375
 10
49.238889075707995
 20
137.98528570956722
 10
49.175
 20
137.5
 10
49.238889075707995
 20
137.01471429043278
 10
49.426202367904175
 20
136.5625
 10
49.72417478527522
 20
136.17417478527523
 10
50.1125
 20
135.87620236790417
 10
50.56471429043277
 20
135.688889075708
 10
51.05
 20
135.625
 10
54.95
 20
135.625
 10
55.435285709567225
 20
135.688889075708
 10
55.8875
 20
135.87620236790417
 10
56.275825214724776
 20
136.17417478527523
 10
56.573797632095825
 20
136.5625
 10
56.761110924292005
 20
137.01471429043278
 10
56.825
 20
137.5
 10
56.761110924292005
 20
137.98528570956722
 10
56.573797632095825
 20
138.4375
 10
56.27582521472478
 20
138.82582521472477
 10
55.8875
 20
139.12379763209583
 10
55.43528570956723
 20
139.311110924292
 10
54.95
 20
139.375
  0
TEXT
  5
FD
330
17
100
AcDbEntity
  8
I-TAG
100
AcDbText
 10
53.0
 20
137.5
 30
0.0
 40
1.275
  1
M05
 72
1
 11
53.0
 21
137.5
 31
0.0
100
AcDbText
 73
2
  0
LWPOLYLINE
  5
FE
330
17
100
AcDbEntity
  8
I-TAG
100
AcDbPolyline
 90
26
 70
1
 10
51.05
 20
172.70833333333331
 10
50.56471429043277
 20
172.6444442576253
 10
50.1125
 20
172.45713096542914
 10
49.724174785275224
 20
172.1591585480581
 10
49.426202367904175
 20
171.77083333333331
 10
49.238889075707995
 20
171.31861904290054
 10
49.175
 20
170.83333333333331
 10
49.238889075707995
 20
170.3480476237661
 10
49.426202367904175
 20
169.89583333333331
 10
49.72417478527522
 20
169.50750811860854
 10
50.1125
 20
169.20953570123748
 10
50.56471429043277
 20
169.02222240904132
 10
51.05
 20
168.95833333333331
 10
54.95
 20
168.95833333333331
 10
55.435285709567225
 20
169.02222240904132
 10
55.8875
 20
169.20953570123748
 10
56.275825214724776
 20
169.50750811860854
 10
56.573797632095825
 20
169.89583333333331
 10
56.761110924292005
 20
170.3480476237661
 10
56.825
 20
170.83333333333331
 10
56.761110924292005
 20
171.31861904290054
 10
56.573797632095825
 20
171.77083333333331
 10
56.27582521472478
 20
172.1591585480581
 10
55.8875
 20
172.45713096542914
 10
55.43528570956723
 20
172.6444442576253
 10
54.95
 20
172.70833333333331
  0
TEXT
  5
FF
330
17
100
AcDbEntity
  8
I-TAG
100
AcDbText
 10
53.0
 20
170.83333333333331
 30
0.0
 40
1.275
  1
M05
 72
1
 11
53.0
 21
170.83333333333331
 31
0.0
100
AcDbText
 73
2
  0
LINE
  5
100
330
17
100
AcDbEntity
  8
I-DIM
100
AcDbLine
 10
23.0
 20
74.3
 30
0.0
 11
23.0
 21
65.33333333333333
 31
0.0
  0
LINE
  5
101
330
17
100
AcDbEntity
  8
I-DIM
100
AcDbLine
 10
43.0
 20
74.3
 30
0.0
 11
43.0
 21
65.33333333333333
 31
0.0
  0
LINE
  5
102
330
17
100
AcDbEntity
  8
I-DIM
100
AcDbLine
 10
21.5
 20
66.83333333333333
 30
0.0
 11
44.5
 21
66.83333333333333
 31
0.0
  0
LINE
  5
103
330
17
100
AcDbEntity
  8
I-DIM
100
AcDbLine
 10
21.9
 20
65.73333333333333
 30
0.0
 11
24.1
 21
67.93333333333334
 31
0.0
  0
LINE
  5
104
330
17
100
AcDbEntity
  8
I-DIM
100
AcDbLine
 10
41.9
 20
65.73333333333333
 30
0.0
 11
44.1
 21
67.93333333333334
 31
0.0
  0
TEXT
  5
105
330
17
100
AcDbEntity
  8
I-DIM
100
AcDbText
 10
33.0
 20
67.73333333333333
 30
0.0
 40
1.9
  1
600
 72
1
 11
33.0
 21
67.73333333333333
 31
0.0
100
AcDbText
 73
1
  0
LINE
  5
106
330
17
100
AcDbEntity
  8
I-DIM
100
AcDbLine
 10
43.0
 20
74.3
 30
0.0
 11
43.0
 21
65.33333333333333
 31
0.0
  0
LINE
  5
107
330
17
100
AcDbEntity
  8
I-DIM
100
AcDbLine
 10
63.0
 20
74.3
 30
0.0
 11
63.0
 21
65.33333333333333
 31
0.0
  0
LINE
  5
108
330
17
100
AcDbEntity
  8
I-DIM
100
AcDbLine
 10
41.5
 20
66.83333333333333
 30
0.0
 11
64.5
 21
66.83333333333333
 31
0.0
  0
LINE
  5
109
330
17
100
AcDbEntity
  8
I-DIM
100
AcDbLine
 10
41.9
 20
65.73333333333333
 30
0.0
 11
44.1
 21
67.93333333333334
 31
0.0
  0
LINE
  5
10A
330
17
100
AcDbEntity
  8
I-DIM
100
AcDbLine
 10
61.9
 20
65.73333333333333
 30
0.0
 11
64.1
 21
67.93333333333334
 31
0.0
  0
TEXT
  5
10B
330
17
100
AcDbEntity
  8
I-DIM
100
AcDbText
 10
53.0
 20
67.73333333333333
 30
0.0
 40
1.9
  1
600
 72
1
 11
53.0
 21
67.73333333333333
 31
0.0
100
AcDbText
 73
1
  0
LINE
  5
10C
330
17
100
AcDbEntity
  8
I-DIM
100
AcDbLine
 10
23.0
 20
176.7
 30
0.0
 11
23.0
 21
184.66666666666669
 31
0.0
  0
LINE
  5
10D
330
17
100
AcDbEntity
  8
I-DIM
100
AcDbLine
 10
63.0
 20
176.7
 30
0.0
 11
63.0
 21
184.66666666666669
 31
0.0
  0
LINE
  5
10E
330
17
100
AcDbEntity
  8
I-DIM
100
AcDbLine
 10
21.5
 20
183.16666666666669
 30
0.0
 11
64.5
 21
183.16666666666669
 31
0.0
  0
LINE
  5
10F
330
17
100
AcDbEntity
  8
I-DIM
100
AcDbLine
 10
21.9
 20
182.06666666666666
 30
0.0
 11
24.1
 21
184.26666666666665
 31
0.0
  0
LINE
  5
110
330
17
100
AcDbEntity
  8
I-DIM
100
AcDbLine
 10
61.9
 20
182.06666666666666
 30
0.0
 11
64.1
 21
184.26666666666665
 31
0.0
  0
TEXT
  5
111
330
17
100
AcDbEntity
  8
I-DIM
100
AcDbText
 10
43.0
 20
184.06666666666666
 30
0.0
 40
1.9
  1
1200
 72
1
 11
43.0
 21
184.06666666666666
 31
0.0
100
AcDbText
 73
1
  0
LINE
  5
112
330
17
100
AcDbEntity
  8
I-DIM
100
AcDbLine
 10
64.2
 20
75.5
 30
0.0
 11
76.83333333333334
 21
75.5
 31
0.0
  0
LINE
  5
113
330
17
100
AcDbEntity
  8
I-DIM
100
AcDbLine
 10
64.2
 20
81.5
 30
0.0
 11
76.83333333333334
 21
81.5
 31
0.0
  0
LINE
  5
114
330
17
100
AcDbEntity
  8
I-DIM
100
AcDbLine
 10
75.33333333333334
 20
74.0
 30
0.0
 11
75.33333333333334
 21
83.0
 31
0.0
  0
LINE
  5
115
330
17
100
AcDbEntity
  8
I-DIM
100
AcDbLine
 10
76.43333333333334
 20
74.4
 30
0.0
 11
74.23333333333333
 21
76.6
 31
0.0
  0
LINE
  5
116
330
17
100
AcDbEntity
  8
I-DIM
100
AcDbLine
 10
76.43333333333334
 20
80.4
 30
0.0
 11
74.23333333333333
 21
82.6
 31
0.0
  0
TEXT
  5
117
330
17
100
AcDbEntity
  8
I-DIM
100
AcDbText
 10
74.43333333333334
 20
78.5
 30
0.0
 40
1.8
  1
180
 50
90.0
 72
1
 11
74.43333333333334
 21
78.5
 31
0.0
100
AcDbText
 73
1
  0
LINE
  5
118
330
17
100
AcDbEntity
  8
I-DIM
100
AcDbLine
 10
64.2
 20
81.5
 30
0.0
 11
76.83333333333334
 21
81.5
 31
0.0
  0
LINE
  5
119
330
17
100
AcDbEntity
  8
I-DIM
100
AcDbLine
 10
64.2
 20
141.5
 30
0.0
 11
76.83333333333334
 21
141.5
 31
0.0
  0
LINE
  5
11A
330
17
100
AcDbEntity
  8
I-DIM
100
AcDbLine
 10
75.33333333333334
 20
80.0
 30
0.0
 11
75.33333333333334
 21
143.0
 31
0.0
  0
LINE
  5
11B
330
17
100
AcDbEntity
  8
I-DIM
100
AcDbLine
 10
76.43333333333334
 20
80.4
 30
0.0
 11
74.23333333333333
 21
82.6
 31
0.0
  0
LINE
  5
11C
330
17
100
AcDbEntity
  8
I-DIM
100
AcDbLine
 10
76.43333333333334
 20
140.4
 30
0.0
 11
74.23333333333333
 21
142.6
 31
0.0
  0
TEXT
  5
11D
330
17
100
AcDbEntity
  8
I-DIM
100
AcDbText
 10
74.43333333333334
 20
111.5
 30
0.0
 40
1.8
  1
1800
 50
90.0
 72
1
 11
74.43333333333334
 21
111.5
 31
0.0
100
AcDbText
 73
1
  0
LINE
  5
11E
330
17
100
AcDbEntity
  8
I-DIM
100
AcDbLine
 10
64.2
 20
141.5
 30
0.0
 11
76.83333333333334
 21
141.5
 31
0.0
  0
LINE
  5
11F
330
17
100
AcDbEntity
  8
I-DIM
100
AcDbLine
 10
64.2
 20
174.83333333333331
 30
0.0
 11
76.83333333333334
 21
174.83333333333331
 31
0.0
  0
LINE
  5
120
330
17
100
AcDbEntity
  8
I-DIM
100
AcDbLine
 10
75.33333333333334
 20
140.0
 30
0.0
 11
75.33333333333334
 21
176.33333333333331
 31
0.0
  0
LINE
  5
121
330
17
100
AcDbEntity
  8
I-DIM
100
AcDbLine
 10
76.43333333333334
 20
140.4
 30
0.0
 11
74.23333333333333
 21
142.6
 31
0.0
  0
LINE
  5
122
330
17
100
AcDbEntity
  8
I-DIM
100
AcDbLine
 10
76.43333333333334
 20
173.73333333333335
 30
0.0
 11
74.23333333333333
 21
175.93333333333334
 31
0.0
  0
TEXT
  5
123
330
17
100
AcDbEntity
  8
I-DIM
100
AcDbText
 10
74.43333333333334
 20
158.16666666666669
 30
0.0
 40
1.8
  1
1000
 50
90.0
 72
1
 11
74.43333333333334
 21
158.16666666666669
 31
0.0
100
AcDbText
 73
1
  0
LINE
  5
124
330
17
100
AcDbEntity
  8
I-DIM
100
AcDbLine
 10
64.2
 20
174.83333333333331
 30
0.0
 11
76.83333333333334
 21
174.83333333333331
 31
0.0
  0
LINE
  5
125
330
17
100
AcDbEntity
  8
I-DIM
100
AcDbLine
 10
64.2
 20
175.5
 30
0.0
 11
76.83333333333334
 21
175.5
 31
0.0
  0
LINE
  5
126
330
17
100
AcDbEntity
  8
I-DIM
100
AcDbLine
 10
75.33333333333334
 20
173.33333333333331
 30
0.0
 11
75.33333333333334
 21
177.0
 31
0.0
  0
LINE
  5
127
330
17
100
AcDbEntity
  8
I-DIM
100
AcDbLine
 10
76.43333333333334
 20
173.73333333333335
 30
0.0
 11
74.23333333333333
 21
175.93333333333334
 31
0.0
  0
LINE
  5
128
330
17
100
AcDbEntity
  8
I-DIM
100
AcDbLine
 10
76.43333333333334
 20
174.4
 30
0.0
 11
74.23333333333333
 21
176.6
 31
0.0
  0
TEXT
  5
129
330
17
100
AcDbEntity
  8
I-DIM
100
AcDbText
 10
74.43333333333334
 20
175.16666666666669
 30
0.0
 40
1.8
  1
20
 50
90.0
 72
1
 11
74.43333333333334
 21
175.16666666666669
 31
0.0
100
AcDbText
 73
1
  0
LINE
  5
12A
330
17
100
AcDbEntity
  8
I-DIM
100
AcDbLine
 10
21.8
 20
75.5
 30
0.0
 11
5.5
 21
75.5
 31
0.0
  0
LINE
  5
12B
330
17
100
AcDbEntity
  8
I-DIM
100
AcDbLine
 10
21.8
 20
175.5
 30
0.0
 11
5.5
 21
175.5
 31
0.0
  0
LINE
  5
12C
330
17
100
AcDbEntity
  8
I-DIM
100
AcDbLine
 10
7.0
 20
74.0
 30
0.0
 11
7.0
 21
177.0
 31
0.0
  0
LINE
  5
12D
330
17
100
AcDbEntity
  8
I-DIM
100
AcDbLine
 10
8.1
 20
74.4
 30
0.0
 11
5.899999999999999
 21
76.6
 31
0.0
  0
LINE
  5
12E
330
17
100
AcDbEntity
  8
I-DIM
100
AcDbLine
 10
8.1
 20
174.4
 30
0.0
 11
5.899999999999999
 21
176.6
 31
0.0
  0
TEXT
  5
12F
330
17
100
AcDbEntity
  8
I-DIM
100
AcDbText
 10
6.100000000000001
 20
125.5
 30
0.0
 40
1.9
  1
3000
 50
90.0
 72
1
 11
6.100000000000001
 21
125.5
 31
0.0
100
AcDbText
 73
1
  0
CIRCLE
  5
130
330
17
100
AcDbEntity
  8
I-TEXT
100
AcDbCircle
 10
25.5
 20
49.5
 30
0.0
 40
4.5
  0
TEXT
  5
131
330
17
100
AcDbEntity
  8
I-TEXT
100
AcDbText
 10
32.0
 20
50.4
 30
0.0
 40
2.8
  1
ELEVATION A
 11
32.0
 21
50.4
 31
0.0
100
AcDbText
  0
LINE
  5
132
330
17
100
AcDbEntity
  8
I-TEXT
100
AcDbLine
 10
30.0
 20
49.5
 30
0.0
 11
75.0
 21
49.5
 31
0.0
  0
TEXT
  5
133
330
17
100
AcDbEntity
  8
I-TEXT
100
AcDbText
 10
32.0
 20
46.3
 30
0.0
 40
2.4
  1
1:30
 11
32.0
 21
46.3
 31
0.0
100
AcDbText
  0
LINE
  5
134
330
17
100
AcDbEntity
  8
I-NOTE
 62
7
100
AcDbLine
 10
38.0
 20
111.5
 30
0.0
 11
83.0
 21
153.5
 31
0.0
  0
CIRCLE
  5
135
330
17
100
AcDbEntity
  8
I-NOTE
 62
7
100
AcDbCircle
 10
38.0
 20
111.5
 30
0.0
 40
0.45
  0
TEXT
  5
136
330
17
100
AcDbEntity
  8
I-NOTE
 62
7
100
AcDbText
 10
83.8
 20
155.965
 30
0.0
 40
1.7
  1
PANEL PLUS
 11
83.8
 21
155.965
 31
0.0
100
AcDbText
 73
2
  0
TEXT
  5
137
330
17
100
AcDbEntity
  8
I-NOTE
 62
7
100
AcDbText
 10
83.8
 20
153.5
 30
0.0
 40
1.7
  1
DARK OAK (TBC)
 11
83.8
 21
153.5
 31
0.0
100
AcDbText
 73
2
  0
TEXT
  5
138
330
17
100
AcDbEntity
  8
I-NOTE
 62
1
100
AcDbText
 10
83.8
 20
151.035
 30
0.0
 40
1.7
  1
MELAMINE 16MM
 11
83.8
 21
151.035
 31
0.0
100
AcDbText
 73
2
  0
LWPOLYLINE
  5
139
330
17
100
AcDbEntity
  8
A-WALL
100
AcDbPolyline
 90
4
 70
1
 10
120.0
 20
73.5
 10
125.0
 20
73.5
 10
125.0
 20
179.5
 10
120.0
 20
179.5
  0
HATCH
  5
13A
330
17
100
AcDbEntity
  8
I-JOIN-HATCH
 62
7
100
AcDbHatch
 10
0.0
 20
0.0
 30
0.0
210
0.0
220
0.0
230
1.0
  2
ANSI31
 70
0
 71
0
 91
1
 92
3
 72
0
 73
1
 93
4
 10
120.0
 20
73.5
 10
125.0
 20
73.5
 10
125.0
 20
179.5
 10
120.0
 20
179.5
 97
0
 75
1
 76
1
 52
0.0
 41
1.6
 77
0
 78
1
 53
45.0
 43
0.0
 44
0.0
 45
-3.5921024485
 46
3.5921024485
 79
0
 98
0
  0
LWPOLYLINE
  5
13B
330
17
100
AcDbEntity
  8
A-WALL
100
AcDbPolyline
 90
4
 70
1
 10
165.0
 20
73.5
 10
170.0
 20
73.5
 10
170.0
 20
179.5
 10
165.0
 20
179.5
  0
HATCH
  5
13C
330
17
100
AcDbEntity
  8
I-JOIN-HATCH
 62
7
100
AcDbHatch
 10
0.0
 20
0.0
 30
0.0
210
0.0
220
0.0
230
1.0
  2
ANSI31
 70
0
 71
0
 91
1
 92
3
 72
0
 73
1
 93
4
 10
165.0
 20
73.5
 10
170.0
 20
73.5
 10
170.0
 20
179.5
 10
165.0
 20
179.5
 97
0
 75
1
 76
1
 52
0.0
 41
1.6
 77
0
 78
1
 53
45.0
 43
0.0
 44
0.0
 45
-3.5921024485
 46
3.5921024485
 79
0
 98
0
  0
LINE
  5
13D
330
17
100
AcDbEntity
  8
A-WALL
100
AcDbLine
 10
110.0
 20
75.5
 30
0.0
 11
180.0
 21
75.5
 31
0.0
  0
LINE
  5
13E
330
17
100
AcDbEntity
  8
I-CEIL
100
AcDbLine
 10
110.0
 20
175.5
 30
0.0
 11
180.0
 21
175.5
 31
0.0
  0
LWPOLYLINE
  5
13F
330
17
100
AcDbEntity
  8
I-NOTE
 62
1
100
AcDbPolyline
 90
3
 70
1
 10
193.33333333333331
 20
175.5
 10
192.13333333333333
 20
177.18
 10
194.5333333333333
 20
177.18
  0
TEXT
  5
140
330
17
100
AcDbEntity
  8
I-TEXT
100
AcDbText
 10
191.33333333333331
 20
175.7
 30
0.0
 40
1.6
  1
CL 3000
 72
2
 11
191.33333333333331
 21
175.7
 31
0.0
100
AcDbText
 73
1
  0
LWPOLYLINE
  5
141
330
17
100
AcDbEntity
  8
I-NOTE
 62
1
100
AcDbPolyline
 90
3
 70
1
 10
193.33333333333331
 20
75.5
 10
192.13333333333333
 20
77.18
 10
194.5333333333333
 20
77.18
  0
TEXT
  5
142
330
17
100
AcDbEntity
  8
I-TEXT
100
AcDbText
 10
191.33333333333331
 20
75.7
 30
0.0
 40
1.6
  1
FFL 000
 72
2
 11
191.33333333333331
 21
75.7
 31
0.0
100
AcDbText
 73
1
  0
LINE
  5
143
330
17
100
AcDbEntity
  8
I-JOIN-ELEV
100
AcDbLine
 10
125.0
 20
81.5
 30
0.0
 11
165.0
 21
81.5
 31
0.0
  0
LINE
  5
144
330
17
100
AcDbEntity
  8
I-LITE
 62
1
100
AcDbLine
 10
126.33333333333333
 20
76.0
 30
0.0
 11
163.66666666666666
 21
76.0
 31
0.0
  0
LWPOLYLINE
  5
145
330
17
100
AcDbEntity
  8
I-JOIN-THIN
100
AcDbPolyline
 90
4
 70
1
 10
125.0
 20
174.83333333333331
 10
165.0
 20
174.83333333333331
 10
165.0
 20
175.5
 10
125.0
 20
175.5
  0
LWPOLYLINE
  5
146
330
17
100
AcDbEntity
  8
I-JOIN-ELEV
100
AcDbPolyline
 90
4
 70
1
 10
125.0
 20
81.5
 10
145.0
 20
81.5
 10
145.0
 20
141.5
 10
125.0
 20
141.5
  0
LINE
  5
147
330
17
100
AcDbEntity
  8
I-JOIN-THIN
100
AcDbLine
 10
125.53333333333333
 20
90.07142857142857
 30
0.0
 11
144.46666666666667
 21
90.07142857142857
 31
0.0
  0
TEXT
  5
148
330
17
100
AcDbEntity
  8
I-TEXT
100
AcDbText
 10
126.0
 20
91.4047619047619
 30
0.0
 40
1.5
  1
ADJ
 11
126.0
 21
91.4047619047619
 31
0.0
100
AcDbText
  0
LINE
  5
149
330
17
100
AcDbEntity
  8
I-JOIN-THIN
100
AcDbLine
 10
125.53333333333333
 20
98.64285714285714
 30
0.0
 11
144.46666666666667
 21
98.64285714285714
 31
0.0
  0
TEXT
  5
14A
330
17
100
AcDbEntity
  8
I-TEXT
100
AcDbText
 10
126.0
 20
99.97619047619048
 30
0.0
 40
1.5
  1
ADJ
 11
126.0
 21
99.97619047619048
 31
0.0
100
AcDbText
  0
LINE
  5
14B
330
17
100
AcDbEntity
  8
I-JOIN-THIN
100
AcDbLine
 10
125.53333333333333
 20
107.21428571428572
 30
0.0
 11
144.46666666666667
 21
107.21428571428572
 31
0.0
  0
TEXT
  5
14C
330
17
100
AcDbEntity
  8
I-TEXT
100
AcDbText
 10
126.0
 20
108.54761904761905
 30
0.0
 40
1.5
  1
ADJ
 11
126.0
 21
108.54761904761905
 31
0.0
100
AcDbText
  0
LINE
  5
14D
330
17
100
AcDbEntity
  8
I-JOIN-THIN
100
AcDbLine
 10
125.53333333333333
 20
115.78571428571429
 30
0.0
 11
144.46666666666667
 21
115.78571428571429
 31
0.0
  0
TEXT
  5
14E
330
17
100
AcDbEntity
  8
I-TEXT
100
AcDbText
 10
126.0
 20
117.11904761904762
 30
0.0
 40
1.5
  1
ADJ
 11
126.0
 21
117.11904761904762
 31
0.0
100
AcDbText
  0
LINE
  5
14F
330
17
100
AcDbEntity
  8
I-JOIN-THIN
100
AcDbLine
 10
125.53333333333333
 20
124.35714285714286
 30
0.0
 11
144.46666666666667
 21
124.35714285714286
 31
0.0
  0
TEXT
  5
150
330
17
100
AcDbEntity
  8
I-TEXT
100
AcDbText
 10
126.0
 20
125.69047619047619
 30
0.0
 40
1.5
  1
ADJ
 11
126.0
 21
125.69047619047619
 31
0.0
100
AcDbText
  0
LINE
  5
151
330
17
100
AcDbEntity
  8
I-JOIN-THIN
100
AcDbLine
 10
125.53333333333333
 20
132.92857142857144
 30
0.0
 11
144.46666666666667
 21
132.92857142857144
 31
0.0
  0
TEXT
  5
152
330
17
100
AcDbEntity
  8
I-TEXT
100
AcDbText
 10
126.0
 20
134.26190476190476
 30
0.0
 40
1.5
  1
ADJ
 11
126.0
 21
134.26190476190476
 31
0.0
100
AcDbText
  0
LINE
  5
153
330
17
100
AcDbEntity
  8
I-JOIN-THIN
100
AcDbLine
 10
125.53333333333333
 20
81.5
 30
0.0
 11
125.53333333333333
 21
141.5
 31
0.0
  0
LINE
  5
154
330
17
100
AcDbEntity
  8
I-JOIN-THIN
100
AcDbLine
 10
144.46666666666667
 20
81.5
 30
0.0
 11
144.46666666666667
 21
141.5
 31
0.0
  0
LWPOLYLINE
  5
155
330
17
100
AcDbEntity
  8
I-JOIN-ELEV
100
AcDbPolyline
 90
4
 70
1
 10
125.0
 20
141.5
 10
145.0
 20
141.5
 10
145.0
 20
174.83333333333331
 10
125.0
 20
174.83333333333331
  0
LINE
  5
156
330
17
100
AcDbEntity
  8
I-JOIN-THIN
100
AcDbLine
 10
125.53333333333333
 20
152.61111111111111
 30
0.0
 11
144.46666666666667
 21
152.61111111111111
 31
0.0
  0
TEXT
  5
157
330
17
100
AcDbEntity
  8
I-TEXT
100
AcDbText
 10
126.0
 20
153.94444444444446
 30
0.0
 40
1.5
  1
ADJ
 11
126.0
 21
153.94444444444446
 31
0.0
100
AcDbText
  0
LINE
  5
158
330
17
100
AcDbEntity
  8
I-JOIN-THIN
100
AcDbLine
 10
125.53333333333333
 20
163.72222222222223
 30
0.0
 11
144.46666666666667
 21
163.72222222222223
 31
0.0
  0
TEXT
  5
159
330
17
100
AcDbEntity
  8
I-TEXT
100
AcDbText
 10
126.0
 20
165.05555555555554
 30
0.0
 40
1.5
  1
ADJ
 11
126.0
 21
165.05555555555554
 31
0.0
100
AcDbText
  0
LINE
  5
15A
330
17
100
AcDbEntity
  8
I-JOIN-THIN
100
AcDbLine
 10
125.53333333333333
 20
141.5
 30
0.0
 11
125.53333333333333
 21
174.83333333333331
 31
0.0
  0
LINE
  5
15B
330
17
100
AcDbEntity
  8
I-JOIN-THIN
100
AcDbLine
 10
144.46666666666667
 20
141.5
 30
0.0
 11
144.46666666666667
 21
174.83333333333331
 31
0.0
  0
LWPOLYLINE
  5
15C
330
17
100
AcDbEntity
  8
I-JOIN-ELEV
100
AcDbPolyline
 90
4
 70
1
 10
145.0
 20
81.5
 10
165.0
 20
81.5
 10
165.0
 20
141.5
 10
145.0
 20
141.5
  0
LINE
  5
15D
330
17
100
AcDbEntity
  8
I-JOIN-THIN
100
AcDbLine
 10
145.53333333333333
 20
90.07142857142857
 30
0.0
 11
164.46666666666667
 21
90.07142857142857
 31
0.0
  0
TEXT
  5
15E
330
17
100
AcDbEntity
  8
I-TEXT
100
AcDbText
 10
146.0
 20
91.4047619047619
 30
0.0
 40
1.5
  1
ADJ
 11
146.0
 21
91.4047619047619
 31
0.0
100
AcDbText
  0
LINE
  5
15F
330
17
100
AcDbEntity
  8
I-JOIN-THIN
100
AcDbLine
 10
145.53333333333333
 20
98.64285714285714
 30
0.0
 11
164.46666666666667
 21
98.64285714285714
 31
0.0
  0
TEXT
  5
160
330
17
100
AcDbEntity
  8
I-TEXT
100
AcDbText
 10
146.0
 20
99.97619047619048
 30
0.0
 40
1.5
  1
ADJ
 11
146.0
 21
99.97619047619048
 31
0.0
100
AcDbText
  0
LINE
  5
161
330
17
100
AcDbEntity
  8
I-JOIN-THIN
100
AcDbLine
 10
145.53333333333333
 20
107.21428571428572
 30
0.0
 11
164.46666666666667
 21
107.21428571428572
 31
0.0
  0
TEXT
  5
162
330
17
100
AcDbEntity
  8
I-TEXT
100
AcDbText
 10
146.0
 20
108.54761904761905
 30
0.0
 40
1.5
  1
ADJ
 11
146.0
 21
108.54761904761905
 31
0.0
100
AcDbText
  0
LINE
  5
163
330
17
100
AcDbEntity
  8
I-JOIN-THIN
100
AcDbLine
 10
145.53333333333333
 20
115.78571428571429
 30
0.0
 11
164.46666666666667
 21
115.78571428571429
 31
0.0
  0
TEXT
  5
164
330
17
100
AcDbEntity
  8
I-TEXT
100
AcDbText
 10
146.0
 20
117.11904761904762
 30
0.0
 40
1.5
  1
ADJ
 11
146.0
 21
117.11904761904762
 31
0.0
100
AcDbText
  0
LINE
  5
165
330
17
100
AcDbEntity
  8
I-JOIN-THIN
100
AcDbLine
 10
145.53333333333333
 20
124.35714285714286
 30
0.0
 11
164.46666666666667
 21
124.35714285714286
 31
0.0
  0
TEXT
  5
166
330
17
100
AcDbEntity
  8
I-TEXT
100
AcDbText
 10
146.0
 20
125.69047619047619
 30
0.0
 40
1.5
  1
ADJ
 11
146.0
 21
125.69047619047619
 31
0.0
100
AcDbText
  0
LINE
  5
167
330
17
100
AcDbEntity
  8
I-JOIN-THIN
100
AcDbLine
 10
145.53333333333333
 20
132.92857142857144
 30
0.0
 11
164.46666666666667
 21
132.92857142857144
 31
0.0
  0
TEXT
  5
168
330
17
100
AcDbEntity
  8
I-TEXT
100
AcDbText
 10
146.0
 20
134.26190476190476
 30
0.0
 40
1.5
  1
ADJ
 11
146.0
 21
134.26190476190476
 31
0.0
100
AcDbText
  0
LINE
  5
169
330
17
100
AcDbEntity
  8
I-JOIN-THIN
100
AcDbLine
 10
145.53333333333333
 20
81.5
 30
0.0
 11
145.53333333333333
 21
141.5
 31
0.0
  0
LINE
  5
16A
330
17
100
AcDbEntity
  8
I-JOIN-THIN
100
AcDbLine
 10
164.46666666666667
 20
81.5
 30
0.0
 11
164.46666666666667
 21
141.5
 31
0.0
  0
LWPOLYLINE
  5
16B
330
17
100
AcDbEntity
  8
I-JOIN-ELEV
100
AcDbPolyline
 90
4
 70
1
 10
145.0
 20
141.5
 10
165.0
 20
141.5
 10
165.0
 20
174.83333333333331
 10
145.0
 20
174.83333333333331
  0
LINE
  5
16C
330
17
100
AcDbEntity
  8
I-JOIN-THIN
100
AcDbLine
 10
145.53333333333333
 20
152.61111111111111
 30
0.0
 11
164.46666666666667
 21
152.61111111111111
 31
0.0
  0
TEXT
  5
16D
330
17
100
AcDbEntity
  8
I-TEXT
100
AcDbText
 10
146.0
 20
153.94444444444446
 30
0.0
 40
1.5
  1
ADJ
 11
146.0
 21
153.94444444444446
 31
0.0
100
AcDbText
  0
LINE
  5
16E
330
17
100
AcDbEntity
  8
I-JOIN-THIN
100
AcDbLine
 10
145.53333333333333
 20
163.72222222222223
 30
0.0
 11
164.46666666666667
 21
163.72222222222223
 31
0.0
  0
TEXT
  5
16F
330
17
100
AcDbEntity
  8
I-TEXT
100
AcDbText
 10
146.0
 20
165.05555555555554
 30
0.0
 40
1.5
  1
ADJ
 11
146.0
 21
165.05555555555554
 31
0.0
100
AcDbText
  0
LINE
  5
170
330
17
100
AcDbEntity
  8
I-JOIN-THIN
100
AcDbLine
 10
145.53333333333333
 20
141.5
 30
0.0
 11
145.53333333333333
 21
174.83333333333331
 31
0.0
  0
LINE
  5
171
330
17
100
AcDbEntity
  8
I-JOIN-THIN
100
AcDbLine
 10
164.46666666666667
 20
141.5
 30
0.0
 11
164.46666666666667
 21
174.83333333333331
 31
0.0
  0
LWPOLYLINE
  5
172
330
17
100
AcDbEntity
  8
I-JOIN-ELEV
100
AcDbPolyline
 90
4
 70
1
 10
125.0
 20
81.5
 10
165.0
 20
81.5
 10
165.0
 20
174.83333333333331
 10
125.0
 20
174.83333333333331
  0
LINE
  5
173
330
17
100
AcDbEntity
  8
I-NOTE
 62
7
100
AcDbLine
 10
145.0
 20
130.5
 30
0.0
 11
178.66666666666666
 21
137.5
 31
0.0
  0
CIRCLE
  5
174
330
17
100
AcDbEntity
  8
I-NOTE
 62
7
100
AcDbCircle
 10
145.0
 20
130.5
 30
0.0
 40
0.45
  0
TEXT
  5
175
330
17
100
AcDbEntity
  8
I-NOTE
 62
7
100
AcDbText
 10
179.46666666666667
 20
139.965
 30
0.0
 40
1.7
  1
INNER CARCASS
 11
179.46666666666667
 21
139.965
 31
0.0
100
AcDbText
 73
2
  0
TEXT
  5
176
330
17
100
AcDbEntity
  8
I-NOTE
 62
7
100
AcDbText
 10
179.46666666666667
 20
137.5
 30
0.0
 40
1.7
  1
WHITE
 11
179.46666666666667
 21
137.5
 31
0.0
100
AcDbText
 73
2
  0
TEXT
  5
177
330
17
100
AcDbEntity
  8
I-NOTE
 62
1
100
AcDbText
 10
179.46666666666667
 20
135.035
 30
0.0
 40
1.7
  1
MELAMINE
 11
179.46666666666667
 21
135.035
 31
0.0
100
AcDbText
 73
2
  0
CIRCLE
  5
178
330
17
100
AcDbEntity
  8
I-TEXT
100
AcDbCircle
 10
127.5
 20
49.5
 30
0.0
 40
4.5
  0
TEXT
  5
179
330
17
100
AcDbEntity
  8
I-TEXT
100
AcDbText
 10
134.0
 20
50.4
 30
0.0
 40
2.8
  1
INNER CARCASS A
 11
134.0
 21
50.4
 31
0.0
100
AcDbText
  0
LINE
  5
17A
330
17
100
AcDbEntity
  8
I-TEXT
100
AcDbLine
 10
132.0
 20
49.5
 30
0.0
 11
177.0
 21
49.5
 31
0.0
  0
TEXT
  5
17B
330
17
100
AcDbEntity
  8
I-TEXT
100
AcDbText
 10
134.0
 20
46.3
 30
0.0
 40
2.4
  1
1:30
 11
134.0
 21
46.3
 31
0.0
100
AcDbText
  0
LINE
  5
17C
330
17
100
AcDbEntity
  8
A-WALL
100
AcDbLine
 10
208.0
 20
75.5
 30
0.0
 11
247.33333333333334
 21
75.5
 31
0.0
  0
LWPOLYLINE
  5
17D
330
17
100
AcDbEntity
  8
I-NOTE
 62
1
100
AcDbPolyline
 90
3
 70
1
 10
264.0
 20
75.5
 10
262.8
 20
77.18
 10
265.2
 20
77.18
  0
TEXT
  5
17E
330
17
100
AcDbEntity
  8
I-TEXT
100
AcDbText
 10
262.0
 20
75.7
 30
0.0
 40
1.6
  1
FFL 000
 72
2
 11
262.0
 21
75.7
 31
0.0
100
AcDbText
 73
1
  0
LWPOLYLINE
  5
17F
330
17
100
AcDbEntity
  8
A-WALL
100
AcDbPolyline
 90
4
 70
1
 10
237.33333333333334
 20
73.5
 10
242.33333333333334
 20
73.5
 10
242.33333333333334
 20
179.5
 10
237.33333333333334
 20
179.5
  0
HATCH
  5
180
330
17
100
AcDbEntity
  8
I-JOIN-HATCH
 62
7
100
AcDbHatch
 10
0.0
 20
0.0
 30
0.0
210
0.0
220
0.0
230
1.0
  2
ANSI31
 70
0
 71
0
 91
1
 92
3
 72
0
 73
1
 93
4
 10
237.33333333333334
 20
73.5
 10
242.33333333333334
 20
73.5
 10
242.33333333333334
 20
179.5
 10
237.33333333333334
 20
179.5
 97
0
 75
1
 76
1
 52
0.0
 41
1.6
 77
0
 78
1
 53
45.0
 43
0.0
 44
0.0
 45
-3.5921024485
 46
3.5921024485
 79
0
 98
0
  0
LINE
  5
181
330
17
100
AcDbEntity
  8
I-CEIL
100
AcDbLine
 10
208.0
 20
175.5
 30
0.0
 11
247.33333333333334
 21
175.5
 31
0.0
  0
LWPOLYLINE
  5
182
330
17
100
AcDbEntity
  8
I-NOTE
 62
1
100
AcDbPolyline
 90
3
 70
1
 10
264.0
 20
175.5
 10
262.8
 20
177.18
 10
265.2
 20
177.18
  0
TEXT
  5
183
330
17
100
AcDbEntity
  8
I-TEXT
100
AcDbText
 10
262.0
 20
175.7
 30
0.0
 40
1.6
  1
CL 3000
 72
2
 11
262.0
 21
175.7
 31
0.0
100
AcDbText
 73
1
  0
LWPOLYLINE
  5
184
330
17
100
AcDbEntity
  8
I-JOIN-THIN
100
AcDbPolyline
 90
4
 70
1
 10
222.0
 20
75.5
 10
236.73333333333335
 20
75.5
 10
236.73333333333335
 20
81.5
 10
222.0
 20
81.5
  0
LINE
  5
185
330
17
100
AcDbEntity
  8
I-LITE
 62
1
100
AcDbLine
 10
222.66666666666666
 20
76.0
 30
0.0
 11
235.33333333333334
 21
76.0
 31
0.0
  0
LWPOLYLINE
  5
186
330
17
100
AcDbEntity
  8
I-JOIN-ELEV
100
AcDbPolyline
 90
4
 70
1
 10
218.6
 20
81.5
 10
236.73333333333335
 20
81.5
 10
236.73333333333335
 20
141.5
 10
218.6
 20
141.5
  0
LWPOLYLINE
  5
187
330
17
100
AcDbEntity
  8
I-JOIN-THIN
100
AcDbPolyline
 90
4
 70
1
 10
236.73333333333335
 20
81.5
 10
237.33333333333334
 20
81.5
 10
237.33333333333334
 20
141.5
 10
236.73333333333335
 20
141.5
  0
LWPOLYLINE
  5
188
330
17
100
AcDbEntity
  8
I-JOIN-ELEV
100
AcDbPolyline
 90
4
 70
1
 10
218.0
 20
81.5
 10
218.6
 20
81.5
 10
218.6
 20
141.5
 10
218.0
 20
141.5
  0
LWPOLYLINE
  5
189
330
17
100
AcDbEntity
  8
I-JOIN-THIN
100
AcDbPolyline
 90
4
 70
1
 10
219.26666666666668
 20
89.77142857142857
 10
236.73333333333335
 20
89.77142857142857
 10
236.73333333333335
 20
90.37142857142857
 10
219.26666666666668
 20
90.37142857142857
  0
LWPOLYLINE
  5
18A
330
17
100
AcDbEntity
  8
I-JOIN-THIN
100
AcDbPolyline
 90
4
 70
1
 10
219.26666666666668
 20
98.34285714285714
 10
236.73333333333335
 20
98.34285714285714
 10
236.73333333333335
 20
98.94285714285715
 10
219.26666666666668
 20
98.94285714285715
  0
LWPOLYLINE
  5
18B
330
17
100
AcDbEntity
  8
I-JOIN-THIN
100
AcDbPolyline
 90
4
 70
1
 10
219.26666666666668
 20
106.91428571428571
 10
236.73333333333335
 20
106.91428571428571
 10
236.73333333333335
 20
107.5142857142857
 10
219.26666666666668
 20
107.5142857142857
  0
LWPOLYLINE
  5
18C
330
17
100
AcDbEntity
  8
I-JOIN-THIN
100
AcDbPolyline
 90
4
 70
1
 10
219.26666666666668
 20
115.4857142857143
 10
236.73333333333335
 20
115.4857142857143
 10
236.73333333333335
 20
116.08571428571429
 10
219.26666666666668
 20
116.08571428571429
  0
LWPOLYLINE
  5
18D
330
17
100
AcDbEntity
  8
I-JOIN-THIN
100
AcDbPolyline
 90
4
 70
1
 10
219.26666666666668
 20
124.05714285714285
 10
236.73333333333335
 20
124.05714285714285
 10
236.73333333333335
 20
124.65714285714286
 10
219.26666666666668
 20
124.65714285714286
  0
LWPOLYLINE
  5
18E
330
17
100
AcDbEntity
  8
I-JOIN-THIN
100
AcDbPolyline
 90
4
 70
1
 10
219.26666666666668
 20
132.62857142857143
 10
236.73333333333335
 20
132.62857142857143
 10
236.73333333333335
 20
133.22857142857143
 10
219.26666666666668
 20
133.22857142857143
  0
LWPOLYLINE
  5
18F
330
17
100
AcDbEntity
  8
I-JOIN-ELEV
100
AcDbPolyline
 90
4
 70
1
 10
218.6
 20
141.5
 10
236.73333333333335
 20
141.5
 10
236.73333333333335
 20
174.83333333333331
 10
218.6
 20
174.83333333333331
  0
LWPOLYLINE
  5
190
330
17
100
AcDbEntity
  8
I-JOIN-THIN
100
AcDbPolyline
 90
4
 70
1
 10
236.73333333333335
 20
141.5
 10
237.33333333333334
 20
141.5
 10
237.33333333333334
 20
174.83333333333331
 10
236.73333333333335
 20
174.83333333333331
  0
LWPOLYLINE
  5
191
330
17
100
AcDbEntity
  8
I-JOIN-ELEV
100
AcDbPolyline
 90
4
 70
1
 10
218.0
 20
141.5
 10
218.6
 20
141.5
 10
218.6
 20
174.83333333333331
 10
218.0
 20
174.83333333333331
  0
LWPOLYLINE
  5
192
330
17
100
AcDbEntity
  8
I-JOIN-THIN
100
AcDbPolyline
 90
4
 70
1
 10
219.26666666666668
 20
152.31111111111113
 10
236.73333333333335
 20
152.31111111111113
 10
236.73333333333335
 20
152.9111111111111
 10
219.26666666666668
 20
152.9111111111111
  0
LWPOLYLINE
  5
193
330
17
100
AcDbEntity
  8
I-JOIN-THIN
100
AcDbPolyline
 90
4
 70
1
 10
219.26666666666668
 20
163.42222222222222
 10
236.73333333333335
 20
163.42222222222222
 10
236.73333333333335
 20
164.0222222222222
 10
219.26666666666668
 20
164.0222222222222
  0
LWPOLYLINE
  5
194
330
17
100
AcDbEntity
  8
I-JOIN-THIN
100
AcDbPolyline
 90
4
 70
1
 10
218.0
 20
174.83333333333331
 10
237.33333333333334
 20
174.83333333333331
 10
237.33333333333334
 20
175.5
 10
218.0
 20
175.5
  0
LINE
  5
195
330
17
100
AcDbEntity
  8
I-DIM
100
AcDbLine
 10
218.0
 20
72.3
 30
0.0
 11
218.0
 21
67.0
 31
0.0
  0
LINE
  5
196
330
17
100
AcDbEntity
  8
I-DIM
100
AcDbLine
 10
237.33333333333334
 20
72.3
 30
0.0
 11
237.33333333333334
 21
67.0
 31
0.0
  0
LINE
  5
197
330
17
100
AcDbEntity
  8
I-DIM
100
AcDbLine
 10
216.5
 20
68.5
 30
0.0
 11
238.83333333333334
 21
68.5
 31
0.0
  0
LINE
  5
198
330
17
100
AcDbEntity
  8
I-DIM
100
AcDbLine
 10
216.9
 20
67.4
 30
0.0
 11
219.1
 21
69.6
 31
0.0
  0
LINE
  5
199
330
17
100
AcDbEntity
  8
I-DIM
100
AcDbLine
 10
236.23333333333335
 20
67.4
 30
0.0
 11
238.43333333333334
 21
69.6
 31
0.0
  0
TEXT
  5
19A
330
17
100
AcDbEntity
  8
I-DIM
100
AcDbText
 10
227.66666666666666
 20
69.4
 30
0.0
 40
1.8
  1
580
 72
1
 11
227.66666666666666
 21
69.4
 31
0.0
100
AcDbText
 73
1
  0
CIRCLE
  5
19B
330
17
100
AcDbEntity
  8
I-TEXT
100
AcDbCircle
 10
220.5
 20
49.5
 30
0.0
 40
4.5
  0
TEXT
  5
19C
330
17
100
AcDbEntity
  8
I-TEXT
100
AcDbText
 10
227.0
 20
50.4
 30
0.0
 40
2.8
  1
SECTION X-X
 11
227.0
 21
50.4
 31
0.0
100
AcDbText
  0
LINE
  5
19D
330
17
100
AcDbEntity
  8
I-TEXT
100
AcDbLine
 10
225.0
 20
49.5
 30
0.0
 11
270.0
 21
49.5
 31
0.0
  0
TEXT
  5
19E
330
17
100
AcDbEntity
  8
I-TEXT
100
AcDbText
 10
227.0
 20
46.3
 30
0.0
 40
2.4
  1
1:30
 11
227.0
 21
46.3
 31
0.0
100
AcDbText
  0
LWPOLYLINE
  5
19F
330
17
100
AcDbEntity
  8
A-WALL
100
AcDbPolyline
 90
4
 70
1
 10
32.0
 20
263.0
 10
82.0
 20
263.0
 10
82.0
 20
268.0
 10
32.0
 20
268.0
  0
HATCH
  5
1A0
330
17
100
AcDbEntity
  8
I-JOIN-HATCH
 62
7
100
AcDbHatch
 10
0.0
 20
0.0
 30
0.0
210
0.0
220
0.0
230
1.0
  2
ANSI31
 70
0
 71
0
 91
1
 92
3
 72
0
 73
1
 93
4
 10
32.0
 20
263.0
 10
82.0
 20
263.0
 10
82.0
 20
268.0
 10
32.0
 20
268.0
 97
0
 75
1
 76
1
 52
0.0
 41
1.6
 77
0
 78
1
 53
45.0
 43
0.0
 44
0.0
 45
-3.5921024485
 46
3.5921024485
 79
0
 98
0
  0
LWPOLYLINE
  5
1A1
330
17
100
AcDbEntity
  8
A-WALL
100
AcDbPolyline
 90
4
 70
1
 10
32.0
 20
238.66666666666666
 10
37.0
 20
238.66666666666666
 10
37.0
 20
263.0
 10
32.0
 20
263.0
  0
HATCH
  5
1A2
330
17
100
AcDbEntity
  8
I-JOIN-HATCH
 62
7
100
AcDbHatch
 10
0.0
 20
0.0
 30
0.0
210
0.0
220
0.0
230
1.0
  2
ANSI31
 70
0
 71
0
 91
1
 92
3
 72
0
 73
1
 93
4
 10
32.0
 20
238.66666666666666
 10
37.0
 20
238.66666666666666
 10
37.0
 20
263.0
 10
32.0
 20
263.0
 97
0
 75
1
 76
1
 52
0.0
 41
1.6
 77
0
 78
1
 53
45.0
 43
0.0
 44
0.0
 45
-3.5921024485
 46
3.5921024485
 79
0
 98
0
  0
LWPOLYLINE
  5
1A3
330
17
100
AcDbEntity
  8
A-WALL
100
AcDbPolyline
 90
4
 70
1
 10
77.0
 20
238.66666666666666
 10
82.0
 20
238.66666666666666
 10
82.0
 20
263.0
 10
77.0
 20
263.0
  0
HATCH
  5
1A4
330
17
100
AcDbEntity
  8
I-JOIN-HATCH
 62
7
100
AcDbHatch
 10
0.0
 20
0.0
 30
0.0
210
0.0
220
0.0
230
1.0
  2
ANSI31
 70
0
 71
0
 91
1
 92
3
 72
0
 73
1
 93
4
 10
77.0
 20
238.66666666666666
 10
82.0
 20
238.66666666666666
 10
82.0
 20
263.0
 10
77.0
 20
263.0
 97
0
 75
1
 76
1
 52
0.0
 41
1.6
 77
0
 78
1
 53
45.0
 43
0.0
 44
0.0
 45
-3.5921024485
 46
3.5921024485
 79
0
 98
0
  0
LWPOLYLINE
  5
1A5
330
17
100
AcDbEntity
  8
I-JOIN
100
AcDbPolyline
 90
4
 70
1
 10
37.0
 20
243.66666666666666
 10
77.0
 20
243.66666666666666
 10
77.0
 20
263.0
 10
37.0
 20
263.0
  0
LINE
  5
1A6
330
17
100
AcDbEntity
  8
I-JOIN
100
AcDbLine
 10
37.0
 20
243.66666666666666
 30
0.0
 11
37.0
 21
263.0
 31
0.0
  0
LINE
  5
1A7
330
17
100
AcDbEntity
  8
I-JOIN
100
AcDbLine
 10
57.0
 20
243.66666666666666
 30
0.0
 11
57.0
 21
263.0
 31
0.0
  0
LINE
  5
1A8
330
17
100
AcDbEntity
  8
I-JOIN
100
AcDbLine
 10
37.0
 20
244.26666666666665
 30
0.0
 11
77.0
 21
244.26666666666665
 31
0.0
  0
CIRCLE
  5
1A9
330
17
100
AcDbEntity
  8
I-SYMB
 62
6
100
AcDbCircle
 10
57.0
 20
229.66666666666666
 30
0.0
 40
2.6
  0
HATCH
  5
1AA
330
17
100
AcDbEntity
  8
I-SYMB
 62
6
100
AcDbHatch
 10
0.0
 20
0.0
 30
0.0
210
0.0
220
0.0
230
1.0
  2
SOLID
 70
1
 71
0
 91
1
 92
3
 72
0
 73
1
 93
3
 10
57.0
 20
234.60666666666665
 10
54.57669837648521
 20
230.608796828306
 10
59.42330162351479
 20
230.608796828306
 97
0
 75
1
 76
1
 98
0
  0
TEXT
  5
1AB
330
17
100
AcDbEntity
  8
I-SYMB
 62
6
100
AcDbText
 10
57.0
 20
229.66666666666666
 30
0.0
 40
2.7300000000000004
  1
A
 72
1
 11
57.0
 21
229.66666666666666
 31
0.0
100
AcDbText
 73
2
  0
LINE
  5
1AC
330
17
100
AcDbEntity
  8
I-SYMB
 62
6
100
AcDbLine
 10
47.0
 20
235.33333333333331
 30
0.0
 11
47.0
 21
273.0
 31
0.0
  0
CIRCLE
  5
1AD
330
17
100
AcDbEntity
  8
I-SYMB
 62
6
100
AcDbCircle
 10
47.0
 20
235.33333333333331
 30
0.0
 40
2.2
  0
TEXT
  5
1AE
330
17
100
AcDbEntity
  8
I-SYMB
 62
6
100
AcDbText
 10
47.0
 20
235.33333333333331
 30
0.0
 40
2.2
  1
X
 72
1
 11
47.0
 21
235.33333333333331
 31
0.0
100
AcDbText
 73
2
  0
CIRCLE
  5
1AF
330
17
100
AcDbEntity
  8
I-SYMB
 62
6
100
AcDbCircle
 10
47.0
 20
273.0
 30
0.0
 40
2.2
  0
TEXT
  5
1B0
330
17
100
AcDbEntity
  8
I-SYMB
 62
6
100
AcDbText
 10
47.0
 20
273.0
 30
0.0
 40
2.2
  1
X
 72
1
 11
47.0
 21
273.0
 31
0.0
100
AcDbText
 73
2
  0
LINE
  5
1B1
330
17
100
AcDbEntity
  8
I-DIM
100
AcDbLine
 10
37.0
 20
269.2
 30
0.0
 11
37.0
 21
276.8333333333333
 31
0.0
  0
LINE
  5
1B2
330
17
100
AcDbEntity
  8
I-DIM
100
AcDbLine
 10
77.0
 20
269.2
 30
0.0
 11
77.0
 21
276.8333333333333
 31
0.0
  0
LINE
  5
1B3
330
17
100
AcDbEntity
  8
I-DIM
100
AcDbLine
 10
35.5
 20
275.3333333333333
 30
0.0
 11
78.5
 21
275.3333333333333
 31
0.0
  0
LINE
  5
1B4
330
17
100
AcDbEntity
  8
I-DIM
100
AcDbLine
 10
35.9
 20
274.23333333333335
 30
0.0
 11
38.1
 21
276.43333333333334
 31
0.0
  0
LINE
  5
1B5
330
17
100
AcDbEntity
  8
I-DIM
100
AcDbLine
 10
75.9
 20
274.23333333333335
 30
0.0
 11
78.1
 21
276.43333333333334
 31
0.0
  0
TEXT
  5
1B6
330
17
100
AcDbEntity
  8
I-DIM
100
AcDbText
 10
57.0
 20
276.23333333333335
 30
0.0
 40
1.8
  1
1200
 72
1
 11
57.0
 21
276.23333333333335
 31
0.0
100
AcDbText
 73
1
  0
LINE
  5
1B7
330
17
100
AcDbEntity
  8
I-DIM
100
AcDbLine
 10
37.0
 20
242.46666666666667
 30
0.0
 11
37.0
 21
236.5
 31
0.0
  0
LINE
  5
1B8
330
17
100
AcDbEntity
  8
I-DIM
100
AcDbLine
 10
57.0
 20
242.46666666666667
 30
0.0
 11
57.0
 21
236.5
 31
0.0
  0
LINE
  5
1B9
330
17
100
AcDbEntity
  8
I-DIM
100
AcDbLine
 10
35.5
 20
238.0
 30
0.0
 11
58.5
 21
238.0
 31
0.0
  0
LINE
  5
1BA
330
17
100
AcDbEntity
  8
I-DIM
100
AcDbLine
 10
35.9
 20
236.89999999999998
 30
0.0
 11
38.1
 21
239.1
 31
0.0
  0
LINE
  5
1BB
330
17
100
AcDbEntity
  8
I-DIM
100
AcDbLine
 10
55.9
 20
236.89999999999998
 30
0.0
 11
58.1
 21
239.1
 31
0.0
  0
TEXT
  5
1BC
330
17
100
AcDbEntity
  8
I-DIM
100
AcDbText
 10
47.0
 20
238.89999999999998
 30
0.0
 40
1.6
  1
600
 72
1
 11
47.0
 21
238.89999999999998
 31
0.0
100
AcDbText
 73
1
  0
LINE
  5
1BD
330
17
100
AcDbEntity
  8
I-DIM
100
AcDbLine
 10
57.0
 20
242.46666666666667
 30
0.0
 11
57.0
 21
236.5
 31
0.0
  0
LINE
  5
1BE
330
17
100
AcDbEntity
  8
I-DIM
100
AcDbLine
 10
77.0
 20
242.46666666666667
 30
0.0
 11
77.0
 21
236.5
 31
0.0
  0
LINE
  5
1BF
330
17
100
AcDbEntity
  8
I-DIM
100
AcDbLine
 10
55.5
 20
238.0
 30
0.0
 11
78.5
 21
238.0
 31
0.0
  0
LINE
  5
1C0
330
17
100
AcDbEntity
  8
I-DIM
100
AcDbLine
 10
55.9
 20
236.89999999999998
 30
0.0
 11
58.1
 21
239.1
 31
0.0
  0
LINE
  5
1C1
330
17
100
AcDbEntity
  8
I-DIM
100
AcDbLine
 10
75.9
 20
236.89999999999998
 30
0.0
 11
78.1
 21
239.1
 31
0.0
  0
TEXT
  5
1C2
330
17
100
AcDbEntity
  8
I-DIM
100
AcDbText
 10
67.0
 20
238.89999999999998
 30
0.0
 40
1.6
  1
600
 72
1
 11
67.0
 21
238.89999999999998
 31
0.0
100
AcDbText
 73
1
  0
LINE
  5
1C3
330
17
100
AcDbEntity
  8
I-DIM
100
AcDbLine
 10
78.2
 20
243.66666666666666
 30
0.0
 11
90.5
 21
243.66666666666666
 31
0.0
  0
LINE
  5
1C4
330
17
100
AcDbEntity
  8
I-DIM
100
AcDbLine
 10
78.2
 20
263.0
 30
0.0
 11
90.5
 21
263.0
 31
0.0
  0
LINE
  5
1C5
330
17
100
AcDbEntity
  8
I-DIM
100
AcDbLine
 10
89.0
 20
242.16666666666666
 30
0.0
 11
89.0
 21
264.5
 31
0.0
  0
LINE
  5
1C6
330
17
100
AcDbEntity
  8
I-DIM
100
AcDbLine
 10
90.1
 20
242.56666666666666
 30
0.0
 11
87.9
 21
244.76666666666665
 31
0.0
  0
LINE
  5
1C7
330
17
100
AcDbEntity
  8
I-DIM
100
AcDbLine
 10
90.1
 20
261.9
 30
0.0
 11
87.9
 21
264.09999999999997
 31
0.0
  0
TEXT
  5
1C8
330
17
100
AcDbEntity
  8
I-DIM
100
AcDbText
 10
88.1
 20
253.33333333333331
 30
0.0
 40
1.6
  1
580
 50
90.0
 72
1
 11
88.1
 21
253.33333333333331
 31
0.0
100
AcDbText
 73
1
  0
CIRCLE
  5
1C9
330
17
100
AcDbEntity
  8
I-TEXT
100
AcDbCircle
 10
22.0
 20
247.66666666666666
 30
0.0
 40
7.5
  0
TEXT
  5
1CA
330
17
100
AcDbEntity
  8
I-TEXT
100
AcDbText
 10
22.0
 20
247.66666666666666
 30
0.0
 40
3.0
  1
CF01
 72
1
 11
22.0
 21
247.66666666666666
 31
0.0
100
AcDbText
 73
2
  0
TEXT
  5
1CB
330
17
100
AcDbEntity
  8
I-TEXT
100
AcDbText
 10
31.0
 20
248.86666666666665
 30
0.0
 40
2.4
  1
SHOE CABINET SET
 11
31.0
 21
248.86666666666665
 31
0.0
100
AcDbText
  0
LINE
  5
1CC
330
17
100
AcDbEntity
  8
I-TEXT
100
AcDbLine
 10
29.5
 20
247.66666666666666
 30
0.0
 11
63.8
 21
247.66666666666666
 31
0.0
  0
TEXT
  5
1CD
330
17
100
AcDbEntity
  8
I-TEXT
100
AcDbText
 10
31.0
 20
244.26666666666665
 30
0.0
 40
2.2
  1
1:30
 11
31.0
 21
244.26666666666665
 31
0.0
100
AcDbText
  0
CIRCLE
  5
1CE
330
17
100
AcDbEntity
  8
I-NOTE
 62
1
100
AcDbCircle
 10
279.0
 20
249.0
 30
0.0
 40
21.0
  0
CIRCLE
  5
1CF
330
17
100
AcDbEntity
  8
I-NOTE
 62
1
100
AcDbCircle
 10
261.2
 20
224.5
 30
0.0
 40
3.2
  0
TEXT
  5
1D0
330
17
100
AcDbEntity
  8
I-NOTE
 62
1
100
AcDbText
 10
266.0
 20
225.4
 30
0.0
 40
2.6
  1
DETAIL 1
 11
266.0
 21
225.4
 31
0.0
100
AcDbText
  0
LINE
  5
1D1
330
17
100
AcDbEntity
  8
I-NOTE
 62
1
100
AcDbLine
 10
264.4
 20
224.5
 30
0.0
 11
290.0
 21
224.5
 31
0.0
  0
TEXT
  5
1D2
330
17
100
AcDbEntity
  8
I-NOTE
 62
1
100
AcDbText
 10
266.0
 20
221.4
 30
0.0
 40
2.2
  1
1:5
 11
266.0
 21
221.4
 31
0.0
100
AcDbText
  0
TEXT
  5
1D3
330
17
100
AcDbEntity
  8
I-NOTE
 62
1
100
AcDbText
 10
279.0
 20
272.2
 30
0.0
 40
2.3
  1
INFILL RECESS 20MM
 72
1
 11
279.0
 21
272.2
 31
0.0
100
AcDbText
 73
1
  0
LWPOLYLINE
  5
1D4
330
17
100
AcDbEntity
  8
A-WALL
100
AcDbPolyline
 90
4
 70
1
 10
261.0
 20
257.0
 10
297.0
 20
257.0
 10
297.0
 20
263.0
 10
261.0
 20
263.0
  0
HATCH
  5
1D5
330
17
100
AcDbEntity
  8
I-JOIN-HATCH
 62
7
100
AcDbHatch
 10
0.0
 20
0.0
 30
0.0
210
0.0
220
0.0
230
1.0
  2
ANSI31
 70
0
 71
0
 91
1
 92
3
 72
0
 73
1
 93
4
 10
261.0
 20
257.0
 10
297.0
 20
257.0
 10
297.0
 20
263.0
 10
261.0
 20
263.0
 97
0
 75
1
 76
1
 52
0.0
 41
0.25
 77
0
 78
1
 53
45.0
 43
0.0
 44
0.0
 45
-0.5612660076
 46
0.5612660076
 79
0
 98
0
  0
LWPOLYLINE
  5
1D6
330
17
100
AcDbEntity
  8
I-JOIN-ELEV
100
AcDbPolyline
 90
4
 70
1
 10
263.0
 20
231.0
 10
291.0
 20
231.0
 10
291.0
 20
253.0
 10
263.0
 20
253.0
  0
LWPOLYLINE
  5
1D7
330
17
100
AcDbEntity
  8
I-JOIN-ELEV
100
AcDbPolyline
 90
4
 70
1
 10
291.0
 20
231.0
 10
294.6
 20
231.0
 10
294.6
 20
253.0
 10
291.0
 20
253.0
  0
LWPOLYLINE
  5
1D8
330
17
100
AcDbEntity
  8
I-JOIN-THIN
100
AcDbPolyline
 90
4
 70
1
 10
263.0
 20
253.0
 10
294.6
 20
253.0
 10
294.6
 20
257.0
 10
263.0
 20
257.0
  0
LINE
  5
1D9
330
17
100
AcDbEntity
  8
I-DIM
100
AcDbLine
 10
295.8
 20
253.0
 30
0.0
 11
299.7
 21
253.0
 31
0.0
  0
LINE
  5
1DA
330
17
100
AcDbEntity
  8
I-DIM
100
AcDbLine
 10
295.8
 20
257.0
 30
0.0
 11
299.7
 21
257.0
 31
0.0
  0
LINE
  5
1DB
330
17
100
AcDbEntity
  8
I-DIM
100
AcDbLine
 10
298.2
 20
251.5
 30
0.0
 11
298.2
 21
258.5
 31
0.0
  0
LINE
  5
1DC
330
17
100
AcDbEntity
  8
I-DIM
100
AcDbLine
 10
299.3
 20
251.9
 30
0.0
 11
297.1
 21
254.1
 31
0.0
  0
LINE
  5
1DD
330
17
100
AcDbEntity
  8
I-DIM
100
AcDbLine
 10
299.3
 20
255.9
 30
0.0
 11
297.1
 21
258.1
 31
0.0
  0
TEXT
  5
1DE
330
17
100
AcDbEntity
  8
I-DIM
100
AcDbText
 10
297.3
 20
255.0
 30
0.0
 40
1.6
  1
20
 50
90.0
 72
1
 11
297.3
 21
255.0
 31
0.0
100
AcDbText
 73
1
  0
LINE
  5
1DF
330
17
100
AcDbEntity
  8
I-NOTE
 62
1
100
AcDbLine
 10
281.0
 20
255.0
 30
0.0
 11
291.0
 21
268.0
 31
0.0
  0
CIRCLE
  5
1E0
330
17
100
AcDbEntity
  8
I-NOTE
 62
1
100
AcDbCircle
 10
281.0
 20
255.0
 30
0.0
 40
0.45
  0
TEXT
  5
1E1
330
17
100
AcDbEntity
  8
I-NOTE
 62
1
100
AcDbText
 10
291.8
 20
268.0
 30
0.0
 40
1.8
  1
INFILL RECESS 20MM
 11
291.8
 21
268.0
 31
0.0
100
AcDbText
 73
2
  0
CIRCLE
  5
1E2
330
17
100
AcDbEntity
  8
I-NOTE
 62
1
100
AcDbCircle
 10
330.0
 20
249.0
 30
0.0
 40
21.0
  0
CIRCLE
  5
1E3
330
17
100
AcDbEntity
  8
I-NOTE
 62
1
100
AcDbCircle
 10
312.2
 20
224.5
 30
0.0
 40
3.2
  0
TEXT
  5
1E4
330
17
100
AcDbEntity
  8
I-NOTE
 62
1
100
AcDbText
 10
317.0
 20
225.4
 30
0.0
 40
2.6
  1
DETAIL 2
 11
317.0
 21
225.4
 31
0.0
100
AcDbText
  0
LINE
  5
1E5
330
17
100
AcDbEntity
  8
I-NOTE
 62
1
100
AcDbLine
 10
315.4
 20
224.5
 30
0.0
 11
341.0
 21
224.5
 31
0.0
  0
TEXT
  5
1E6
330
17
100
AcDbEntity
  8
I-NOTE
 62
1
100
AcDbText
 10
317.0
 20
221.4
 30
0.0
 40
2.2
  1
1:5
 11
317.0
 21
221.4
 31
0.0
100
AcDbText
  0
TEXT
  5
1E7
330
17
100
AcDbEntity
  8
I-NOTE
 62
1
100
AcDbText
 10
330.0
 20
275.4
 30
0.0
 40
2.3
  1
45° FINGER PULL
 72
1
 11
330.0
 21
275.4
 31
0.0
100
AcDbText
 73
1
  0
TEXT
  5
1E8
330
17
100
AcDbEntity
  8
I-NOTE
 62
1
100
AcDbText
 10
330.0
 20
272.2
 30
0.0
 40
2.3
  1
DOOR PANEL
 72
1
 11
330.0
 21
272.2
 31
0.0
100
AcDbText
 73
1
  0
LWPOLYLINE
  5
1E9
330
17
100
AcDbEntity
  8
I-JOIN-ELEV
100
AcDbPolyline
 90
4
 70
1
 10
312.0
 20
247.0
 10
329.2
 20
247.0
 10
329.2
 20
250.6
 10
312.0
 20
250.6
  0
LWPOLYLINE
  5
1EA
330
17
100
AcDbEntity
  8
I-JOIN-ELEV
100
AcDbPolyline
 90
4
 70
1
 10
330.8
 20
247.0
 10
348.0
 20
247.0
 10
348.0
 20
250.6
 10
330.8
 20
250.6
  0
LWPOLYLINE
  5
1EB
330
17
100
AcDbEntity
  8
I-JOIN-ELEV
100
AcDbPolyline
 90
3
 70
1
 10
329.2
 20
250.6
 10
329.2
 20
248.6
 10
327.2
 20
250.6
  0
LWPOLYLINE
  5
1EC
330
17
100
AcDbEntity
  8
I-JOIN-ELEV
100
AcDbPolyline
 90
3
 70
1
 10
330.8
 20
250.6
 10
330.8
 20
248.6
 10
332.8
 20
250.6
  0
LWPOLYLINE
  5
1ED
330
17
100
AcDbEntity
  8
I-JOIN-THIN
100
AcDbPolyline
 90
4
 70
1
 10
312.0
 20
250.6
 10
348.0
 20
250.6
 10
348.0
 20
263.0
 10
312.0
 20
263.0
  0
TEXT
  5
1EE
330
17
100
AcDbEntity
  8
I-NOTE
 62
1
100
AcDbText
 10
330.0
 20
243.0
 30
0.0
 40
2.2
  1
45°
 72
1
 11
330.0
 21
243.0
 31
0.0
100
AcDbText
 73
2
  0
LINE
  5
1EF
330
17
100
AcDbEntity
  8
I-NOTE
 62
1
100
AcDbLine
 10
328.2
 20
250.0
 30
0.0
 11
318.0
 21
235.0
 31
0.0
  0
CIRCLE
  5
1F0
330
17
100
AcDbEntity
  8
I-NOTE
 62
1
100
AcDbCircle
 10
328.2
 20
250.0
 30
0.0
 40
0.45
  0
TEXT
  5
1F1
330
17
100
AcDbEntity
  8
I-NOTE
 62
1
100
AcDbText
 10
318.8
 20
236.305
 30
0.0
 40
1.8
  1
45° FINGER PULL
 11
318.8
 21
236.305
 31
0.0
100
AcDbText
 73
2
  0
TEXT
  5
1F2
330
17
100
AcDbEntity
  8
I-NOTE
 62
1
100
AcDbText
 10
318.8
 20
233.695
 30
0.0
 40
1.8
  1
DOOR PANEL
 11
318.8
 21
233.695
 31
0.0
100
AcDbText
 73
2
  0
CIRCLE
  5
1F3
330
17
100
AcDbEntity
  8
I-NOTE
 62
1
100
AcDbCircle
 10
381.0
 20
249.0
 30
0.0
 40
21.0
  0
CIRCLE
  5
1F4
330
17
100
AcDbEntity
  8
I-NOTE
 62
1
100
AcDbCircle
 10
363.2
 20
224.5
 30
0.0
 40
3.2
  0
TEXT
  5
1F5
330
17
100
AcDbEntity
  8
I-NOTE
 62
1
100
AcDbText
 10
368.0
 20
225.4
 30
0.0
 40
2.6
  1
DETAIL 3
 11
368.0
 21
225.4
 31
0.0
100
AcDbText
  0
LINE
  5
1F6
330
17
100
AcDbEntity
  8
I-NOTE
 62
1
100
AcDbLine
 10
366.4
 20
224.5
 30
0.0
 11
392.0
 21
224.5
 31
0.0
  0
TEXT
  5
1F7
330
17
100
AcDbEntity
  8
I-NOTE
 62
1
100
AcDbText
 10
368.0
 20
221.4
 30
0.0
 40
2.2
  1
1:5
 11
368.0
 21
221.4
 31
0.0
100
AcDbText
  0
TEXT
  5
1F8
330
17
100
AcDbEntity
  8
I-NOTE
 62
1
100
AcDbText
 10
381.0
 20
275.4
 30
0.0
 40
2.3
  1
PLINTH RECESS
 72
1
 11
381.0
 21
275.4
 31
0.0
100
AcDbText
 73
1
  0
TEXT
  5
1F9
330
17
100
AcDbEntity
  8
I-NOTE
 62
1
100
AcDbText
 10
381.0
 20
272.2
 30
0.0
 40
2.3
  1
C/W LED
 72
1
 11
381.0
 21
272.2
 31
0.0
100
AcDbText
 73
1
  0
LWPOLYLINE
  5
1FA
330
17
100
AcDbEntity
  8
A-WALL
100
AcDbPolyline
 90
4
 70
1
 10
363.0
 20
233.0
 10
399.0
 20
233.0
 10
399.0
 20
237.0
 10
363.0
 20
237.0
  0
LWPOLYLINE
  5
1FB
330
17
100
AcDbEntity
  8
I-JOIN-ELEV
100
AcDbPolyline
 90
4
 70
1
 10
375.0
 20
237.0
 10
395.0
 20
237.0
 10
395.0
 20
253.0
 10
375.0
 20
253.0
  0
LWPOLYLINE
  5
1FC
330
17
100
AcDbEntity
  8
I-JOIN-ELEV
100
AcDbPolyline
 90
4
 70
1
 10
369.0
 20
253.0
 10
399.0
 20
253.0
 10
399.0
 20
256.6
 10
369.0
 20
256.6
  0
LINE
  5
1FD
330
17
100
AcDbEntity
  8
I-LITE
 62
1
100
AcDbLine
 10
371.0
 20
238.0
 30
0.0
 11
374.0
 21
238.0
 31
0.0
  0
LINE
  5
1FE
330
17
100
AcDbEntity
  8
I-NOTE
 62
1
100
AcDbLine
 10
373.0
 20
239.0
 30
0.0
 11
365.0
 21
263.0
 31
0.0
  0
CIRCLE
  5
1FF
330
17
100
AcDbEntity
  8
I-NOTE
 62
1
100
AcDbCircle
 10
373.0
 20
239.0
 30
0.0
 40
0.45
  0
TEXT
  5
200
330
17
100
AcDbEntity
  8
I-NOTE
 62
1
100
AcDbText
 10
365.8
 20
264.305
 30
0.0
 40
1.8
  1
PLINTH RECESS 30MM
 11
365.8
 21
264.305
 31
0.0
100
AcDbText
 73
2
  0
TEXT
  5
201
330
17
100
AcDbEntity
  8
I-NOTE
 62
1
100
AcDbText
 10
365.8
 20
261.695
 30
0.0
 40
1.8
  1
C/W LED STRIP (FLOAT)
 11
365.8
 21
261.695
 31
0.0
100
AcDbText
 73
2
  0
TEXT
  5
202
330
17
100
AcDbEntity
  8
I-NOTE
 62
1
100
AcDbText
 10
262.0
 20
214.0
 30
0.0
 40
2.2
  1
NOTES:
 11
262.0
 21
214.0
 31
0.0
100
AcDbText
  0
TEXT
  5
203
330
17
100
AcDbEntity
  8
I-NOTE
 62
1
100
AcDbText
 10
262.0
 20
210.0
 30
0.0
 40
1.75
  1
1. SHOE CABINET 580MM DEEP (SITE MEASURE 1200 x 580).
 11
262.0
 21
210.0
 31
0.0
100
AcDbText
  0
TEXT
  5
204
330
17
100
AcDbEntity
  8
I-NOTE
 62
1
100
AcDbText
 10
262.0
 20
206.6
 30
0.0
 40
1.75
  1
2. VENTILATION SLOT AT PLINTH, FLOATING LED 3000K.
 11
262.0
 21
206.6
 31
0.0
100
AcDbText
  0
TEXT
  5
205
330
17
100
AcDbEntity
  8
I-NOTE
 62
1
100
AcDbText
 10
262.0
 20
203.2
 30
0.0
 40
1.75
  1
3. BENCH 525 x 755 OPPOSITE: SOLID TOP ON BLACK LEG (REFER 3D).
 11
262.0
 21
203.2
 31
0.0
100
AcDbText
  0
CIRCLE
  5
206
330
17
100
AcDbEntity
  8
I-TEXT
100
AcDbCircle
 10
406.5
 20
38.5
 30
0.0
 40
4.5
  0
LINE
  5
207
330
17
100
AcDbEntity
  8
I-TEXT
100
AcDbLine
 10
402.0
 20
38.5
 30
0.0
 11
411.0
 21
38.5
 31
0.0
  0
TEXT
  5
208
330
17
100
AcDbEntity
  8
I-TEXT
100
AcDbText
 10
406.5
 20
40.5
 30
0.0
 40
1.9
  1
ID
 72
1
 11
406.5
 21
40.5
 31
0.0
100
AcDbText
 73
2
  0
TEXT
  5
209
330
17
100
AcDbEntity
  8
I-TEXT
100
AcDbText
 10
406.5
 20
36.5
 30
0.0
 40
1.9
  1
02
 72
1
 11
406.5
 21
36.5
 31
0.0
100
AcDbText
 73
2
  0
TEXT
  5
20A
330
17
100
AcDbEntity
  8
I-TEXT
100
AcDbText
 10
401.0
 20
39.5
 30
0.0
 40
3.4
  1
ENTRANCE - SHOE CABINET
 72
2
 11
401.0
 21
39.5
 31
0.0
100
AcDbText
 73
1
  0
LINE
  5
20B
330
17
100
AcDbEntity
  8
I-TEXT
100
AcDbLine
 10
337.75
 20
38.5
 30
0.0
 11
402.0
 21
38.5
 31
0.0
  0
TEXT
  5
20C
330
17
100
AcDbEntity
  8
I-TEXT
100
AcDbText
 10
401.0
 20
37.3
 30
0.0
 40
2.2
  1
ELEVATION PLAN
 72
2
 11
401.0
 21
37.3
 31
0.0
100
AcDbText
 73
3
  0
ENDSEC
  0
SECTION
  2
OBJECTS
  0
DICTIONARY
  5
A
330
0
100
AcDbDictionary
281
1
  3
ACAD_COLOR
350
B
  3
ACAD_GROUP
350
C
  3
ACAD_LAYOUT
350
D
  3
ACAD_MATERIAL
350
E
  3
ACAD_MLEADERSTYLE
350
F
  3
ACAD_MLINESTYLE
350
10
  3
ACAD_PLOTSETTINGS
350
11
  3
ACAD_PLOTSTYLENAME
350
12
  3
ACAD_SCALELIST
350
14
  3
ACAD_TABLESTYLE
350
15
  3
ACAD_VISUALSTYLE
350
16
  3
EZDXF_META
350
2D
  0
DICTIONARY
  5
B
330
A
100
AcDbDictionary
281
1
  0
DICTIONARY
  5
C
330
A
100
AcDbDictionary
281
1
  0
DICTIONARY
  5
D
330
A
100
AcDbDictionary
281
1
  3
Model
350
1A
  3
Layout1
350
1E
  0
DICTIONARY
  5
E
330
A
100
AcDbDictionary
281
1
  3
ByBlock
350
1F
  3
ByLayer
350
20
  3
Global
350
21
  0
DICTIONARY
  5
F
330
A
100
AcDbDictionary
281
1
  3
Standard
350
2C
  0
DICTIONARY
  5
10
330
A
100
AcDbDictionary
281
1
  3
Standard
350
22
  0
DICTIONARY
  5
11
330
A
100
AcDbDictionary
281
1
  0
ACDBDICTIONARYWDFLT
  5
12
330
A
100
AcDbDictionary
281
1
  3
Normal
350
13
100
AcDbDictionaryWithDefault
340
13
  0
ACDBPLACEHOLDER
  5
13
330
12
  0
DICTIONARY
  5
14
330
A
100
AcDbDictionary
281
1
  0
DICTIONARY
  5
15
330
A
100
AcDbDictionary
281
1
  0
DICTIONARY
  5
16
330
A
100
AcDbDictionary
281
1
  3
2dWireframe
350
5A
  3
Basic
350
5B
  3
Brighten
350
5C
  3
ColorChange
350
5D
  3
Conceptual
350
5E
  3
Dim
350
5F
  3
EdgeColorOff
350
60
  3
Facepattern
350
61
  3
Flat
350
62
  3
FlatWithEdges
350
63
  3
Gouraud
350
64
  3
GouraudWithEdges
350
65
  3
Hidden
350
66
  3
JitterOff
350
67
  3
Linepattern
350
68
  3
Modeling
350
69
  3
OverhangOff
350
6A
  3
Realistic
350
6B
  3
Shaded
350
6C
  3
Shaded with edges
350
6D
  3
Shades of Gray
350
6E
  3
Sketchy
350
6F
  3
Thicken
350
70
  3
Wireframe
350
71
  3
X-Ray
350
72
  0
LAYOUT
  5
1A
330
D
100
AcDbPlotSettings
  1

  4
A3
  6

 40
7.5
 41
20.0
 42
7.5
 43
20.0
 44
420.0
 45
297.0
 46
0.0
 47
0.0
 48
0.0
 49
0.0
140
0.0
141
0.0
142
1.0
143
1.0
 70
1024
 72
1
 73
0
 74
5
  7

 75
16
 76
0
 77
2
 78
300
147
1.0
148
0.0
149
0.0
100
AcDbLayout
  1
Model
 70
1
 71
0
 10
0.0
 20
0.0
 11
420.0
 21
297.0
 12
0.0
 22
0.0
 32
0.0
 14
1e+20
 24
1e+20
 34
1e+20
 15
-1e+20
 25
-1e+20
 35
-1e+20
146
0.0
 13
0.0
 23
0.0
 33
0.0
 16
1.0
 26
0.0
 36
0.0
 17
0.0
 27
1.0
 37
0.0
 76
1
330
17
  0
LAYOUT
  5
1E
330
D
100
AcDbPlotSettings
  1

  4
A3
  6

 40
7.5
 41
20.0
 42
7.5
 43
20.0
 44
420.0
 45
297.0
 46
0.0
 47
0.0
 48
0.0
 49
0.0
140
0.0
141
0.0
142
1.0
143
1.0
 70
0
 72
1
 73
0
 74
5
  7

 75
16
 76
0
 77
2
 78
300
147
1.0
148
0.0
149
0.0
100
AcDbLayout
  1
Layout1
 70
1
 71
1
 10
0.0
 20
0.0
 11
420.0
 21
297.0
 12
0.0
 22
0.0
 32
0.0
 14
1e+20
 24
1e+20
 34
1e+20
 15
-1e+20
 25
-1e+20
 35
-1e+20
146
0.0
 13
0.0
 23
0.0
 33
0.0
 16
1.0
 26
0.0
 36
0.0
 17
0.0
 27
1.0
 37
0.0
 76
1
330
1B
  0
MATERIAL
  5
1F
102
{ACAD_REACTORS
330
E
102
}
330
E
100
AcDbMaterial
  1
ByBlock
  2

 70
0
 40
1.0
 71
1
 41
1.0
 91
-1023410177
 42
1.0
 72
1
  3

 73
1
 74
1
 75
1
 44
0.5
 73
0
 45
1.0
 46
1.0
 77
1
  4

 78
1
 79
1
170
1
 48
1.0
171
1
  6

172
1
173
1
174
1
140
1.0
141
1.0
175
1
  7

176
1
177
1
178
1
143
1.0
179
1
  8

270
1
271
1
272
1
145
1.0
146
1.0
273
1
  9

274
1
275
1
276
1
 42
1.0
 72
1
  3

 73
1
 74
1
 75
1
 94
63
  0
MATERIAL
  5
20
102
{ACAD_REACTORS
330
E
102
}
330
E
100
AcDbMaterial
  1
ByLayer
  2

 70
0
 40
1.0
 71
1
 41
1.0
 91
-1023410177
 42
1.0
 72
1
  3

 73
1
 74
1
 75
1
 44
0.5
 73
0
 45
1.0
 46
1.0
 77
1
  4

 78
1
 79
1
170
1
 48
1.0
171
1
  6

172
1
173
1
174
1
140
1.0
141
1.0
175
1
  7

176
1
177
1
178
1
143
1.0
179
1
  8

270
1
271
1
272
1
145
1.0
146
1.0
273
1
  9

274
1
275
1
276
1
 42
1.0
 72
1
  3

 73
1
 74
1
 75
1
 94
63
  0
MATERIAL
  5
21
102
{ACAD_REACTORS
330
E
102
}
330
E
100
AcDbMaterial
  1
Global
  2

 70
0
 40
1.0
 71
1
 41
1.0
 91
-1023410177
 42
1.0
 72
1
  3

 73
1
 74
1
 75
1
 44
0.5
 73
0
 45
1.0
 46
1.0
 77
1
  4

 78
1
 79
1
170
1
 48
1.0
171
1
  6

172
1
173
1
174
1
140
1.0
141
1.0
175
1
  7

176
1
177
1
178
1
143
1.0
179
1
  8

270
1
271
1
272
1
145
1.0
146
1.0
273
1
  9

274
1
275
1
276
1
 42
1.0
 72
1
  3

 73
1
 74
1
 75
1
 94
63
  0
MLINESTYLE
  5
22
102
{ACAD_REACTORS
330
10
102
}
330
10
100
AcDbMlineStyle
  2
Standard
 70
0
  3

 62
256
 51
90.0
 52
90.0
 71
2
 49
0.5
 62
256
  6
BYLAYER
 49
-0.5
 62
256
  6
BYLAYER
  0
MLEADERSTYLE
  5
2C
102
{ACAD_REACTORS
330
F
102
}
330
F
100
AcDbMLeaderStyle
179
2
170
2
171
1
172
0
 90
2
 40
0.0
 41
0.0
173
1
 91
-1056964608
 92
-2
290
1
 42
2.0
291
1
 43
8.0
  3
Standard
 44
4.0
300

342
29
174
1
175
1
176
0
178
1
 93
-1056964608
 45
4.0
292
0
297
0
 46
4.0
 94
-1056964608
 47
1.0
 49
1.0
140
1.0
294
1
141
0.0
177
0
142
1.0
295
0
296
0
143
3.75
271
0
272
9
273
9
  0
DICTIONARY
  5
2D
330
A
100
AcDbDictionary
280
1
281
1
  3
CREATED_BY_EZDXF
350
2E
  3
WRITTEN_BY_EZDXF
350
20F
  0
DICTIONARYVAR
  5
2E
330
2D
100
DictionaryVariables
280
0
  1
1.4.4 @ 2026-10-09T03:18:40.086318+00:00
  0
VISUALSTYLE
  5
5A
102
{ACAD_REACTORS
330
16
102
}
330
16
100
AcDbVisualStyle
  2
2dWireframe
 70
4
177
3
291
0
 70
58
 90
2
176
1
 90
2
176
1
 90
0
176
1
 90
0
176
1
 40
0.6
176
1
 40
30.0
176
1
 62
7
420
16777215
176
1
 90
1
176
1
 90
4
176
1
 62
7
176
1
 62
257
176
1
 90
1
176
1
 90
1
176
1
 40
1.0
176
1
 90
8
176
1
 62
7
176
1
 40
1.0
176
1
 90
1
176
1
 90
6
176
1
 90
2
176
1
 62
7
176
1
 90
5
176
1
 90
0
176
1
 90
0
176
1
290
0
176
1
 90
1
176
1
 40
0.0
176
1
 90
0
176
1
290
1
176
1
290
1
176
1
290
0
176
1
290
0
176
1
290
0
176
1
290
0
176
1
290
0
176
1
290
0
176
1
290
0
176
1
 90
50
176
1
 40
0.0
176
1
 40
1.0
176
1
 90
0
176
1
 62
18
420
0
176
1
 90
50
176
1
 90
3
176
1
 62
5
420
255
176
1
290
0
176
1
 90
50
176
1
 90
50
176
1
 90
50
176
1
290
0
176
1
 90
50
176
1
 62
256
176
0
 40
1.0
176
0
 90
2
176
1
  1
strokes_ogs.tif
176
1
290
0
176
1
 40
1.0
176
1
 40
1.0
176
1
  0
VISUALSTYLE
  5
5B
102
{ACAD_REACTORS
330
16
102
}
330
16
100
AcDbVisualStyle
  2
Basic
 70
7
177
3
291
1
 70
58
 90
2
176
1
 90
2
176
1
 90
0
176
1
 90
1
176
1
 40
0.6
176
1
 40
30.0
176
1
 62
7
420
16777215
176
1
 90
1
176
1
 90
4
176
1
 62
7
176
1
 62
257
176
1
 90
1
176
1
 90
1
176
1
 40
1.0
176
1
 90
8
176
1
 62
7
176
1
 40
1.0
176
1
 90
1
176
1
 90
6
176
1
 90
2
176
1
 62
7
176
1
 90
5
176
1
 90
0
176
1
 90
0
176
1
290
0
176
1
 90
1
176
1
 40
0.0
176
1
 90
0
176
1
290
0
176
1
290
1
176
1
290
1
176
1
290
0
176
1
290
0
176
1
290
0
176
1
290
0
176
1
290
0
176
1
290
0
176
1
 90
50
176
1
 40
0.0
176
1
 40
1.0
176
1
 90
0
176
1
 62
18
420
0
176
1
 90
50
176
1
 90
3
176
1
 62
5
420
255
176
1
290
0
176
1
 90
50
176
1
 90
50
176
1
 90
50
176
1
290
0
176
1
 90
50
176
1
 62
256
176
0
 40
1.0
176
0
 90
2
176
1
  1
strokes_ogs.tif
176
1
290
0
176
1
 40
1.0
176
1
 40
1.0
176
1
  0
VISUALSTYLE
  5
5C
102
{ACAD_REACTORS
330
16
102
}
330
16
100
AcDbVisualStyle
  2
Brighten
 70
12
177
3
291
1
 70
58
 90
2
176
1
 90
2
176
1
 90
0
176
1
 90
2
176
1
 40
0.6
176
1
 40
30.0
176
1
 62
7
420
16777215
176
1
 90
1
176
1
 90
4
176
1
 62
7
176
1
 62
257
176
1
 90
1
176
1
 90
1
176
1
 40
1.0
176
1
 90
8
176
1
 62
7
176
1
 40
1.0
176
1
 90
1
176
1
 90
6
176
1
 90
2
176
1
 62
7
176
1
 90
5
176
1
 90
0
176
1
 90
0
176
1
290
0
176
1
 90
1
176
1
 40
0.0
176
1
 90
0
176
1
290
0
176
1
290
1
176
1
290
1
176
1
290
0
176
1
290
0
176
1
290
0
176
1
290
0
176
1
290
0
176
1
290
0
176
1
 90
50
176
1
 40
0.0
176
1
 40
1.0
176
1
 90
0
176
1
 62
18
420
0
176
1
 90
50
176
1
 90
3
176
1
 62
5
420
255
176
1
290
0
176
1
 90
50
176
1
 90
50
176
1
 90
50
176
1
290
0
176
1
 90
50
176
1
 62
256
176
0
 40
1.0
176
0
 90
2
176
1
  1
strokes_ogs.tif
176
1
290
0
176
1
 40
1.0
176
1
 40
1.0
176
1
  0
VISUALSTYLE
  5
5D
102
{ACAD_REACTORS
330
16
102
}
330
16
100
AcDbVisualStyle
  2
ColorChange
 70
16
177
3
291
1
 70
58
 90
2
176
1
 90
2
176
1
 90
0
176
1
 90
2
176
1
 40
0.6
176
1
 40
30.0
176
1
 62
7
420
16777215
176
1
 90
1
176
1
 90
4
176
1
 62
7
176
1
 62
257
176
1
 90
1
176
1
 90
1
176
1
 40
1.0
176
1
 90
8
176
1
 62
7
176
1
 40
1.0
176
1
 90
1
176
1
 90
6
176
1
 90
2
176
1
 62
7
176
1
 90
5
176
1
 90
0
176
1
 90
0
176
1
290
0
176
1
 90
1
176
1
 40
0.0
176
1
 90
0
176
1
290
0
176
1
290
1
176
1
290
1
176
1
290
0
176
1
290
0
176
1
290
0
176
1
290
0
176
1
290
0
176
1
290
0
176
1
 90
50
176
1
 40
0.0
176
1
 40
1.0
176
1
 90
0
176
1
 62
18
420
0
176
1
 90
50
176
1
 90
3
176
1
 62
5
420
255
176
1
290
0
176
1
 90
50
176
1
 90
50
176
1
 90
50
176
1
290
0
176
1
 90
50
176
1
 62
256
176
0
 40
1.0
176
0
 90
2
176
1
  1
strokes_ogs.tif
176
1
290
0
176
1
 40
1.0
176
1
 40
1.0
176
1
  0
VISUALSTYLE
  5
5E
102
{ACAD_REACTORS
330
16
102
}
330
16
100
AcDbVisualStyle
  2
Conceptual
 70
9
177
3
291
0
 70
58
 90
2
176
1
 90
2
176
1
 90
0
176
1
 90
3
176
1
 40
0.6
176
1
 40
30.0
176
1
 62
7
420
16777215
176
1
 90
1
176
1
 90
4
176
1
 62
7
176
1
 62
257
176
1
 90
1
176
1
 90
1
176
1
 40
1.0
176
1
 90
8
176
1
 62
7
176
1
 40
1.0
176
1
 90
1
176
1
 90
6
176
1
 90
2
176
1
 62
7
176
1
 90
5
176
1
 90
0
176
1
 90
0
176
1
290
0
176
1
 90
1
176
1
 40
0.0
176
1
 90
0
176
1
290
0
176
1
290
1
176
1
290
1
176
1
290
0
176
1
290
0
176
1
290
0
176
1
290
0
176
1
290
0
176
1
290
0
176
1
 90
50
176
1
 40
0.0
176
1
 40
1.0
176
1
 90
0
176
1
 62
18
420
0
176
1
 90
50
176
1
 90
3
176
1
 62
5
420
255
176
1
290
0
176
1
 90
50
176
1
 90
50
176
1
 90
50
176
1
290
0
176
1
 90
50
176
1
 62
256
176
0
 40
1.0
176
0
 90
2
176
1
  1
strokes_ogs.tif
176
1
290
0
176
1
 40
1.0
176
1
 40
1.0
176
1
  0
VISUALSTYLE
  5
5F
102
{ACAD_REACTORS
330
16
102
}
330
16
100
AcDbVisualStyle
  2
Dim
 70
11
177
3
291
1
 70
58
 90
2
176
1
 90
2
176
1
 90
0
176
1
 90
2
176
1
 40
0.6
176
1
 40
30.0
176
1
 62
7
420
16777215
176
1
 90
1
176
1
 90
4
176
1
 62
7
176
1
 62
257
176
1
 90
1
176
1
 90
1
176
1
 40
1.0
176
1
 90
8
176
1
 62
7
176
1
 40
1.0
176
1
 90
1
176
1
 90
6
176
1
 90
2
176
1
 62
7
176
1
 90
5
176
1
 90
0
176
1
 90
0
176
1
290
0
176
1
 90
1
176
1
 40
0.0
176
1
 90
0
176
1
290
0
176
1
290
1
176
1
290
1
176
1
290
0
176
1
290
0
176
1
290
0
176
1
290
0
176
1
290
0
176
1
290
0
176
1
 90
50
176
1
 40
0.0
176
1
 40
1.0
176
1
 90
0
176
1
 62
18
420
0
176
1
 90
50
176
1
 90
3
176
1
 62
5
420
255
176
1
290
0
176
1
 90
50
176
1
 90
50
176
1
 90
50
176
1
290
0
176
1
 90
50
176
1
 62
256
176
0
 40
1.0
176
0
 90
2
176
1
  1
strokes_ogs.tif
176
1
290
0
176
1
 40
1.0
176
1
 40
1.0
176
1
  0
VISUALSTYLE
  5
60
102
{ACAD_REACTORS
330
16
102
}
330
16
100
AcDbVisualStyle
  2
EdgeColorOff
 70
22
177
3
291
1
 70
58
 90
2
176
1
 90
2
176
1
 90
0
176
1
 90
2
176
1
 40
0.6
176
1
 40
30.0
176
1
 62
7
420
16777215
176
1
 90
1
176
1
 90
4
176
1
 62
7
176
1
 62
257
176
1
 90
1
176
1
 90
1
176
1
 40
1.0
176
1
 90
8
176
1
 62
7
176
1
 40
1.0
176
1
 90
1
176
1
 90
6
176
1
 90
2
176
1
 62
7
176
1
 90
5
176
1
 90
0
176
1
 90
0
176
1
290
0
176
1
 90
1
176
1
 40
0.0
176
1
 90
0
176
1
290
0
176
1
290
1
176
1
290
1
176
1
290
0
176
1
290
0
176
1
290
0
176
1
290
0
176
1
290
0
176
1
290
0
176
1
 90
50
176
1
 40
0.0
176
1
 40
1.0
176
1
 90
0
176
1
 62
18
420
0
176
1
 90
50
176
1
 90
3
176
1
 62
5
420
255
176
1
290
0
176
1
 90
50
176
1
 90
50
176
1
 90
50
176
1
290
0
176
1
 90
50
176
1
 62
256
176
0
 40
1.0
176
0
 90
2
176
1
  1
strokes_ogs.tif
176
1
290
0
176
1
 40
1.0
176
1
 40
1.0
176
1
  0
VISUALSTYLE
  5
61
102
{ACAD_REACTORS
330
16
102
}
330
16
100
AcDbVisualStyle
  2
Facepattern
 70
15
177
3
291
1
 70
58
 90
2
176
1
 90
2
176
1
 90
0
176
1
 90
2
176
1
 40
0.6
176
1
 40
30.0
176
1
 62
7
420
16777215
176
1
 90
1
176
1
 90
4
176
1
 62
7
176
1
 62
257
176
1
 90
1
176
1
 90
1
176
1
 40
1.0
176
1
 90
8
176
1
 62
7
176
1
 40
1.0
176
1
 90
1
176
1
 90
6
176
1
 90
2
176
1
 62
7
176
1
 90
5
176
1
 90
0
176
1
 90
0
176
1
290
0
176
1
 90
1
176
1
 40
0.0
176
1
 90
0
176
1
290
0
176
1
290
1
176
1
290
1
176
1
290
0
176
1
290
0
176
1
290
0
176
1
290
0
176
1
290
0
176
1
290
0
176
1
 90
50
176
1
 40
0.0
176
1
 40
1.0
176
1
 90
0
176
1
 62
18
420
0
176
1
 90
50
176
1
 90
3
176
1
 62
5
420
255
176
1
290
0
176
1
 90
50
176
1
 90
50
176
1
 90
50
176
1
290
0
176
1
 90
50
176
1
 62
256
176
0
 40
1.0
176
0
 90
2
176
1
  1
strokes_ogs.tif
176
1
290
0
176
1
 40
1.0
176
1
 40
1.0
176
1
  0
VISUALSTYLE
  5
62
102
{ACAD_REACTORS
330
16
102
}
330
16
100
AcDbVisualStyle
  2
Flat
 70
0
177
3
291
1
 70
58
 90
2
176
1
 90
2
176
1
 90
0
176
1
 90
2
176
1
 40
0.6
176
1
 40
30.0
176
1
 62
7
420
16777215
176
1
 90
1
176
1
 90
4
176
1
 62
7
176
1
 62
257
176
1
 90
1
176
1
 90
1
176
1
 40
1.0
176
1
 90
8
176
1
 62
7
176
1
 40
1.0
176
1
 90
1
176
1
 90
6
176
1
 90
2
176
1
 62
7
176
1
 90
5
176
1
 90
0
176
1
 90
0
176
1
290
0
176
1
 90
1
176
1
 40
0.0
176
1
 90
0
176
1
290
0
176
1
290
1
176
1
290
1
176
1
290
0
176
1
290
0
176
1
290
0
176
1
290
0
176
1
290
0
176
1
290
0
176
1
 90
50
176
1
 40
0.0
176
1
 40
1.0
176
1
 90
0
176
1
 62
18
420
0
176
1
 90
50
176
1
 90
3
176
1
 62
5
420
255
176
1
290
0
176
1
 90
50
176
1
 90
50
176
1
 90
50
176
1
290
0
176
1
 90
50
176
1
 62
256
176
0
 40
1.0
176
0
 90
2
176
1
  1
strokes_ogs.tif
176
1
290
0
176
1
 40
1.0
176
1
 40
1.0
176
1
  0
VISUALSTYLE
  5
63
102
{ACAD_REACTORS
330
16
102
}
330
16
100
AcDbVisualStyle
  2
FlatWithEdges
 70
1
177
3
291
1
 70
58
 90
2
176
1
 90
2
176
1
 90
0
176
1
 90
2
176
1
 40
0.6
176
1
 40
30.0
176
1
 62
7
420
16777215
176
1
 90
1
176
1
 90
4
176
1
 62
7
176
1
 62
257
176
1
 90
1
176
1
 90
1
176
1
 40
1.0
176
1
 90
8
176
1
 62
7
176
1
 40
1.0
176
1
 90
1
176
1
 90
6
176
1
 90
2
176
1
 62
7
176
1
 90
5
176
1
 90
0
176
1
 90
0
176
1
290
0
176
1
 90
1
176
1
 40
0.0
176
1
 90
0
176
1
290
0
176
1
290
1
176
1
290
1
176
1
290
0
176
1
290
0
176
1
290
0
176
1
290
0
176
1
290
0
176
1
290
0
176
1
 90
50
176
1
 40
0.0
176
1
 40
1.0
176
1
 90
0
176
1
 62
18
420
0
176
1
 90
50
176
1
 90
3
176
1
 62
5
420
255
176
1
290
0
176
1
 90
50
176
1
 90
50
176
1
 90
50
176
1
290
0
176
1
 90
50
176
1
 62
256
176
0
 40
1.0
176
0
 90
2
176
1
  1
strokes_ogs.tif
176
1
290
0
176
1
 40
1.0
176
1
 40
1.0
176
1
  0
VISUALSTYLE
  5
64
102
{ACAD_REACTORS
330
16
102
}
330
16
100
AcDbVisualStyle
  2
Gouraud
 70
2
177
3
291
1
 70
58
 90
2
176
1
 90
2
176
1
 90
0
176
1
 90
2
176
1
 40
0.6
176
1
 40
30.0
176
1
 62
7
420
16777215
176
1
 90
1
176
1
 90
4
176
1
 62
7
176
1
 62
257
176
1
 90
1
176
1
 90
1
176
1
 40
1.0
176
1
 90
8
176
1
 62
7
176
1
 40
1.0
176
1
 90
1
176
1
 90
6
176
1
 90
2
176
1
 62
7
176
1
 90
5
176
1
 90
0
176
1
 90
0
176
1
290
0
176
1
 90
1
176
1
 40
0.0
176
1
 90
0
176
1
290
0
176
1
290
1
176
1
290
1
176
1
290
0
176
1
290
0
176
1
290
0
176
1
290
0
176
1
290
0
176
1
290
0
176
1
 90
50
176
1
 40
0.0
176
1
 40
1.0
176
1
 90
0
176
1
 62
18
420
0
176
1
 90
50
176
1
 90
3
176
1
 62
5
420
255
176
1
290
0
176
1
 90
50
176
1
 90
50
176
1
 90
50
176
1
290
0
176
1
 90
50
176
1
 62
256
176
0
 40
1.0
176
0
 90
2
176
1
  1
strokes_ogs.tif
176
1
290
0
176
1
 40
1.0
176
1
 40
1.0
176
1
  0
VISUALSTYLE
  5
65
102
{ACAD_REACTORS
330
16
102
}
330
16
100
AcDbVisualStyle
  2
GouraudWithEdges
 70
3
177
3
291
1
 70
58
 90
2
176
1
 90
2
176
1
 90
0
176
1
 90
2
176
1
 40
0.6
176
1
 40
30.0
176
1
 62
7
420
16777215
176
1
 90
1
176
1
 90
4
176
1
 62
7
176
1
 62
257
176
1
 90
1
176
1
 90
1
176
1
 40
1.0
176
1
 90
8
176
1
 62
7
176
1
 40
1.0
176
1
 90
1
176
1
 90
6
176
1
 90
2
176
1
 62
7
176
1
 90
5
176
1
 90
0
176
1
 90
0
176
1
290
0
176
1
 90
1
176
1
 40
0.0
176
1
 90
0
176
1
290
0
176
1
290
1
176
1
290
1
176
1
290
0
176
1
290
0
176
1
290
0
176
1
290
0
176
1
290
0
176
1
290
0
176
1
 90
50
176
1
 40
0.0
176
1
 40
1.0
176
1
 90
0
176
1
 62
18
420
0
176
1
 90
50
176
1
 90
3
176
1
 62
5
420
255
176
1
290
0
176
1
 90
50
176
1
 90
50
176
1
 90
50
176
1
290
0
176
1
 90
50
176
1
 62
256
176
0
 40
1.0
176
0
 90
2
176
1
  1
strokes_ogs.tif
176
1
290
0
176
1
 40
1.0
176
1
 40
1.0
176
1
  0
VISUALSTYLE
  5
66
102
{ACAD_REACTORS
330
16
102
}
330
16
100
AcDbVisualStyle
  2
Hidden
 70
6
177
3
291
0
 70
58
 90
2
176
1
 90
2
176
1
 90
0
176
1
 90
1
176
1
 40
0.6
176
1
 40
30.0
176
1
 62
7
420
16777215
176
1
 90
1
176
1
 90
4
176
1
 62
7
176
1
 62
257
176
1
 90
1
176
1
 90
1
176
1
 40
1.0
176
1
 90
8
176
1
 62
7
176
1
 40
1.0
176
1
 90
1
176
1
 90
6
176
1
 90
2
176
1
 62
7
176
1
 90
5
176
1
 90
0
176
1
 90
0
176
1
290
0
176
1
 90
1
176
1
 40
0.0
176
1
 90
0
176
1
290
0
176
1
290
1
176
1
290
1
176
1
290
0
176
1
290
0
176
1
290
0
176
1
290
0
176
1
290
0
176
1
290
0
176
1
 90
50
176
1
 40
0.0
176
1
 40
1.0
176
1
 90
0
176
1
 62
18
420
0
176
1
 90
50
176
1
 90
3
176
1
 62
5
420
255
176
1
290
0
176
1
 90
50
176
1
 90
50
176
1
 90
50
176
1
290
0
176
1
 90
50
176
1
 62
256
176
0
 40
1.0
176
0
 90
2
176
1
  1
strokes_ogs.tif
176
1
290
0
176
1
 40
1.0
176
1
 40
1.0
176
1
  0
VISUALSTYLE
  5
67
102
{ACAD_REACTORS
330
16
102
}
330
16
100
AcDbVisualStyle
  2
JitterOff
 70
20
177
3
291
1
 70
58
 90
2
176
1
 90
2
176
1
 90
0
176
1
 90
2
176
1
 40
0.6
176
1
 40
30.0
176
1
 62
7
420
16777215
176
1
 90
1
176
1
 90
4
176
1
 62
7
176
1
 62
257
176
1
 90
1
176
1
 90
1
176
1
 40
1.0
176
1
 90
8
176
1
 62
7
176
1
 40
1.0
176
1
 90
1
176
1
 90
6
176
1
 90
2
176
1
 62
7
176
1
 90
5
176
1
 90
0
176
1
 90
0
176
1
290
0
176
1
 90
1
176
1
 40
0.0
176
1
 90
0
176
1
290
0
176
1
290
1
176
1
290
1
176
1
290
0
176
1
290
0
176
1
290
0
176
1
290
0
176
1
290
0
176
1
290
0
176
1
 90
50
176
1
 40
0.0
176
1
 40
1.0
176
1
 90
0
176
1
 62
18
420
0
176
1
 90
50
176
1
 90
3
176
1
 62
5
420
255
176
1
290
0
176
1
 90
50
176
1
 90
50
176
1
 90
50
176
1
290
0
176
1
 90
50
176
1
 62
256
176
0
 40
1.0
176
0
 90
2
176
1
  1
strokes_ogs.tif
176
1
290
0
176
1
 40
1.0
176
1
 40
1.0
176
1
  0
VISUALSTYLE
  5
68
102
{ACAD_REACTORS
330
16
102
}
330
16
100
AcDbVisualStyle
  2
Linepattern
 70
14
177
3
291
1
 70
58
 90
2
176
1
 90
2
176
1
 90
0
176
1
 90
2
176
1
 40
0.6
176
1
 40
30.0
176
1
 62
7
420
16777215
176
1
 90
1
176
1
 90
4
176
1
 62
7
176
1
 62
257
176
1
 90
1
176
1
 90
1
176
1
 40
1.0
176
1
 90
8
176
1
 62
7
176
1
 40
1.0
176
1
 90
1
176
1
 90
6
176
1
 90
2
176
1
 62
7
176
1
 90
5
176
1
 90
0
176
1
 90
0
176
1
290
0
176
1
 90
1
176
1
 40
0.0
176
1
 90
0
176
1
290
0
176
1
290
1
176
1
290
1
176
1
290
0
176
1
290
0
176
1
290
0
176
1
290
0
176
1
290
0
176
1
290
0
176
1
 90
50
176
1
 40
0.0
176
1
 40
1.0
176
1
 90
0
176
1
 62
18
420
0
176
1
 90
50
176
1
 90
3
176
1
 62
5
420
255
176
1
290
0
176
1
 90
50
176
1
 90
50
176
1
 90
50
176
1
290
0
176
1
 90
50
176
1
 62
256
176
0
 40
1.0
176
0
 90
2
176
1
  1
strokes_ogs.tif
176
1
290
0
176
1
 40
1.0
176
1
 40
1.0
176
1
  0
VISUALSTYLE
  5
69
102
{ACAD_REACTORS
330
16
102
}
330
16
100
AcDbVisualStyle
  2
Modeling
 70
10
177
3
291
0
 70
58
 90
2
176
1
 90
2
176
1
 90
0
176
1
 90
2
176
1
 40
0.6
176
1
 40
30.0
176
1
 62
7
420
16777215
176
1
 90
1
176
1
 90
4
176
1
 62
7
176
1
 62
257
176
1
 90
1
176
1
 90
1
176
1
 40
1.0
176
1
 90
8
176
1
 62
7
176
1
 40
1.0
176
1
 90
1
176
1
 90
6
176
1
 90
2
176
1
 62
7
176
1
 90
5
176
1
 90
0
176
1
 90
0
176
1
290
0
176
1
 90
1
176
1
 40
0.0
176
1
 90
0
176
1
290
0
176
1
290
1
176
1
290
1
176
1
290
0
176
1
290
0
176
1
290
0
176
1
290
0
176
1
290
0
176
1
290
0
176
1
 90
50
176
1
 40
0.0
176
1
 40
1.0
176
1
 90
0
176
1
 62
18
420
0
176
1
 90
50
176
1
 90
3
176
1
 62
5
420
255
176
1
290
0
176
1
 90
50
176
1
 90
50
176
1
 90
50
176
1
290
0
176
1
 90
50
176
1
 62
256
176
0
 40
1.0
176
0
 90
2
176
1
  1
strokes_ogs.tif
176
1
290
0
176
1
 40
1.0
176
1
 40
1.0
176
1
  0
VISUALSTYLE
  5
6A
102
{ACAD_REACTORS
330
16
102
}
330
16
100
AcDbVisualStyle
  2
OverhangOff
 70
21
177
3
291
1
 70
58
 90
2
176
1
 90
2
176
1
 90
0
176
1
 90
2
176
1
 40
0.6
176
1
 40
30.0
176
1
 62
7
420
16777215
176
1
 90
1
176
1
 90
4
176
1
 62
7
176
1
 62
257
176
1
 90
1
176
1
 90
1
176
1
 40
1.0
176
1
 90
8
176
1
 62
7
176
1
 40
1.0
176
1
 90
1
176
1
 90
6
176
1
 90
2
176
1
 62
7
176
1
 90
5
176
1
 90
0
176
1
 90
0
176
1
290
0
176
1
 90
1
176
1
 40
0.0
176
1
 90
0
176
1
290
0
176
1
290
1
176
1
290
1
176
1
290
0
176
1
290
0
176
1
290
0
176
1
290
0
176
1
290
0
176
1
290
0
176
1
 90
50
176
1
 40
0.0
176
1
 40
1.0
176
1
 90
0
176
1
 62
18
420
0
176
1
 90
50
176
1
 90
3
176
1
 62
5
420
255
176
1
290
0
176
1
 90
50
176
1
 90
50
176
1
 90
50
176
1
290
0
176
1
 90
50
176
1
 62
256
176
0
 40
1.0
176
0
 90
2
176
1
  1
strokes_ogs.tif
176
1
290
0
176
1
 40
1.0
176
1
 40
1.0
176
1
  0
VISUALSTYLE
  5
6B
102
{ACAD_REACTORS
330
16
102
}
330
16
100
AcDbVisualStyle
  2
Realistic
 70
8
177
3
291
0
 70
58
 90
2
176
1
 90
2
176
1
 90
0
176
1
 90
2
176
1
 40
0.6
176
1
 40
30.0
176
1
 62
7
420
16777215
176
1
 90
1
176
1
 90
4
176
1
 62
7
176
1
 62
257
176
1
 90
1
176
1
 90
1
176
1
 40
1.0
176
1
 90
8
176
1
 62
7
176
1
 40
1.0
176
1
 90
1
176
1
 90
6
176
1
 90
2
176
1
 62
7
176
1
 90
5
176
1
 90
0
176
1
 90
0
176
1
290
0
176
1
 90
1
176
1
 40
0.0
176
1
 90
0
176
1
290
0
176
1
290
1
176
1
290
1
176
1
290
0
176
1
290
0
176
1
290
0
176
1
290
0
176
1
290
0
176
1
290
0
176
1
 90
50
176
1
 40
0.0
176
1
 40
1.0
176
1
 90
0
176
1
 62
18
420
0
176
1
 90
50
176
1
 90
3
176
1
 62
5
420
255
176
1
290
0
176
1
 90
50
176
1
 90
50
176
1
 90
50
176
1
290
0
176
1
 90
50
176
1
 62
256
176
0
 40
1.0
176
0
 90
2
176
1
  1
strokes_ogs.tif
176
1
290
0
176
1
 40
1.0
176
1
 40
1.0
176
1
  0
VISUALSTYLE
  5
6C
102
{ACAD_REACTORS
330
16
102
}
330
16
100
AcDbVisualStyle
  2
Shaded
 70
27
177
3
291
0
 70
58
 90
2
176
1
 90
2
176
1
 90
0
176
1
 90
2
176
1
 40
0.6
176
1
 40
30.0
176
1
 62
7
420
16777215
176
1
 90
1
176
1
 90
4
176
1
 62
7
176
1
 62
257
176
1
 90
1
176
1
 90
1
176
1
 40
1.0
176
1
 90
8
176
1
 62
7
176
1
 40
1.0
176
1
 90
1
176
1
 90
6
176
1
 90
2
176
1
 62
7
176
1
 90
5
176
1
 90
0
176
1
 90
0
176
1
290
0
176
1
 90
1
176
1
 40
0.0
176
1
 90
0
176
1
290
0
176
1
290
1
176
1
290
1
176
1
290
0
176
1
290
0
176
1
290
0
176
1
290
0
176
1
290
0
176
1
290
0
176
1
 90
50
176
1
 40
0.0
176
1
 40
1.0
176
1
 90
0
176
1
 62
18
420
0
176
1
 90
50
176
1
 90
3
176
1
 62
5
420
255
176
1
290
0
176
1
 90
50
176
1
 90
50
176
1
 90
50
176
1
290
0
176
1
 90
50
176
1
 62
256
176
0
 40
1.0
176
0
 90
2
176
1
  1
strokes_ogs.tif
176
1
290
0
176
1
 40
1.0
176
1
 40
1.0
176
1
  0
VISUALSTYLE
  5
6D
102
{ACAD_REACTORS
330
16
102
}
330
16
100
AcDbVisualStyle
  2
Shaded with edges
 70
26
177
3
291
0
 70
58
 90
2
176
1
 90
2
176
1
 90
0
176
1
 90
2
176
1
 40
0.6
176
1
 40
30.0
176
1
 62
7
420
16777215
176
1
 90
1
176
1
 90
4
176
1
 62
7
176
1
 62
257
176
1
 90
1
176
1
 90
1
176
1
 40
1.0
176
1
 90
8
176
1
 62
7
176
1
 40
1.0
176
1
 90
1
176
1
 90
6
176
1
 90
2
176
1
 62
7
176
1
 90
5
176
1
 90
0
176
1
 90
0
176
1
290
0
176
1
 90
1
176
1
 40
0.0
176
1
 90
0
176
1
290
0
176
1
290
1
176
1
290
1
176
1
290
0
176
1
290
0
176
1
290
0
176
1
290
0
176
1
290
0
176
1
290
0
176
1
 90
50
176
1
 40
0.0
176
1
 40
1.0
176
1
 90
0
176
1
 62
18
420
0
176
1
 90
50
176
1
 90
3
176
1
 62
5
420
255
176
1
290
0
176
1
 90
50
176
1
 90
50
176
1
 90
50
176
1
290
0
176
1
 90
50
176
1
 62
256
176
0
 40
1.0
176
0
 90
2
176
1
  1
strokes_ogs.tif
176
1
290
0
176
1
 40
1.0
176
1
 40
1.0
176
1
  0
VISUALSTYLE
  5
6E
102
{ACAD_REACTORS
330
16
102
}
330
16
100
AcDbVisualStyle
  2
Shades of Gray
 70
23
177
3
291
0
 70
58
 90
2
176
1
 90
2
176
1
 90
0
176
1
 90
2
176
1
 40
0.6
176
1
 40
30.0
176
1
 62
7
420
16777215
176
1
 90
1
176
1
 90
4
176
1
 62
7
176
1
 62
257
176
1
 90
1
176
1
 90
1
176
1
 40
1.0
176
1
 90
8
176
1
 62
7
176
1
 40
1.0
176
1
 90
1
176
1
 90
6
176
1
 90
2
176
1
 62
7
176
1
 90
5
176
1
 90
0
176
1
 90
0
176
1
290
0
176
1
 90
1
176
1
 40
0.0
176
1
 90
0
176
1
290
0
176
1
290
1
176
1
290
1
176
1
290
0
176
1
290
0
176
1
290
0
176
1
290
0
176
1
290
0
176
1
290
0
176
1
 90
50
176
1
 40
0.0
176
1
 40
1.0
176
1
 90
0
176
1
 62
18
420
0
176
1
 90
50
176
1
 90
3
176
1
 62
5
420
255
176
1
290
0
176
1
 90
50
176
1
 90
50
176
1
 90
50
176
1
290
0
176
1
 90
50
176
1
 62
256
176
0
 40
1.0
176
0
 90
2
176
1
  1
strokes_ogs.tif
176
1
290
0
176
1
 40
1.0
176
1
 40
1.0
176
1
  0
VISUALSTYLE
  5
6F
102
{ACAD_REACTORS
330
16
102
}
330
16
100
AcDbVisualStyle
  2
Sketchy
 70
24
177
3
291
0
 70
58
 90
2
176
1
 90
2
176
1
 90
0
176
1
 90
1
176
1
 40
0.6
176
1
 40
30.0
176
1
 62
7
420
16777215
176
1
 90
1
176
1
 90
4
176
1
 62
7
176
1
 62
257
176
1
 90
1
176
1
 90
1
176
1
 40
1.0
176
1
 90
8
176
1
 62
7
176
1
 40
1.0
176
1
 90
1
176
1
 90
6
176
1
 90
2
176
1
 62
7
176
1
 90
5
176
1
 90
0
176
1
 90
0
176
1
290
0
176
1
 90
1
176
1
 40
0.0
176
1
 90
0
176
1
290
0
176
1
290
1
176
1
290
1
176
1
290
0
176
1
290
0
176
1
290
0
176
1
290
0
176
1
290
0
176
1
290
0
176
1
 90
50
176
1
 40
0.0
176
1
 40
1.0
176
1
 90
0
176
1
 62
18
420
0
176
1
 90
50
176
1
 90
3
176
1
 62
5
420
255
176
1
290
0
176
1
 90
50
176
1
 90
50
176
1
 90
50
176
1
290
0
176
1
 90
50
176
1
 62
256
176
0
 40
1.0
176
0
 90
2
176
1
  1
strokes_ogs.tif
176
1
290
0
176
1
 40
1.0
176
1
 40
1.0
176
1
  0
VISUALSTYLE
  5
70
102
{ACAD_REACTORS
330
16
102
}
330
16
100
AcDbVisualStyle
  2
Thicken
 70
13
177
3
291
1
 70
58
 90
2
176
1
 90
2
176
1
 90
0
176
1
 90
2
176
1
 40
0.6
176
1
 40
30.0
176
1
 62
7
420
16777215
176
1
 90
1
176
1
 90
4
176
1
 62
7
176
1
 62
257
176
1
 90
1
176
1
 90
1
176
1
 40
1.0
176
1
 90
8
176
1
 62
7
176
1
 40
1.0
176
1
 90
1
176
1
 90
6
176
1
 90
2
176
1
 62
7
176
1
 90
5
176
1
 90
0
176
1
 90
0
176
1
290
0
176
1
 90
1
176
1
 40
0.0
176
1
 90
0
176
1
290
0
176
1
290
1
176
1
290
1
176
1
290
0
176
1
290
0
176
1
290
0
176
1
290
0
176
1
290
0
176
1
290
0
176
1
 90
50
176
1
 40
0.0
176
1
 40
1.0
176
1
 90
0
176
1
 62
18
420
0
176
1
 90
50
176
1
 90
3
176
1
 62
5
420
255
176
1
290
0
176
1
 90
50
176
1
 90
50
176
1
 90
50
176
1
290
0
176
1
 90
50
176
1
 62
256
176
0
 40
1.0
176
0
 90
2
176
1
  1
strokes_ogs.tif
176
1
290
0
176
1
 40
1.0
176
1
 40
1.0
176
1
  0
VISUALSTYLE
  5
71
102
{ACAD_REACTORS
330
16
102
}
330
16
100
AcDbVisualStyle
  2
Wireframe
 70
5
177
3
291
0
 70
58
 90
2
176
1
 90
2
176
1
 90
0
176
1
 90
0
176
1
 40
0.6
176
1
 40
30.0
176
1
 62
7
420
16777215
176
1
 90
1
176
1
 90
4
176
1
 62
7
176
1
 62
257
176
1
 90
1
176
1
 90
1
176
1
 40
1.0
176
1
 90
8
176
1
 62
7
176
1
 40
1.0
176
1
 90
1
176
1
 90
6
176
1
 90
2
176
1
 62
7
176
1
 90
5
176
1
 90
0
176
1
 90
0
176
1
290
0
176
1
 90
1
176
1
 40
0.0
176
1
 90
0
176
1
290
0
176
1
290
1
176
1
290
1
176
1
290
0
176
1
290
0
176
1
290
0
176
1
290
0
176
1
290
0
176
1
290
0
176
1
 90
50
176
1
 40
0.0
176
1
 40
1.0
176
1
 90
0
176
1
 62
18
420
0
176
1
 90
50
176
1
 90
3
176
1
 62
5
420
255
176
1
290
0
176
1
 90
50
176
1
 90
50
176
1
 90
50
176
1
290
0
176
1
 90
50
176
1
 62
256
176
0
 40
1.0
176
0
 90
2
176
1
  1
strokes_ogs.tif
176
1
290
0
176
1
 40
1.0
176
1
 40
1.0
176
1
  0
VISUALSTYLE
  5
72
102
{ACAD_REACTORS
330
16
102
}
330
16
100
AcDbVisualStyle
  2
X-Ray
 70
25
177
3
291
0
 70
58
 90
2
176
1
 90
2
176
1
 90
0
176
1
 90
2
176
1
 40
0.5
176
1
 40
30.0
176
1
 62
7
420
16777215
176
1
 90
1
176
1
 90
4
176
1
 62
7
176
1
 62
257
176
1
 90
1
176
1
 90
1
176
1
 40
1.0
176
1
 90
8
176
1
 62
7
176
1
 40
1.0
176
1
 90
1
176
1
 90
6
176
1
 90
2
176
1
 62
7
176
1
 90
5
176
1
 90
0
176
1
 90
0
176
1
290
0
176
1
 90
1
176
1
 40
0.0
176
1
 90
0
176
1
290
0
176
1
290
1
176
1
290
1
176
1
290
0
176
1
290
0
176
1
290
0
176
1
290
0
176
1
290
0
176
1
290
0
176
1
 90
50
176
1
 40
0.0
176
1
 40
1.0
176
1
 90
0
176
1
 62
18
420
0
176
1
 90
50
176
1
 90
3
176
1
 62
5
420
255
176
1
290
0
176
1
 90
50
176
1
 90
50
176
1
 90
50
176
1
290
0
176
1
 90
50
176
1
 62
256
176
0
 40
1.0
176
0
 90
2
176
1
  1
strokes_ogs.tif
176
1
290
0
176
1
 40
1.0
176
1
 40
1.0
176
1
  0
DICTIONARYVAR
  5
20F
330
2D
100
DictionaryVariables
280
0
  1
1.4.4 @ 2026-10-09T03:18:40.100331+00:00
  0
ENDSEC
  0
EOF
