  0
SECTION
  2
HEADER
  9
$ACADVER
  1
AC1032
  9
$ACADMAINTVER
 90
4
  9
$DWGCODEPAGE
  3
ANSI_1252
  9
$LASTSAVEDBY
  1
ezdxf
  9
$REQUIREDVERSIONS
160
0
  9
$INSBASE
 10
0.0
 20
0.0
 30
0.0
  9
$EXTMIN
 10
1e+20
 20
1e+20
 30
1e+20
  9
$EXTMAX
 10
-1e+20
 20
-1e+20
 30
-1e+20
  9
$LIMMIN
 10
0.0
 20
0.0
  9
$LIMMAX
 10
420.0
 20
297.0
  9
$ORTHOMODE
 70
0
  9
$REGENMODE
 70
1
  9
$FILLMODE
 70
1
  9
$QTEXTMODE
 70
0
  9
$MIRRTEXT
 70
1
  9
$LTSCALE
 40
1.0
  9
$ATTMODE
 70
1
  9
$TEXTSIZE
 40
2.5
  9
$TRACEWID
 40
1.0
  9
$TEXTSTYLE
  7
OpenSans
  9
$CLAYER
  8
0
  9
$CELTYPE
  6
ByLayer
  9
$CECOLOR
 62
256
  9
$CELTSCALE
 40
1.0
  9
$DISPSILH
 70
0
  9
$DIMSCALE
 40
1.0
  9
$DIMASZ
 40
0.175
  9
$DIMEXO
 40
0.125
  9
$DIMDLI
 40
3.75
  9
$DIMRND
 40
0.0
  9
$DIMDLE
 40
0.0
  9
$DIMEXE
 40
0.375
  9
$DIMTP
 40
0.0
  9
$DIMTM
 40
0.0
  9
$DIMTXT
 40
0.25
  9
$DIMCEN
 40
2.5
  9
$DIMTSZ
 40
0.0
  9
$DIMTOL
 70
0
  9
$DIMLIM
 70
0
  9
$DIMTIH
 70
0
  9
$DIMTOH
 70
0
  9
$DIMSE1
 70
0
  9
$DIMSE2
 70
0
  9
$DIMTAD
 70
1
  9
$DIMZIN
 70
12
  9
$DIMBLK
  1
ARCHTICK
  9
$DIMASO
 70
1
  9
$DIMSHO
 70
1
  9
$DIMPOST
  1

  9
$DIMAPOST
  1

  9
$DIMALT
 70
0
  9
$DIMALTD
 70
3
  9
$DIMALTF
 40
0.03937007874
  9
$DIMLFAC
 40
100.0
  9
$DIMTOFL
 70
1
  9
$DIMTVP
 40
0.0
  9
$DIMTIX
 70
0
  9
$DIMSOXD
 70
0
  9
$DIMSAH
 70
0
  9
$DIMBLK1
  1

  9
$DIMBLK2
  1

  9
$DIMSTYLE
  2
EZDXF
  9
$DIMCLRD
 70
0
  9
$DIMCLRE
 70
0
  9
$DIMCLRT
 70
0
  9
$DIMTFAC
 40
0.5
  9
$DIMGAP
 40
0.1
  9
$DIMJUST
 70
0
  9
$DIMSD1
 70
0
  9
$DIMSD2
 70
0
  9
$DIMTOLJ
 70
0
  9
$DIMTZIN
 70
8
  9
$DIMALTZ
 70
0
  9
$DIMALTTZ
 70
0
  9
$DIMUPT
 70
1
  9
$DIMDEC
 70
2
  9
$DIMTDEC
 70
2
  9
$DIMALTU
 70
2
  9
$DIMALTTD
 70
3
  9
$DIMTXSTY
  7
OpenSansCondensed-Light
  9
$DIMAUNIT
 70
0
  9
$DIMADEC
 70
2
  9
$DIMALTRND
 40
0.0
  9
$DIMAZIN
 70
3
  9
$DIMDSEP
 70
46
  9
$DIMATFIT
 70
3
  9
$DIMFRAC
 70
0
  9
$DIMLDRBLK
  1

  9
$DIMLUNIT
 70
2
  9
$DIMLWD
 70
-2
  9
$DIMLWE
 70
-2
  9
$DIMTMOVE
 70
2
  9
$DIMFXL
 40
1.0
  9
$DIMFXLON
 70
0
  9
$DIMJOGANG
 40
0.785398163397
  9
$DIMTFILL
 70
0
  9
$DIMTFILLCLR
 70
0
  9
$DIMARCSYM
 70
0
  9
$DIMLTYPE
  6

  9
$DIMLTEX1
  6

  9
$DIMLTEX2
  6

  9
$DIMTXTDIRECTION
 70
0
  9
$LUNITS
 70
2
  9
$LUPREC
 70
4
  9
$SKETCHINC
 40
1.0
  9
$FILLETRAD
 40
10.0
  9
$AUNITS
 70
0
  9
$AUPREC
 70
2
  9
$MENU
  1
.
  9
$ELEVATION
 40
0.0
  9
$PELEVATION
 40
0.0
  9
$THICKNESS
 40
0.0
  9
$LIMCHECK
 70
0
  9
$CHAMFERA
 40
0.0
  9
$CHAMFERB
 40
0.0
  9
$CHAMFERC
 40
0.0
  9
$CHAMFERD
 40
0.0
  9
$SKPOLY
 70
0
  9
$TDCREATE
 40
2461322.7348611113
  9
$TDUCREATE
 40
2458532.153996898
  9
$TDUPDATE
 40
2461322.7348611113
  9
$TDUUPDATE
 40
2458532.1544311
  9
$TDINDWG
 40
0.0
  9
$TDUSRTIMER
 40
0.0
  9
$USRTIMER
 70
1
  9
$ANGBASE
 50
0.0
  9
$ANGDIR
 70
0
  9
$PDMODE
 70
0
  9
$PDSIZE
 40
0.0
  9
$PLINEWID
 40
0.0
  9
$SPLFRAME
 70
0
  9
$SPLINETYPE
 70
6
  9
$SPLINESEGS
 70
8
  9
$HANDSEED
  5
29C
  9
$SURFTAB1
 70
6
  9
$SURFTAB2
 70
6
  9
$SURFTYPE
 70
6
  9
$SURFU
 70
6
  9
$SURFV
 70
6
  9
$UCSBASE
  2

  9
$UCSNAME
  2

  9
$UCSORG
 10
0.0
 20
0.0
 30
0.0
  9
$UCSXDIR
 10
1.0
 20
0.0
 30
0.0
  9
$UCSYDIR
 10
0.0
 20
1.0
 30
0.0
  9
$UCSORTHOREF
  2

  9
$UCSORTHOVIEW
 70
0
  9
$UCSORGTOP
 10
0.0
 20
0.0
 30
0.0
  9
$UCSORGBOTTOM
 10
0.0
 20
0.0
 30
0.0
  9
$UCSORGLEFT
 10
0.0
 20
0.0
 30
0.0
  9
$UCSORGRIGHT
 10
0.0
 20
0.0
 30
0.0
  9
$UCSORGFRONT
 10
0.0
 20
0.0
 30
0.0
  9
$UCSORGBACK
 10
0.0
 20
0.0
 30
0.0
  9
$PUCSBASE
  2

  9
$PUCSNAME
  2

  9
$PUCSORG
 10
0.0
 20
0.0
 30
0.0
  9
$PUCSXDIR
 10
1.0
 20
0.0
 30
0.0
  9
$PUCSYDIR
 10
0.0
 20
1.0
 30
0.0
  9
$PUCSORTHOREF
  2

  9
$PUCSORTHOVIEW
 70
0
  9
$PUCSORGTOP
 10
0.0
 20
0.0
 30
0.0
  9
$PUCSORGBOTTOM
 10
0.0
 20
0.0
 30
0.0
  9
$PUCSORGLEFT
 10
0.0
 20
0.0
 30
0.0
  9
$PUCSORGRIGHT
 10
0.0
 20
0.0
 30
0.0
  9
$PUCSORGFRONT
 10
0.0
 20
0.0
 30
0.0
  9
$PUCSORGBACK
 10
0.0
 20
0.0
 30
0.0
  9
$USERI1
 70
0
  9
$USERI2
 70
0
  9
$USERI3
 70
0
  9
$USERI4
 70
0
  9
$USERI5
 70
0
  9
$USERR1
 40
0.0
  9
$USERR2
 40
0.0
  9
$USERR3
 40
0.0
  9
$USERR4
 40
0.0
  9
$USERR5
 40
0.0
  9
$WORLDVIEW
 70
1
  9
$SHADEDGE
 70
3
  9
$SHADEDIF
 70
70
  9
$TILEMODE
 70
1
  9
$MAXACTVP
 70
64
  9
$PINSBASE
 10
0.0
 20
0.0
 30
0.0
  9
$PLIMCHECK
 70
0
  9
$PEXTMIN
 10
1e+20
 20
1e+20
 30
1e+20
  9
$PEXTMAX
 10
-1e+20
 20
-1e+20
 30
-1e+20
  9
$PLIMMIN
 10
0.0
 20
0.0
  9
$PLIMMAX
 10
420.0
 20
297.0
  9
$UNITMODE
 70
0
  9
$VISRETAIN
 70
1
  9
$PLINEGEN
 70
0
  9
$PSLTSCALE
 70
0
  9
$TREEDEPTH
 70
3020
  9
$CMLSTYLE
  2
Standard
  9
$CMLJUST
 70
0
  9
$CMLSCALE
 40
20.0
  9
$PROXYGRAPHICS
 70
1
  9
$MEASUREMENT
 70
1
  9
$CELWEIGHT
370
-1
  9
$ENDCAPS
280
0
  9
$JOINSTYLE
280
0
  9
$LWDISPLAY
290
1
  9
$INSUNITS
 70
4
  9
$HYPERLINKBASE
  1

  9
$STYLESHEET
  1

  9
$XEDIT
290
1
  9
$CEPSNTYPE
380
0
  9
$PSTYLEMODE
290
1
  9
$FINGERPRINTGUID
  2
{3A66CBA6-7C3A-4927-AF42-46703C62E470}
  9
$VERSIONGUID
  2
{B0B7A91A-0F75-4665-9D08-6762D7ED4D61}
  9
$EXTNAMES
290
1
  9
$PSVPSCALE
 40
0.0
  9
$OLESTARTUP
290
0
  9
$SORTENTS
280
127
  9
$INDEXCTL
280
0
  9
$HIDETEXT
280
1
  9
$XCLIPFRAME
280
1
  9
$HALOGAP
280
0
  9
$OBSCOLOR
 70
257
  9
$OBSLTYPE
280
0
  9
$INTERSECTIONDISPLAY
280
0
  9
$INTERSECTIONCOLOR
 70
257
  9
$DIMASSOC
280
2
  9
$PROJECTNAME
  1

  9
$CAMERADISPLAY
290
0
  9
$LENSLENGTH
 40
50.0
  9
$CAMERAHEIGHT
 40
0.0
  9
$STEPSPERSEC
 40
24.0
  9
$STEPSIZE
 40
100.0
  9
$3DDWFPREC
 40
2.0
  9
$PSOLWIDTH
 40
0.005
  9
$PSOLHEIGHT
 40
0.08
  9
$LOFTANG1
 40
1.570796326795
  9
$LOFTANG2
 40
1.570796326795
  9
$LOFTMAG1
 40
0.0
  9
$LOFTMAG2
 40
0.0
  9
$LOFTPARAM
 70
7
  9
$LOFTNORMALS
280
1
  9
$LATITUDE
 40
37.795
  9
$LONGITUDE
 40
-122.394
  9
$NORTHDIRECTION
 40
0.0
  9
$TIMEZONE
 70
-8000
  9
$LIGHTGLYPHDISPLAY
280
1
  9
$TILEMODELIGHTSYNCH
280
1
  9
$CMATERIAL
347
20
  9
$SOLIDHIST
280
0
  9
$SHOWHIST
280
1
  9
$DWFFRAME
280
2
  9
$DGNFRAME
280
2
  9
$REALWORLDSCALE
290
1
  9
$INTERFERECOLOR
 62
256
  9
$CSHADOW
280
0
  9
$SHADOWPLANELOCATION
 40
0.0
  0
ENDSEC
  0
SECTION
  2
CLASSES
  0
CLASS
  1
ACDBDICTIONARYWDFLT
  2
AcDbDictionaryWithDefault
  3
ObjectDBX Classes
 90
0
 91
0
280
0
281
0
  0
CLASS
  1
SUN
  2
AcDbSun
  3
SCENEOE
 90
1153
 91
0
280
0
281
0
  0
CLASS
  1
VISUALSTYLE
  2
AcDbVisualStyle
  3
ObjectDBX Classes
 90
4095
 91
0
280
0
281
0
  0
CLASS
  1
MATERIAL
  2
AcDbMaterial
  3
ObjectDBX Classes
 90
1153
 91
0
280
0
281
0
  0
CLASS
  1
SCALE
  2
AcDbScale
  3
ObjectDBX Classes
 90
1153
 91
0
280
0
281
0
  0
CLASS
  1
TABLESTYLE
  2
AcDbTableStyle
  3
ObjectDBX Classes
 90
4095
 91
0
280
0
281
0
  0
CLASS
  1
MLEADERSTYLE
  2
AcDbMLeaderStyle
  3
ACDB_MLEADERSTYLE_CLASS
 90
4095
 91
0
280
0
281
0
  0
CLASS
  1
DICTIONARYVAR
  2
AcDbDictionaryVar
  3
ObjectDBX Classes
 90
0
 91
0
280
0
281
0
  0
CLASS
  1
CELLSTYLEMAP
  2
AcDbCellStyleMap
  3
ObjectDBX Classes
 90
1152
 91
0
280
0
281
0
  0
CLASS
  1
MENTALRAYRENDERSETTINGS
  2
AcDbMentalRayRenderSettings
  3
SCENEOE
 90
1024
 91
0
280
0
281
0
  0
CLASS
  1
ACDBDETAILVIEWSTYLE
  2
AcDbDetailViewStyle
  3
ObjectDBX Classes
 90
1025
 91
0
280
0
281
0
  0
CLASS
  1
ACDBSECTIONVIEWSTYLE
  2
AcDbSectionViewStyle
  3
ObjectDBX Classes
 90
1025
 91
0
280
0
281
0
  0
CLASS
  1
RASTERVARIABLES
  2
AcDbRasterVariables
  3
ISM
 90
0
 91
0
280
0
281
0
  0
CLASS
  1
LAYOUT
  2
AcDbLayout
  3
ObjectDBX Classes
 90
0
 91
0
280
0
281
0
  0
CLASS
  1
ACDBPLACEHOLDER
  2
AcDbPlaceHolder
  3
ObjectDBX Classes
 90
0
 91
0
280
0
281
0
  0
ENDSEC
  0
SECTION
  2
TABLES
  0
TABLE
  2
VPORT
  5
8
330
0
100
AcDbSymbolTable
 70
1
  0
VPORT
  5
23
330
8
100
AcDbSymbolTableRecord
100
AcDbViewportTableRecord
  2
*Active
 70
0
 10
0.0
 20
0.0
 11
1.0
 21
1.0
 12
0.0
 22
0.0
 13
0.0
 23
0.0
 14
0.5
 24
0.5
 15
0.5
 25
0.5
 16
0.0
 26
0.0
 36
1.0
 17
0.0
 27
0.0
 37
0.0
 40
1000.0
 41
1.34
 42
50.0
 43
0.0
 44
0.0
 50
0.0
 51
0.0
 71
0
 72
1000
 73
1
 74
3
 75
0
 76
0
 77
0
 78
0
281
0
 65
0
146
0.0
  0
ENDTAB
  0
TABLE
  2
LTYPE
  5
2
330
0
100
AcDbSymbolTable
 70
21
  0
LTYPE
  5
24
330
2
100
AcDbSymbolTableRecord
100
AcDbLinetypeTableRecord
  2
ByBlock
 70
0
  3

 72
65
 73
0
 40
0.0
  0
LTYPE
  5
25
330
2
100
AcDbSymbolTableRecord
100
AcDbLinetypeTableRecord
  2
ByLayer
 70
0
  3

 72
65
 73
0
 40
0.0
  0
LTYPE
  5
26
330
2
100
AcDbSymbolTableRecord
100
AcDbLinetypeTableRecord
  2
Continuous
 70
0
  3

 72
65
 73
0
 40
0.0
  0
LTYPE
  5
2F
330
2
100
AcDbSymbolTableRecord
100
AcDbLinetypeTableRecord
  2
CENTER
 70
0
  3
Center ____ _ ____ _ ____ _ ____ _ ____ _ ____
 72
65
 73
4
 40
5.08
 49
3.175
 74
0
 49
-0.635
 74
0
 49
0.635
 74
0
 49
-0.635
 74
0
  0
LTYPE
  5
30
330
2
100
AcDbSymbolTableRecord
100
AcDbLinetypeTableRecord
  2
CENTERX2
 70
0
  3
Center (2x) ________  __  ________  __  ________
 72
65
 73
4
 40
8.89
 49
6.35
 74
0
 49
-0.635
 74
0
 49
1.27
 74
0
 49
-0.635
 74
0
  0
LTYPE
  5
31
330
2
100
AcDbSymbolTableRecord
100
AcDbLinetypeTableRecord
  2
CENTER2
 70
0
  3
Center (.5x) ____ _ ____ _ ____ _ ____ _ ____
 72
65
 73
4
 40
2.54
 49
1.587
 74
0
 49
-0.318
 74
0
 49
0.318
 74
0
 49
-0.318
 74
0
  0
LTYPE
  5
32
330
2
100
AcDbSymbolTableRecord
100
AcDbLinetypeTableRecord
  2
DASHED
 70
0
  3
Dashed __ __ __ __ __ __ __ __ __ __ __ __ __ _
 72
65
 73
2
 40
1.524
 49
1.27
 74
0
 49
-0.254
 74
0
  0
LTYPE
  5
33
330
2
100
AcDbSymbolTableRecord
100
AcDbLinetypeTableRecord
  2
DASHEDX2
 70
0
  3
Dashed (2x) ____  ____  ____  ____  ____  ____
 72
65
 73
2
 40
3.048
 49
2.54
 74
0
 49
-0.508
 74
0
  0
LTYPE
  5
34
330
2
100
AcDbSymbolTableRecord
100
AcDbLinetypeTableRecord
  2
DASHED2
 70
0
  3
Dashed (.5x) _ _ _ _ _ _ _ _ _ _ _ _ _ _
 72
65
 73
2
 40
0.762
 49
0.635
 74
0
 49
-0.127
 74
0
  0
LTYPE
  5
35
330
2
100
AcDbSymbolTableRecord
100
AcDbLinetypeTableRecord
  2
PHANTOM
 70
0
  3
Phantom ______  __  __  ______  __  __  ______
 72
65
 73
6
 40
6.35
 49
3.175
 74
0
 49
-0.635
 74
0
 49
0.635
 74
0
 49
-0.635
 74
0
 49
0.635
 74
0
 49
-0.635
 74
0
  0
LTYPE
  5
36
330
2
100
AcDbSymbolTableRecord
100
AcDbLinetypeTableRecord
  2
PHANTOMX2
 70
0
  3
Phantom (2x)____________    ____    ____    ____________
 72
65
 73
6
 40
10.795
 49
6.35
 74
0
 49
-0.635
 74
0
 49
1.27
 74
0
 49
-0.635
 74
0
 49
1.27
 74
0
 49
-0.635
 74
0
  0
LTYPE
  5
37
330
2
100
AcDbSymbolTableRecord
100
AcDbLinetypeTableRecord
  2
PHANTOM2
 70
0
  3
Phantom (.5x) ___ _ _ ___ _ _ ___ _ _ ___ _ _ ___
 72
65
 73
6
 40
3.175
 49
1.587
 74
0
 49
-0.318
 74
0
 49
0.318
 74
0
 49
-0.318
 74
0
 49
0.318
 74
0
 49
-0.318
 74
0
  0
LTYPE
  5
38
330
2
100
AcDbSymbolTableRecord
100
AcDbLinetypeTableRecord
  2
DASHDOT
 70
0
  3
Dash dot __ . __ . __ . __ . __ . __ . __ . __
 72
65
 73
4
 40
3.556
 49
2.54
 74
0
 49
-0.508
 74
0
 49
0.0
 74
0
 49
-0.508
 74
0
  0
LTYPE
  5
39
330
2
100
AcDbSymbolTableRecord
100
AcDbLinetypeTableRecord
  2
DASHDOTX2
 70
0
  3
Dash dot (2x) ____  .  ____  .  ____  .  ____
 72
65
 73
4
 40
6.096
 49
5.08
 74
0
 49
-0.508
 74
0
 49
0.0
 74
0
 49
-0.508
 74
0
  0
LTYPE
  5
3A
330
2
100
AcDbSymbolTableRecord
100
AcDbLinetypeTableRecord
  2
DASHDOT2
 70
0
  3
Dash dot (.5x) _ . _ . _ . _ . _ . _ . _ . _
 72
65
 73
4
 40
1.778
 49
1.27
 74
0
 49
-0.254
 74
0
 49
0.0
 74
0
 49
-0.254
 74
0
  0
LTYPE
  5
3B
330
2
100
AcDbSymbolTableRecord
100
AcDbLinetypeTableRecord
  2
DOT
 70
0
  3
Dot .  .  .  .  .  .  .  .  .  .  .  .  .  .  .  .
 72
65
 73
2
 40
0.508
 49
0.0
 74
0
 49
-0.508
 74
0
  0
LTYPE
  5
3C
330
2
100
AcDbSymbolTableRecord
100
AcDbLinetypeTableRecord
  2
DOTX2
 70
0
  3
Dot (2x) .    .    .    .    .    .    .    . 
 72
65
 73
2
 40
1.016
 49
0.0
 74
0
 49
-1.016
 74
0
  0
LTYPE
  5
3D
330
2
100
AcDbSymbolTableRecord
100
AcDbLinetypeTableRecord
  2
DOT2
 70
0
  3
Dot (.5) . . . . . . . . . . . . . . . . . . . 
 72
65
 73
2
 40
0.254
 49
0.0
 74
0
 49
-0.254
 74
0
  0
LTYPE
  5
3E
330
2
100
AcDbSymbolTableRecord
100
AcDbLinetypeTableRecord
  2
DIVIDE
 70
0
  3
Divide __ . . __ . . __ . . __ . . __ . . __
 72
65
 73
6
 40
4.064
 49
2.54
 74
0
 49
-0.508
 74
0
 49
0.0
 74
0
 49
-0.508
 74
0
 49
0.0
 74
0
 49
-0.508
 74
0
  0
LTYPE
  5
3F
330
2
100
AcDbSymbolTableRecord
100
AcDbLinetypeTableRecord
  2
DIVIDEX2
 70
0
  3
Divide (2x) ____  . .  ____  . .  ____  . .  ____
 72
65
 73
6
 40
6.604
 49
5.08
 74
0
 49
-0.508
 74
0
 49
0.0
 74
0
 49
-0.508
 74
0
 49
0.0
 74
0
 49
-0.508
 74
0
  0
LTYPE
  5
40
330
2
100
AcDbSymbolTableRecord
100
AcDbLinetypeTableRecord
  2
DIVIDE2
 70
0
  3
Divide(.5x) _ . _ . _ . _ . _ . _ . _ . _
 72
65
 73
6
 40
2.032
 49
1.27
 74
0
 49
-0.254
 74
0
 49
0.0
 74
0
 49
-0.254
 74
0
 49
0.0
 74
0
 49
-0.254
 74
0
  0
ENDTAB
  0
TABLE
  2
LAYER
  5
1
330
0
100
AcDbSymbolTable
 70
36
  0
LAYER
  5
27
330
1
100
AcDbSymbolTableRecord
100
AcDbLayerTableRecord
  2
0
 70
0
 62
7
  6
Continuous
370
-3
390
13
347
21
  0
LAYER
  5
28
330
1
100
AcDbSymbolTableRecord
100
AcDbLayerTableRecord
  2
Defpoints
 70
0
 62
7
  6
Continuous
290
0
370
-3
390
13
347
21
  0
LAYER
  5
8A
330
1
100
AcDbSymbolTableRecord
100
AcDbLayerTableRecord
  2
0-SHEET
 70
0
 62
7
  6
CONTINUOUS
370
50
390
13
347
21
  0
LAYER
  5
8B
330
1
100
AcDbSymbolTableRecord
100
AcDbLayerTableRecord
  2
0-TITLE
 70
0
 62
7
  6
CONTINUOUS
370
18
390
13
347
21
  0
LAYER
  5
8C
330
1
100
AcDbSymbolTableRecord
100
AcDbLayerTableRecord
  2
0-TITLE-TXT
 70
0
 62
7
  6
CONTINUOUS
370
13
390
13
347
21
  0
LAYER
  5
8D
330
1
100
AcDbSymbolTableRecord
100
AcDbLayerTableRecord
  2
A-WALL
 70
0
 62
250
  6
CONTINUOUS
370
35
390
13
347
21
  0
LAYER
  5
8E
330
1
100
AcDbSymbolTableRecord
100
AcDbLayerTableRecord
  2
A-WALL-FILL
 70
0
 62
250
  6
CONTINUOUS
370
0
390
13
347
21
  0
LAYER
  5
8F
330
1
100
AcDbSymbolTableRecord
100
AcDbLayerTableRecord
  2
A-WALL-NEW
 70
0
 62
5
  6
CONTINUOUS
370
35
390
13
347
21
  0
LAYER
  5
90
330
1
100
AcDbSymbolTableRecord
100
AcDbLayerTableRecord
  2
A-WALL-DEMO
 70
0
 62
1
  6
DASHED
370
35
390
13
347
21
  0
LAYER
  5
91
330
1
100
AcDbSymbolTableRecord
100
AcDbLayerTableRecord
  2
A-DOOR
 70
0
 62
7
  6
CONTINUOUS
370
18
390
13
347
21
  0
LAYER
  5
92
330
1
100
AcDbSymbolTableRecord
100
AcDbLayerTableRecord
  2
A-WIND
 70
0
 62
7
  6
CONTINUOUS
370
13
390
13
347
21
  0
LAYER
  5
93
330
1
100
AcDbSymbolTableRecord
100
AcDbLayerTableRecord
  2
A-STAIR
 70
0
 62
7
  6
CONTINUOUS
370
13
390
13
347
21
  0
LAYER
  5
94
330
1
100
AcDbSymbolTableRecord
100
AcDbLayerTableRecord
  2
A-DETAIL
 70
0
 62
7
  6
CONTINUOUS
370
13
390
13
347
21
  0
LAYER
  5
95
330
1
100
AcDbSymbolTableRecord
100
AcDbLayerTableRecord
  2
A-GRID
 70
0
 62
8
  6
DASHED
370
13
390
13
347
21
  0
LAYER
  5
96
330
1
100
AcDbSymbolTableRecord
100
AcDbLayerTableRecord
  2
A-GRID-TAG
 70
0
 62
7
  6
CONTINUOUS
370
18
390
13
347
21
  0
LAYER
  5
97
330
1
100
AcDbSymbolTableRecord
100
AcDbLayerTableRecord
  2
A-SITE
 70
0
 62
8
  6
CONTINUOUS
370
13
390
13
347
21
  0
LAYER
  5
98
330
1
100
AcDbSymbolTableRecord
100
AcDbLayerTableRecord
  2
I-FURN
 70
0
 62
7
  6
CONTINUOUS
370
13
390
13
347
21
  0
LAYER
  5
99
330
1
100
AcDbSymbolTableRecord
100
AcDbLayerTableRecord
  2
I-JOIN
 70
0
 62
6
  6
CONTINUOUS
370
25
390
13
347
21
  0
LAYER
  5
9A
330
1
100
AcDbSymbolTableRecord
100
AcDbLayerTableRecord
  2
I-JOIN-HIDDEN
 70
0
 62
6
  6
DASHED
370
13
390
13
347
21
  0
LAYER
  5
9B
330
1
100
AcDbSymbolTableRecord
100
AcDbLayerTableRecord
  2
I-JOIN-ELEV
 70
0
 62
7
  6
CONTINUOUS
370
25
390
13
347
21
  0
LAYER
  5
9C
330
1
100
AcDbSymbolTableRecord
100
AcDbLayerTableRecord
  2
I-JOIN-THIN
 70
0
 62
7
  6
CONTINUOUS
370
13
390
13
347
21
  0
LAYER
  5
9D
330
1
100
AcDbSymbolTableRecord
100
AcDbLayerTableRecord
  2
I-JOIN-HATCH
 70
0
 62
8
  6
CONTINUOUS
370
9
390
13
347
21
  0
LAYER
  5
9E
330
1
100
AcDbSymbolTableRecord
100
AcDbLayerTableRecord
  2
I-CEIL
 70
0
 62
7
  6
CONTINUOUS
370
18
390
13
347
21
  0
LAYER
  5
9F
330
1
100
AcDbSymbolTableRecord
100
AcDbLayerTableRecord
  2
I-CEIL-COVE
 70
0
 62
1
  6
DASHED
370
18
390
13
347
21
  0
LAYER
  5
A0
330
1
100
AcDbSymbolTableRecord
100
AcDbLayerTableRecord
  2
I-LITE
 70
0
 62
1
  6
CONTINUOUS
370
18
390
13
347
21
  0
LAYER
  5
A1
330
1
100
AcDbSymbolTableRecord
100
AcDbLayerTableRecord
  2
I-POWR
 70
0
 62
1
  6
CONTINUOUS
370
18
390
13
347
21
  0
LAYER
  5
A2
330
1
100
AcDbSymbolTableRecord
100
AcDbLayerTableRecord
  2
I-FLOR
 70
0
 62
8
  6
CONTINUOUS
370
9
390
13
347
21
  0
LAYER
  5
A3
330
1
100
AcDbSymbolTableRecord
100
AcDbLayerTableRecord
  2
I-CURT
 70
0
 62
6
  6
CONTINUOUS
370
25
390
13
347
21
  0
LAYER
  5
A4
330
1
100
AcDbSymbolTableRecord
100
AcDbLayerTableRecord
  2
I-FINISH
 70
0
 62
6
  6
CONTINUOUS
370
50
390
13
347
21
  0
LAYER
  5
A5
330
1
100
AcDbSymbolTableRecord
100
AcDbLayerTableRecord
  2
I-TAG
 70
0
 62
5
  6
CONTINUOUS
370
13
390
13
347
21
  0
LAYER
  5
A6
330
1
100
AcDbSymbolTableRecord
100
AcDbLayerTableRecord
  2
I-NOTE
 70
0
 62
1
  6
CONTINUOUS
370
13
390
13
347
21
  0
LAYER
  5
A7
330
1
100
AcDbSymbolTableRecord
100
AcDbLayerTableRecord
  2
I-DIM
 70
0
 62
5
  6
CONTINUOUS
370
13
390
13
347
21
  0
LAYER
  5
A8
330
1
100
AcDbSymbolTableRecord
100
AcDbLayerTableRecord
  2
I-TEXT
 70
0
 62
7
  6
CONTINUOUS
370
13
390
13
347
21
  0
LAYER
  5
A9
330
1
100
AcDbSymbolTableRecord
100
AcDbLayerTableRecord
  2
I-ROOM
 70
0
 62
7
  6
CONTINUOUS
370
13
390
13
347
21
  0
LAYER
  5
AA
330
1
100
AcDbSymbolTableRecord
100
AcDbLayerTableRecord
  2
I-SYMB
 70
0
 62
6
  6
CONTINUOUS
370
18
390
13
347
21
  0
LAYER
  5
AB
330
1
100
AcDbSymbolTableRecord
100
AcDbLayerTableRecord
  2
I-WATER
 70
0
 62
5
  6
CONTINUOUS
370
18
390
13
347
21
  0
ENDTAB
  0
TABLE
  2
STYLE
  5
5
330
0
100
AcDbSymbolTable
 70
27
  0
STYLE
  5
29
330
5
100
AcDbSymbolTableRecord
100
AcDbTextStyleTableRecord
  2
Standard
 70
0
 40
0.0
 41
1.0
 50
0.0
 71
0
 42
2.5
  3
arial.ttf
  4

  0
STYLE
  5
41
330
5
100
AcDbSymbolTableRecord
100
AcDbTextStyleTableRecord
  2
OpenSans-Light
 70
0
 40
0.0
 41
1.0
 50
0.0
 71
0
 42
2.5
  3
OpenSans-Light.ttf
  4

  0
STYLE
  5
42
330
5
100
AcDbSymbolTableRecord
100
AcDbTextStyleTableRecord
  2
OpenSans-Light-Italic
 70
0
 40
0.0
 41
1.0
 50
0.0
 71
0
 42
2.5
  3
OpenSans-LightItalic.ttf
  4

  0
STYLE
  5
43
330
5
100
AcDbSymbolTableRecord
100
AcDbTextStyleTableRecord
  2
OpenSans
 70
0
 40
0.0
 41
1.0
 50
0.0
 71
0
 42
2.5
  3
OpenSans-Regular.ttf
  4

  0
STYLE
  5
44
330
5
100
AcDbSymbolTableRecord
100
AcDbTextStyleTableRecord
  2
OpenSans-Italic
 70
0
 40
0.0
 41
1.0
 50
0.0
 71
0
 42
2.5
  3
OpenSans-Italic.ttf
  4

  0
STYLE
  5
45
330
5
100
AcDbSymbolTableRecord
100
AcDbTextStyleTableRecord
  2
OpenSans-SemiBold
 70
0
 40
0.0
 41
1.0
 50
0.0
 71
0
 42
2.5
  3
OpenSans-SemiBold.ttf
  4

  0
STYLE
  5
46
330
5
100
AcDbSymbolTableRecord
100
AcDbTextStyleTableRecord
  2
OpenSans-SemiBoldItalic
 70
0
 40
0.0
 41
1.0
 50
0.0
 71
0
 42
2.5
  3
OpenSans-SemiBoldItalic.ttf
  4

  0
STYLE
  5
47
330
5
100
AcDbSymbolTableRecord
100
AcDbTextStyleTableRecord
  2
OpenSans-Bold
 70
0
 40
0.0
 41
1.0
 50
0.0
 71
0
 42
2.5
  3
OpenSans-Bold.ttf
  4

  0
STYLE
  5
48
330
5
100
AcDbSymbolTableRecord
100
AcDbTextStyleTableRecord
  2
OpenSans-BoldItalic
 70
0
 40
0.0
 41
1.0
 50
0.0
 71
0
 42
2.5
  3
OpenSans-BoldItalic.ttf
  4

  0
STYLE
  5
49
330
5
100
AcDbSymbolTableRecord
100
AcDbTextStyleTableRecord
  2
OpenSans-ExtraBold
 70
0
 40
0.0
 41
1.0
 50
0.0
 71
0
 42
2.5
  3
OpenSans-ExtraBold.ttf
  4

  0
STYLE
  5
4A
330
5
100
AcDbSymbolTableRecord
100
AcDbTextStyleTableRecord
  2
OpenSans-ExtraBoldItalic
 70
0
 40
0.0
 41
1.0
 50
0.0
 71
0
 42
2.5
  3
OpenSans-ExtraBoldItalic.ttf
  4

  0
STYLE
  5
4B
330
5
100
AcDbSymbolTableRecord
100
AcDbTextStyleTableRecord
  2
OpenSansCondensed-Bold
 70
0
 40
0.0
 41
1.0
 50
0.0
 71
0
 42
2.5
  3
OpenSansCondensed-Bold.ttf
  4

  0
STYLE
  5
4C
330
5
100
AcDbSymbolTableRecord
100
AcDbTextStyleTableRecord
  2
OpenSansCondensed-Light
 70
0
 40
0.0
 41
1.0
 50
0.0
 71
0
 42
2.5
  3
OpenSansCondensed-Light.ttf
  4

  0
STYLE
  5
4D
330
5
100
AcDbSymbolTableRecord
100
AcDbTextStyleTableRecord
  2
OpenSansCondensed-Italic
 70
0
 40
0.0
 41
1.0
 50
0.0
 71
0
 42
2.5
  3
OpenSansCondensed-LightItalic.ttf
  4

  0
STYLE
  5
4E
330
5
100
AcDbSymbolTableRecord
100
AcDbTextStyleTableRecord
  2
LiberationSans
 70
0
 40
0.0
 41
1.0
 50
0.0
 71
0
 42
2.5
  3
LiberationSans-Regular.ttf
  4

  0
STYLE
  5
4F
330
5
100
AcDbSymbolTableRecord
100
AcDbTextStyleTableRecord
  2
LiberationSans-Bold
 70
0
 40
0.0
 41
1.0
 50
0.0
 71
0
 42
2.5
  3
LiberationSans-Bold.ttf
  4

  0
STYLE
  5
50
330
5
100
AcDbSymbolTableRecord
100
AcDbTextStyleTableRecord
  2
LiberationSans-BoldItalic
 70
0
 40
0.0
 41
1.0
 50
0.0
 71
0
 42
2.5
  3
LiberationSans-BoldItalic.ttf
  4

  0
STYLE
  5
51
330
5
100
AcDbSymbolTableRecord
100
AcDbTextStyleTableRecord
  2
LiberationSans-Italic
 70
0
 40
0.0
 41
1.0
 50
0.0
 71
0
 42
2.5
  3
LiberationSans-Italic.ttf
  4

  0
STYLE
  5
52
330
5
100
AcDbSymbolTableRecord
100
AcDbTextStyleTableRecord
  2
LiberationSerif
 70
0
 40
0.0
 41
1.0
 50
0.0
 71
0
 42
2.5
  3
LiberationSerif-Regular.ttf
  4

  0
STYLE
  5
53
330
5
100
AcDbSymbolTableRecord
100
AcDbTextStyleTableRecord
  2
LiberationSerif-Bold
 70
0
 40
0.0
 41
1.0
 50
0.0
 71
0
 42
2.5
  3
LiberationSerif-Bold.ttf
  4

  0
STYLE
  5
54
330
5
100
AcDbSymbolTableRecord
100
AcDbTextStyleTableRecord
  2
LiberationSerif-BoldItalic
 70
0
 40
0.0
 41
1.0
 50
0.0
 71
0
 42
2.5
  3
LiberationSerif-BoldItalic.ttf
  4

  0
STYLE
  5
55
330
5
100
AcDbSymbolTableRecord
100
AcDbTextStyleTableRecord
  2
LiberationSerif-Italic
 70
0
 40
0.0
 41
1.0
 50
0.0
 71
0
 42
2.5
  3
LiberationSerif-Italic.ttf
  4

  0
STYLE
  5
56
330
5
100
AcDbSymbolTableRecord
100
AcDbTextStyleTableRecord
  2
LiberationMono
 70
0
 40
0.0
 41
1.0
 50
0.0
 71
0
 42
2.5
  3
LiberationMono-Regular.ttf
  4

  0
STYLE
  5
57
330
5
100
AcDbSymbolTableRecord
100
AcDbTextStyleTableRecord
  2
LiberationMono-Bold
 70
0
 40
0.0
 41
1.0
 50
0.0
 71
0
 42
2.5
  3
LiberationMono-Bold.ttf
  4

  0
STYLE
  5
58
330
5
100
AcDbSymbolTableRecord
100
AcDbTextStyleTableRecord
  2
LiberationMono-BoldItalic
 70
0
 40
0.0
 41
1.0
 50
0.0
 71
0
 42
2.5
  3
LiberationMono-BoldItalic.ttf
  4

  0
STYLE
  5
59
330
5
100
AcDbSymbolTableRecord
100
AcDbTextStyleTableRecord
  2
LiberationMono-Italic
 70
0
 40
0.0
 41
1.0
 50
0.0
 71
0
 42
2.5
  3
LiberationMono-Italic.ttf
  4

  0
STYLE
  5
AC
330
5
100
AcDbSymbolTableRecord
100
AcDbTextStyleTableRecord
  2
ARIAL-N
 70
0
 40
0.0
 41
1.0
 50
0.0
 71
0
 42
2.5
  3
arialn.ttf
  4

  0
ENDTAB
  0
TABLE
  2
VIEW
  5
7
330
0
100
AcDbSymbolTable
 70
0
  0
ENDTAB
  0
TABLE
  2
UCS
  5
6
330
0
100
AcDbSymbolTable
 70
0
  0
ENDTAB
  0
TABLE
  2
APPID
  5
3
330
0
100
AcDbSymbolTable
 70
3
  0
APPID
  5
2A
330
3
100
AcDbSymbolTableRecord
100
AcDbRegAppTableRecord
  2
ACAD
 70
0
  0
APPID
  5
299
330
3
100
AcDbSymbolTableRecord
100
AcDbRegAppTableRecord
  2
HATCHBACKGROUNDCOLOR
 70
0
  0
APPID
  5
29A
330
3
100
AcDbSymbolTableRecord
100
AcDbRegAppTableRecord
  2
EZDXF
 70
0
  0
ENDTAB
  0
TABLE
  2
DIMSTYLE
  5
4
330
0
100
AcDbSymbolTable
 70
12
100
AcDbDimStyleTable
  0
DIMSTYLE
105
2B
330
4
100
AcDbSymbolTableRecord
100
AcDbDimStyleTableRecord
  2
Standard
 70
0
 40
1.0
 41
2.5
 42
0.625
 43
3.75
 44
1.25
 45
0.0
 46
0.0
 47
0.0
 48
0.0
 49
2.5
140
2.5
141
2.5
142
0.0
143
0.03937007874
144
1.0
145
0.0
146
1.0
147
0.625
148
0.0
 69
0
 70
0
 71
0
 72
0
 73
0
 74
0
 75
0
 76
0
 77
1
 78
8
 79
3
170
0
171
3
172
1
173
0
174
0
175
0
176
0
177
0
178
0
179
2
271
2
272
2
273
2
274
3
275
0
276
0
277
2
278
44
279
0
280
0
281
0
282
0
283
0
284
8
285
0
286
0
288
0
289
3
290
0
371
-2
372
-2
  0
DIMSTYLE
105
73
330
4
100
AcDbSymbolTableRecord
100
AcDbDimStyleTableRecord
  2
EZDXF
 70
0
 40
1.0
 41
0.175
 42
0.125
 43
3.75
 44
0.375
 45
0.0
 46
0.0
 47
0.0
 48
0.0
 49
2.5
140
0.25
141
2.5
142
0.0
143
0.03937007874
144
100.0
145
0.0
146
0.5
147
0.1
148
0.0
 69
0
 70
0
 71
0
 72
0
 73
0
 74
0
 75
0
 76
0
 77
1
 78
12
 79
3
170
0
171
3
172
1
173
0
174
0
175
0
176
0
177
0
178
0
179
2
271
2
272
2
273
2
274
3
275
0
276
0
277
2
278
46
279
2
280
0
281
0
282
0
283
0
284
8
285
0
286
0
288
1
289
3
290
0
340
4C
342
74
371
-2
372
-2
  0
DIMSTYLE
105
7C
330
4
100
AcDbSymbolTableRecord
100
AcDbDimStyleTableRecord
  2
EZ_M_100_H25_CM
 70
0
 40
1.0
 41
0.25
 42
0.125
 43
3.75
 44
0.375
 45
0.0
 46
0.0
 47
0.0
 48
0.0
 49
2.5
140
0.25
141
2.5
142
0.125
143
0.03937007874
144
100.0
145
0.0
146
0.5
147
0.1
148
0.0
 69
0
 70
0
 71
0
 72
0
 73
0
 74
0
 75
0
 76
0
 77
1
 78
12
 79
3
170
0
171
3
172
1
173
0
174
0
175
0
176
0
177
0
178
0
179
2
271
2
272
2
273
2
274
3
275
0
276
0
277
2
278
46
279
2
280
0
281
0
282
0
283
0
284
8
285
0
286
0
288
1
289
3
290
0
340
4C
371
-2
372
-2
  0
DIMSTYLE
105
7D
330
4
100
AcDbSymbolTableRecord
100
AcDbDimStyleTableRecord
  2
EZ_M_50_H25_CM
 70
0
 40
1.0
 41
0.125
 42
0.0625
 43
3.75
 44
0.1875
 45
0.0
 46
0.0
 47
0.0
 48
0.0
 49
2.5
140
0.125
141
2.5
142
0.0625
143
0.03937007874
144
100.0
145
0.0
146
0.5
147
0.05
148
0.0
 69
0
 70
0
 71
0
 72
0
 73
0
 74
0
 75
0
 76
0
 77
1
 78
12
 79
3
170
0
171
3
172
1
173
0
174
0
175
0
176
0
177
0
178
0
179
2
271
2
272
2
273
2
274
3
275
0
276
0
277
2
278
46
279
2
280
0
281
0
282
0
283
0
284
8
285
0
286
0
288
1
289
3
290
0
340
4C
371
-2
372
-2
  0
DIMSTYLE
105
7E
330
4
100
AcDbSymbolTableRecord
100
AcDbDimStyleTableRecord
  2
EZ_M_25_H25_CM
 70
0
 40
1.0
 41
0.0625
 42
0.03125
 43
3.75
 44
0.09375
 45
0.0
 46
0.0
 47
0.0
 48
0.0
 49
2.5
140
0.0625
141
2.5
142
0.03125
143
0.03937007874
144
100.0
145
0.0
146
0.5
147
0.025
148
0.0
 69
0
 70
0
 71
0
 72
0
 73
0
 74
0
 75
0
 76
0
 77
1
 78
12
 79
3
170
0
171
3
172
1
173
0
174
0
175
0
176
0
177
0
178
0
179
2
271
2
272
2
273
2
274
3
275
0
276
0
277
2
278
46
279
2
280
0
281
0
282
0
283
0
284
8
285
0
286
0
288
1
289
3
290
0
340
4C
371
-2
372
-2
  0
DIMSTYLE
105
7F
330
4
100
AcDbSymbolTableRecord
100
AcDbDimStyleTableRecord
  2
EZ_M_20_H25_CM
 70
0
 40
1.0
 41
0.05
 42
0.025
 43
3.75
 44
0.07500000000000001
 45
0.0
 46
0.0
 47
0.0
 48
0.0
 49
2.5
140
0.05
141
2.5
142
0.025
143
0.03937007874
144
100.0
145
0.0
146
0.5
147
0.020000000000000004
148
0.0
 69
0
 70
0
 71
0
 72
0
 73
0
 74
0
 75
0
 76
0
 77
1
 78
12
 79
3
170
0
171
3
172
1
173
0
174
0
175
0
176
0
177
0
178
0
179
2
271
2
272
2
273
2
274
3
275
0
276
0
277
2
278
46
279
2
280
0
281
0
282
0
283
0
284
8
285
0
286
0
288
1
289
3
290
0
340
4C
371
-2
372
-2
  0
DIMSTYLE
105
80
330
4
100
AcDbSymbolTableRecord
100
AcDbDimStyleTableRecord
  2
EZ_M_10_H25_CM
 70
0
 40
1.0
 41
0.025
 42
0.0125
 43
3.75
 44
0.037500000000000006
 45
0.0
 46
0.0
 47
0.0
 48
0.0
 49
2.5
140
0.025
141
2.5
142
0.0125
143
0.03937007874
144
100.0
145
0.0
146
0.5
147
0.010000000000000002
148
0.0
 69
0
 70
0
 71
0
 72
0
 73
0
 74
0
 75
0
 76
0
 77
1
 78
12
 79
3
170
0
171
3
172
1
173
0
174
0
175
0
176
0
177
0
178
0
179
2
271
2
272
2
273
2
274
3
275
0
276
0
277
2
278
46
279
2
280
0
281
0
282
0
283
0
284
8
285
0
286
0
288
1
289
3
290
0
340
4C
371
-2
372
-2
  0
DIMSTYLE
105
81
330
4
100
AcDbSymbolTableRecord
100
AcDbDimStyleTableRecord
  2
EZ_M_5_H25_CM
 70
0
 40
1.0
 41
0.0125
 42
0.00625
 43
3.75
 44
0.018750000000000003
 45
0.0
 46
0.0
 47
0.0
 48
0.0
 49
2.5
140
0.0125
141
2.5
142
0.00625
143
0.03937007874
144
100.0
145
0.0
146
0.5
147
0.005000000000000001
148
0.0
 69
0
 70
0
 71
0
 72
0
 73
0
 74
0
 75
0
 76
0
 77
1
 78
12
 79
3
170
0
171
3
172
1
173
0
174
0
175
0
176
0
177
0
178
0
179
2
271
2
272
2
273
2
274
3
275
0
276
0
277
2
278
46
279
2
280
0
281
0
282
0
283
0
284
8
285
0
286
0
288
1
289
3
290
0
340
4C
371
-2
372
-2
  0
DIMSTYLE
105
82
330
4
100
AcDbSymbolTableRecord
100
AcDbDimStyleTableRecord
  2
EZ_M_1_H25_CM
 70
0
 40
1.0
 41
0.0025
 42
0.00125
 43
3.75
 44
0.00375
 45
0.0
 46
0.0
 47
0.0
 48
0.0
 49
2.5
140
0.0025
141
2.5
142
0.00125
143
0.03937007874
144
100.0
145
0.0
146
0.5
147
0.001
148
0.0
 69
0
 70
0
 71
0
 72
0
 73
0
 74
0
 75
0
 76
0
 77
1
 78
12
 79
3
170
0
171
3
172
1
173
0
174
0
175
0
176
0
177
0
178
0
179
2
271
2
272
2
273
2
274
3
275
0
276
0
277
2
278
46
279
2
280
0
281
0
282
0
283
0
284
8
285
0
286
0
288
1
289
3
290
0
340
4C
371
-2
372
-2
  0
DIMSTYLE
105
83
330
4
100
AcDbSymbolTableRecord
100
AcDbDimStyleTableRecord
  2
EZ_RADIUS
 70
0
 40
1.0
 41
0.25
 42
0.125
 43
3.75
 44
0.375
 45
0.0
 46
0.0
 47
0.0
 48
0.0
 49
2.5
140
0.25
141
0.0
142
0.0
143
0.03937007874
144
100.0
145
0.0
146
0.5
147
0.1
148
0.0
 69
0
 70
0
 71
0
 72
0
 73
0
 74
0
 75
0
 76
0
 77
1
 78
12
 79
3
170
0
171
3
172
0
173
0
174
0
175
0
176
0
177
0
178
0
179
2
271
2
272
2
273
2
274
3
275
0
276
0
277
2
278
46
279
1
280
0
281
0
282
0
283
0
284
8
285
0
286
0
288
1
289
3
290
0
340
4C
342
84
371
-2
372
-2
  0
DIMSTYLE
105
88
330
4
100
AcDbSymbolTableRecord
100
AcDbDimStyleTableRecord
  2
EZ_RADIUS_INSIDE
 70
0
 40
1.0
 41
0.25
 42
0.125
 43
3.75
 44
0.375
 45
0.0
 46
0.0
 47
0.0
 48
0.0
 49
2.5
140
0.25
141
0.0
142
0.0
143
0.03937007874
144
100.0
145
0.0
146
0.5
147
0.1
148
0.0
 69
0
 70
0
 71
0
 72
0
 73
0
 74
0
 75
0
 76
0
 77
0
 78
12
 79
3
170
0
171
3
172
0
173
0
174
1
175
0
176
0
177
0
178
0
179
2
271
2
272
2
273
2
274
3
275
0
276
0
277
2
278
46
279
0
280
0
281
0
282
0
283
0
284
8
285
0
286
0
288
1
289
0
290
0
340
4C
342
84
371
-2
372
-2
  0
DIMSTYLE
105
89
330
4
100
AcDbSymbolTableRecord
100
AcDbDimStyleTableRecord
  2
EZ_CURVED
 70
0
 40
1.0
 41
0.25
 42
0.125
 43
3.75
 44
0.375
 45
0.0
 46
0.0
 47
0.0
 48
0.0
 49
2.5
140
0.25
141
2.5
142
0.0
143
0.03937007874
144
100.0
145
0.0
146
0.5
147
0.1
148
0.0
 69
0
 70
0
 71
0
 72
0
 73
0
 74
0
 75
0
 76
0
 77
1
 78
12
 79
2
 90
2
170
0
171
3
172
1
173
0
174
0
175
0
176
0
177
0
178
0
179
2
271
2
272
2
273
2
274
3
275
0
276
0
277
2
278
46
279
2
280
0
281
0
282
0
283
0
284
8
285
0
286
0
288
1
289
3
290
0
340
4C
371
-2
372
-2
  0
ENDTAB
  0
TABLE
  2
BLOCK_RECORD
  5
9
330
0
100
AcDbSymbolTable
 70
5
  0
BLOCK_RECORD
  5
17
330
9
100
AcDbSymbolTableRecord
100
AcDbBlockTableRecord
  2
*Model_Space
340
1A
 70
0
280
1
281
0
  0
BLOCK_RECORD
  5
1B
330
9
100
AcDbSymbolTableRecord
100
AcDbBlockTableRecord
  2
*Paper_Space
340
1E
 70
0
280
1
281
0
  0
BLOCK_RECORD
  5
74
330
9
100
AcDbSymbolTableRecord
100
AcDbBlockTableRecord
  2
_ARCHTICK
340
0
 70
0
280
1
281
0
  0
BLOCK_RECORD
  5
78
330
9
100
AcDbSymbolTableRecord
100
AcDbBlockTableRecord
  2
_CLOSEDFILLED
340
0
 70
0
280
1
281
0
  0
BLOCK_RECORD
  5
84
330
9
100
AcDbSymbolTableRecord
100
AcDbBlockTableRecord
  2
_CLOSEDBLANK
340
0
 70
0
280
1
281
0
  0
ENDTAB
  0
ENDSEC
  0
SECTION
  2
BLOCKS
  0
BLOCK
  5
18
330
17
100
AcDbEntity
  8
0
100
AcDbBlockBegin
  2
*Model_Space
 70
0
 10
0.0
 20
0.0
 30
0.0
  3
*Model_Space
  1

  0
ENDBLK
  5
19
330
17
100
AcDbEntity
  8
0
100
AcDbBlockEnd
  0
BLOCK
  5
1C
330
1B
100
AcDbEntity
  8
0
100
AcDbBlockBegin
  2
*Paper_Space
 70
0
 10
0.0
 20
0.0
 30
0.0
  3
*Paper_Space
  1

  0
ENDBLK
  5
1D
330
1B
100
AcDbEntity
  8
0
100
AcDbBlockEnd
  0
BLOCK
  5
75
330
74
100
AcDbEntity
  8
0
100
AcDbBlockBegin
  2
_ARCHTICK
 70
0
 10
0.0
 20
0.0
 30
0.0
  3
_ARCHTICK
  1

  0
LWPOLYLINE
  5
77
330
74
100
AcDbEntity
  8
0
  6
BYBLOCK
 62
0
100
AcDbPolyline
 90
2
 70
0
 43
0.15
 10
-0.5
 20
-0.5
 10
0.5
 20
0.5
  0
ENDBLK
  5
76
330
74
100
AcDbEntity
  8
0
100
AcDbBlockEnd
  0
BLOCK
  5
79
330
78
100
AcDbEntity
  8
0
100
AcDbBlockBegin
  2
_CLOSEDFILLED
 70
0
 10
0.0
 20
0.0
 30
0.0
  3
_CLOSEDFILLED
  1

  0
SOLID
  5
7B
330
78
100
AcDbEntity
  8
0
  6
BYBLOCK
 62
0
100
AcDbTrace
 10
-1.0
 20
0.16439898372402537
 30
0.0
 11
0.0
 21
0.0
 31
0.0
 12
-1.0
 22
-0.16439898372402537
 32
0.0
 13
-1.0
 23
-0.16439898372402537
 33
0.0
  0
ENDBLK
  5
7A
330
78
100
AcDbEntity
  8
0
100
AcDbBlockEnd
  0
BLOCK
  5
85
330
84
100
AcDbEntity
  8
0
100
AcDbBlockBegin
  2
_CLOSEDBLANK
 70
0
 10
0.0
 20
0.0
 30
0.0
  3
_CLOSEDBLANK
  1

  0
LWPOLYLINE
  5
87
330
84
100
AcDbEntity
  8
0
  6
BYBLOCK
 62
0
100
AcDbPolyline
 90
3
 70
1
 10
-1.0
 20
0.16439898372402537
 10
0.0
 20
0.0
 10
-1.0
 20
-0.16439898372402537
  0
ENDBLK
  5
86
330
84
100
AcDbEntity
  8
0
100
AcDbBlockEnd
  0
ENDSEC
  0
SECTION
  2
ENTITIES
  0
LWPOLYLINE
  5
AD
330
17
100
AcDbEntity
  8
0-SHEET
100
AcDbPolyline
 90
4
 70
1
 10
5.0
 20
5.0
 10
415.0
 20
5.0
 10
415.0
 20
292.0
 10
5.0
 20
292.0
  0
LINE
  5
AE
330
17
100
AcDbEntity
  8
0-TITLE
100
AcDbLine
 10
5.0
 20
31.5
 30
0.0
 11
415.0
 21
31.5
 31
0.0
  0
LINE
  5
AF
330
17
100
AcDbEntity
  8
0-TITLE
100
AcDbLine
 10
5.0
 20
12.0
 30
0.0
 11
415.0
 21
12.0
 31
0.0
  0
LINE
  5
B0
330
17
100
AcDbEntity
  8
0-TITLE
100
AcDbLine
 10
97.0
 20
12.0
 30
0.0
 11
97.0
 21
31.5
 31
0.0
  0
LINE
  5
B1
330
17
100
AcDbEntity
  8
0-TITLE
100
AcDbLine
 10
219.0
 20
12.0
 30
0.0
 11
219.0
 21
31.5
 31
0.0
  0
LINE
  5
B2
330
17
100
AcDbEntity
  8
0-TITLE
100
AcDbLine
 10
287.0
 20
12.0
 30
0.0
 11
287.0
 21
31.5
 31
0.0
  0
LINE
  5
B3
330
17
100
AcDbEntity
  8
0-TITLE
100
AcDbLine
 10
345.0
 20
12.0
 30
0.0
 11
345.0
 21
31.5
 31
0.0
  0
LINE
  5
B4
330
17
100
AcDbEntity
  8
0-TITLE
100
AcDbLine
 10
5.0
 20
18.5
 30
0.0
 11
219.0
 21
18.5
 31
0.0
  0
LINE
  5
B5
330
17
100
AcDbEntity
  8
0-TITLE
100
AcDbLine
 10
5.0
 20
25.0
 30
0.0
 11
219.0
 21
25.0
 31
0.0
  0
TEXT
  5
B6
330
17
100
AcDbEntity
  8
0-TITLE-TXT
100
AcDbText
 10
6.5
 20
28.25
 30
0.0
 40
1.9
  1
PROJECT TYPE :
 11
6.5
 21
28.25
 31
0.0
100
AcDbText
 73
2
  0
TEXT
  5
B7
330
17
100
AcDbEntity
  8
0-TITLE-TXT
100
AcDbText
 10
95.5
 20
28.25
 30
0.0
 40
1.9
  1
DESIGN & BUILD
 72
2
 11
95.5
 21
28.25
 31
0.0
100
AcDbText
 73
2
  0
TEXT
  5
B8
330
17
100
AcDbEntity
  8
0-TITLE-TXT
100
AcDbText
 10
6.5
 20
21.75
 30
0.0
 40
1.9
  1
PROJECT :
 11
6.5
 21
21.75
 31
0.0
100
AcDbText
 73
2
  0
TEXT
  5
B9
330
17
100
AcDbEntity
  8
0-TITLE-TXT
100
AcDbText
 10
95.5
 20
21.75
 30
0.0
 40
1.9
  1
HANA RESIDENCE, TROPICANA AMAN
 72
2
 11
95.5
 21
21.75
 31
0.0
100
AcDbText
 73
2
  0
TEXT
  5
BA
330
17
100
AcDbEntity
  8
0-TITLE-TXT
100
AcDbText
 10
6.5
 20
15.25
 30
0.0
 40
1.9
  1
CLIENT :
 11
6.5
 21
15.25
 31
0.0
100
AcDbText
 73
2
  0
TEXT
  5
BB
330
17
100
AcDbEntity
  8
0-TITLE-TXT
100
AcDbText
 10
95.5
 20
15.25
 30
0.0
 40
1.9
  1
MS SHEON & MR TEE
 72
2
 11
95.5
 21
15.25
 31
0.0
100
AcDbText
 73
2
  0
LINE
  5
BC
330
17
100
AcDbEntity
  8
0-TITLE
100
AcDbLine
 10
158.0
 20
18.5
 30
0.0
 11
158.0
 21
25.0
 31
0.0
  0
TEXT
  5
BD
330
17
100
AcDbEntity
  8
0-TITLE-TXT
100
AcDbText
 10
98.5
 20
28.25
 30
0.0
 40
1.9
  1
DRAWING TITLE :
 11
98.5
 21
28.25
 31
0.0
100
AcDbText
 73
2
  0
TEXT
  5
BE
330
17
100
AcDbEntity
  8
0-TITLE-TXT
100
AcDbText
 10
217.5
 20
28.25
 30
0.0
 40
1.9
  1
WET KITCHEN SINK WALL BASE CABINET ELEVATION
 72
2
 11
217.5
 21
28.25
 31
0.0
100
AcDbText
 73
2
  0
TEXT
  5
BF
330
17
100
AcDbEntity
  8
0-TITLE-TXT
100
AcDbText
 10
98.5
 20
21.75
 30
0.0
 40
1.9
  1
INTERIOR DESIGNER :
 11
98.5
 21
21.75
 31
0.0
100
AcDbText
 73
2
  0
TEXT
  5
C0
330
17
100
AcDbEntity
  8
0-TITLE-TXT
100
AcDbText
 10
156.5
 20
21.75
 30
0.0
 40
1.9
  1
YANXIANG & YS
 72
2
 11
156.5
 21
21.75
 31
0.0
100
AcDbText
 73
2
  0
TEXT
  5
C1
330
17
100
AcDbEntity
  8
0-TITLE-TXT
100
AcDbText
 10
159.5
 20
21.75
 30
0.0
 40
1.9
  1
SALE PERSON :
 11
159.5
 21
21.75
 31
0.0
100
AcDbText
 73
2
  0
TEXT
  5
C2
330
17
100
AcDbEntity
  8
0-TITLE-TXT
100
AcDbText
 10
217.5
 20
21.75
 30
0.0
 40
1.9
  1
RAYMOND
 72
2
 11
217.5
 21
21.75
 31
0.0
100
AcDbText
 73
2
  0
TEXT
  5
C3
330
17
100
AcDbEntity
  8
0-TITLE-TXT
100
AcDbText
 10
98.5
 20
15.25
 30
0.0
 40
1.9
  1
CHECK BY :
 11
98.5
 21
15.25
 31
0.0
100
AcDbText
 73
2
  0
TEXT
  5
C4
330
17
100
AcDbEntity
  8
0-TITLE-TXT
100
AcDbText
 10
156.5
 20
15.25
 30
0.0
 40
1.9
  1
RAYMOND
 72
2
 11
156.5
 21
15.25
 31
0.0
100
AcDbText
 73
2
  0
TEXT
  5
C5
330
17
100
AcDbEntity
  8
0-TITLE-TXT
100
AcDbText
 10
217.5
 20
15.25
 30
0.0
 40
1.9
  1
ID.02.08
 72
2
 11
217.5
 21
15.25
 31
0.0
100
AcDbText
 73
2
  0
TEXT
  5
C6
330
17
100
AcDbEntity
  8
0-TITLE-TXT
100
AcDbText
 10
220.2
 20
29.9
 30
0.0
 40
1.8
  1
DRAWING'S STATUS :
 11
220.2
 21
29.9
 31
0.0
100
AcDbText
 73
2
  0
LINE
  5
C7
330
17
100
AcDbEntity
  8
0-TITLE
100
AcDbLine
 10
219.0
 20
28.3
 30
0.0
 11
287.0
 21
28.3
 31
0.0
  0
LINE
  5
C8
330
17
100
AcDbEntity
  8
0-TITLE
100
AcDbLine
 10
255.0
 20
12.0
 30
0.0
 11
255.0
 21
28.3
 31
0.0
  0
TEXT
  5
C9
330
17
100
AcDbEntity
  8
0-TITLE-TXT
100
AcDbText
 10
220.2
 20
26.67
 30
0.0
 40
1.45
  1
1ST DRAFT (R0)
 11
220.2
 21
26.67
 31
0.0
100
AcDbText
 73
2
  0
TEXT
  5
CA
330
17
100
AcDbEntity
  8
0-TITLE-TXT
100
AcDbText
 10
256.2
 20
26.67
 30
0.0
 40
1.45
  1
09 OCT' 26
 11
256.2
 21
26.67
 31
0.0
100
AcDbText
 73
2
  0
TEXT
  5
CB
330
17
100
AcDbEntity
  8
0-TITLE-TXT
100
AcDbText
 10
220.2
 20
23.41
 30
0.0
 40
1.45
  1
AMENDMENT 01
 11
220.2
 21
23.41
 31
0.0
100
AcDbText
 73
2
  0
TEXT
  5
CC
330
17
100
AcDbEntity
  8
0-TITLE-TXT
100
AcDbText
 10
256.2
 20
23.41
 30
0.0
 40
1.45
  1

 11
256.2
 21
23.41
 31
0.0
100
AcDbText
 73
2
  0
LINE
  5
CD
330
17
100
AcDbEntity
  8
0-TITLE
100
AcDbLine
 10
219.0
 20
25.04
 30
0.0
 11
287.0
 21
25.04
 31
0.0
  0
TEXT
  5
CE
330
17
100
AcDbEntity
  8
0-TITLE-TXT
100
AcDbText
 10
220.2
 20
20.15
 30
0.0
 40
1.45
  1
AMENDMENT 02
 11
220.2
 21
20.15
 31
0.0
100
AcDbText
 73
2
  0
TEXT
  5
CF
330
17
100
AcDbEntity
  8
0-TITLE-TXT
100
AcDbText
 10
256.2
 20
20.15
 30
0.0
 40
1.45
  1

 11
256.2
 21
20.15
 31
0.0
100
AcDbText
 73
2
  0
LINE
  5
D0
330
17
100
AcDbEntity
  8
0-TITLE
100
AcDbLine
 10
219.0
 20
21.78
 30
0.0
 11
287.0
 21
21.78
 31
0.0
  0
TEXT
  5
D1
330
17
100
AcDbEntity
  8
0-TITLE-TXT
100
AcDbText
 10
220.2
 20
16.89
 30
0.0
 40
1.45
  1
AMENDMENT 03
 11
220.2
 21
16.89
 31
0.0
100
AcDbText
 73
2
  0
TEXT
  5
D2
330
17
100
AcDbEntity
  8
0-TITLE-TXT
100
AcDbText
 10
256.2
 20
16.89
 30
0.0
 40
1.45
  1

 11
256.2
 21
16.89
 31
0.0
100
AcDbText
 73
2
  0
LINE
  5
D3
330
17
100
AcDbEntity
  8
0-TITLE
100
AcDbLine
 10
219.0
 20
18.52
 30
0.0
 11
287.0
 21
18.52
 31
0.0
  0
TEXT
  5
D4
330
17
100
AcDbEntity
  8
0-TITLE-TXT
100
AcDbText
 10
220.2
 20
13.629999999999999
 30
0.0
 40
1.45
  1
AMENDMENT 04
 11
220.2
 21
13.629999999999999
 31
0.0
100
AcDbText
 73
2
  0
TEXT
  5
D5
330
17
100
AcDbEntity
  8
0-TITLE-TXT
100
AcDbText
 10
256.2
 20
13.629999999999999
 30
0.0
 40
1.45
  1

 11
256.2
 21
13.629999999999999
 31
0.0
100
AcDbText
 73
2
  0
LINE
  5
D6
330
17
100
AcDbEntity
  8
0-TITLE
100
AcDbLine
 10
219.0
 20
15.26
 30
0.0
 11
287.0
 21
15.26
 31
0.0
  0
TEXT
  5
D7
330
17
100
AcDbEntity
  8
0-TITLE-TXT
100
AcDbText
 10
288.2
 20
29.9
 30
0.0
 40
1.4
  1
ALL DRAWINGS ARE COPY-RIGHT OF:
 11
288.2
 21
29.9
 31
0.0
100
AcDbText
 73
2
  0
TEXT
  5
D8
330
17
100
AcDbEntity
  8
0-TITLE-TXT
100
AcDbText
 10
289.0
 20
18.0
 30
0.0
 40
5.6
  1
groo
 11
289.0
 21
18.0
 31
0.0
100
AcDbText
  0
TEXT
  5
D9
330
17
100
AcDbEntity
  8
0-TITLE-TXT
100
AcDbText
 10
293.0
 20
14.6
 30
0.0
 40
1.8
  1
space
 11
293.0
 21
14.6
 31
0.0
100
AcDbText
  0
TEXT
  5
DA
330
17
100
AcDbEntity
  8
0-TITLE-TXT
100
AcDbText
 10
309.5
 20
26.9
 30
0.0
 40
1.12
  1
GROO SPACE SDN BHD (1662567-V)
 11
309.5
 21
26.9
 31
0.0
100
AcDbText
 73
2
  0
TEXT
  5
DB
330
17
100
AcDbEntity
  8
0-TITLE-TXT
100
AcDbText
 10
309.5
 20
24.299999999999997
 30
0.0
 40
1.12
  1
LEVEL 3A, WISMA JAG, JALAN DESA UTAMA,
 11
309.5
 21
24.299999999999997
 31
0.0
100
AcDbText
 73
2
  0
TEXT
  5
DC
330
17
100
AcDbEntity
  8
0-TITLE-TXT
100
AcDbText
 10
309.5
 20
21.7
 30
0.0
 40
1.12
  1
TAMAN DESA, 58100 KUALA LUMPUR
 11
309.5
 21
21.7
 31
0.0
100
AcDbText
 73
2
  0
TEXT
  5
DD
330
17
100
AcDbEntity
  8
0-TITLE-TXT
100
AcDbText
 10
309.5
 20
19.099999999999998
 30
0.0
 40
1.12
  1
T: +6016-913 6785 / +6012-528 7212
 11
309.5
 21
19.099999999999998
 31
0.0
100
AcDbText
 73
2
  0
TEXT
  5
DE
330
17
100
AcDbEntity
  8
0-TITLE-TXT
100
AcDbText
 10
309.5
 20
16.5
 30
0.0
 40
1.12
  1
E: groospacemy@gmail.com  IG: @groospace.my
 11
309.5
 21
16.5
 31
0.0
100
AcDbText
 73
2
  0
TEXT
  5
DF
330
17
100
AcDbEntity
  8
0-TITLE-TXT
100
AcDbText
 10
346.2
 20
29.9
 30
0.0
 40
1.8
  1
CLIENTS ACKNOWLEDGE & SIGN :
 11
346.2
 21
29.9
 31
0.0
100
AcDbText
 73
2
  0
TEXT
  5
E0
330
17
100
AcDbEntity
  8
0-TITLE-TXT
100
AcDbText
 10
6.5
 20
9.7
 30
0.0
 40
1.55
  1
"NOTICE TO CONTRACTOR: DO NOT SCALE DRAWINGS. All dimensions and site levels must be Verified In Field (V.I.F.) before any fabrication or commencement of work.
 11
6.5
 21
9.7
 31
0.0
100
AcDbText
 73
2
  0
TEXT
  5
E1
330
17
100
AcDbEntity
  8
0-TITLE-TXT
100
AcDbText
 10
6.5
 20
7.1
 30
0.0
 40
1.55
  1
Any discrepancies between these drawings and actual site conditions must be reported to the Designer immediately for clarification. Failure to do so will be at the Contractor's own risk."
 11
6.5
 21
7.1
 31
0.0
100
AcDbText
 73
2
  0
LWPOLYLINE
  5
E2
330
17
100
AcDbEntity
  8
A-WALL
100
AcDbPolyline
 90
4
 70
1
 10
18.0
 20
74.0
 10
21.75
 20
74.0
 10
21.75
 20
158.5
 10
18.0
 20
158.5
  0
HATCH
  5
E3
330
17
100
AcDbEntity
  8
I-JOIN-HATCH
 62
7
100
AcDbHatch
 10
0.0
 20
0.0
 30
0.0
210
0.0
220
0.0
230
1.0
  2
ANSI31
 70
0
 71
0
 91
1
 92
3
 72
0
 73
1
 93
4
 10
18.0
 20
74.0
 10
21.75
 20
74.0
 10
21.75
 20
158.5
 10
18.0
 20
158.5
 97
0
 75
1
 76
1
 52
0.0
 41
2.1333333333333333
 77
0
 78
1
 53
45.0
 43
0.0
 44
0.0
 45
-4.7894699313
 46
4.7894699313
 79
0
 98
0
  0
LWPOLYLINE
  5
E4
330
17
100
AcDbEntity
  8
A-WALL
100
AcDbPolyline
 90
4
 70
1
 10
124.5
 20
74.0
 10
128.25
 20
74.0
 10
128.25
 20
158.5
 10
124.5
 20
158.5
  0
HATCH
  5
E5
330
17
100
AcDbEntity
  8
I-JOIN-HATCH
 62
7
100
AcDbHatch
 10
0.0
 20
0.0
 30
0.0
210
0.0
220
0.0
230
1.0
  2
ANSI31
 70
0
 71
0
 91
1
 92
3
 72
0
 73
1
 93
4
 10
124.5
 20
74.0
 10
128.25
 20
74.0
 10
128.25
 20
158.5
 10
124.5
 20
158.5
 97
0
 75
1
 76
1
 52
0.0
 41
2.1333333333333333
 77
0
 78
1
 53
45.0
 43
0.0
 44
0.0
 45
-4.7894699313
 46
4.7894699313
 79
0
 98
0
  0
LINE
  5
E6
330
17
100
AcDbEntity
  8
A-WALL
100
AcDbLine
 10
10.5
 20
75.5
 30
0.0
 11
135.75
 21
75.5
 31
0.0
  0
LINE
  5
E7
330
17
100
AcDbEntity
  8
I-CEIL
100
AcDbLine
 10
10.5
 20
155.5
 30
0.0
 11
135.75
 21
155.5
 31
0.0
  0
LWPOLYLINE
  5
E8
330
17
100
AcDbEntity
  8
I-NOTE
 62
1
100
AcDbPolyline
 90
3
 70
1
 10
145.75
 20
155.5
 10
144.55
 20
157.18
 10
146.95
 20
157.18
  0
TEXT
  5
E9
330
17
100
AcDbEntity
  8
I-TEXT
100
AcDbText
 10
143.75
 20
155.7
 30
0.0
 40
1.6
  1
CL 3200
 72
2
 11
143.75
 21
155.7
 31
0.0
100
AcDbText
 73
1
  0
LWPOLYLINE
  5
EA
330
17
100
AcDbEntity
  8
I-NOTE
 62
1
100
AcDbPolyline
 90
3
 70
1
 10
145.75
 20
75.5
 10
144.55
 20
77.18
 10
146.95
 20
77.18
  0
TEXT
  5
EB
330
17
100
AcDbEntity
  8
I-TEXT
100
AcDbText
 10
143.75
 20
75.7
 30
0.0
 40
1.6
  1
FFL 000
 72
2
 11
143.75
 21
75.7
 31
0.0
100
AcDbText
 73
1
  0
LWPOLYLINE
  5
EC
330
17
100
AcDbEntity
  8
I-JOIN-THIN
100
AcDbPolyline
 90
4
 70
1
 10
21.75
 20
75.5
 10
124.5
 20
75.5
 10
124.5
 20
78.0
 10
21.75
 20
78.0
  0
LWPOLYLINE
  5
ED
330
17
100
AcDbEntity
  8
I-JOIN-THIN
100
AcDbPolyline
 90
4
 70
1
 10
21.75
 20
155.0
 10
124.5
 20
155.0
 10
124.5
 20
155.5
 10
21.75
 20
155.5
  0
LWPOLYLINE
  5
EE
330
17
100
AcDbEntity
  8
I-JOIN-ELEV
100
AcDbPolyline
 90
4
 70
1
 10
21.75
 20
78.0
 10
44.25
 20
78.0
 10
44.25
 20
97.0
 10
21.75
 20
97.0
  0
LWPOLYLINE
  5
EF
330
17
100
AcDbEntity
  8
I-JOIN-HIDDEN
100
AcDbPolyline
 90
3
 70
0
 10
33.0
 20
78.0
 10
21.75
 20
87.5
 10
33.0
 20
97.0
  0
LINE
  5
F0
330
17
100
AcDbEntity
  8
I-JOIN-ELEV
100
AcDbLine
 10
33.0
 20
78.0
 30
0.0
 11
33.0
 21
97.0
 31
0.0
  0
LWPOLYLINE
  5
F1
330
17
100
AcDbEntity
  8
I-JOIN-HIDDEN
100
AcDbPolyline
 90
3
 70
0
 10
33.0
 20
78.0
 10
44.25
 20
87.5
 10
33.0
 20
97.0
  0
LWPOLYLINE
  5
F2
330
17
100
AcDbEntity
  8
I-JOIN-ELEV
100
AcDbPolyline
 90
4
 70
1
 10
21.5
 20
97.0
 10
44.5
 20
97.0
 10
44.5
 20
98.0
 10
21.5
 20
98.0
  0
HATCH
  5
F3
330
17
100
AcDbEntity
  8
I-JOIN-HATCH
 62
7
100
AcDbHatch
 10
0.0
 20
0.0
 30
0.0
210
0.0
220
0.0
230
1.0
  2
BRICK
 70
0
 71
0
 91
1
 92
3
 72
0
 73
1
 93
4
 10
21.75
 20
98.0
 10
44.25
 20
98.0
 10
44.25
 20
115.5
 10
21.75
 20
115.5
 97
0
 75
1
 76
1
 52
0.0
 41
0.8
 77
0
 78
3
 53
0.0
 43
0.0
 44
0.0
 45
0.0
 46
5.08
 79
0
 53
90.0
 43
0.0
 44
0.0
 45
-10.16
 46
0.0
 79
2
 49
5.08
 49
-5.08
 53
90.0
 43
5.08
 44
0.0
 45
-10.16
 46
0.0
 79
2
 49
-5.08
 49
5.08
 98
0
  0
TEXT
  5
F4
330
17
100
AcDbEntity
  8
I-TEXT
100
AcDbText
 10
33.0
 20
106.75
 30
0.0
 40
1.6
  1
BACKSPLASH T05
 72
1
 11
33.0
 21
106.75
 31
0.0
100
AcDbText
 73
2
  0
LWPOLYLINE
  5
F5
330
17
100
AcDbEntity
  8
I-JOIN-ELEV
100
AcDbPolyline
 90
4
 70
1
 10
21.75
 20
115.5
 10
44.25
 20
115.5
 10
44.25
 20
133.0
 10
21.75
 20
133.0
  0
LWPOLYLINE
  5
F6
330
17
100
AcDbEntity
  8
I-JOIN-HIDDEN
100
AcDbPolyline
 90
3
 70
0
 10
21.75
 20
115.5
 10
33.0
 20
133.0
 10
44.25
 20
115.5
  0
LWPOLYLINE
  5
F7
330
17
100
AcDbEntity
  8
I-JOIN-ELEV
100
AcDbPolyline
 90
4
 70
1
 10
21.75
 20
133.0
 10
44.25
 20
133.0
 10
44.25
 20
155.0
 10
21.75
 20
155.0
  0
LWPOLYLINE
  5
F8
330
17
100
AcDbEntity
  8
I-JOIN-ELEV
100
AcDbPolyline
 90
4
 70
1
 10
44.25
 20
78.0
 10
59.25
 20
78.0
 10
59.25
 20
97.0
 10
44.25
 20
97.0
  0
LWPOLYLINE
  5
F9
330
17
100
AcDbEntity
  8
I-JOIN-THIN
100
AcDbPolyline
 90
4
 70
1
 10
44.75
 20
78.5
 10
58.75
 20
78.5
 10
58.75
 20
96.5
 10
44.75
 20
96.5
  0
TEXT
  5
FA
330
17
100
AcDbEntity
  8
I-TEXT
100
AcDbText
 10
51.75
 20
87.5
 30
0.0
 40
1.5
  1
DISHWASHER
 72
1
 11
51.75
 21
87.5
 31
0.0
100
AcDbText
 73
2
  0
TEXT
  5
FB
330
17
100
AcDbEntity
  8
I-TEXT
100
AcDbText
 10
51.75
 20
83.5
 30
0.0
 40
1.2
  1
(BY OWNER)
 72
1
 11
51.75
 21
83.5
 31
0.0
100
AcDbText
 73
2
  0
LWPOLYLINE
  5
FC
330
17
100
AcDbEntity
  8
I-JOIN-ELEV
100
AcDbPolyline
 90
4
 70
1
 10
44.0
 20
97.0
 10
59.5
 20
97.0
 10
59.5
 20
98.0
 10
44.0
 20
98.0
  0
HATCH
  5
FD
330
17
100
AcDbEntity
  8
I-JOIN-HATCH
 62
7
100
AcDbHatch
 10
0.0
 20
0.0
 30
0.0
210
0.0
220
0.0
230
1.0
  2
BRICK
 70
0
 71
0
 91
1
 92
3
 72
0
 73
1
 93
4
 10
44.25
 20
98.0
 10
59.25
 20
98.0
 10
59.25
 20
115.5
 10
44.25
 20
115.5
 97
0
 75
1
 76
1
 52
0.0
 41
0.8
 77
0
 78
3
 53
0.0
 43
0.0
 44
0.0
 45
0.0
 46
5.08
 79
0
 53
90.0
 43
0.0
 44
0.0
 45
-10.16
 46
0.0
 79
2
 49
5.08
 49
-5.08
 53
90.0
 43
5.08
 44
0.0
 45
-10.16
 46
0.0
 79
2
 49
-5.08
 49
5.08
 98
0
  0
TEXT
  5
FE
330
17
100
AcDbEntity
  8
I-TEXT
100
AcDbText
 10
51.75
 20
106.75
 30
0.0
 40
1.6
  1
BACKSPLASH T05
 72
1
 11
51.75
 21
106.75
 31
0.0
100
AcDbText
 73
2
  0
LWPOLYLINE
  5
FF
330
17
100
AcDbEntity
  8
I-JOIN-ELEV
100
AcDbPolyline
 90
4
 70
1
 10
44.25
 20
115.5
 10
59.25
 20
115.5
 10
59.25
 20
133.0
 10
44.25
 20
133.0
  0
LWPOLYLINE
  5
100
330
17
100
AcDbEntity
  8
I-JOIN-HIDDEN
100
AcDbPolyline
 90
3
 70
0
 10
44.25
 20
115.5
 10
51.75
 20
133.0
 10
59.25
 20
115.5
  0
LWPOLYLINE
  5
101
330
17
100
AcDbEntity
  8
I-JOIN-ELEV
100
AcDbPolyline
 90
4
 70
1
 10
44.25
 20
133.0
 10
59.25
 20
133.0
 10
59.25
 20
155.0
 10
44.25
 20
155.0
  0
LWPOLYLINE
  5
102
330
17
100
AcDbEntity
  8
I-JOIN-ELEV
100
AcDbPolyline
 90
4
 70
1
 10
59.25
 20
78.0
 10
84.25
 20
78.0
 10
84.25
 20
97.0
 10
59.25
 20
97.0
  0
LWPOLYLINE
  5
103
330
17
100
AcDbEntity
  8
I-JOIN-HIDDEN
100
AcDbPolyline
 90
3
 70
0
 10
71.75
 20
78.0
 10
59.25
 20
87.5
 10
71.75
 20
97.0
  0
LINE
  5
104
330
17
100
AcDbEntity
  8
I-JOIN-ELEV
100
AcDbLine
 10
71.75
 20
78.0
 30
0.0
 11
71.75
 21
97.0
 31
0.0
  0
LWPOLYLINE
  5
105
330
17
100
AcDbEntity
  8
I-JOIN-HIDDEN
100
AcDbPolyline
 90
3
 70
0
 10
71.75
 20
78.0
 10
84.25
 20
87.5
 10
71.75
 20
97.0
  0
TEXT
  5
106
330
17
100
AcDbEntity
  8
I-TEXT
100
AcDbText
 10
71.75
 20
80.25
 30
0.0
 40
1.3
  1
SINK
 72
1
 11
71.75
 21
80.25
 31
0.0
100
AcDbText
 73
2
  0
LWPOLYLINE
  5
107
330
17
100
AcDbEntity
  8
I-JOIN-ELEV
100
AcDbPolyline
 90
4
 70
1
 10
59.0
 20
97.0
 10
84.5
 20
97.0
 10
84.5
 20
98.0
 10
59.0
 20
98.0
  0
HATCH
  5
108
330
17
100
AcDbEntity
  8
I-JOIN-HATCH
 62
7
100
AcDbHatch
 10
0.0
 20
0.0
 30
0.0
210
0.0
220
0.0
230
1.0
  2
BRICK
 70
0
 71
0
 91
1
 92
3
 72
0
 73
1
 93
4
 10
59.25
 20
98.0
 10
84.25
 20
98.0
 10
84.25
 20
115.5
 10
59.25
 20
115.5
 97
0
 75
1
 76
1
 52
0.0
 41
0.8
 77
0
 78
3
 53
0.0
 43
0.0
 44
0.0
 45
0.0
 46
5.08
 79
0
 53
90.0
 43
0.0
 44
0.0
 45
-10.16
 46
0.0
 79
2
 49
5.08
 49
-5.08
 53
90.0
 43
5.08
 44
0.0
 45
-10.16
 46
0.0
 79
2
 49
-5.08
 49
5.08
 98
0
  0
TEXT
  5
109
330
17
100
AcDbEntity
  8
I-TEXT
100
AcDbText
 10
71.75
 20
106.75
 30
0.0
 40
1.6
  1
WINDOW (EXISTING)
 72
1
 11
71.75
 21
106.75
 31
0.0
100
AcDbText
 73
2
  0
LWPOLYLINE
  5
10A
330
17
100
AcDbEntity
  8
I-JOIN-ELEV
100
AcDbPolyline
 90
4
 70
1
 10
59.25
 20
115.5
 10
84.25
 20
115.5
 10
84.25
 20
133.0
 10
59.25
 20
133.0
  0
LWPOLYLINE
  5
10B
330
17
100
AcDbEntity
  8
I-JOIN-HIDDEN
100
AcDbPolyline
 90
3
 70
0
 10
59.25
 20
115.5
 10
71.75
 20
133.0
 10
84.25
 20
115.5
  0
LWPOLYLINE
  5
10C
330
17
100
AcDbEntity
  8
I-JOIN-ELEV
100
AcDbPolyline
 90
4
 70
1
 10
59.25
 20
133.0
 10
84.25
 20
133.0
 10
84.25
 20
155.0
 10
59.25
 20
155.0
  0
LWPOLYLINE
  5
10D
330
17
100
AcDbEntity
  8
I-JOIN-ELEV
100
AcDbPolyline
 90
4
 70
1
 10
84.25
 20
78.0
 10
104.25
 20
78.0
 10
104.25
 20
83.5
 10
84.25
 20
83.5
  0
LINE
  5
10E
330
17
100
AcDbEntity
  8
I-JOIN-THIN
100
AcDbLine
 10
90.25
 20
82.625
 30
0.0
 11
98.25
 21
82.625
 31
0.0
  0
TEXT
  5
10F
330
17
100
AcDbEntity
  8
I-TEXT
100
AcDbText
 10
94.25
 20
80.75
 30
0.0
 40
1.4
  1
DRAWER
 72
1
 11
94.25
 21
80.75
 31
0.0
100
AcDbText
 73
2
  0
LWPOLYLINE
  5
110
330
17
100
AcDbEntity
  8
I-JOIN-ELEV
100
AcDbPolyline
 90
4
 70
1
 10
84.25
 20
83.5
 10
104.25
 20
83.5
 10
104.25
 20
89.75
 10
84.25
 20
89.75
  0
LINE
  5
111
330
17
100
AcDbEntity
  8
I-JOIN-THIN
100
AcDbLine
 10
90.25
 20
88.875
 30
0.0
 11
98.25
 21
88.875
 31
0.0
  0
TEXT
  5
112
330
17
100
AcDbEntity
  8
I-TEXT
100
AcDbText
 10
94.25
 20
86.625
 30
0.0
 40
1.4
  1
DRAWER
 72
1
 11
94.25
 21
86.625
 31
0.0
100
AcDbText
 73
2
  0
LWPOLYLINE
  5
113
330
17
100
AcDbEntity
  8
I-JOIN-ELEV
100
AcDbPolyline
 90
4
 70
1
 10
84.25
 20
89.75
 10
104.25
 20
89.75
 10
104.25
 20
97.0
 10
84.25
 20
97.0
  0
LINE
  5
114
330
17
100
AcDbEntity
  8
I-JOIN-THIN
100
AcDbLine
 10
90.25
 20
96.125
 30
0.0
 11
98.25
 21
96.125
 31
0.0
  0
TEXT
  5
115
330
17
100
AcDbEntity
  8
I-TEXT
100
AcDbText
 10
94.25
 20
93.375
 30
0.0
 40
1.4
  1
DRAWER
 72
1
 11
94.25
 21
93.375
 31
0.0
100
AcDbText
 73
2
  0
LWPOLYLINE
  5
116
330
17
100
AcDbEntity
  8
I-JOIN-ELEV
100
AcDbPolyline
 90
4
 70
1
 10
84.0
 20
97.0
 10
104.5
 20
97.0
 10
104.5
 20
98.0
 10
84.0
 20
98.0
  0
HATCH
  5
117
330
17
100
AcDbEntity
  8
I-JOIN-HATCH
 62
7
100
AcDbHatch
 10
0.0
 20
0.0
 30
0.0
210
0.0
220
0.0
230
1.0
  2
BRICK
 70
0
 71
0
 91
1
 92
3
 72
0
 73
1
 93
4
 10
84.25
 20
98.0
 10
104.25
 20
98.0
 10
104.25
 20
115.5
 10
84.25
 20
115.5
 97
0
 75
1
 76
1
 52
0.0
 41
0.8
 77
0
 78
3
 53
0.0
 43
0.0
 44
0.0
 45
0.0
 46
5.08
 79
0
 53
90.0
 43
0.0
 44
0.0
 45
-10.16
 46
0.0
 79
2
 49
5.08
 49
-5.08
 53
90.0
 43
5.08
 44
0.0
 45
-10.16
 46
0.0
 79
2
 49
-5.08
 49
5.08
 98
0
  0
TEXT
  5
118
330
17
100
AcDbEntity
  8
I-TEXT
100
AcDbText
 10
94.25
 20
106.75
 30
0.0
 40
1.6
  1
WINDOW (EXISTING)
 72
1
 11
94.25
 21
106.75
 31
0.0
100
AcDbText
 73
2
  0
LWPOLYLINE
  5
119
330
17
100
AcDbEntity
  8
I-JOIN-ELEV
100
AcDbPolyline
 90
4
 70
1
 10
84.25
 20
115.5
 10
104.25
 20
115.5
 10
104.25
 20
133.0
 10
84.25
 20
133.0
  0
LWPOLYLINE
  5
11A
330
17
100
AcDbEntity
  8
I-JOIN-HIDDEN
100
AcDbPolyline
 90
3
 70
0
 10
84.25
 20
115.5
 10
94.25
 20
133.0
 10
104.25
 20
115.5
  0
LWPOLYLINE
  5
11B
330
17
100
AcDbEntity
  8
I-JOIN-ELEV
100
AcDbPolyline
 90
4
 70
1
 10
84.25
 20
133.0
 10
104.25
 20
133.0
 10
104.25
 20
155.0
 10
84.25
 20
155.0
  0
LWPOLYLINE
  5
11C
330
17
100
AcDbEntity
  8
I-JOIN-ELEV
100
AcDbPolyline
 90
4
 70
1
 10
104.25
 20
78.0
 10
124.5
 20
78.0
 10
124.5
 20
97.0
 10
104.25
 20
97.0
  0
LWPOLYLINE
  5
11D
330
17
100
AcDbEntity
  8
I-JOIN-HIDDEN
100
AcDbPolyline
 90
3
 70
0
 10
114.375
 20
78.0
 10
104.25
 20
87.5
 10
114.375
 20
97.0
  0
LINE
  5
11E
330
17
100
AcDbEntity
  8
I-JOIN-ELEV
100
AcDbLine
 10
114.375
 20
78.0
 30
0.0
 11
114.375
 21
97.0
 31
0.0
  0
LWPOLYLINE
  5
11F
330
17
100
AcDbEntity
  8
I-JOIN-HIDDEN
100
AcDbPolyline
 90
3
 70
0
 10
114.375
 20
78.0
 10
124.5
 20
87.5
 10
114.375
 20
97.0
  0
LWPOLYLINE
  5
120
330
17
100
AcDbEntity
  8
I-JOIN-ELEV
100
AcDbPolyline
 90
4
 70
1
 10
104.0
 20
97.0
 10
124.75
 20
97.0
 10
124.75
 20
98.0
 10
104.0
 20
98.0
  0
HATCH
  5
121
330
17
100
AcDbEntity
  8
I-JOIN-HATCH
 62
7
100
AcDbHatch
 10
0.0
 20
0.0
 30
0.0
210
0.0
220
0.0
230
1.0
  2
BRICK
 70
0
 71
0
 91
1
 92
3
 72
0
 73
1
 93
4
 10
104.25
 20
98.0
 10
124.5
 20
98.0
 10
124.5
 20
115.5
 10
104.25
 20
115.5
 97
0
 75
1
 76
1
 52
0.0
 41
0.8
 77
0
 78
3
 53
0.0
 43
0.0
 44
0.0
 45
0.0
 46
5.08
 79
0
 53
90.0
 43
0.0
 44
0.0
 45
-10.16
 46
0.0
 79
2
 49
5.08
 49
-5.08
 53
90.0
 43
5.08
 44
0.0
 45
-10.16
 46
0.0
 79
2
 49
-5.08
 49
5.08
 98
0
  0
TEXT
  5
122
330
17
100
AcDbEntity
  8
I-TEXT
100
AcDbText
 10
114.375
 20
106.75
 30
0.0
 40
1.6
  1
BACKSPLASH T05
 72
1
 11
114.375
 21
106.75
 31
0.0
100
AcDbText
 73
2
  0
LWPOLYLINE
  5
123
330
17
100
AcDbEntity
  8
I-JOIN-ELEV
100
AcDbPolyline
 90
4
 70
1
 10
104.25
 20
115.5
 10
124.5
 20
115.5
 10
124.5
 20
133.0
 10
104.25
 20
133.0
  0
LWPOLYLINE
  5
124
330
17
100
AcDbEntity
  8
I-JOIN-HIDDEN
100
AcDbPolyline
 90
3
 70
0
 10
104.25
 20
115.5
 10
114.375
 20
133.0
 10
124.5
 20
115.5
  0
LWPOLYLINE
  5
125
330
17
100
AcDbEntity
  8
I-JOIN-ELEV
100
AcDbPolyline
 90
4
 70
1
 10
104.25
 20
133.0
 10
124.5
 20
133.0
 10
124.5
 20
155.0
 10
104.25
 20
155.0
  0
LWPOLYLINE
  5
126
330
17
100
AcDbEntity
  8
I-JOIN-ELEV
100
AcDbPolyline
 90
4
 70
1
 10
21.75
 20
78.0
 10
124.5
 20
78.0
 10
124.5
 20
155.0
 10
21.75
 20
155.0
  0
LWPOLYLINE
  5
127
330
17
100
AcDbEntity
  8
I-JOIN-ELEV
100
AcDbPolyline
 90
4
 70
1
 10
21.5
 20
97.0
 10
124.75
 20
97.0
 10
124.75
 20
98.0
 10
21.5
 20
98.0
  0
LWPOLYLINE
  5
128
330
17
100
AcDbEntity
  8
I-TAG
100
AcDbPolyline
 90
26
 70
1
 10
31.05
 20
94.875
 10
30.564714290432775
 20
94.81111092429201
 10
30.1125
 20
94.62379763209583
 10
29.724174785275224
 20
94.32582521472477
 10
29.426202367904178
 20
93.9375
 10
29.238889075708
 20
93.48528570956722
 10
29.175
 20
93.0
 10
29.238889075708
 20
92.51471429043278
 10
29.426202367904178
 20
92.0625
 10
29.724174785275224
 20
91.67417478527523
 10
30.1125
 20
91.37620236790418
 10
30.564714290432775
 20
91.18888907570799
 10
31.05
 20
91.125
 10
34.95
 20
91.125
 10
35.435285709567225
 20
91.18888907570799
 10
35.8875
 20
91.37620236790418
 10
36.275825214724776
 20
91.67417478527523
 10
36.573797632095825
 20
92.0625
 10
36.761110924292005
 20
92.51471429043278
 10
36.825
 20
93.0
 10
36.761110924292005
 20
93.48528570956722
 10
36.573797632095825
 20
93.9375
 10
36.27582521472478
 20
94.32582521472477
 10
35.8875
 20
94.62379763209583
 10
35.43528570956723
 20
94.81111092429201
 10
34.95
 20
94.875
  0
TEXT
  5
129
330
17
100
AcDbEntity
  8
I-TAG
100
AcDbText
 10
33.0
 20
93.0
 30
0.0
 40
1.275
  1
M01
 72
1
 11
33.0
 21
93.0
 31
0.0
100
AcDbText
 73
2
  0
LWPOLYLINE
  5
12A
330
17
100
AcDbEntity
  8
I-TAG
100
AcDbPolyline
 90
26
 70
1
 10
31.05
 20
130.875
 10
30.564714290432775
 20
130.811110924292
 10
30.1125
 20
130.62379763209583
 10
29.724174785275224
 20
130.32582521472477
 10
29.426202367904178
 20
129.9375
 10
29.238889075708
 20
129.48528570956722
 10
29.175
 20
129.0
 10
29.238889075708
 20
128.51471429043278
 10
29.426202367904178
 20
128.0625
 10
29.724174785275224
 20
127.67417478527523
 10
30.1125
 20
127.37620236790418
 10
30.564714290432775
 20
127.18888907570799
 10
31.05
 20
127.125
 10
34.95
 20
127.125
 10
35.435285709567225
 20
127.18888907570799
 10
35.8875
 20
127.37620236790418
 10
36.275825214724776
 20
127.67417478527523
 10
36.573797632095825
 20
128.0625
 10
36.761110924292005
 20
128.51471429043278
 10
36.825
 20
129.0
 10
36.761110924292005
 20
129.48528570956722
 10
36.573797632095825
 20
129.9375
 10
36.27582521472478
 20
130.32582521472477
 10
35.8875
 20
130.62379763209583
 10
35.43528570956723
 20
130.811110924292
 10
34.95
 20
130.875
  0
TEXT
  5
12B
330
17
100
AcDbEntity
  8
I-TAG
100
AcDbText
 10
33.0
 20
129.0
 30
0.0
 40
1.275
  1
M01
 72
1
 11
33.0
 21
129.0
 31
0.0
100
AcDbText
 73
2
  0
LWPOLYLINE
  5
12C
330
17
100
AcDbEntity
  8
I-TAG
100
AcDbPolyline
 90
26
 70
1
 10
31.05
 20
152.875
 10
30.564714290432775
 20
152.811110924292
 10
30.1125
 20
152.62379763209583
 10
29.724174785275224
 20
152.32582521472477
 10
29.426202367904178
 20
151.9375
 10
29.238889075708
 20
151.48528570956722
 10
29.175
 20
151.0
 10
29.238889075708
 20
150.51471429043278
 10
29.426202367904178
 20
150.0625
 10
29.724174785275224
 20
149.67417478527523
 10
30.1125
 20
149.37620236790417
 10
30.564714290432775
 20
149.188889075708
 10
31.05
 20
149.125
 10
34.95
 20
149.125
 10
35.435285709567225
 20
149.188889075708
 10
35.8875
 20
149.37620236790417
 10
36.275825214724776
 20
149.67417478527523
 10
36.573797632095825
 20
150.0625
 10
36.761110924292005
 20
150.51471429043278
 10
36.825
 20
151.0
 10
36.761110924292005
 20
151.48528570956722
 10
36.573797632095825
 20
151.9375
 10
36.27582521472478
 20
152.32582521472477
 10
35.8875
 20
152.62379763209583
 10
35.43528570956723
 20
152.811110924292
 10
34.95
 20
152.875
  0
TEXT
  5
12D
330
17
100
AcDbEntity
  8
I-TAG
100
AcDbText
 10
33.0
 20
151.0
 30
0.0
 40
1.275
  1
M01
 72
1
 11
33.0
 21
151.0
 31
0.0
100
AcDbText
 73
2
  0
LWPOLYLINE
  5
12E
330
17
100
AcDbEntity
  8
I-TAG
100
AcDbPolyline
 90
26
 70
1
 10
49.8
 20
130.875
 10
49.31471429043277
 20
130.811110924292
 10
48.8625
 20
130.62379763209583
 10
48.474174785275224
 20
130.32582521472477
 10
48.176202367904175
 20
129.9375
 10
47.988889075707995
 20
129.48528570956722
 10
47.925
 20
129.0
 10
47.988889075707995
 20
128.51471429043278
 10
48.176202367904175
 20
128.0625
 10
48.47417478527522
 20
127.67417478527523
 10
48.8625
 20
127.37620236790418
 10
49.31471429043277
 20
127.18888907570799
 10
49.8
 20
127.125
 10
53.7
 20
127.125
 10
54.185285709567225
 20
127.18888907570799
 10
54.6375
 20
127.37620236790418
 10
55.025825214724776
 20
127.67417478527523
 10
55.323797632095825
 20
128.0625
 10
55.511110924292005
 20
128.51471429043278
 10
55.575
 20
129.0
 10
55.511110924292005
 20
129.48528570956722
 10
55.323797632095825
 20
129.9375
 10
55.02582521472478
 20
130.32582521472477
 10
54.6375
 20
130.62379763209583
 10
54.18528570956723
 20
130.811110924292
 10
53.7
 20
130.875
  0
TEXT
  5
12F
330
17
100
AcDbEntity
  8
I-TAG
100
AcDbText
 10
51.75
 20
129.0
 30
0.0
 40
1.275
  1
M01
 72
1
 11
51.75
 21
129.0
 31
0.0
100
AcDbText
 73
2
  0
LWPOLYLINE
  5
130
330
17
100
AcDbEntity
  8
I-TAG
100
AcDbPolyline
 90
26
 70
1
 10
49.8
 20
152.875
 10
49.31471429043277
 20
152.811110924292
 10
48.8625
 20
152.62379763209583
 10
48.474174785275224
 20
152.32582521472477
 10
48.176202367904175
 20
151.9375
 10
47.988889075707995
 20
151.48528570956722
 10
47.925
 20
151.0
 10
47.988889075707995
 20
150.51471429043278
 10
48.176202367904175
 20
150.0625
 10
48.47417478527522
 20
149.67417478527523
 10
48.8625
 20
149.37620236790417
 10
49.31471429043277
 20
149.188889075708
 10
49.8
 20
149.125
 10
53.7
 20
149.125
 10
54.185285709567225
 20
149.188889075708
 10
54.6375
 20
149.37620236790417
 10
55.025825214724776
 20
149.67417478527523
 10
55.323797632095825
 20
150.0625
 10
55.511110924292005
 20
150.51471429043278
 10
55.575
 20
151.0
 10
55.511110924292005
 20
151.48528570956722
 10
55.323797632095825
 20
151.9375
 10
55.02582521472478
 20
152.32582521472477
 10
54.6375
 20
152.62379763209583
 10
54.18528570956723
 20
152.811110924292
 10
53.7
 20
152.875
  0
TEXT
  5
131
330
17
100
AcDbEntity
  8
I-TAG
100
AcDbText
 10
51.75
 20
151.0
 30
0.0
 40
1.275
  1
M01
 72
1
 11
51.75
 21
151.0
 31
0.0
100
AcDbText
 73
2
  0
LWPOLYLINE
  5
132
330
17
100
AcDbEntity
  8
I-TAG
100
AcDbPolyline
 90
26
 70
1
 10
69.8
 20
94.875
 10
69.31471429043278
 20
94.81111092429201
 10
68.8625
 20
94.62379763209583
 10
68.47417478527522
 20
94.32582521472477
 10
68.17620236790418
 20
93.9375
 10
67.98888907570799
 20
93.48528570956722
 10
67.925
 20
93.0
 10
67.98888907570799
 20
92.51471429043278
 10
68.17620236790418
 20
92.0625
 10
68.47417478527522
 20
91.67417478527523
 10
68.8625
 20
91.37620236790418
 10
69.31471429043278
 20
91.18888907570799
 10
69.8
 20
91.125
 10
73.7
 20
91.125
 10
74.18528570956722
 20
91.18888907570799
 10
74.6375
 20
91.37620236790418
 10
75.02582521472478
 20
91.67417478527523
 10
75.32379763209582
 20
92.0625
 10
75.51111092429201
 20
92.51471429043278
 10
75.575
 20
93.0
 10
75.51111092429201
 20
93.48528570956722
 10
75.32379763209582
 20
93.9375
 10
75.02582521472478
 20
94.32582521472477
 10
74.6375
 20
94.62379763209583
 10
74.18528570956722
 20
94.81111092429201
 10
73.7
 20
94.875
  0
TEXT
  5
133
330
17
100
AcDbEntity
  8
I-TAG
100
AcDbText
 10
71.75
 20
93.0
 30
0.0
 40
1.275
  1
M01
 72
1
 11
71.75
 21
93.0
 31
0.0
100
AcDbText
 73
2
  0
LWPOLYLINE
  5
134
330
17
100
AcDbEntity
  8
I-TAG
100
AcDbPolyline
 90
26
 70
1
 10
69.8
 20
130.875
 10
69.31471429043278
 20
130.811110924292
 10
68.8625
 20
130.62379763209583
 10
68.47417478527522
 20
130.32582521472477
 10
68.17620236790418
 20
129.9375
 10
67.98888907570799
 20
129.48528570956722
 10
67.925
 20
129.0
 10
67.98888907570799
 20
128.51471429043278
 10
68.17620236790418
 20
128.0625
 10
68.47417478527522
 20
127.67417478527523
 10
68.8625
 20
127.37620236790418
 10
69.31471429043278
 20
127.18888907570799
 10
69.8
 20
127.125
 10
73.7
 20
127.125
 10
74.18528570956722
 20
127.18888907570799
 10
74.6375
 20
127.37620236790418
 10
75.02582521472478
 20
127.67417478527523
 10
75.32379763209582
 20
128.0625
 10
75.51111092429201
 20
128.51471429043278
 10
75.575
 20
129.0
 10
75.51111092429201
 20
129.48528570956722
 10
75.32379763209582
 20
129.9375
 10
75.02582521472478
 20
130.32582521472477
 10
74.6375
 20
130.62379763209583
 10
74.18528570956722
 20
130.811110924292
 10
73.7
 20
130.875
  0
TEXT
  5
135
330
17
100
AcDbEntity
  8
I-TAG
100
AcDbText
 10
71.75
 20
129.0
 30
0.0
 40
1.275
  1
M01
 72
1
 11
71.75
 21
129.0
 31
0.0
100
AcDbText
 73
2
  0
LWPOLYLINE
  5
136
330
17
100
AcDbEntity
  8
I-TAG
100
AcDbPolyline
 90
26
 70
1
 10
69.8
 20
152.875
 10
69.31471429043278
 20
152.811110924292
 10
68.8625
 20
152.62379763209583
 10
68.47417478527522
 20
152.32582521472477
 10
68.17620236790418
 20
151.9375
 10
67.98888907570799
 20
151.48528570956722
 10
67.925
 20
151.0
 10
67.98888907570799
 20
150.51471429043278
 10
68.17620236790418
 20
150.0625
 10
68.47417478527522
 20
149.67417478527523
 10
68.8625
 20
149.37620236790417
 10
69.31471429043278
 20
149.188889075708
 10
69.8
 20
149.125
 10
73.7
 20
149.125
 10
74.18528570956722
 20
149.188889075708
 10
74.6375
 20
149.37620236790417
 10
75.02582521472478
 20
149.67417478527523
 10
75.32379763209582
 20
150.0625
 10
75.51111092429201
 20
150.51471429043278
 10
75.575
 20
151.0
 10
75.51111092429201
 20
151.48528570956722
 10
75.32379763209582
 20
151.9375
 10
75.02582521472478
 20
152.32582521472477
 10
74.6375
 20
152.62379763209583
 10
74.18528570956722
 20
152.811110924292
 10
73.7
 20
152.875
  0
TEXT
  5
137
330
17
100
AcDbEntity
  8
I-TAG
100
AcDbText
 10
71.75
 20
151.0
 30
0.0
 40
1.275
  1
M01
 72
1
 11
71.75
 21
151.0
 31
0.0
100
AcDbText
 73
2
  0
LWPOLYLINE
  5
138
330
17
100
AcDbEntity
  8
I-TAG
100
AcDbPolyline
 90
26
 70
1
 10
92.3
 20
81.375
 10
91.81471429043278
 20
81.31111092429201
 10
91.3625
 20
81.12379763209583
 10
90.97417478527522
 20
80.82582521472477
 10
90.67620236790418
 20
80.4375
 10
90.48888907570799
 20
79.98528570956722
 10
90.425
 20
79.5
 10
90.48888907570799
 20
79.01471429043278
 10
90.67620236790418
 20
78.5625
 10
90.97417478527522
 20
78.17417478527523
 10
91.3625
 20
77.87620236790418
 10
91.81471429043278
 20
77.68888907570799
 10
92.3
 20
77.625
 10
96.2
 20
77.625
 10
96.68528570956722
 20
77.68888907570799
 10
97.1375
 20
77.87620236790418
 10
97.52582521472478
 20
78.17417478527523
 10
97.82379763209582
 20
78.5625
 10
98.01111092429201
 20
79.01471429043278
 10
98.075
 20
79.5
 10
98.01111092429201
 20
79.98528570956722
 10
97.82379763209582
 20
80.4375
 10
97.52582521472478
 20
80.82582521472477
 10
97.1375
 20
81.12379763209583
 10
96.68528570956722
 20
81.31111092429201
 10
96.2
 20
81.375
  0
TEXT
  5
139
330
17
100
AcDbEntity
  8
I-TAG
100
AcDbText
 10
94.25
 20
79.5
 30
0.0
 40
1.275
  1
M01
 72
1
 11
94.25
 21
79.5
 31
0.0
100
AcDbText
 73
2
  0
LWPOLYLINE
  5
13A
330
17
100
AcDbEntity
  8
I-TAG
100
AcDbPolyline
 90
26
 70
1
 10
92.3
 20
87.625
 10
91.81471429043278
 20
87.56111092429201
 10
91.3625
 20
87.37379763209583
 10
90.97417478527522
 20
87.07582521472477
 10
90.67620236790418
 20
86.6875
 10
90.48888907570799
 20
86.23528570956722
 10
90.425
 20
85.75
 10
90.48888907570799
 20
85.26471429043278
 10
90.67620236790418
 20
84.8125
 10
90.97417478527522
 20
84.42417478527523
 10
91.3625
 20
84.12620236790418
 10
91.81471429043278
 20
83.93888907570799
 10
92.3
 20
83.875
 10
96.2
 20
83.875
 10
96.68528570956722
 20
83.93888907570799
 10
97.1375
 20
84.12620236790418
 10
97.52582521472478
 20
84.42417478527523
 10
97.82379763209582
 20
84.8125
 10
98.01111092429201
 20
85.26471429043278
 10
98.075
 20
85.75
 10
98.01111092429201
 20
86.23528570956722
 10
97.82379763209582
 20
86.6875
 10
97.52582521472478
 20
87.07582521472477
 10
97.1375
 20
87.37379763209583
 10
96.68528570956722
 20
87.56111092429201
 10
96.2
 20
87.625
  0
TEXT
  5
13B
330
17
100
AcDbEntity
  8
I-TAG
100
AcDbText
 10
94.25
 20
85.75
 30
0.0
 40
1.275
  1
M01
 72
1
 11
94.25
 21
85.75
 31
0.0
100
AcDbText
 73
2
  0
LWPOLYLINE
  5
13C
330
17
100
AcDbEntity
  8
I-TAG
100
AcDbPolyline
 90
26
 70
1
 10
92.3
 20
94.875
 10
91.81471429043278
 20
94.81111092429201
 10
91.3625
 20
94.62379763209583
 10
90.97417478527522
 20
94.32582521472477
 10
90.67620236790418
 20
93.9375
 10
90.48888907570799
 20
93.48528570956722
 10
90.425
 20
93.0
 10
90.48888907570799
 20
92.51471429043278
 10
90.67620236790418
 20
92.0625
 10
90.97417478527522
 20
91.67417478527523
 10
91.3625
 20
91.37620236790418
 10
91.81471429043278
 20
91.18888907570799
 10
92.3
 20
91.125
 10
96.2
 20
91.125
 10
96.68528570956722
 20
91.18888907570799
 10
97.1375
 20
91.37620236790418
 10
97.52582521472478
 20
91.67417478527523
 10
97.82379763209582
 20
92.0625
 10
98.01111092429201
 20
92.51471429043278
 10
98.075
 20
93.0
 10
98.01111092429201
 20
93.48528570956722
 10
97.82379763209582
 20
93.9375
 10
97.52582521472478
 20
94.32582521472477
 10
97.1375
 20
94.62379763209583
 10
96.68528570956722
 20
94.81111092429201
 10
96.2
 20
94.875
  0
TEXT
  5
13D
330
17
100
AcDbEntity
  8
I-TAG
100
AcDbText
 10
94.25
 20
93.0
 30
0.0
 40
1.275
  1
M01
 72
1
 11
94.25
 21
93.0
 31
0.0
100
AcDbText
 73
2
  0
LWPOLYLINE
  5
13E
330
17
100
AcDbEntity
  8
I-TAG
100
AcDbPolyline
 90
26
 70
1
 10
92.3
 20
130.875
 10
91.81471429043278
 20
130.811110924292
 10
91.3625
 20
130.62379763209583
 10
90.97417478527522
 20
130.32582521472477
 10
90.67620236790418
 20
129.9375
 10
90.48888907570799
 20
129.48528570956722
 10
90.425
 20
129.0
 10
90.48888907570799
 20
128.51471429043278
 10
90.67620236790418
 20
128.0625
 10
90.97417478527522
 20
127.67417478527523
 10
91.3625
 20
127.37620236790418
 10
91.81471429043278
 20
127.18888907570799
 10
92.3
 20
127.125
 10
96.2
 20
127.125
 10
96.68528570956722
 20
127.18888907570799
 10
97.1375
 20
127.37620236790418
 10
97.52582521472478
 20
127.67417478527523
 10
97.82379763209582
 20
128.0625
 10
98.01111092429201
 20
128.51471429043278
 10
98.075
 20
129.0
 10
98.01111092429201
 20
129.48528570956722
 10
97.82379763209582
 20
129.9375
 10
97.52582521472478
 20
130.32582521472477
 10
97.1375
 20
130.62379763209583
 10
96.68528570956722
 20
130.811110924292
 10
96.2
 20
130.875
  0
TEXT
  5
13F
330
17
100
AcDbEntity
  8
I-TAG
100
AcDbText
 10
94.25
 20
129.0
 30
0.0
 40
1.275
  1
M01
 72
1
 11
94.25
 21
129.0
 31
0.0
100
AcDbText
 73
2
  0
LWPOLYLINE
  5
140
330
17
100
AcDbEntity
  8
I-TAG
100
AcDbPolyline
 90
26
 70
1
 10
92.3
 20
152.875
 10
91.81471429043278
 20
152.811110924292
 10
91.3625
 20
152.62379763209583
 10
90.97417478527522
 20
152.32582521472477
 10
90.67620236790418
 20
151.9375
 10
90.48888907570799
 20
151.48528570956722
 10
90.425
 20
151.0
 10
90.48888907570799
 20
150.51471429043278
 10
90.67620236790418
 20
150.0625
 10
90.97417478527522
 20
149.67417478527523
 10
91.3625
 20
149.37620236790417
 10
91.81471429043278
 20
149.188889075708
 10
92.3
 20
149.125
 10
96.2
 20
149.125
 10
96.68528570956722
 20
149.188889075708
 10
97.1375
 20
149.37620236790417
 10
97.52582521472478
 20
149.67417478527523
 10
97.82379763209582
 20
150.0625
 10
98.01111092429201
 20
150.51471429043278
 10
98.075
 20
151.0
 10
98.01111092429201
 20
151.48528570956722
 10
97.82379763209582
 20
151.9375
 10
97.52582521472478
 20
152.32582521472477
 10
97.1375
 20
152.62379763209583
 10
96.68528570956722
 20
152.811110924292
 10
96.2
 20
152.875
  0
TEXT
  5
141
330
17
100
AcDbEntity
  8
I-TAG
100
AcDbText
 10
94.25
 20
151.0
 30
0.0
 40
1.275
  1
M01
 72
1
 11
94.25
 21
151.0
 31
0.0
100
AcDbText
 73
2
  0
LWPOLYLINE
  5
142
330
17
100
AcDbEntity
  8
I-TAG
100
AcDbPolyline
 90
26
 70
1
 10
112.425
 20
94.875
 10
111.93971429043278
 20
94.81111092429201
 10
111.4875
 20
94.62379763209583
 10
111.09917478527522
 20
94.32582521472477
 10
110.80120236790418
 20
93.9375
 10
110.61388907570799
 20
93.48528570956722
 10
110.55
 20
93.0
 10
110.61388907570799
 20
92.51471429043278
 10
110.80120236790418
 20
92.0625
 10
111.09917478527522
 20
91.67417478527523
 10
111.4875
 20
91.37620236790418
 10
111.93971429043278
 20
91.18888907570799
 10
112.425
 20
91.125
 10
116.325
 20
91.125
 10
116.81028570956722
 20
91.18888907570799
 10
117.2625
 20
91.37620236790418
 10
117.65082521472478
 20
91.67417478527523
 10
117.94879763209582
 20
92.0625
 10
118.13611092429201
 20
92.51471429043278
 10
118.2
 20
93.0
 10
118.13611092429201
 20
93.48528570956722
 10
117.94879763209582
 20
93.9375
 10
117.65082521472478
 20
94.32582521472477
 10
117.2625
 20
94.62379763209583
 10
116.81028570956722
 20
94.81111092429201
 10
116.325
 20
94.875
  0
TEXT
  5
143
330
17
100
AcDbEntity
  8
I-TAG
100
AcDbText
 10
114.375
 20
93.0
 30
0.0
 40
1.275
  1
M01
 72
1
 11
114.375
 21
93.0
 31
0.0
100
AcDbText
 73
2
  0
LWPOLYLINE
  5
144
330
17
100
AcDbEntity
  8
I-TAG
100
AcDbPolyline
 90
26
 70
1
 10
112.425
 20
130.875
 10
111.93971429043278
 20
130.811110924292
 10
111.4875
 20
130.62379763209583
 10
111.09917478527522
 20
130.32582521472477
 10
110.80120236790418
 20
129.9375
 10
110.61388907570799
 20
129.48528570956722
 10
110.55
 20
129.0
 10
110.61388907570799
 20
128.51471429043278
 10
110.80120236790418
 20
128.0625
 10
111.09917478527522
 20
127.67417478527523
 10
111.4875
 20
127.37620236790418
 10
111.93971429043278
 20
127.18888907570799
 10
112.425
 20
127.125
 10
116.325
 20
127.125
 10
116.81028570956722
 20
127.18888907570799
 10
117.2625
 20
127.37620236790418
 10
117.65082521472478
 20
127.67417478527523
 10
117.94879763209582
 20
128.0625
 10
118.13611092429201
 20
128.51471429043278
 10
118.2
 20
129.0
 10
118.13611092429201
 20
129.48528570956722
 10
117.94879763209582
 20
129.9375
 10
117.65082521472478
 20
130.32582521472477
 10
117.2625
 20
130.62379763209583
 10
116.81028570956722
 20
130.811110924292
 10
116.325
 20
130.875
  0
TEXT
  5
145
330
17
100
AcDbEntity
  8
I-TAG
100
AcDbText
 10
114.375
 20
129.0
 30
0.0
 40
1.275
  1
M01
 72
1
 11
114.375
 21
129.0
 31
0.0
100
AcDbText
 73
2
  0
LWPOLYLINE
  5
146
330
17
100
AcDbEntity
  8
I-TAG
100
AcDbPolyline
 90
26
 70
1
 10
112.425
 20
152.875
 10
111.93971429043278
 20
152.811110924292
 10
111.4875
 20
152.62379763209583
 10
111.09917478527522
 20
152.32582521472477
 10
110.80120236790418
 20
151.9375
 10
110.61388907570799
 20
151.48528570956722
 10
110.55
 20
151.0
 10
110.61388907570799
 20
150.51471429043278
 10
110.80120236790418
 20
150.0625
 10
111.09917478527522
 20
149.67417478527523
 10
111.4875
 20
149.37620236790417
 10
111.93971429043278
 20
149.188889075708
 10
112.425
 20
149.125
 10
116.325
 20
149.125
 10
116.81028570956722
 20
149.188889075708
 10
117.2625
 20
149.37620236790417
 10
117.65082521472478
 20
149.67417478527523
 10
117.94879763209582
 20
150.0625
 10
118.13611092429201
 20
150.51471429043278
 10
118.2
 20
151.0
 10
118.13611092429201
 20
151.48528570956722
 10
117.94879763209582
 20
151.9375
 10
117.65082521472478
 20
152.32582521472477
 10
117.2625
 20
152.62379763209583
 10
116.81028570956722
 20
152.811110924292
 10
116.325
 20
152.875
  0
TEXT
  5
147
330
17
100
AcDbEntity
  8
I-TAG
100
AcDbText
 10
114.375
 20
151.0
 30
0.0
 40
1.275
  1
M01
 72
1
 11
114.375
 21
151.0
 31
0.0
100
AcDbText
 73
2
  0
LINE
  5
148
330
17
100
AcDbEntity
  8
I-DIM
100
AcDbLine
 10
21.75
 20
74.3
 30
0.0
 11
21.75
 21
65.33333333333333
 31
0.0
  0
LINE
  5
149
330
17
100
AcDbEntity
  8
I-DIM
100
AcDbLine
 10
44.25
 20
74.3
 30
0.0
 11
44.25
 21
65.33333333333333
 31
0.0
  0
LINE
  5
14A
330
17
100
AcDbEntity
  8
I-DIM
100
AcDbLine
 10
20.25
 20
66.83333333333333
 30
0.0
 11
45.75
 21
66.83333333333333
 31
0.0
  0
LINE
  5
14B
330
17
100
AcDbEntity
  8
I-DIM
100
AcDbLine
 10
20.65
 20
65.73333333333333
 30
0.0
 11
22.85
 21
67.93333333333334
 31
0.0
  0
LINE
  5
14C
330
17
100
AcDbEntity
  8
I-DIM
100
AcDbLine
 10
43.150000000000006
 20
65.73333333333333
 30
0.0
 11
45.35
 21
67.93333333333334
 31
0.0
  0
TEXT
  5
14D
330
17
100
AcDbEntity
  8
I-DIM
100
AcDbText
 10
33.0
 20
67.73333333333333
 30
0.0
 40
1.9
  1
900
 72
1
 11
33.0
 21
67.73333333333333
 31
0.0
100
AcDbText
 73
1
  0
LINE
  5
14E
330
17
100
AcDbEntity
  8
I-DIM
100
AcDbLine
 10
44.25
 20
74.3
 30
0.0
 11
44.25
 21
65.33333333333333
 31
0.0
  0
LINE
  5
14F
330
17
100
AcDbEntity
  8
I-DIM
100
AcDbLine
 10
59.25
 20
74.3
 30
0.0
 11
59.25
 21
65.33333333333333
 31
0.0
  0
LINE
  5
150
330
17
100
AcDbEntity
  8
I-DIM
100
AcDbLine
 10
42.75
 20
66.83333333333333
 30
0.0
 11
60.75
 21
66.83333333333333
 31
0.0
  0
LINE
  5
151
330
17
100
AcDbEntity
  8
I-DIM
100
AcDbLine
 10
43.150000000000006
 20
65.73333333333333
 30
0.0
 11
45.35
 21
67.93333333333334
 31
0.0
  0
LINE
  5
152
330
17
100
AcDbEntity
  8
I-DIM
100
AcDbLine
 10
58.15
 20
65.73333333333333
 30
0.0
 11
60.35
 21
67.93333333333334
 31
0.0
  0
TEXT
  5
153
330
17
100
AcDbEntity
  8
I-DIM
100
AcDbText
 10
51.75
 20
67.73333333333333
 30
0.0
 40
1.9
  1
600
 72
1
 11
51.75
 21
67.73333333333333
 31
0.0
100
AcDbText
 73
1
  0
LINE
  5
154
330
17
100
AcDbEntity
  8
I-DIM
100
AcDbLine
 10
59.25
 20
74.3
 30
0.0
 11
59.25
 21
65.33333333333333
 31
0.0
  0
LINE
  5
155
330
17
100
AcDbEntity
  8
I-DIM
100
AcDbLine
 10
84.25
 20
74.3
 30
0.0
 11
84.25
 21
65.33333333333333
 31
0.0
  0
LINE
  5
156
330
17
100
AcDbEntity
  8
I-DIM
100
AcDbLine
 10
57.75
 20
66.83333333333333
 30
0.0
 11
85.75
 21
66.83333333333333
 31
0.0
  0
LINE
  5
157
330
17
100
AcDbEntity
  8
I-DIM
100
AcDbLine
 10
58.15
 20
65.73333333333333
 30
0.0
 11
60.35
 21
67.93333333333334
 31
0.0
  0
LINE
  5
158
330
17
100
AcDbEntity
  8
I-DIM
100
AcDbLine
 10
83.15
 20
65.73333333333333
 30
0.0
 11
85.35
 21
67.93333333333334
 31
0.0
  0
TEXT
  5
159
330
17
100
AcDbEntity
  8
I-DIM
100
AcDbText
 10
71.75
 20
67.73333333333333
 30
0.0
 40
1.9
  1
1000
 72
1
 11
71.75
 21
67.73333333333333
 31
0.0
100
AcDbText
 73
1
  0
LINE
  5
15A
330
17
100
AcDbEntity
  8
I-DIM
100
AcDbLine
 10
84.25
 20
74.3
 30
0.0
 11
84.25
 21
65.33333333333333
 31
0.0
  0
LINE
  5
15B
330
17
100
AcDbEntity
  8
I-DIM
100
AcDbLine
 10
104.25
 20
74.3
 30
0.0
 11
104.25
 21
65.33333333333333
 31
0.0
  0
LINE
  5
15C
330
17
100
AcDbEntity
  8
I-DIM
100
AcDbLine
 10
82.75
 20
66.83333333333333
 30
0.0
 11
105.75
 21
66.83333333333333
 31
0.0
  0
LINE
  5
15D
330
17
100
AcDbEntity
  8
I-DIM
100
AcDbLine
 10
83.15
 20
65.73333333333333
 30
0.0
 11
85.35
 21
67.93333333333334
 31
0.0
  0
LINE
  5
15E
330
17
100
AcDbEntity
  8
I-DIM
100
AcDbLine
 10
103.15
 20
65.73333333333333
 30
0.0
 11
105.35000000000001
 21
67.93333333333334
 31
0.0
  0
TEXT
  5
15F
330
17
100
AcDbEntity
  8
I-DIM
100
AcDbText
 10
94.25
 20
67.73333333333333
 30
0.0
 40
1.9
  1
800
 72
1
 11
94.25
 21
67.73333333333333
 31
0.0
100
AcDbText
 73
1
  0
LINE
  5
160
330
17
100
AcDbEntity
  8
I-DIM
100
AcDbLine
 10
104.25
 20
74.3
 30
0.0
 11
104.25
 21
65.33333333333333
 31
0.0
  0
LINE
  5
161
330
17
100
AcDbEntity
  8
I-DIM
100
AcDbLine
 10
124.5
 20
74.3
 30
0.0
 11
124.5
 21
65.33333333333333
 31
0.0
  0
LINE
  5
162
330
17
100
AcDbEntity
  8
I-DIM
100
AcDbLine
 10
102.75
 20
66.83333333333333
 30
0.0
 11
126.0
 21
66.83333333333333
 31
0.0
  0
LINE
  5
163
330
17
100
AcDbEntity
  8
I-DIM
100
AcDbLine
 10
103.15
 20
65.73333333333333
 30
0.0
 11
105.35000000000001
 21
67.93333333333334
 31
0.0
  0
LINE
  5
164
330
17
100
AcDbEntity
  8
I-DIM
100
AcDbLine
 10
123.4
 20
65.73333333333333
 30
0.0
 11
125.60000000000001
 21
67.93333333333334
 31
0.0
  0
TEXT
  5
165
330
17
100
AcDbEntity
  8
I-DIM
100
AcDbText
 10
114.375
 20
67.73333333333333
 30
0.0
 40
1.9
  1
810
 72
1
 11
114.375
 21
67.73333333333333
 31
0.0
100
AcDbText
 73
1
  0
LINE
  5
166
330
17
100
AcDbEntity
  8
I-DIM
100
AcDbLine
 10
21.75
 20
156.7
 30
0.0
 11
21.75
 21
164.66666666666669
 31
0.0
  0
LINE
  5
167
330
17
100
AcDbEntity
  8
I-DIM
100
AcDbLine
 10
124.5
 20
156.7
 30
0.0
 11
124.5
 21
164.66666666666669
 31
0.0
  0
LINE
  5
168
330
17
100
AcDbEntity
  8
I-DIM
100
AcDbLine
 10
20.25
 20
163.16666666666669
 30
0.0
 11
126.0
 21
163.16666666666669
 31
0.0
  0
LINE
  5
169
330
17
100
AcDbEntity
  8
I-DIM
100
AcDbLine
 10
20.65
 20
162.06666666666666
 30
0.0
 11
22.85
 21
164.26666666666665
 31
0.0
  0
LINE
  5
16A
330
17
100
AcDbEntity
  8
I-DIM
100
AcDbLine
 10
123.4
 20
162.06666666666666
 30
0.0
 11
125.60000000000001
 21
164.26666666666665
 31
0.0
  0
TEXT
  5
16B
330
17
100
AcDbEntity
  8
I-DIM
100
AcDbText
 10
73.125
 20
164.06666666666666
 30
0.0
 40
1.9
  1
4110
 72
1
 11
73.125
 21
164.06666666666666
 31
0.0
100
AcDbText
 73
1
  0
LINE
  5
16C
330
17
100
AcDbEntity
  8
I-DIM
100
AcDbLine
 10
125.7
 20
75.5
 30
0.0
 11
137.08333333333331
 21
75.5
 31
0.0
  0
LINE
  5
16D
330
17
100
AcDbEntity
  8
I-DIM
100
AcDbLine
 10
125.7
 20
78.0
 30
0.0
 11
137.08333333333331
 21
78.0
 31
0.0
  0
LINE
  5
16E
330
17
100
AcDbEntity
  8
I-DIM
100
AcDbLine
 10
135.58333333333331
 20
74.0
 30
0.0
 11
135.58333333333331
 21
79.5
 31
0.0
  0
LINE
  5
16F
330
17
100
AcDbEntity
  8
I-DIM
100
AcDbLine
 10
136.68333333333334
 20
74.4
 30
0.0
 11
134.48333333333335
 21
76.6
 31
0.0
  0
LINE
  5
170
330
17
100
AcDbEntity
  8
I-DIM
100
AcDbLine
 10
136.68333333333334
 20
76.9
 30
0.0
 11
134.48333333333335
 21
79.1
 31
0.0
  0
TEXT
  5
171
330
17
100
AcDbEntity
  8
I-DIM
100
AcDbText
 10
134.68333333333334
 20
76.75
 30
0.0
 40
1.8
  1
100
 50
90.0
 72
1
 11
134.68333333333334
 21
76.75
 31
0.0
100
AcDbText
 73
1
  0
LINE
  5
172
330
17
100
AcDbEntity
  8
I-DIM
100
AcDbLine
 10
125.7
 20
78.0
 30
0.0
 11
137.08333333333331
 21
78.0
 31
0.0
  0
LINE
  5
173
330
17
100
AcDbEntity
  8
I-DIM
100
AcDbLine
 10
125.7
 20
97.0
 30
0.0
 11
137.08333333333331
 21
97.0
 31
0.0
  0
LINE
  5
174
330
17
100
AcDbEntity
  8
I-DIM
100
AcDbLine
 10
135.58333333333331
 20
76.5
 30
0.0
 11
135.58333333333331
 21
98.5
 31
0.0
  0
LINE
  5
175
330
17
100
AcDbEntity
  8
I-DIM
100
AcDbLine
 10
136.68333333333334
 20
76.9
 30
0.0
 11
134.48333333333335
 21
79.1
 31
0.0
  0
LINE
  5
176
330
17
100
AcDbEntity
  8
I-DIM
100
AcDbLine
 10
136.68333333333334
 20
95.9
 30
0.0
 11
134.48333333333335
 21
98.1
 31
0.0
  0
TEXT
  5
177
330
17
100
AcDbEntity
  8
I-DIM
100
AcDbText
 10
134.68333333333334
 20
87.5
 30
0.0
 40
1.8
  1
760
 50
90.0
 72
1
 11
134.68333333333334
 21
87.5
 31
0.0
100
AcDbText
 73
1
  0
LINE
  5
178
330
17
100
AcDbEntity
  8
I-DIM
100
AcDbLine
 10
125.7
 20
97.0
 30
0.0
 11
137.08333333333331
 21
97.0
 31
0.0
  0
LINE
  5
179
330
17
100
AcDbEntity
  8
I-DIM
100
AcDbLine
 10
125.7
 20
98.0
 30
0.0
 11
137.08333333333331
 21
98.0
 31
0.0
  0
LINE
  5
17A
330
17
100
AcDbEntity
  8
I-DIM
100
AcDbLine
 10
135.58333333333331
 20
95.5
 30
0.0
 11
135.58333333333331
 21
99.5
 31
0.0
  0
LINE
  5
17B
330
17
100
AcDbEntity
  8
I-DIM
100
AcDbLine
 10
136.68333333333334
 20
95.9
 30
0.0
 11
134.48333333333335
 21
98.1
 31
0.0
  0
LINE
  5
17C
330
17
100
AcDbEntity
  8
I-DIM
100
AcDbLine
 10
136.68333333333334
 20
96.9
 30
0.0
 11
134.48333333333335
 21
99.1
 31
0.0
  0
TEXT
  5
17D
330
17
100
AcDbEntity
  8
I-DIM
100
AcDbText
 10
134.68333333333334
 20
97.5
 30
0.0
 40
1.8
  1
40
 50
90.0
 72
1
 11
134.68333333333334
 21
97.5
 31
0.0
100
AcDbText
 73
1
  0
LINE
  5
17E
330
17
100
AcDbEntity
  8
I-DIM
100
AcDbLine
 10
125.7
 20
98.0
 30
0.0
 11
137.08333333333331
 21
98.0
 31
0.0
  0
LINE
  5
17F
330
17
100
AcDbEntity
  8
I-DIM
100
AcDbLine
 10
125.7
 20
115.5
 30
0.0
 11
137.08333333333331
 21
115.5
 31
0.0
  0
LINE
  5
180
330
17
100
AcDbEntity
  8
I-DIM
100
AcDbLine
 10
135.58333333333331
 20
96.5
 30
0.0
 11
135.58333333333331
 21
117.0
 31
0.0
  0
LINE
  5
181
330
17
100
AcDbEntity
  8
I-DIM
100
AcDbLine
 10
136.68333333333334
 20
96.9
 30
0.0
 11
134.48333333333335
 21
99.1
 31
0.0
  0
LINE
  5
182
330
17
100
AcDbEntity
  8
I-DIM
100
AcDbLine
 10
136.68333333333334
 20
114.4
 30
0.0
 11
134.48333333333335
 21
116.6
 31
0.0
  0
TEXT
  5
183
330
17
100
AcDbEntity
  8
I-DIM
100
AcDbText
 10
134.68333333333334
 20
106.75
 30
0.0
 40
1.8
  1
700
 50
90.0
 72
1
 11
134.68333333333334
 21
106.75
 31
0.0
100
AcDbText
 73
1
  0
LINE
  5
184
330
17
100
AcDbEntity
  8
I-DIM
100
AcDbLine
 10
125.7
 20
115.5
 30
0.0
 11
137.08333333333331
 21
115.5
 31
0.0
  0
LINE
  5
185
330
17
100
AcDbEntity
  8
I-DIM
100
AcDbLine
 10
125.7
 20
133.0
 30
0.0
 11
137.08333333333331
 21
133.0
 31
0.0
  0
LINE
  5
186
330
17
100
AcDbEntity
  8
I-DIM
100
AcDbLine
 10
135.58333333333331
 20
114.0
 30
0.0
 11
135.58333333333331
 21
134.5
 31
0.0
  0
LINE
  5
187
330
17
100
AcDbEntity
  8
I-DIM
100
AcDbLine
 10
136.68333333333334
 20
114.4
 30
0.0
 11
134.48333333333335
 21
116.6
 31
0.0
  0
LINE
  5
188
330
17
100
AcDbEntity
  8
I-DIM
100
AcDbLine
 10
136.68333333333334
 20
131.9
 30
0.0
 11
134.48333333333335
 21
134.1
 31
0.0
  0
TEXT
  5
189
330
17
100
AcDbEntity
  8
I-DIM
100
AcDbText
 10
134.68333333333334
 20
124.25
 30
0.0
 40
1.8
  1
700
 50
90.0
 72
1
 11
134.68333333333334
 21
124.25
 31
0.0
100
AcDbText
 73
1
  0
LINE
  5
18A
330
17
100
AcDbEntity
  8
I-DIM
100
AcDbLine
 10
125.7
 20
133.0
 30
0.0
 11
137.08333333333331
 21
133.0
 31
0.0
  0
LINE
  5
18B
330
17
100
AcDbEntity
  8
I-DIM
100
AcDbLine
 10
125.7
 20
155.0
 30
0.0
 11
137.08333333333331
 21
155.0
 31
0.0
  0
LINE
  5
18C
330
17
100
AcDbEntity
  8
I-DIM
100
AcDbLine
 10
135.58333333333331
 20
131.5
 30
0.0
 11
135.58333333333331
 21
156.5
 31
0.0
  0
LINE
  5
18D
330
17
100
AcDbEntity
  8
I-DIM
100
AcDbLine
 10
136.68333333333334
 20
131.9
 30
0.0
 11
134.48333333333335
 21
134.1
 31
0.0
  0
LINE
  5
18E
330
17
100
AcDbEntity
  8
I-DIM
100
AcDbLine
 10
136.68333333333334
 20
153.9
 30
0.0
 11
134.48333333333335
 21
156.10000000000002
 31
0.0
  0
TEXT
  5
18F
330
17
100
AcDbEntity
  8
I-DIM
100
AcDbText
 10
134.68333333333334
 20
144.0
 30
0.0
 40
1.8
  1
880
 50
90.0
 72
1
 11
134.68333333333334
 21
144.0
 31
0.0
100
AcDbText
 73
1
  0
LINE
  5
190
330
17
100
AcDbEntity
  8
I-DIM
100
AcDbLine
 10
125.7
 20
155.0
 30
0.0
 11
137.08333333333331
 21
155.0
 31
0.0
  0
LINE
  5
191
330
17
100
AcDbEntity
  8
I-DIM
100
AcDbLine
 10
125.7
 20
155.5
 30
0.0
 11
137.08333333333331
 21
155.5
 31
0.0
  0
LINE
  5
192
330
17
100
AcDbEntity
  8
I-DIM
100
AcDbLine
 10
135.58333333333331
 20
153.5
 30
0.0
 11
135.58333333333331
 21
157.0
 31
0.0
  0
LINE
  5
193
330
17
100
AcDbEntity
  8
I-DIM
100
AcDbLine
 10
136.68333333333334
 20
153.9
 30
0.0
 11
134.48333333333335
 21
156.10000000000002
 31
0.0
  0
LINE
  5
194
330
17
100
AcDbEntity
  8
I-DIM
100
AcDbLine
 10
136.68333333333334
 20
154.4
 30
0.0
 11
134.48333333333335
 21
156.60000000000002
 31
0.0
  0
TEXT
  5
195
330
17
100
AcDbEntity
  8
I-DIM
100
AcDbText
 10
134.68333333333334
 20
155.25
 30
0.0
 40
1.8
  1
20
 50
90.0
 72
1
 11
134.68333333333334
 21
155.25
 31
0.0
100
AcDbText
 73
1
  0
LINE
  5
196
330
17
100
AcDbEntity
  8
I-DIM
100
AcDbLine
 10
20.55
 20
75.5
 30
0.0
 11
5.5
 21
75.5
 31
0.0
  0
LINE
  5
197
330
17
100
AcDbEntity
  8
I-DIM
100
AcDbLine
 10
20.55
 20
155.5
 30
0.0
 11
5.5
 21
155.5
 31
0.0
  0
LINE
  5
198
330
17
100
AcDbEntity
  8
I-DIM
100
AcDbLine
 10
7.0
 20
74.0
 30
0.0
 11
7.0
 21
157.0
 31
0.0
  0
LINE
  5
199
330
17
100
AcDbEntity
  8
I-DIM
100
AcDbLine
 10
8.1
 20
74.4
 30
0.0
 11
5.899999999999999
 21
76.6
 31
0.0
  0
LINE
  5
19A
330
17
100
AcDbEntity
  8
I-DIM
100
AcDbLine
 10
8.1
 20
154.4
 30
0.0
 11
5.899999999999999
 21
156.60000000000002
 31
0.0
  0
TEXT
  5
19B
330
17
100
AcDbEntity
  8
I-DIM
100
AcDbText
 10
6.1
 20
115.5
 30
0.0
 40
1.9
  1
3200
 50
90.0
 72
1
 11
6.1
 21
115.5
 31
0.0
100
AcDbText
 73
1
  0
CIRCLE
  5
19C
330
17
100
AcDbEntity
  8
I-TEXT
100
AcDbCircle
 10
24.25
 20
49.5
 30
0.0
 40
4.5
  0
TEXT
  5
19D
330
17
100
AcDbEntity
  8
I-TEXT
100
AcDbText
 10
30.75
 20
50.4
 30
0.0
 40
2.8
  1
ELEVATION A
 11
30.75
 21
50.4
 31
0.0
100
AcDbText
  0
LINE
  5
19E
330
17
100
AcDbEntity
  8
I-TEXT
100
AcDbLine
 10
28.75
 20
49.5
 30
0.0
 11
73.75
 21
49.5
 31
0.0
  0
TEXT
  5
19F
330
17
100
AcDbEntity
  8
I-TEXT
100
AcDbText
 10
30.75
 20
46.3
 30
0.0
 40
2.4
  1
1:40
 11
30.75
 21
46.3
 31
0.0
100
AcDbText
  0
LINE
  5
1A0
330
17
100
AcDbEntity
  8
I-NOTE
 62
7
100
AcDbLine
 10
38.625
 20
87.5
 30
0.0
 11
143.25
 21
137.9
 31
0.0
  0
CIRCLE
  5
1A1
330
17
100
AcDbEntity
  8
I-NOTE
 62
7
100
AcDbCircle
 10
38.625
 20
87.5
 30
0.0
 40
0.45
  0
TEXT
  5
1A2
330
17
100
AcDbEntity
  8
I-NOTE
 62
7
100
AcDbText
 10
144.05
 20
140.365
 30
0.0
 40
1.7
  1
PANEL PLUS
 11
144.05
 21
140.365
 31
0.0
100
AcDbText
 73
2
  0
TEXT
  5
1A3
330
17
100
AcDbEntity
  8
I-NOTE
 62
7
100
AcDbText
 10
144.05
 20
137.9
 30
0.0
 40
1.7
  1
69A OAK
 11
144.05
 21
137.9
 31
0.0
100
AcDbText
 73
2
  0
TEXT
  5
1A4
330
17
100
AcDbEntity
  8
I-NOTE
 62
1
100
AcDbText
 10
144.05
 20
135.435
 30
0.0
 40
1.7
  1
MELAMINE 16MM
 11
144.05
 21
135.435
 31
0.0
100
AcDbText
 73
2
  0
LINE
  5
1A5
330
17
100
AcDbEntity
  8
I-NOTE
 62
7
100
AcDbLine
 10
38.625
 20
97.5
 30
0.0
 11
143.25
 21
120.56666666666666
 31
0.0
  0
CIRCLE
  5
1A6
330
17
100
AcDbEntity
  8
I-NOTE
 62
7
100
AcDbCircle
 10
38.625
 20
97.5
 30
0.0
 40
0.45
  0
TEXT
  5
1A7
330
17
100
AcDbEntity
  8
I-NOTE
 62
7
100
AcDbText
 10
144.05
 20
123.03166666666667
 30
0.0
 40
1.7
  1
TBC
 11
144.05
 21
123.03166666666667
 31
0.0
100
AcDbText
 73
2
  0
TEXT
  5
1A8
330
17
100
AcDbEntity
  8
I-NOTE
 62
7
100
AcDbText
 10
144.05
 20
120.56666666666666
 30
0.0
 40
1.7
  1
SINTERED STONE 12MM
 11
144.05
 21
120.56666666666666
 31
0.0
100
AcDbText
 73
2
  0
TEXT
  5
1A9
330
17
100
AcDbEntity
  8
I-NOTE
 62
1
100
AcDbText
 10
144.05
 20
118.10166666666666
 30
0.0
 40
1.7
  1
SINTERED
 11
144.05
 21
118.10166666666666
 31
0.0
100
AcDbText
 73
2
  0
LWPOLYLINE
  5
1AA
330
17
100
AcDbEntity
  8
A-WALL
100
AcDbPolyline
 90
4
 70
1
 10
172.75
 20
74.0
 10
176.5
 20
74.0
 10
176.5
 20
158.5
 10
172.75
 20
158.5
  0
HATCH
  5
1AB
330
17
100
AcDbEntity
  8
I-JOIN-HATCH
 62
7
100
AcDbHatch
 10
0.0
 20
0.0
 30
0.0
210
0.0
220
0.0
230
1.0
  2
ANSI31
 70
0
 71
0
 91
1
 92
3
 72
0
 73
1
 93
4
 10
172.75
 20
74.0
 10
176.5
 20
74.0
 10
176.5
 20
158.5
 10
172.75
 20
158.5
 97
0
 75
1
 76
1
 52
0.0
 41
2.1333333333333333
 77
0
 78
1
 53
45.0
 43
0.0
 44
0.0
 45
-4.7894699313
 46
4.7894699313
 79
0
 98
0
  0
LWPOLYLINE
  5
1AC
330
17
100
AcDbEntity
  8
A-WALL
100
AcDbPolyline
 90
4
 70
1
 10
279.25
 20
74.0
 10
283.0
 20
74.0
 10
283.0
 20
158.5
 10
279.25
 20
158.5
  0
HATCH
  5
1AD
330
17
100
AcDbEntity
  8
I-JOIN-HATCH
 62
7
100
AcDbHatch
 10
0.0
 20
0.0
 30
0.0
210
0.0
220
0.0
230
1.0
  2
ANSI31
 70
0
 71
0
 91
1
 92
3
 72
0
 73
1
 93
4
 10
279.25
 20
74.0
 10
283.0
 20
74.0
 10
283.0
 20
158.5
 10
279.25
 20
158.5
 97
0
 75
1
 76
1
 52
0.0
 41
2.1333333333333333
 77
0
 78
1
 53
45.0
 43
0.0
 44
0.0
 45
-4.7894699313
 46
4.7894699313
 79
0
 98
0
  0
LINE
  5
1AE
330
17
100
AcDbEntity
  8
A-WALL
100
AcDbLine
 10
165.25
 20
75.5
 30
0.0
 11
290.5
 21
75.5
 31
0.0
  0
LINE
  5
1AF
330
17
100
AcDbEntity
  8
I-CEIL
100
AcDbLine
 10
165.25
 20
155.5
 30
0.0
 11
290.5
 21
155.5
 31
0.0
  0
LWPOLYLINE
  5
1B0
330
17
100
AcDbEntity
  8
I-NOTE
 62
1
100
AcDbPolyline
 90
3
 70
1
 10
300.5
 20
155.5
 10
299.3
 20
157.18
 10
301.7
 20
157.18
  0
TEXT
  5
1B1
330
17
100
AcDbEntity
  8
I-TEXT
100
AcDbText
 10
298.5
 20
155.7
 30
0.0
 40
1.6
  1
CL 3200
 72
2
 11
298.5
 21
155.7
 31
0.0
100
AcDbText
 73
1
  0
LWPOLYLINE
  5
1B2
330
17
100
AcDbEntity
  8
I-NOTE
 62
1
100
AcDbPolyline
 90
3
 70
1
 10
300.5
 20
75.5
 10
299.3
 20
77.18
 10
301.7
 20
77.18
  0
TEXT
  5
1B3
330
17
100
AcDbEntity
  8
I-TEXT
100
AcDbText
 10
298.5
 20
75.7
 30
0.0
 40
1.6
  1
FFL 000
 72
2
 11
298.5
 21
75.7
 31
0.0
100
AcDbText
 73
1
  0
LWPOLYLINE
  5
1B4
330
17
100
AcDbEntity
  8
I-JOIN-THIN
100
AcDbPolyline
 90
4
 70
1
 10
176.5
 20
75.5
 10
279.25
 20
75.5
 10
279.25
 20
78.0
 10
176.5
 20
78.0
  0
LWPOLYLINE
  5
1B5
330
17
100
AcDbEntity
  8
I-JOIN-THIN
100
AcDbPolyline
 90
4
 70
1
 10
176.5
 20
155.0
 10
279.25
 20
155.0
 10
279.25
 20
155.5
 10
176.5
 20
155.5
  0
LWPOLYLINE
  5
1B6
330
17
100
AcDbEntity
  8
I-JOIN-ELEV
100
AcDbPolyline
 90
4
 70
1
 10
176.5
 20
78.0
 10
199.0
 20
78.0
 10
199.0
 20
97.0
 10
176.5
 20
97.0
  0
LINE
  5
1B7
330
17
100
AcDbEntity
  8
I-JOIN-THIN
100
AcDbLine
 10
187.75
 20
78.0
 30
0.0
 11
187.75
 21
97.0
 31
0.0
  0
LINE
  5
1B8
330
17
100
AcDbEntity
  8
I-JOIN-THIN
100
AcDbLine
 10
176.9
 20
87.5
 30
0.0
 11
198.6
 21
87.5
 31
0.0
  0
TEXT
  5
1B9
330
17
100
AcDbEntity
  8
I-TEXT
100
AcDbText
 10
177.25
 20
88.5
 30
0.0
 40
1.5
  1
ADJ
 11
177.25
 21
88.5
 31
0.0
100
AcDbText
  0
LINE
  5
1BA
330
17
100
AcDbEntity
  8
I-JOIN-THIN
100
AcDbLine
 10
176.9
 20
78.0
 30
0.0
 11
176.9
 21
97.0
 31
0.0
  0
LINE
  5
1BB
330
17
100
AcDbEntity
  8
I-JOIN-THIN
100
AcDbLine
 10
198.6
 20
78.0
 30
0.0
 11
198.6
 21
97.0
 31
0.0
  0
LWPOLYLINE
  5
1BC
330
17
100
AcDbEntity
  8
I-JOIN-ELEV
100
AcDbPolyline
 90
4
 70
1
 10
176.25
 20
97.0
 10
199.25
 20
97.0
 10
199.25
 20
98.0
 10
176.25
 20
98.0
  0
HATCH
  5
1BD
330
17
100
AcDbEntity
  8
I-JOIN-HATCH
 62
7
100
AcDbHatch
 10
0.0
 20
0.0
 30
0.0
210
0.0
220
0.0
230
1.0
  2
BRICK
 70
0
 71
0
 91
1
 92
3
 72
0
 73
1
 93
4
 10
176.5
 20
98.0
 10
199.0
 20
98.0
 10
199.0
 20
115.5
 10
176.5
 20
115.5
 97
0
 75
1
 76
1
 52
0.0
 41
0.8
 77
0
 78
3
 53
0.0
 43
0.0
 44
0.0
 45
0.0
 46
5.08
 79
0
 53
90.0
 43
0.0
 44
0.0
 45
-10.16
 46
0.0
 79
2
 49
5.08
 49
-5.08
 53
90.0
 43
5.08
 44
0.0
 45
-10.16
 46
0.0
 79
2
 49
-5.08
 49
5.08
 98
0
  0
LWPOLYLINE
  5
1BE
330
17
100
AcDbEntity
  8
I-JOIN-ELEV
100
AcDbPolyline
 90
4
 70
1
 10
176.5
 20
115.5
 10
199.0
 20
115.5
 10
199.0
 20
133.0
 10
176.5
 20
133.0
  0
LINE
  5
1BF
330
17
100
AcDbEntity
  8
I-JOIN-THIN
100
AcDbLine
 10
176.9
 20
124.25
 30
0.0
 11
198.6
 21
124.25
 31
0.0
  0
TEXT
  5
1C0
330
17
100
AcDbEntity
  8
I-TEXT
100
AcDbText
 10
177.25
 20
125.25
 30
0.0
 40
1.5
  1
ADJ
 11
177.25
 21
125.25
 31
0.0
100
AcDbText
  0
LINE
  5
1C1
330
17
100
AcDbEntity
  8
I-JOIN-THIN
100
AcDbLine
 10
176.9
 20
115.5
 30
0.0
 11
176.9
 21
133.0
 31
0.0
  0
LINE
  5
1C2
330
17
100
AcDbEntity
  8
I-JOIN-THIN
100
AcDbLine
 10
198.6
 20
115.5
 30
0.0
 11
198.6
 21
133.0
 31
0.0
  0
LWPOLYLINE
  5
1C3
330
17
100
AcDbEntity
  8
I-JOIN-ELEV
100
AcDbPolyline
 90
4
 70
1
 10
176.5
 20
133.0
 10
199.0
 20
133.0
 10
199.0
 20
155.0
 10
176.5
 20
155.0
  0
LWPOLYLINE
  5
1C4
330
17
100
AcDbEntity
  8
I-JOIN-ELEV
100
AcDbPolyline
 90
4
 70
1
 10
199.0
 20
78.0
 10
214.0
 20
78.0
 10
214.0
 20
97.0
 10
199.0
 20
97.0
  0
TEXT
  5
1C5
330
17
100
AcDbEntity
  8
I-TEXT
100
AcDbText
 10
206.5
 20
87.5
 30
0.0
 40
1.5
  1
DISHWASHER
 72
1
 11
206.5
 21
87.5
 31
0.0
100
AcDbText
 73
2
  0
LWPOLYLINE
  5
1C6
330
17
100
AcDbEntity
  8
I-JOIN-ELEV
100
AcDbPolyline
 90
4
 70
1
 10
198.75
 20
97.0
 10
214.25
 20
97.0
 10
214.25
 20
98.0
 10
198.75
 20
98.0
  0
HATCH
  5
1C7
330
17
100
AcDbEntity
  8
I-JOIN-HATCH
 62
7
100
AcDbHatch
 10
0.0
 20
0.0
 30
0.0
210
0.0
220
0.0
230
1.0
  2
BRICK
 70
0
 71
0
 91
1
 92
3
 72
0
 73
1
 93
4
 10
199.0
 20
98.0
 10
214.0
 20
98.0
 10
214.0
 20
115.5
 10
199.0
 20
115.5
 97
0
 75
1
 76
1
 52
0.0
 41
0.8
 77
0
 78
3
 53
0.0
 43
0.0
 44
0.0
 45
0.0
 46
5.08
 79
0
 53
90.0
 43
0.0
 44
0.0
 45
-10.16
 46
0.0
 79
2
 49
5.08
 49
-5.08
 53
90.0
 43
5.08
 44
0.0
 45
-10.16
 46
0.0
 79
2
 49
-5.08
 49
5.08
 98
0
  0
LWPOLYLINE
  5
1C8
330
17
100
AcDbEntity
  8
I-JOIN-ELEV
100
AcDbPolyline
 90
4
 70
1
 10
199.0
 20
115.5
 10
214.0
 20
115.5
 10
214.0
 20
133.0
 10
199.0
 20
133.0
  0
LINE
  5
1C9
330
17
100
AcDbEntity
  8
I-JOIN-THIN
100
AcDbLine
 10
199.4
 20
124.25
 30
0.0
 11
213.6
 21
124.25
 31
0.0
  0
TEXT
  5
1CA
330
17
100
AcDbEntity
  8
I-TEXT
100
AcDbText
 10
199.75
 20
125.25
 30
0.0
 40
1.5
  1
ADJ
 11
199.75
 21
125.25
 31
0.0
100
AcDbText
  0
LINE
  5
1CB
330
17
100
AcDbEntity
  8
I-JOIN-THIN
100
AcDbLine
 10
199.4
 20
115.5
 30
0.0
 11
199.4
 21
133.0
 31
0.0
  0
LINE
  5
1CC
330
17
100
AcDbEntity
  8
I-JOIN-THIN
100
AcDbLine
 10
213.6
 20
115.5
 30
0.0
 11
213.6
 21
133.0
 31
0.0
  0
LWPOLYLINE
  5
1CD
330
17
100
AcDbEntity
  8
I-JOIN-ELEV
100
AcDbPolyline
 90
4
 70
1
 10
199.0
 20
133.0
 10
214.0
 20
133.0
 10
214.0
 20
155.0
 10
199.0
 20
155.0
  0
LWPOLYLINE
  5
1CE
330
17
100
AcDbEntity
  8
I-JOIN-ELEV
100
AcDbPolyline
 90
4
 70
1
 10
214.0
 20
78.0
 10
239.0
 20
78.0
 10
239.0
 20
97.0
 10
214.0
 20
97.0
  0
LINE
  5
1CF
330
17
100
AcDbEntity
  8
I-JOIN-THIN
100
AcDbLine
 10
226.5
 20
78.0
 30
0.0
 11
226.5
 21
97.0
 31
0.0
  0
LINE
  5
1D0
330
17
100
AcDbEntity
  8
I-JOIN-THIN
100
AcDbLine
 10
214.4
 20
78.0
 30
0.0
 11
214.4
 21
97.0
 31
0.0
  0
LINE
  5
1D1
330
17
100
AcDbEntity
  8
I-JOIN-THIN
100
AcDbLine
 10
238.6
 20
78.0
 30
0.0
 11
238.6
 21
97.0
 31
0.0
  0
LWPOLYLINE
  5
1D2
330
17
100
AcDbEntity
  8
I-JOIN-ELEV
100
AcDbPolyline
 90
4
 70
1
 10
213.75
 20
97.0
 10
239.25
 20
97.0
 10
239.25
 20
98.0
 10
213.75
 20
98.0
  0
HATCH
  5
1D3
330
17
100
AcDbEntity
  8
I-JOIN-HATCH
 62
7
100
AcDbHatch
 10
0.0
 20
0.0
 30
0.0
210
0.0
220
0.0
230
1.0
  2
BRICK
 70
0
 71
0
 91
1
 92
3
 72
0
 73
1
 93
4
 10
214.0
 20
98.0
 10
239.0
 20
98.0
 10
239.0
 20
115.5
 10
214.0
 20
115.5
 97
0
 75
1
 76
1
 52
0.0
 41
0.8
 77
0
 78
3
 53
0.0
 43
0.0
 44
0.0
 45
0.0
 46
5.08
 79
0
 53
90.0
 43
0.0
 44
0.0
 45
-10.16
 46
0.0
 79
2
 49
5.08
 49
-5.08
 53
90.0
 43
5.08
 44
0.0
 45
-10.16
 46
0.0
 79
2
 49
-5.08
 49
5.08
 98
0
  0
LWPOLYLINE
  5
1D4
330
17
100
AcDbEntity
  8
I-JOIN-ELEV
100
AcDbPolyline
 90
4
 70
1
 10
214.0
 20
115.5
 10
239.0
 20
115.5
 10
239.0
 20
133.0
 10
214.0
 20
133.0
  0
LINE
  5
1D5
330
17
100
AcDbEntity
  8
I-JOIN-THIN
100
AcDbLine
 10
214.4
 20
124.25
 30
0.0
 11
238.6
 21
124.25
 31
0.0
  0
TEXT
  5
1D6
330
17
100
AcDbEntity
  8
I-TEXT
100
AcDbText
 10
214.75
 20
125.25
 30
0.0
 40
1.5
  1
ADJ
 11
214.75
 21
125.25
 31
0.0
100
AcDbText
  0
LINE
  5
1D7
330
17
100
AcDbEntity
  8
I-JOIN-THIN
100
AcDbLine
 10
214.4
 20
115.5
 30
0.0
 11
214.4
 21
133.0
 31
0.0
  0
LINE
  5
1D8
330
17
100
AcDbEntity
  8
I-JOIN-THIN
100
AcDbLine
 10
238.6
 20
115.5
 30
0.0
 11
238.6
 21
133.0
 31
0.0
  0
LWPOLYLINE
  5
1D9
330
17
100
AcDbEntity
  8
I-JOIN-ELEV
100
AcDbPolyline
 90
4
 70
1
 10
214.0
 20
133.0
 10
239.0
 20
133.0
 10
239.0
 20
155.0
 10
214.0
 20
155.0
  0
LWPOLYLINE
  5
1DA
330
17
100
AcDbEntity
  8
I-JOIN-ELEV
100
AcDbPolyline
 90
4
 70
1
 10
239.0
 20
78.0
 10
259.0
 20
78.0
 10
259.0
 20
83.5
 10
239.0
 20
83.5
  0
TEXT
  5
1DB
330
17
100
AcDbEntity
  8
I-TEXT
100
AcDbText
 10
249.0
 20
80.75
 30
0.0
 40
1.4
  1
DRAWER
 72
1
 11
249.0
 21
80.75
 31
0.0
100
AcDbText
 73
2
  0
LWPOLYLINE
  5
1DC
330
17
100
AcDbEntity
  8
I-JOIN-ELEV
100
AcDbPolyline
 90
4
 70
1
 10
239.0
 20
83.5
 10
259.0
 20
83.5
 10
259.0
 20
89.75
 10
239.0
 20
89.75
  0
TEXT
  5
1DD
330
17
100
AcDbEntity
  8
I-TEXT
100
AcDbText
 10
249.0
 20
86.625
 30
0.0
 40
1.4
  1
DRAWER
 72
1
 11
249.0
 21
86.625
 31
0.0
100
AcDbText
 73
2
  0
LWPOLYLINE
  5
1DE
330
17
100
AcDbEntity
  8
I-JOIN-ELEV
100
AcDbPolyline
 90
4
 70
1
 10
239.0
 20
89.75
 10
259.0
 20
89.75
 10
259.0
 20
97.0
 10
239.0
 20
97.0
  0
TEXT
  5
1DF
330
17
100
AcDbEntity
  8
I-TEXT
100
AcDbText
 10
249.0
 20
93.375
 30
0.0
 40
1.4
  1
DRAWER
 72
1
 11
249.0
 21
93.375
 31
0.0
100
AcDbText
 73
2
  0
LWPOLYLINE
  5
1E0
330
17
100
AcDbEntity
  8
I-JOIN-ELEV
100
AcDbPolyline
 90
4
 70
1
 10
238.75
 20
97.0
 10
259.25
 20
97.0
 10
259.25
 20
98.0
 10
238.75
 20
98.0
  0
HATCH
  5
1E1
330
17
100
AcDbEntity
  8
I-JOIN-HATCH
 62
7
100
AcDbHatch
 10
0.0
 20
0.0
 30
0.0
210
0.0
220
0.0
230
1.0
  2
BRICK
 70
0
 71
0
 91
1
 92
3
 72
0
 73
1
 93
4
 10
239.0
 20
98.0
 10
259.0
 20
98.0
 10
259.0
 20
115.5
 10
239.0
 20
115.5
 97
0
 75
1
 76
1
 52
0.0
 41
0.8
 77
0
 78
3
 53
0.0
 43
0.0
 44
0.0
 45
0.0
 46
5.08
 79
0
 53
90.0
 43
0.0
 44
0.0
 45
-10.16
 46
0.0
 79
2
 49
5.08
 49
-5.08
 53
90.0
 43
5.08
 44
0.0
 45
-10.16
 46
0.0
 79
2
 49
-5.08
 49
5.08
 98
0
  0
LWPOLYLINE
  5
1E2
330
17
100
AcDbEntity
  8
I-JOIN-ELEV
100
AcDbPolyline
 90
4
 70
1
 10
239.0
 20
115.5
 10
259.0
 20
115.5
 10
259.0
 20
133.0
 10
239.0
 20
133.0
  0
LINE
  5
1E3
330
17
100
AcDbEntity
  8
I-JOIN-THIN
100
AcDbLine
 10
239.4
 20
124.25
 30
0.0
 11
258.6
 21
124.25
 31
0.0
  0
TEXT
  5
1E4
330
17
100
AcDbEntity
  8
I-TEXT
100
AcDbText
 10
239.75
 20
125.25
 30
0.0
 40
1.5
  1
ADJ
 11
239.75
 21
125.25
 31
0.0
100
AcDbText
  0
LINE
  5
1E5
330
17
100
AcDbEntity
  8
I-JOIN-THIN
100
AcDbLine
 10
239.4
 20
115.5
 30
0.0
 11
239.4
 21
133.0
 31
0.0
  0
LINE
  5
1E6
330
17
100
AcDbEntity
  8
I-JOIN-THIN
100
AcDbLine
 10
258.6
 20
115.5
 30
0.0
 11
258.6
 21
133.0
 31
0.0
  0
LWPOLYLINE
  5
1E7
330
17
100
AcDbEntity
  8
I-JOIN-ELEV
100
AcDbPolyline
 90
4
 70
1
 10
239.0
 20
133.0
 10
259.0
 20
133.0
 10
259.0
 20
155.0
 10
239.0
 20
155.0
  0
LWPOLYLINE
  5
1E8
330
17
100
AcDbEntity
  8
I-JOIN-ELEV
100
AcDbPolyline
 90
4
 70
1
 10
259.0
 20
78.0
 10
279.25
 20
78.0
 10
279.25
 20
97.0
 10
259.0
 20
97.0
  0
LINE
  5
1E9
330
17
100
AcDbEntity
  8
I-JOIN-THIN
100
AcDbLine
 10
269.125
 20
78.0
 30
0.0
 11
269.125
 21
97.0
 31
0.0
  0
LINE
  5
1EA
330
17
100
AcDbEntity
  8
I-JOIN-THIN
100
AcDbLine
 10
259.4
 20
87.5
 30
0.0
 11
278.85
 21
87.5
 31
0.0
  0
TEXT
  5
1EB
330
17
100
AcDbEntity
  8
I-TEXT
100
AcDbText
 10
259.75
 20
88.5
 30
0.0
 40
1.5
  1
ADJ
 11
259.75
 21
88.5
 31
0.0
100
AcDbText
  0
LINE
  5
1EC
330
17
100
AcDbEntity
  8
I-JOIN-THIN
100
AcDbLine
 10
259.4
 20
78.0
 30
0.0
 11
259.4
 21
97.0
 31
0.0
  0
LINE
  5
1ED
330
17
100
AcDbEntity
  8
I-JOIN-THIN
100
AcDbLine
 10
278.85
 20
78.0
 30
0.0
 11
278.85
 21
97.0
 31
0.0
  0
LWPOLYLINE
  5
1EE
330
17
100
AcDbEntity
  8
I-JOIN-ELEV
100
AcDbPolyline
 90
4
 70
1
 10
258.75
 20
97.0
 10
279.5
 20
97.0
 10
279.5
 20
98.0
 10
258.75
 20
98.0
  0
HATCH
  5
1EF
330
17
100
AcDbEntity
  8
I-JOIN-HATCH
 62
7
100
AcDbHatch
 10
0.0
 20
0.0
 30
0.0
210
0.0
220
0.0
230
1.0
  2
BRICK
 70
0
 71
0
 91
1
 92
3
 72
0
 73
1
 93
4
 10
259.0
 20
98.0
 10
279.25
 20
98.0
 10
279.25
 20
115.5
 10
259.0
 20
115.5
 97
0
 75
1
 76
1
 52
0.0
 41
0.8
 77
0
 78
3
 53
0.0
 43
0.0
 44
0.0
 45
0.0
 46
5.08
 79
0
 53
90.0
 43
0.0
 44
0.0
 45
-10.16
 46
0.0
 79
2
 49
5.08
 49
-5.08
 53
90.0
 43
5.08
 44
0.0
 45
-10.16
 46
0.0
 79
2
 49
-5.08
 49
5.08
 98
0
  0
LWPOLYLINE
  5
1F0
330
17
100
AcDbEntity
  8
I-JOIN-ELEV
100
AcDbPolyline
 90
4
 70
1
 10
259.0
 20
115.5
 10
279.25
 20
115.5
 10
279.25
 20
133.0
 10
259.0
 20
133.0
  0
LINE
  5
1F1
330
17
100
AcDbEntity
  8
I-JOIN-THIN
100
AcDbLine
 10
259.4
 20
124.25
 30
0.0
 11
278.85
 21
124.25
 31
0.0
  0
TEXT
  5
1F2
330
17
100
AcDbEntity
  8
I-TEXT
100
AcDbText
 10
259.75
 20
125.25
 30
0.0
 40
1.5
  1
ADJ
 11
259.75
 21
125.25
 31
0.0
100
AcDbText
  0
LINE
  5
1F3
330
17
100
AcDbEntity
  8
I-JOIN-THIN
100
AcDbLine
 10
259.4
 20
115.5
 30
0.0
 11
259.4
 21
133.0
 31
0.0
  0
LINE
  5
1F4
330
17
100
AcDbEntity
  8
I-JOIN-THIN
100
AcDbLine
 10
278.85
 20
115.5
 30
0.0
 11
278.85
 21
133.0
 31
0.0
  0
LWPOLYLINE
  5
1F5
330
17
100
AcDbEntity
  8
I-JOIN-ELEV
100
AcDbPolyline
 90
4
 70
1
 10
259.0
 20
133.0
 10
279.25
 20
133.0
 10
279.25
 20
155.0
 10
259.0
 20
155.0
  0
LWPOLYLINE
  5
1F6
330
17
100
AcDbEntity
  8
I-JOIN-ELEV
100
AcDbPolyline
 90
4
 70
1
 10
176.5
 20
78.0
 10
279.25
 20
78.0
 10
279.25
 20
155.0
 10
176.5
 20
155.0
  0
LWPOLYLINE
  5
1F7
330
17
100
AcDbEntity
  8
I-JOIN-ELEV
100
AcDbPolyline
 90
4
 70
1
 10
176.25
 20
97.0
 10
279.5
 20
97.0
 10
279.5
 20
98.0
 10
176.25
 20
98.0
  0
LINE
  5
1F8
330
17
100
AcDbEntity
  8
I-NOTE
 62
7
100
AcDbLine
 10
227.875
 20
119.5
 30
0.0
 11
289.5
 21
125.1
 31
0.0
  0
CIRCLE
  5
1F9
330
17
100
AcDbEntity
  8
I-NOTE
 62
7
100
AcDbCircle
 10
227.875
 20
119.5
 30
0.0
 40
0.45
  0
TEXT
  5
1FA
330
17
100
AcDbEntity
  8
I-NOTE
 62
7
100
AcDbText
 10
290.3
 20
127.565
 30
0.0
 40
1.7
  1
INNER CARCASS
 11
290.3
 21
127.565
 31
0.0
100
AcDbText
 73
2
  0
TEXT
  5
1FB
330
17
100
AcDbEntity
  8
I-NOTE
 62
7
100
AcDbText
 10
290.3
 20
125.1
 30
0.0
 40
1.7
  1
WHITE
 11
290.3
 21
125.1
 31
0.0
100
AcDbText
 73
2
  0
TEXT
  5
1FC
330
17
100
AcDbEntity
  8
I-NOTE
 62
1
100
AcDbText
 10
290.3
 20
122.63499999999999
 30
0.0
 40
1.7
  1
MELAMINE
 11
290.3
 21
122.63499999999999
 31
0.0
100
AcDbText
 73
2
  0
CIRCLE
  5
1FD
330
17
100
AcDbEntity
  8
I-TEXT
100
AcDbCircle
 10
179.0
 20
49.5
 30
0.0
 40
4.5
  0
TEXT
  5
1FE
330
17
100
AcDbEntity
  8
I-TEXT
100
AcDbText
 10
185.5
 20
50.4
 30
0.0
 40
2.8
  1
INNER CARCASS A
 11
185.5
 21
50.4
 31
0.0
100
AcDbText
  0
LINE
  5
1FF
330
17
100
AcDbEntity
  8
I-TEXT
100
AcDbLine
 10
183.5
 20
49.5
 30
0.0
 11
228.5
 21
49.5
 31
0.0
  0
TEXT
  5
200
330
17
100
AcDbEntity
  8
I-TEXT
100
AcDbText
 10
185.5
 20
46.3
 30
0.0
 40
2.4
  1
1:40
 11
185.5
 21
46.3
 31
0.0
100
AcDbText
  0
LINE
  5
201
330
17
100
AcDbEntity
  8
A-WALL
100
AcDbLine
 10
316.0
 20
75.5
 30
0.0
 11
346.0
 21
75.5
 31
0.0
  0
LWPOLYLINE
  5
202
330
17
100
AcDbEntity
  8
I-NOTE
 62
1
100
AcDbPolyline
 90
3
 70
1
 10
358.5
 20
75.5
 10
357.3
 20
77.18
 10
359.7
 20
77.18
  0
TEXT
  5
203
330
17
100
AcDbEntity
  8
I-TEXT
100
AcDbText
 10
356.5
 20
75.7
 30
0.0
 40
1.6
  1
FFL 000
 72
2
 11
356.5
 21
75.7
 31
0.0
100
AcDbText
 73
1
  0
LWPOLYLINE
  5
204
330
17
100
AcDbEntity
  8
A-WALL
100
AcDbPolyline
 90
4
 70
1
 10
338.5
 20
74.0
 10
342.25
 20
74.0
 10
342.25
 20
158.5
 10
338.5
 20
158.5
  0
HATCH
  5
205
330
17
100
AcDbEntity
  8
I-JOIN-HATCH
 62
7
100
AcDbHatch
 10
0.0
 20
0.0
 30
0.0
210
0.0
220
0.0
230
1.0
  2
ANSI31
 70
0
 71
0
 91
1
 92
3
 72
0
 73
1
 93
4
 10
338.5
 20
74.0
 10
342.25
 20
74.0
 10
342.25
 20
158.5
 10
338.5
 20
158.5
 97
0
 75
1
 76
1
 52
0.0
 41
2.1333333333333333
 77
0
 78
1
 53
45.0
 43
0.0
 44
0.0
 45
-4.7894699313
 46
4.7894699313
 79
0
 98
0
  0
LINE
  5
206
330
17
100
AcDbEntity
  8
I-CEIL
100
AcDbLine
 10
316.0
 20
155.5
 30
0.0
 11
346.0
 21
155.5
 31
0.0
  0
LWPOLYLINE
  5
207
330
17
100
AcDbEntity
  8
I-NOTE
 62
1
100
AcDbPolyline
 90
3
 70
1
 10
358.5
 20
155.5
 10
357.3
 20
157.18
 10
359.7
 20
157.18
  0
TEXT
  5
208
330
17
100
AcDbEntity
  8
I-TEXT
100
AcDbText
 10
356.5
 20
155.7
 30
0.0
 40
1.6
  1
CL 3200
 72
2
 11
356.5
 21
155.7
 31
0.0
100
AcDbText
 73
1
  0
LWPOLYLINE
  5
209
330
17
100
AcDbEntity
  8
I-JOIN-THIN
100
AcDbPolyline
 90
4
 70
1
 10
325.0
 20
75.5
 10
338.05
 20
75.5
 10
338.05
 20
78.0
 10
325.0
 20
78.0
  0
LWPOLYLINE
  5
20A
330
17
100
AcDbEntity
  8
I-JOIN-ELEV
100
AcDbPolyline
 90
4
 70
1
 10
323.95
 20
78.0
 10
338.05
 20
78.0
 10
338.05
 20
97.0
 10
323.95
 20
97.0
  0
LWPOLYLINE
  5
20B
330
17
100
AcDbEntity
  8
I-JOIN-THIN
100
AcDbPolyline
 90
4
 70
1
 10
338.05
 20
78.0
 10
338.5
 20
78.0
 10
338.5
 20
97.0
 10
338.05
 20
97.0
  0
LWPOLYLINE
  5
20C
330
17
100
AcDbEntity
  8
I-JOIN-ELEV
100
AcDbPolyline
 90
4
 70
1
 10
323.5
 20
78.0
 10
323.95
 20
78.0
 10
323.95
 20
97.0
 10
323.5
 20
97.0
  0
LWPOLYLINE
  5
20D
330
17
100
AcDbEntity
  8
I-JOIN-THIN
100
AcDbPolyline
 90
4
 70
1
 10
324.45
 20
87.275
 10
338.05
 20
87.275
 10
338.05
 20
87.725
 10
324.45
 20
87.725
  0
LWPOLYLINE
  5
20E
330
17
100
AcDbEntity
  8
I-JOIN-ELEV
100
AcDbPolyline
 90
4
 70
1
 10
323.25
 20
97.0
 10
338.5
 20
97.0
 10
338.5
 20
98.0
 10
323.25
 20
98.0
  0
LWPOLYLINE
  5
20F
330
17
100
AcDbEntity
  8
I-JOIN-ELEV
100
AcDbPolyline
 90
4
 70
1
 10
330.2
 20
115.5
 10
338.05
 20
115.5
 10
338.05
 20
133.0
 10
330.2
 20
133.0
  0
LWPOLYLINE
  5
210
330
17
100
AcDbEntity
  8
I-JOIN-THIN
100
AcDbPolyline
 90
4
 70
1
 10
338.05
 20
115.5
 10
338.5
 20
115.5
 10
338.5
 20
133.0
 10
338.05
 20
133.0
  0
LWPOLYLINE
  5
211
330
17
100
AcDbEntity
  8
I-JOIN-ELEV
100
AcDbPolyline
 90
4
 70
1
 10
329.75
 20
115.5
 10
330.2
 20
115.5
 10
330.2
 20
133.0
 10
329.75
 20
133.0
  0
LWPOLYLINE
  5
212
330
17
100
AcDbEntity
  8
I-JOIN-THIN
100
AcDbPolyline
 90
4
 70
1
 10
330.7
 20
124.025
 10
338.05
 20
124.025
 10
338.05
 20
124.475
 10
330.7
 20
124.475
  0
LWPOLYLINE
  5
213
330
17
100
AcDbEntity
  8
I-JOIN-ELEV
100
AcDbPolyline
 90
4
 70
1
 10
323.95
 20
133.0
 10
338.05
 20
133.0
 10
338.05
 20
155.0
 10
323.95
 20
155.0
  0
LWPOLYLINE
  5
214
330
17
100
AcDbEntity
  8
I-JOIN-THIN
100
AcDbPolyline
 90
4
 70
1
 10
338.05
 20
133.0
 10
338.5
 20
133.0
 10
338.5
 20
155.0
 10
338.05
 20
155.0
  0
LWPOLYLINE
  5
215
330
17
100
AcDbEntity
  8
I-JOIN-ELEV
100
AcDbPolyline
 90
4
 70
1
 10
323.5
 20
133.0
 10
323.95
 20
133.0
 10
323.95
 20
155.0
 10
323.5
 20
155.0
  0
LWPOLYLINE
  5
216
330
17
100
AcDbEntity
  8
I-JOIN-ELEV
100
AcDbPolyline
 90
4
 70
1
 10
323.0
 20
97.0
 10
338.5
 20
97.0
 10
338.5
 20
98.0
 10
323.0
 20
98.0
  0
LWPOLYLINE
  5
217
330
17
100
AcDbEntity
  8
I-JOIN-THIN
100
AcDbPolyline
 90
4
 70
1
 10
323.5
 20
155.0
 10
338.5
 20
155.0
 10
338.5
 20
155.5
 10
323.5
 20
155.5
  0
LINE
  5
218
330
17
100
AcDbEntity
  8
I-DIM
100
AcDbLine
 10
323.5
 20
72.8
 30
0.0
 11
323.5
 21
68.75
 31
0.0
  0
LINE
  5
219
330
17
100
AcDbEntity
  8
I-DIM
100
AcDbLine
 10
338.5
 20
72.8
 30
0.0
 11
338.5
 21
68.75
 31
0.0
  0
LINE
  5
21A
330
17
100
AcDbEntity
  8
I-DIM
100
AcDbLine
 10
322.0
 20
70.25
 30
0.0
 11
340.0
 21
70.25
 31
0.0
  0
LINE
  5
21B
330
17
100
AcDbEntity
  8
I-DIM
100
AcDbLine
 10
322.4
 20
69.15
 30
0.0
 11
324.6
 21
71.35
 31
0.0
  0
LINE
  5
21C
330
17
100
AcDbEntity
  8
I-DIM
100
AcDbLine
 10
337.4
 20
69.15
 30
0.0
 11
339.6
 21
71.35
 31
0.0
  0
TEXT
  5
21D
330
17
100
AcDbEntity
  8
I-DIM
100
AcDbText
 10
331.0
 20
71.15
 30
0.0
 40
1.8
  1
600
 72
1
 11
331.0
 21
71.15
 31
0.0
100
AcDbText
 73
1
  0
CIRCLE
  5
21E
330
17
100
AcDbEntity
  8
I-TEXT
100
AcDbCircle
 10
326.0
 20
49.5
 30
0.0
 40
4.5
  0
TEXT
  5
21F
330
17
100
AcDbEntity
  8
I-TEXT
100
AcDbText
 10
332.5
 20
50.4
 30
0.0
 40
2.8
  1
SECTION X-X
 11
332.5
 21
50.4
 31
0.0
100
AcDbText
  0
LINE
  5
220
330
17
100
AcDbEntity
  8
I-TEXT
100
AcDbLine
 10
330.5
 20
49.5
 30
0.0
 11
375.5
 21
49.5
 31
0.0
  0
TEXT
  5
221
330
17
100
AcDbEntity
  8
I-TEXT
100
AcDbText
 10
332.5
 20
46.3
 30
0.0
 40
2.4
  1
1:40
 11
332.5
 21
46.3
 31
0.0
100
AcDbText
  0
LWPOLYLINE
  5
222
330
17
100
AcDbEntity
  8
A-WALL
100
AcDbPolyline
 90
4
 70
1
 10
32.0
 20
264.25
 10
142.25
 20
264.25
 10
142.25
 20
268.0
 10
32.0
 20
268.0
  0
HATCH
  5
223
330
17
100
AcDbEntity
  8
I-JOIN-HATCH
 62
7
100
AcDbHatch
 10
0.0
 20
0.0
 30
0.0
210
0.0
220
0.0
230
1.0
  2
ANSI31
 70
0
 71
0
 91
1
 92
3
 72
0
 73
1
 93
4
 10
32.0
 20
264.25
 10
142.25
 20
264.25
 10
142.25
 20
268.0
 10
32.0
 20
268.0
 97
0
 75
1
 76
1
 52
0.0
 41
2.1333333333333333
 77
0
 78
1
 53
45.0
 43
0.0
 44
0.0
 45
-4.7894699313
 46
4.7894699313
 79
0
 98
0
  0
LWPOLYLINE
  5
224
330
17
100
AcDbEntity
  8
A-WALL
100
AcDbPolyline
 90
4
 70
1
 10
32.0
 20
245.5
 10
35.75
 20
245.5
 10
35.75
 20
264.25
 10
32.0
 20
264.25
  0
HATCH
  5
225
330
17
100
AcDbEntity
  8
I-JOIN-HATCH
 62
7
100
AcDbHatch
 10
0.0
 20
0.0
 30
0.0
210
0.0
220
0.0
230
1.0
  2
ANSI31
 70
0
 71
0
 91
1
 92
3
 72
0
 73
1
 93
4
 10
32.0
 20
245.5
 10
35.75
 20
245.5
 10
35.75
 20
264.25
 10
32.0
 20
264.25
 97
0
 75
1
 76
1
 52
0.0
 41
2.1333333333333333
 77
0
 78
1
 53
45.0
 43
0.0
 44
0.0
 45
-4.7894699313
 46
4.7894699313
 79
0
 98
0
  0
LWPOLYLINE
  5
226
330
17
100
AcDbEntity
  8
A-WALL
100
AcDbPolyline
 90
4
 70
1
 10
138.5
 20
245.5
 10
142.25
 20
245.5
 10
142.25
 20
264.25
 10
138.5
 20
264.25
  0
HATCH
  5
227
330
17
100
AcDbEntity
  8
I-JOIN-HATCH
 62
7
100
AcDbHatch
 10
0.0
 20
0.0
 30
0.0
210
0.0
220
0.0
230
1.0
  2
ANSI31
 70
0
 71
0
 91
1
 92
3
 72
0
 73
1
 93
4
 10
138.5
 20
245.5
 10
142.25
 20
245.5
 10
142.25
 20
264.25
 10
138.5
 20
264.25
 97
0
 75
1
 76
1
 52
0.0
 41
2.1333333333333333
 77
0
 78
1
 53
45.0
 43
0.0
 44
0.0
 45
-4.7894699313
 46
4.7894699313
 79
0
 98
0
  0
LWPOLYLINE
  5
228
330
17
100
AcDbEntity
  8
I-JOIN
100
AcDbPolyline
 90
4
 70
1
 10
35.75
 20
249.25
 10
138.5
 20
249.25
 10
138.5
 20
264.25
 10
35.75
 20
264.25
  0
LINE
  5
229
330
17
100
AcDbEntity
  8
I-JOIN
100
AcDbLine
 10
35.75
 20
249.25
 30
0.0
 11
35.75
 21
264.25
 31
0.0
  0
LINE
  5
22A
330
17
100
AcDbEntity
  8
I-JOIN
100
AcDbLine
 10
58.25
 20
249.25
 30
0.0
 11
58.25
 21
264.25
 31
0.0
  0
LINE
  5
22B
330
17
100
AcDbEntity
  8
I-JOIN
100
AcDbLine
 10
73.25
 20
249.25
 30
0.0
 11
73.25
 21
264.25
 31
0.0
  0
LINE
  5
22C
330
17
100
AcDbEntity
  8
I-JOIN
100
AcDbLine
 10
98.25
 20
249.25
 30
0.0
 11
98.25
 21
264.25
 31
0.0
  0
LINE
  5
22D
330
17
100
AcDbEntity
  8
I-JOIN
100
AcDbLine
 10
118.25
 20
249.25
 30
0.0
 11
118.25
 21
264.25
 31
0.0
  0
LINE
  5
22E
330
17
100
AcDbEntity
  8
I-JOIN
100
AcDbLine
 10
35.75
 20
249.7
 30
0.0
 11
138.5
 21
249.7
 31
0.0
  0
CIRCLE
  5
22F
330
17
100
AcDbEntity
  8
I-SYMB
 62
6
100
AcDbCircle
 10
87.125
 20
238.75
 30
0.0
 40
2.6
  0
HATCH
  5
230
330
17
100
AcDbEntity
  8
I-SYMB
 62
6
100
AcDbHatch
 10
0.0
 20
0.0
 30
0.0
210
0.0
220
0.0
230
1.0
  2
SOLID
 70
1
 71
0
 91
1
 92
3
 72
0
 73
1
 93
3
 10
87.125
 20
243.69
 10
84.70169837648521
 20
239.69213016163934
 10
89.54830162351479
 20
239.69213016163934
 97
0
 75
1
 76
1
 98
0
  0
TEXT
  5
231
330
17
100
AcDbEntity
  8
I-SYMB
 62
6
100
AcDbText
 10
87.125
 20
238.75
 30
0.0
 40
2.7300000000000004
  1
A
 72
1
 11
87.125
 21
238.75
 31
0.0
100
AcDbText
 73
2
  0
LINE
  5
232
330
17
100
AcDbEntity
  8
I-SYMB
 62
6
100
AcDbLine
 10
47.0
 20
243.0
 30
0.0
 11
47.0
 21
271.75
 31
0.0
  0
CIRCLE
  5
233
330
17
100
AcDbEntity
  8
I-SYMB
 62
6
100
AcDbCircle
 10
47.0
 20
243.0
 30
0.0
 40
2.2
  0
TEXT
  5
234
330
17
100
AcDbEntity
  8
I-SYMB
 62
6
100
AcDbText
 10
47.0
 20
243.0
 30
0.0
 40
2.2
  1
X
 72
1
 11
47.0
 21
243.0
 31
0.0
100
AcDbText
 73
2
  0
CIRCLE
  5
235
330
17
100
AcDbEntity
  8
I-SYMB
 62
6
100
AcDbCircle
 10
47.0
 20
271.75
 30
0.0
 40
2.2
  0
TEXT
  5
236
330
17
100
AcDbEntity
  8
I-SYMB
 62
6
100
AcDbText
 10
47.0
 20
271.75
 30
0.0
 40
2.2
  1
X
 72
1
 11
47.0
 21
271.75
 31
0.0
100
AcDbText
 73
2
  0
LINE
  5
237
330
17
100
AcDbEntity
  8
I-DIM
100
AcDbLine
 10
35.75
 20
269.2
 30
0.0
 11
35.75
 21
275.0
 31
0.0
  0
LINE
  5
238
330
17
100
AcDbEntity
  8
I-DIM
100
AcDbLine
 10
138.5
 20
269.2
 30
0.0
 11
138.5
 21
275.0
 31
0.0
  0
LINE
  5
239
330
17
100
AcDbEntity
  8
I-DIM
100
AcDbLine
 10
34.25
 20
273.5
 30
0.0
 11
140.0
 21
273.5
 31
0.0
  0
LINE
  5
23A
330
17
100
AcDbEntity
  8
I-DIM
100
AcDbLine
 10
34.65
 20
272.4
 30
0.0
 11
36.85
 21
274.6
 31
0.0
  0
LINE
  5
23B
330
17
100
AcDbEntity
  8
I-DIM
100
AcDbLine
 10
137.4
 20
272.4
 30
0.0
 11
139.60000000000002
 21
274.6
 31
0.0
  0
TEXT
  5
23C
330
17
100
AcDbEntity
  8
I-DIM
100
AcDbText
 10
87.125
 20
274.4
 30
0.0
 40
1.8
  1
4110
 72
1
 11
87.125
 21
274.4
 31
0.0
100
AcDbText
 73
1
  0
LINE
  5
23D
330
17
100
AcDbEntity
  8
I-DIM
100
AcDbLine
 10
35.75
 20
248.05
 30
0.0
 11
35.75
 21
243.5
 31
0.0
  0
LINE
  5
23E
330
17
100
AcDbEntity
  8
I-DIM
100
AcDbLine
 10
58.25
 20
248.05
 30
0.0
 11
58.25
 21
243.5
 31
0.0
  0
LINE
  5
23F
330
17
100
AcDbEntity
  8
I-DIM
100
AcDbLine
 10
34.25
 20
245.0
 30
0.0
 11
59.75
 21
245.0
 31
0.0
  0
LINE
  5
240
330
17
100
AcDbEntity
  8
I-DIM
100
AcDbLine
 10
34.65
 20
243.9
 30
0.0
 11
36.85
 21
246.1
 31
0.0
  0
LINE
  5
241
330
17
100
AcDbEntity
  8
I-DIM
100
AcDbLine
 10
57.150000000000006
 20
243.9
 30
0.0
 11
59.35
 21
246.1
 31
0.0
  0
TEXT
  5
242
330
17
100
AcDbEntity
  8
I-DIM
100
AcDbText
 10
47.0
 20
245.9
 30
0.0
 40
1.6
  1
900
 72
1
 11
47.0
 21
245.9
 31
0.0
100
AcDbText
 73
1
  0
LINE
  5
243
330
17
100
AcDbEntity
  8
I-DIM
100
AcDbLine
 10
58.25
 20
248.05
 30
0.0
 11
58.25
 21
243.5
 31
0.0
  0
LINE
  5
244
330
17
100
AcDbEntity
  8
I-DIM
100
AcDbLine
 10
73.25
 20
248.05
 30
0.0
 11
73.25
 21
243.5
 31
0.0
  0
LINE
  5
245
330
17
100
AcDbEntity
  8
I-DIM
100
AcDbLine
 10
56.75
 20
245.0
 30
0.0
 11
74.75
 21
245.0
 31
0.0
  0
LINE
  5
246
330
17
100
AcDbEntity
  8
I-DIM
100
AcDbLine
 10
57.150000000000006
 20
243.9
 30
0.0
 11
59.35
 21
246.1
 31
0.0
  0
LINE
  5
247
330
17
100
AcDbEntity
  8
I-DIM
100
AcDbLine
 10
72.15
 20
243.9
 30
0.0
 11
74.35
 21
246.1
 31
0.0
  0
TEXT
  5
248
330
17
100
AcDbEntity
  8
I-DIM
100
AcDbText
 10
65.75
 20
245.9
 30
0.0
 40
1.6
  1
600
 72
1
 11
65.75
 21
245.9
 31
0.0
100
AcDbText
 73
1
  0
LINE
  5
249
330
17
100
AcDbEntity
  8
I-DIM
100
AcDbLine
 10
73.25
 20
248.05
 30
0.0
 11
73.25
 21
243.5
 31
0.0
  0
LINE
  5
24A
330
17
100
AcDbEntity
  8
I-DIM
100
AcDbLine
 10
98.25
 20
248.05
 30
0.0
 11
98.25
 21
243.5
 31
0.0
  0
LINE
  5
24B
330
17
100
AcDbEntity
  8
I-DIM
100
AcDbLine
 10
71.75
 20
245.0
 30
0.0
 11
99.75
 21
245.0
 31
0.0
  0
LINE
  5
24C
330
17
100
AcDbEntity
  8
I-DIM
100
AcDbLine
 10
72.15
 20
243.9
 30
0.0
 11
74.35
 21
246.1
 31
0.0
  0
LINE
  5
24D
330
17
100
AcDbEntity
  8
I-DIM
100
AcDbLine
 10
97.15
 20
243.9
 30
0.0
 11
99.35
 21
246.1
 31
0.0
  0
TEXT
  5
24E
330
17
100
AcDbEntity
  8
I-DIM
100
AcDbText
 10
85.75
 20
245.9
 30
0.0
 40
1.6
  1
1000
 72
1
 11
85.75
 21
245.9
 31
0.0
100
AcDbText
 73
1
  0
LINE
  5
24F
330
17
100
AcDbEntity
  8
I-DIM
100
AcDbLine
 10
98.25
 20
248.05
 30
0.0
 11
98.25
 21
243.5
 31
0.0
  0
LINE
  5
250
330
17
100
AcDbEntity
  8
I-DIM
100
AcDbLine
 10
118.25
 20
248.05
 30
0.0
 11
118.25
 21
243.5
 31
0.0
  0
LINE
  5
251
330
17
100
AcDbEntity
  8
I-DIM
100
AcDbLine
 10
96.75
 20
245.0
 30
0.0
 11
119.75
 21
245.0
 31
0.0
  0
LINE
  5
252
330
17
100
AcDbEntity
  8
I-DIM
100
AcDbLine
 10
97.15
 20
243.9
 30
0.0
 11
99.35
 21
246.1
 31
0.0
  0
LINE
  5
253
330
17
100
AcDbEntity
  8
I-DIM
100
AcDbLine
 10
117.15
 20
243.9
 30
0.0
 11
119.35000000000001
 21
246.1
 31
0.0
  0
TEXT
  5
254
330
17
100
AcDbEntity
  8
I-DIM
100
AcDbText
 10
108.25
 20
245.9
 30
0.0
 40
1.6
  1
800
 72
1
 11
108.25
 21
245.9
 31
0.0
100
AcDbText
 73
1
  0
LINE
  5
255
330
17
100
AcDbEntity
  8
I-DIM
100
AcDbLine
 10
118.25
 20
248.05
 30
0.0
 11
118.25
 21
243.5
 31
0.0
  0
LINE
  5
256
330
17
100
AcDbEntity
  8
I-DIM
100
AcDbLine
 10
138.5
 20
248.05
 30
0.0
 11
138.5
 21
243.5
 31
0.0
  0
LINE
  5
257
330
17
100
AcDbEntity
  8
I-DIM
100
AcDbLine
 10
116.75
 20
245.0
 30
0.0
 11
140.0
 21
245.0
 31
0.0
  0
LINE
  5
258
330
17
100
AcDbEntity
  8
I-DIM
100
AcDbLine
 10
117.15
 20
243.9
 30
0.0
 11
119.35000000000001
 21
246.1
 31
0.0
  0
LINE
  5
259
330
17
100
AcDbEntity
  8
I-DIM
100
AcDbLine
 10
137.4
 20
243.9
 30
0.0
 11
139.60000000000002
 21
246.1
 31
0.0
  0
TEXT
  5
25A
330
17
100
AcDbEntity
  8
I-DIM
100
AcDbText
 10
128.375
 20
245.9
 30
0.0
 40
1.6
  1
810
 72
1
 11
128.375
 21
245.9
 31
0.0
100
AcDbText
 73
1
  0
LINE
  5
25B
330
17
100
AcDbEntity
  8
I-DIM
100
AcDbLine
 10
139.7
 20
249.25
 30
0.0
 11
149.0
 21
249.25
 31
0.0
  0
LINE
  5
25C
330
17
100
AcDbEntity
  8
I-DIM
100
AcDbLine
 10
139.7
 20
264.25
 30
0.0
 11
149.0
 21
264.25
 31
0.0
  0
LINE
  5
25D
330
17
100
AcDbEntity
  8
I-DIM
100
AcDbLine
 10
147.5
 20
247.75
 30
0.0
 11
147.5
 21
265.75
 31
0.0
  0
LINE
  5
25E
330
17
100
AcDbEntity
  8
I-DIM
100
AcDbLine
 10
148.60000000000002
 20
248.15
 30
0.0
 11
146.4
 21
250.35
 31
0.0
  0
LINE
  5
25F
330
17
100
AcDbEntity
  8
I-DIM
100
AcDbLine
 10
148.60000000000002
 20
263.15
 30
0.0
 11
146.4
 21
265.35
 31
0.0
  0
TEXT
  5
260
330
17
100
AcDbEntity
  8
I-DIM
100
AcDbText
 10
146.60000000000002
 20
256.75
 30
0.0
 40
1.6
  1
600
 50
90.0
 72
1
 11
146.60000000000002
 21
256.75
 31
0.0
100
AcDbText
 73
1
  0
CIRCLE
  5
261
330
17
100
AcDbEntity
  8
I-TEXT
100
AcDbCircle
 10
22.0
 20
253.25
 30
0.0
 40
7.5
  0
TEXT
  5
262
330
17
100
AcDbEntity
  8
I-TEXT
100
AcDbText
 10
22.0
 20
253.25
 30
0.0
 40
3.0
  1
CF08
 72
1
 11
22.0
 21
253.25
 31
0.0
100
AcDbText
 73
2
  0
TEXT
  5
263
330
17
100
AcDbEntity
  8
I-TEXT
100
AcDbText
 10
31.0
 20
254.45
 30
0.0
 40
2.4
  1
SINK WALL BASE CABINET SET
 11
31.0
 21
254.45
 31
0.0
100
AcDbText
  0
LINE
  5
264
330
17
100
AcDbEntity
  8
I-TEXT
100
AcDbLine
 10
29.5
 20
253.25
 30
0.0
 11
82.8
 21
253.25
 31
0.0
  0
TEXT
  5
265
330
17
100
AcDbEntity
  8
I-TEXT
100
AcDbText
 10
31.0
 20
249.85
 30
0.0
 40
2.2
  1
1:40
 11
31.0
 21
249.85
 31
0.0
100
AcDbText
  0
CIRCLE
  5
266
330
17
100
AcDbEntity
  8
I-NOTE
 62
1
100
AcDbCircle
 10
279.0
 20
249.0
 30
0.0
 40
21.0
  0
CIRCLE
  5
267
330
17
100
AcDbEntity
  8
I-NOTE
 62
1
100
AcDbCircle
 10
261.2
 20
224.5
 30
0.0
 40
3.2
  0
TEXT
  5
268
330
17
100
AcDbEntity
  8
I-NOTE
 62
1
100
AcDbText
 10
266.0
 20
225.4
 30
0.0
 40
2.6
  1
DETAIL 1
 11
266.0
 21
225.4
 31
0.0
100
AcDbText
  0
LINE
  5
269
330
17
100
AcDbEntity
  8
I-NOTE
 62
1
100
AcDbLine
 10
264.4
 20
224.5
 30
0.0
 11
290.0
 21
224.5
 31
0.0
  0
TEXT
  5
26A
330
17
100
AcDbEntity
  8
I-NOTE
 62
1
100
AcDbText
 10
266.0
 20
221.4
 30
0.0
 40
2.2
  1
1:5
 11
266.0
 21
221.4
 31
0.0
100
AcDbText
  0
TEXT
  5
26B
330
17
100
AcDbEntity
  8
I-NOTE
 62
1
100
AcDbText
 10
279.0
 20
272.2
 30
0.0
 40
2.3
  1
J&C HANDLE BLACK
 72
1
 11
279.0
 21
272.2
 31
0.0
100
AcDbText
 73
1
  0
LWPOLYLINE
  5
26C
330
17
100
AcDbEntity
  8
I-JOIN-ELEV
100
AcDbPolyline
 90
4
 70
1
 10
261.0
 20
247.0
 10
297.0
 20
247.0
 10
297.0
 20
250.6
 10
261.0
 20
250.6
  0
LWPOLYLINE
  5
26D
330
17
100
AcDbEntity
  8
I-JOIN-ELEV
100
AcDbPolyline
 90
4
 70
0
 10
273.0
 20
250.6
 10
273.0
 20
255.0
 10
285.0
 20
255.0
 10
285.0
 20
250.6
  0
LINE
  5
26E
330
17
100
AcDbEntity
  8
I-NOTE
 62
1
100
AcDbLine
 10
279.0
 20
255.0
 30
0.0
 11
287.0
 21
264.0
 31
0.0
  0
CIRCLE
  5
26F
330
17
100
AcDbEntity
  8
I-NOTE
 62
1
100
AcDbCircle
 10
279.0
 20
255.0
 30
0.0
 40
0.45
  0
TEXT
  5
270
330
17
100
AcDbEntity
  8
I-NOTE
 62
1
100
AcDbText
 10
287.8
 20
265.305
 30
0.0
 40
1.8
  1
J&C HANDLE
 11
287.8
 21
265.305
 31
0.0
100
AcDbText
 73
2
  0
TEXT
  5
271
330
17
100
AcDbEntity
  8
I-NOTE
 62
1
100
AcDbText
 10
287.8
 20
262.695
 30
0.0
 40
1.8
  1
BLACK (TBC)
 11
287.8
 21
262.695
 31
0.0
100
AcDbText
 73
2
  0
CIRCLE
  5
272
330
17
100
AcDbEntity
  8
I-NOTE
 62
1
100
AcDbCircle
 10
330.0
 20
249.0
 30
0.0
 40
21.0
  0
CIRCLE
  5
273
330
17
100
AcDbEntity
  8
I-NOTE
 62
1
100
AcDbCircle
 10
312.2
 20
224.5
 30
0.0
 40
3.2
  0
TEXT
  5
274
330
17
100
AcDbEntity
  8
I-NOTE
 62
1
100
AcDbText
 10
317.0
 20
225.4
 30
0.0
 40
2.6
  1
DETAIL 2
 11
317.0
 21
225.4
 31
0.0
100
AcDbText
  0
LINE
  5
275
330
17
100
AcDbEntity
  8
I-NOTE
 62
1
100
AcDbLine
 10
315.4
 20
224.5
 30
0.0
 11
341.0
 21
224.5
 31
0.0
  0
TEXT
  5
276
330
17
100
AcDbEntity
  8
I-NOTE
 62
1
100
AcDbText
 10
317.0
 20
221.4
 30
0.0
 40
2.2
  1
1:5
 11
317.0
 21
221.4
 31
0.0
100
AcDbText
  0
TEXT
  5
277
330
17
100
AcDbEntity
  8
I-NOTE
 62
1
100
AcDbText
 10
330.0
 20
275.4
 30
0.0
 40
2.3
  1
SINTERED STONE
 72
1
 11
330.0
 21
275.4
 31
0.0
100
AcDbText
 73
1
  0
TEXT
  5
278
330
17
100
AcDbEntity
  8
I-NOTE
 62
1
100
AcDbText
 10
330.0
 20
272.2
 30
0.0
 40
2.3
  1
45° CORNER
 72
1
 11
330.0
 21
272.2
 31
0.0
100
AcDbText
 73
1
  0
LWPOLYLINE
  5
279
330
17
100
AcDbEntity
  8
I-JOIN-ELEV
100
AcDbPolyline
 90
4
 70
1
 10
312.0
 20
249.0
 10
344.0
 20
249.0
 10
344.0
 20
251.4
 10
312.0
 20
251.4
  0
LWPOLYLINE
  5
27A
330
17
100
AcDbEntity
  8
I-JOIN-ELEV
100
AcDbPolyline
 90
5
 70
0
 10
344.0
 20
249.0
 10
346.4
 20
251.4
 10
346.4
 20
241.0
 10
344.0
 20
238.6
 10
344.0
 20
249.0
  0
LWPOLYLINE
  5
27B
330
17
100
AcDbEntity
  8
I-JOIN-THIN
100
AcDbPolyline
 90
4
 70
1
 10
312.0
 20
237.0
 10
342.0
 20
237.0
 10
342.0
 20
249.0
 10
312.0
 20
249.0
  0
TEXT
  5
27C
330
17
100
AcDbEntity
  8
I-NOTE
 62
1
100
AcDbText
 10
348.0
 20
250.0
 30
0.0
 40
2.0
  1
45°
 11
348.0
 21
250.0
 31
0.0
100
AcDbText
  0
LINE
  5
27D
330
17
100
AcDbEntity
  8
I-NOTE
 62
1
100
AcDbLine
 10
345.2
 20
247.0
 30
0.0
 11
332.0
 21
232.0
 31
0.0
  0
CIRCLE
  5
27E
330
17
100
AcDbEntity
  8
I-NOTE
 62
1
100
AcDbCircle
 10
345.2
 20
247.0
 30
0.0
 40
0.45
  0
TEXT
  5
27F
330
17
100
AcDbEntity
  8
I-NOTE
 62
1
100
AcDbText
 10
332.8
 20
233.2325
 30
0.0
 40
1.7
  1
SINTERED STONE 45° CORNER
 11
332.8
 21
233.2325
 31
0.0
100
AcDbText
 73
2
  0
TEXT
  5
280
330
17
100
AcDbEntity
  8
I-NOTE
 62
1
100
AcDbText
 10
332.8
 20
230.76749999999998
 30
0.0
 40
1.7
  1
MITRE (NO CAPPING)
 11
332.8
 21
230.76749999999998
 31
0.0
100
AcDbText
 73
2
  0
CIRCLE
  5
281
330
17
100
AcDbEntity
  8
I-NOTE
 62
1
100
AcDbCircle
 10
381.0
 20
249.0
 30
0.0
 40
21.0
  0
CIRCLE
  5
282
330
17
100
AcDbEntity
  8
I-NOTE
 62
1
100
AcDbCircle
 10
363.2
 20
224.5
 30
0.0
 40
3.2
  0
TEXT
  5
283
330
17
100
AcDbEntity
  8
I-NOTE
 62
1
100
AcDbText
 10
368.0
 20
225.4
 30
0.0
 40
2.6
  1
DETAIL 3
 11
368.0
 21
225.4
 31
0.0
100
AcDbText
  0
LINE
  5
284
330
17
100
AcDbEntity
  8
I-NOTE
 62
1
100
AcDbLine
 10
366.4
 20
224.5
 30
0.0
 11
392.0
 21
224.5
 31
0.0
  0
TEXT
  5
285
330
17
100
AcDbEntity
  8
I-NOTE
 62
1
100
AcDbText
 10
368.0
 20
221.4
 30
0.0
 40
2.2
  1
1:5
 11
368.0
 21
221.4
 31
0.0
100
AcDbText
  0
TEXT
  5
286
330
17
100
AcDbEntity
  8
I-NOTE
 62
1
100
AcDbText
 10
381.0
 20
272.2
 30
0.0
 40
2.3
  1
LED STRIP LIGHT 3000K
 72
1
 11
381.0
 21
272.2
 31
0.0
100
AcDbText
 73
1
  0
LWPOLYLINE
  5
287
330
17
100
AcDbEntity
  8
I-JOIN-ELEV
100
AcDbPolyline
 90
4
 70
1
 10
363.0
 20
247.2
 10
399.0
 20
247.2
 10
399.0
 20
250.8
 10
363.0
 20
250.8
  0
LWPOLYLINE
  5
288
330
17
100
AcDbEntity
  8
I-LITE
 62
1
100
AcDbPolyline
 90
4
 70
1
 10
365.0
 20
245.0
 10
369.0
 20
245.0
 10
369.0
 20
247.2
 10
365.0
 20
247.2
  0
CIRCLE
  5
289
330
17
100
AcDbEntity
  8
I-LITE
 62
1
100
AcDbCircle
 10
367.0
 20
246.0
 30
0.0
 40
0.6000000000000001
  0
LINE
  5
28A
330
17
100
AcDbEntity
  8
I-NOTE
 62
1
100
AcDbLine
 10
367.0
 20
246.0
 30
0.0
 11
377.0
 21
235.0
 31
0.0
  0
CIRCLE
  5
28B
330
17
100
AcDbEntity
  8
I-NOTE
 62
1
100
AcDbCircle
 10
367.0
 20
246.0
 30
0.0
 40
0.45
  0
TEXT
  5
28C
330
17
100
AcDbEntity
  8
I-NOTE
 62
1
100
AcDbText
 10
377.8
 20
236.305
 30
0.0
 40
1.8
  1
LED STRIP LIGHT 3000K
 11
377.8
 21
236.305
 31
0.0
100
AcDbText
 73
2
  0
TEXT
  5
28D
330
17
100
AcDbEntity
  8
I-NOTE
 62
1
100
AcDbText
 10
377.8
 20
233.695
 30
0.0
 40
1.8
  1
C/W ALU PROFILE
 11
377.8
 21
233.695
 31
0.0
100
AcDbText
 73
2
  0
TEXT
  5
28E
330
17
100
AcDbEntity
  8
I-NOTE
 62
1
100
AcDbText
 10
262.0
 20
214.0
 30
0.0
 40
2.2
  1
NOTES:
 11
262.0
 21
214.0
 31
0.0
100
AcDbText
  0
TEXT
  5
28F
330
17
100
AcDbEntity
  8
I-NOTE
 62
1
100
AcDbText
 10
262.0
 20
210.0
 30
0.0
 40
1.75
  1
1. WINDOW W2400 FFL920 H450 (SITE MEASURE) - WALL CABINET STOPS AT WINDOW.
 11
262.0
 21
210.0
 31
0.0
100
AcDbText
  0
TEXT
  5
290
330
17
100
AcDbEntity
  8
I-NOTE
 62
1
100
AcDbText
 10
262.0
 20
206.6
 30
0.0
 40
1.75
  1
2. DISHWASHER BY OWNER (600 BUILT-IN).
 11
262.0
 21
206.6
 31
0.0
100
AcDbText
  0
TEXT
  5
291
330
17
100
AcDbEntity
  8
I-NOTE
 62
1
100
AcDbText
 10
262.0
 20
203.2
 30
0.0
 40
1.75
  1
3. UNDERMOUNT DOUBLE SINK + PULL-OUT TAP (BY OWNER).
 11
262.0
 21
203.2
 31
0.0
100
AcDbText
  0
CIRCLE
  5
292
330
17
100
AcDbEntity
  8
I-TEXT
100
AcDbCircle
 10
406.5
 20
38.5
 30
0.0
 40
4.5
  0
LINE
  5
293
330
17
100
AcDbEntity
  8
I-TEXT
100
AcDbLine
 10
402.0
 20
38.5
 30
0.0
 11
411.0
 21
38.5
 31
0.0
  0
TEXT
  5
294
330
17
100
AcDbEntity
  8
I-TEXT
100
AcDbText
 10
406.5
 20
40.5
 30
0.0
 40
1.9
  1
ID
 72
1
 11
406.5
 21
40.5
 31
0.0
100
AcDbText
 73
2
  0
TEXT
  5
295
330
17
100
AcDbEntity
  8
I-TEXT
100
AcDbText
 10
406.5
 20
36.5
 30
0.0
 40
1.9
  1
02
 72
1
 11
406.5
 21
36.5
 31
0.0
100
AcDbText
 73
2
  0
TEXT
  5
296
330
17
100
AcDbEntity
  8
I-TEXT
100
AcDbText
 10
401.0
 20
39.5
 30
0.0
 40
3.4
  1
WET KITCHEN - SINK WALL BASE CABINET
 72
2
 11
401.0
 21
39.5
 31
0.0
100
AcDbText
 73
1
  0
LINE
  5
297
330
17
100
AcDbEntity
  8
I-TEXT
100
AcDbLine
 10
302.0
 20
38.5
 30
0.0
 11
402.0
 21
38.5
 31
0.0
  0
TEXT
  5
298
330
17
100
AcDbEntity
  8
I-TEXT
100
AcDbText
 10
401.0
 20
37.3
 30
0.0
 40
2.2
  1
ELEVATION PLAN
 72
2
 11
401.0
 21
37.3
 31
0.0
100
AcDbText
 73
3
  0
ENDSEC
  0
SECTION
  2
OBJECTS
  0
DICTIONARY
  5
A
330
0
100
AcDbDictionary
281
1
  3
ACAD_COLOR
350
B
  3
ACAD_GROUP
350
C
  3
ACAD_LAYOUT
350
D
  3
ACAD_MATERIAL
350
E
  3
ACAD_MLEADERSTYLE
350
F
  3
ACAD_MLINESTYLE
350
10
  3
ACAD_PLOTSETTINGS
350
11
  3
ACAD_PLOTSTYLENAME
350
12
  3
ACAD_SCALELIST
350
14
  3
ACAD_TABLESTYLE
350
15
  3
ACAD_VISUALSTYLE
350
16
  3
EZDXF_META
350
2D
  0
DICTIONARY
  5
B
330
A
100
AcDbDictionary
281
1
  0
DICTIONARY
  5
C
330
A
100
AcDbDictionary
281
1
  0
DICTIONARY
  5
D
330
A
100
AcDbDictionary
281
1
  3
Model
350
1A
  3
Layout1
350
1E
  0
DICTIONARY
  5
E
330
A
100
AcDbDictionary
281
1
  3
ByBlock
350
1F
  3
ByLayer
350
20
  3
Global
350
21
  0
DICTIONARY
  5
F
330
A
100
AcDbDictionary
281
1
  3
Standard
350
2C
  0
DICTIONARY
  5
10
330
A
100
AcDbDictionary
281
1
  3
Standard
350
22
  0
DICTIONARY
  5
11
330
A
100
AcDbDictionary
281
1
  0
ACDBDICTIONARYWDFLT
  5
12
330
A
100
AcDbDictionary
281
1
  3
Normal
350
13
100
AcDbDictionaryWithDefault
340
13
  0
ACDBPLACEHOLDER
  5
13
330
12
  0
DICTIONARY
  5
14
330
A
100
AcDbDictionary
281
1
  0
DICTIONARY
  5
15
330
A
100
AcDbDictionary
281
1
  0
DICTIONARY
  5
16
330
A
100
AcDbDictionary
281
1
  3
2dWireframe
350
5A
  3
Basic
350
5B
  3
Brighten
350
5C
  3
ColorChange
350
5D
  3
Conceptual
350
5E
  3
Dim
350
5F
  3
EdgeColorOff
350
60
  3
Facepattern
350
61
  3
Flat
350
62
  3
FlatWithEdges
350
63
  3
Gouraud
350
64
  3
GouraudWithEdges
350
65
  3
Hidden
350
66
  3
JitterOff
350
67
  3
Linepattern
350
68
  3
Modeling
350
69
  3
OverhangOff
350
6A
  3
Realistic
350
6B
  3
Shaded
350
6C
  3
Shaded with edges
350
6D
  3
Shades of Gray
350
6E
  3
Sketchy
350
6F
  3
Thicken
350
70
  3
Wireframe
350
71
  3
X-Ray
350
72
  0
LAYOUT
  5
1A
330
D
100
AcDbPlotSettings
  1

  4
A3
  6

 40
7.5
 41
20.0
 42
7.5
 43
20.0
 44
420.0
 45
297.0
 46
0.0
 47
0.0
 48
0.0
 49
0.0
140
0.0
141
0.0
142
1.0
143
1.0
 70
1024
 72
1
 73
0
 74
5
  7

 75
16
 76
0
 77
2
 78
300
147
1.0
148
0.0
149
0.0
100
AcDbLayout
  1
Model
 70
1
 71
0
 10
0.0
 20
0.0
 11
420.0
 21
297.0
 12
0.0
 22
0.0
 32
0.0
 14
1e+20
 24
1e+20
 34
1e+20
 15
-1e+20
 25
-1e+20
 35
-1e+20
146
0.0
 13
0.0
 23
0.0
 33
0.0
 16
1.0
 26
0.0
 36
0.0
 17
0.0
 27
1.0
 37
0.0
 76
1
330
17
  0
LAYOUT
  5
1E
330
D
100
AcDbPlotSettings
  1

  4
A3
  6

 40
7.5
 41
20.0
 42
7.5
 43
20.0
 44
420.0
 45
297.0
 46
0.0
 47
0.0
 48
0.0
 49
0.0
140
0.0
141
0.0
142
1.0
143
1.0
 70
0
 72
1
 73
0
 74
5
  7

 75
16
 76
0
 77
2
 78
300
147
1.0
148
0.0
149
0.0
100
AcDbLayout
  1
Layout1
 70
1
 71
1
 10
0.0
 20
0.0
 11
420.0
 21
297.0
 12
0.0
 22
0.0
 32
0.0
 14
1e+20
 24
1e+20
 34
1e+20
 15
-1e+20
 25
-1e+20
 35
-1e+20
146
0.0
 13
0.0
 23
0.0
 33
0.0
 16
1.0
 26
0.0
 36
0.0
 17
0.0
 27
1.0
 37
0.0
 76
1
330
1B
  0
MATERIAL
  5
1F
102
{ACAD_REACTORS
330
E
102
}
330
E
100
AcDbMaterial
  1
ByBlock
  2

 70
0
 40
1.0
 71
1
 41
1.0
 91
-1023410177
 42
1.0
 72
1
  3

 73
1
 74
1
 75
1
 44
0.5
 73
0
 45
1.0
 46
1.0
 77
1
  4

 78
1
 79
1
170
1
 48
1.0
171
1
  6

172
1
173
1
174
1
140
1.0
141
1.0
175
1
  7

176
1
177
1
178
1
143
1.0
179
1
  8

270
1
271
1
272
1
145
1.0
146
1.0
273
1
  9

274
1
275
1
276
1
 42
1.0
 72
1
  3

 73
1
 74
1
 75
1
 94
63
  0
MATERIAL
  5
20
102
{ACAD_REACTORS
330
E
102
}
330
E
100
AcDbMaterial
  1
ByLayer
  2

 70
0
 40
1.0
 71
1
 41
1.0
 91
-1023410177
 42
1.0
 72
1
  3

 73
1
 74
1
 75
1
 44
0.5
 73
0
 45
1.0
 46
1.0
 77
1
  4

 78
1
 79
1
170
1
 48
1.0
171
1
  6

172
1
173
1
174
1
140
1.0
141
1.0
175
1
  7

176
1
177
1
178
1
143
1.0
179
1
  8

270
1
271
1
272
1
145
1.0
146
1.0
273
1
  9

274
1
275
1
276
1
 42
1.0
 72
1
  3

 73
1
 74
1
 75
1
 94
63
  0
MATERIAL
  5
21
102
{ACAD_REACTORS
330
E
102
}
330
E
100
AcDbMaterial
  1
Global
  2

 70
0
 40
1.0
 71
1
 41
1.0
 91
-1023410177
 42
1.0
 72
1
  3

 73
1
 74
1
 75
1
 44
0.5
 73
0
 45
1.0
 46
1.0
 77
1
  4

 78
1
 79
1
170
1
 48
1.0
171
1
  6

172
1
173
1
174
1
140
1.0
141
1.0
175
1
  7

176
1
177
1
178
1
143
1.0
179
1
  8

270
1
271
1
272
1
145
1.0
146
1.0
273
1
  9

274
1
275
1
276
1
 42
1.0
 72
1
  3

 73
1
 74
1
 75
1
 94
63
  0
MLINESTYLE
  5
22
102
{ACAD_REACTORS
330
10
102
}
330
10
100
AcDbMlineStyle
  2
Standard
 70
0
  3

 62
256
 51
90.0
 52
90.0
 71
2
 49
0.5
 62
256
  6
BYLAYER
 49
-0.5
 62
256
  6
BYLAYER
  0
MLEADERSTYLE
  5
2C
102
{ACAD_REACTORS
330
F
102
}
330
F
100
AcDbMLeaderStyle
179
2
170
2
171
1
172
0
 90
2
 40
0.0
 41
0.0
173
1
 91
-1056964608
 92
-2
290
1
 42
2.0
291
1
 43
8.0
  3
Standard
 44
4.0
300

342
29
174
1
175
1
176
0
178
1
 93
-1056964608
 45
4.0
292
0
297
0
 46
4.0
 94
-1056964608
 47
1.0
 49
1.0
140
1.0
294
1
141
0.0
177
0
142
1.0
295
0
296
0
143
3.75
271
0
272
9
273
9
  0
DICTIONARY
  5
2D
330
A
100
AcDbDictionary
280
1
281
1
  3
CREATED_BY_EZDXF
350
2E
  3
WRITTEN_BY_EZDXF
350
29B
  0
DICTIONARYVAR
  5
2E
330
2D
100
DictionaryVariables
280
0
  1
1.4.4 @ 2026-10-08T17:38:12.312394+00:00
  0
VISUALSTYLE
  5
5A
102
{ACAD_REACTORS
330
16
102
}
330
16
100
AcDbVisualStyle
  2
2dWireframe
 70
4
177
3
291
0
 70
58
 90
2
176
1
 90
2
176
1
 90
0
176
1
 90
0
176
1
 40
0.6
176
1
 40
30.0
176
1
 62
7
420
16777215
176
1
 90
1
176
1
 90
4
176
1
 62
7
176
1
 62
257
176
1
 90
1
176
1
 90
1
176
1
 40
1.0
176
1
 90
8
176
1
 62
7
176
1
 40
1.0
176
1
 90
1
176
1
 90
6
176
1
 90
2
176
1
 62
7
176
1
 90
5
176
1
 90
0
176
1
 90
0
176
1
290
0
176
1
 90
1
176
1
 40
0.0
176
1
 90
0
176
1
290
1
176
1
290
1
176
1
290
0
176
1
290
0
176
1
290
0
176
1
290
0
176
1
290
0
176
1
290
0
176
1
290
0
176
1
 90
50
176
1
 40
0.0
176
1
 40
1.0
176
1
 90
0
176
1
 62
18
420
0
176
1
 90
50
176
1
 90
3
176
1
 62
5
420
255
176
1
290
0
176
1
 90
50
176
1
 90
50
176
1
 90
50
176
1
290
0
176
1
 90
50
176
1
 62
256
176
0
 40
1.0
176
0
 90
2
176
1
  1
strokes_ogs.tif
176
1
290
0
176
1
 40
1.0
176
1
 40
1.0
176
1
  0
VISUALSTYLE
  5
5B
102
{ACAD_REACTORS
330
16
102
}
330
16
100
AcDbVisualStyle
  2
Basic
 70
7
177
3
291
1
 70
58
 90
2
176
1
 90
2
176
1
 90
0
176
1
 90
1
176
1
 40
0.6
176
1
 40
30.0
176
1
 62
7
420
16777215
176
1
 90
1
176
1
 90
4
176
1
 62
7
176
1
 62
257
176
1
 90
1
176
1
 90
1
176
1
 40
1.0
176
1
 90
8
176
1
 62
7
176
1
 40
1.0
176
1
 90
1
176
1
 90
6
176
1
 90
2
176
1
 62
7
176
1
 90
5
176
1
 90
0
176
1
 90
0
176
1
290
0
176
1
 90
1
176
1
 40
0.0
176
1
 90
0
176
1
290
0
176
1
290
1
176
1
290
1
176
1
290
0
176
1
290
0
176
1
290
0
176
1
290
0
176
1
290
0
176
1
290
0
176
1
 90
50
176
1
 40
0.0
176
1
 40
1.0
176
1
 90
0
176
1
 62
18
420
0
176
1
 90
50
176
1
 90
3
176
1
 62
5
420
255
176
1
290
0
176
1
 90
50
176
1
 90
50
176
1
 90
50
176
1
290
0
176
1
 90
50
176
1
 62
256
176
0
 40
1.0
176
0
 90
2
176
1
  1
strokes_ogs.tif
176
1
290
0
176
1
 40
1.0
176
1
 40
1.0
176
1
  0
VISUALSTYLE
  5
5C
102
{ACAD_REACTORS
330
16
102
}
330
16
100
AcDbVisualStyle
  2
Brighten
 70
12
177
3
291
1
 70
58
 90
2
176
1
 90
2
176
1
 90
0
176
1
 90
2
176
1
 40
0.6
176
1
 40
30.0
176
1
 62
7
420
16777215
176
1
 90
1
176
1
 90
4
176
1
 62
7
176
1
 62
257
176
1
 90
1
176
1
 90
1
176
1
 40
1.0
176
1
 90
8
176
1
 62
7
176
1
 40
1.0
176
1
 90
1
176
1
 90
6
176
1
 90
2
176
1
 62
7
176
1
 90
5
176
1
 90
0
176
1
 90
0
176
1
290
0
176
1
 90
1
176
1
 40
0.0
176
1
 90
0
176
1
290
0
176
1
290
1
176
1
290
1
176
1
290
0
176
1
290
0
176
1
290
0
176
1
290
0
176
1
290
0
176
1
290
0
176
1
 90
50
176
1
 40
0.0
176
1
 40
1.0
176
1
 90
0
176
1
 62
18
420
0
176
1
 90
50
176
1
 90
3
176
1
 62
5
420
255
176
1
290
0
176
1
 90
50
176
1
 90
50
176
1
 90
50
176
1
290
0
176
1
 90
50
176
1
 62
256
176
0
 40
1.0
176
0
 90
2
176
1
  1
strokes_ogs.tif
176
1
290
0
176
1
 40
1.0
176
1
 40
1.0
176
1
  0
VISUALSTYLE
  5
5D
102
{ACAD_REACTORS
330
16
102
}
330
16
100
AcDbVisualStyle
  2
ColorChange
 70
16
177
3
291
1
 70
58
 90
2
176
1
 90
2
176
1
 90
0
176
1
 90
2
176
1
 40
0.6
176
1
 40
30.0
176
1
 62
7
420
16777215
176
1
 90
1
176
1
 90
4
176
1
 62
7
176
1
 62
257
176
1
 90
1
176
1
 90
1
176
1
 40
1.0
176
1
 90
8
176
1
 62
7
176
1
 40
1.0
176
1
 90
1
176
1
 90
6
176
1
 90
2
176
1
 62
7
176
1
 90
5
176
1
 90
0
176
1
 90
0
176
1
290
0
176
1
 90
1
176
1
 40
0.0
176
1
 90
0
176
1
290
0
176
1
290
1
176
1
290
1
176
1
290
0
176
1
290
0
176
1
290
0
176
1
290
0
176
1
290
0
176
1
290
0
176
1
 90
50
176
1
 40
0.0
176
1
 40
1.0
176
1
 90
0
176
1
 62
18
420
0
176
1
 90
50
176
1
 90
3
176
1
 62
5
420
255
176
1
290
0
176
1
 90
50
176
1
 90
50
176
1
 90
50
176
1
290
0
176
1
 90
50
176
1
 62
256
176
0
 40
1.0
176
0
 90
2
176
1
  1
strokes_ogs.tif
176
1
290
0
176
1
 40
1.0
176
1
 40
1.0
176
1
  0
VISUALSTYLE
  5
5E
102
{ACAD_REACTORS
330
16
102
}
330
16
100
AcDbVisualStyle
  2
Conceptual
 70
9
177
3
291
0
 70
58
 90
2
176
1
 90
2
176
1
 90
0
176
1
 90
3
176
1
 40
0.6
176
1
 40
30.0
176
1
 62
7
420
16777215
176
1
 90
1
176
1
 90
4
176
1
 62
7
176
1
 62
257
176
1
 90
1
176
1
 90
1
176
1
 40
1.0
176
1
 90
8
176
1
 62
7
176
1
 40
1.0
176
1
 90
1
176
1
 90
6
176
1
 90
2
176
1
 62
7
176
1
 90
5
176
1
 90
0
176
1
 90
0
176
1
290
0
176
1
 90
1
176
1
 40
0.0
176
1
 90
0
176
1
290
0
176
1
290
1
176
1
290
1
176
1
290
0
176
1
290
0
176
1
290
0
176
1
290
0
176
1
290
0
176
1
290
0
176
1
 90
50
176
1
 40
0.0
176
1
 40
1.0
176
1
 90
0
176
1
 62
18
420
0
176
1
 90
50
176
1
 90
3
176
1
 62
5
420
255
176
1
290
0
176
1
 90
50
176
1
 90
50
176
1
 90
50
176
1
290
0
176
1
 90
50
176
1
 62
256
176
0
 40
1.0
176
0
 90
2
176
1
  1
strokes_ogs.tif
176
1
290
0
176
1
 40
1.0
176
1
 40
1.0
176
1
  0
VISUALSTYLE
  5
5F
102
{ACAD_REACTORS
330
16
102
}
330
16
100
AcDbVisualStyle
  2
Dim
 70
11
177
3
291
1
 70
58
 90
2
176
1
 90
2
176
1
 90
0
176
1
 90
2
176
1
 40
0.6
176
1
 40
30.0
176
1
 62
7
420
16777215
176
1
 90
1
176
1
 90
4
176
1
 62
7
176
1
 62
257
176
1
 90
1
176
1
 90
1
176
1
 40
1.0
176
1
 90
8
176
1
 62
7
176
1
 40
1.0
176
1
 90
1
176
1
 90
6
176
1
 90
2
176
1
 62
7
176
1
 90
5
176
1
 90
0
176
1
 90
0
176
1
290
0
176
1
 90
1
176
1
 40
0.0
176
1
 90
0
176
1
290
0
176
1
290
1
176
1
290
1
176
1
290
0
176
1
290
0
176
1
290
0
176
1
290
0
176
1
290
0
176
1
290
0
176
1
 90
50
176
1
 40
0.0
176
1
 40
1.0
176
1
 90
0
176
1
 62
18
420
0
176
1
 90
50
176
1
 90
3
176
1
 62
5
420
255
176
1
290
0
176
1
 90
50
176
1
 90
50
176
1
 90
50
176
1
290
0
176
1
 90
50
176
1
 62
256
176
0
 40
1.0
176
0
 90
2
176
1
  1
strokes_ogs.tif
176
1
290
0
176
1
 40
1.0
176
1
 40
1.0
176
1
  0
VISUALSTYLE
  5
60
102
{ACAD_REACTORS
330
16
102
}
330
16
100
AcDbVisualStyle
  2
EdgeColorOff
 70
22
177
3
291
1
 70
58
 90
2
176
1
 90
2
176
1
 90
0
176
1
 90
2
176
1
 40
0.6
176
1
 40
30.0
176
1
 62
7
420
16777215
176
1
 90
1
176
1
 90
4
176
1
 62
7
176
1
 62
257
176
1
 90
1
176
1
 90
1
176
1
 40
1.0
176
1
 90
8
176
1
 62
7
176
1
 40
1.0
176
1
 90
1
176
1
 90
6
176
1
 90
2
176
1
 62
7
176
1
 90
5
176
1
 90
0
176
1
 90
0
176
1
290
0
176
1
 90
1
176
1
 40
0.0
176
1
 90
0
176
1
290
0
176
1
290
1
176
1
290
1
176
1
290
0
176
1
290
0
176
1
290
0
176
1
290
0
176
1
290
0
176
1
290
0
176
1
 90
50
176
1
 40
0.0
176
1
 40
1.0
176
1
 90
0
176
1
 62
18
420
0
176
1
 90
50
176
1
 90
3
176
1
 62
5
420
255
176
1
290
0
176
1
 90
50
176
1
 90
50
176
1
 90
50
176
1
290
0
176
1
 90
50
176
1
 62
256
176
0
 40
1.0
176
0
 90
2
176
1
  1
strokes_ogs.tif
176
1
290
0
176
1
 40
1.0
176
1
 40
1.0
176
1
  0
VISUALSTYLE
  5
61
102
{ACAD_REACTORS
330
16
102
}
330
16
100
AcDbVisualStyle
  2
Facepattern
 70
15
177
3
291
1
 70
58
 90
2
176
1
 90
2
176
1
 90
0
176
1
 90
2
176
1
 40
0.6
176
1
 40
30.0
176
1
 62
7
420
16777215
176
1
 90
1
176
1
 90
4
176
1
 62
7
176
1
 62
257
176
1
 90
1
176
1
 90
1
176
1
 40
1.0
176
1
 90
8
176
1
 62
7
176
1
 40
1.0
176
1
 90
1
176
1
 90
6
176
1
 90
2
176
1
 62
7
176
1
 90
5
176
1
 90
0
176
1
 90
0
176
1
290
0
176
1
 90
1
176
1
 40
0.0
176
1
 90
0
176
1
290
0
176
1
290
1
176
1
290
1
176
1
290
0
176
1
290
0
176
1
290
0
176
1
290
0
176
1
290
0
176
1
290
0
176
1
 90
50
176
1
 40
0.0
176
1
 40
1.0
176
1
 90
0
176
1
 62
18
420
0
176
1
 90
50
176
1
 90
3
176
1
 62
5
420
255
176
1
290
0
176
1
 90
50
176
1
 90
50
176
1
 90
50
176
1
290
0
176
1
 90
50
176
1
 62
256
176
0
 40
1.0
176
0
 90
2
176
1
  1
strokes_ogs.tif
176
1
290
0
176
1
 40
1.0
176
1
 40
1.0
176
1
  0
VISUALSTYLE
  5
62
102
{ACAD_REACTORS
330
16
102
}
330
16
100
AcDbVisualStyle
  2
Flat
 70
0
177
3
291
1
 70
58
 90
2
176
1
 90
2
176
1
 90
0
176
1
 90
2
176
1
 40
0.6
176
1
 40
30.0
176
1
 62
7
420
16777215
176
1
 90
1
176
1
 90
4
176
1
 62
7
176
1
 62
257
176
1
 90
1
176
1
 90
1
176
1
 40
1.0
176
1
 90
8
176
1
 62
7
176
1
 40
1.0
176
1
 90
1
176
1
 90
6
176
1
 90
2
176
1
 62
7
176
1
 90
5
176
1
 90
0
176
1
 90
0
176
1
290
0
176
1
 90
1
176
1
 40
0.0
176
1
 90
0
176
1
290
0
176
1
290
1
176
1
290
1
176
1
290
0
176
1
290
0
176
1
290
0
176
1
290
0
176
1
290
0
176
1
290
0
176
1
 90
50
176
1
 40
0.0
176
1
 40
1.0
176
1
 90
0
176
1
 62
18
420
0
176
1
 90
50
176
1
 90
3
176
1
 62
5
420
255
176
1
290
0
176
1
 90
50
176
1
 90
50
176
1
 90
50
176
1
290
0
176
1
 90
50
176
1
 62
256
176
0
 40
1.0
176
0
 90
2
176
1
  1
strokes_ogs.tif
176
1
290
0
176
1
 40
1.0
176
1
 40
1.0
176
1
  0
VISUALSTYLE
  5
63
102
{ACAD_REACTORS
330
16
102
}
330
16
100
AcDbVisualStyle
  2
FlatWithEdges
 70
1
177
3
291
1
 70
58
 90
2
176
1
 90
2
176
1
 90
0
176
1
 90
2
176
1
 40
0.6
176
1
 40
30.0
176
1
 62
7
420
16777215
176
1
 90
1
176
1
 90
4
176
1
 62
7
176
1
 62
257
176
1
 90
1
176
1
 90
1
176
1
 40
1.0
176
1
 90
8
176
1
 62
7
176
1
 40
1.0
176
1
 90
1
176
1
 90
6
176
1
 90
2
176
1
 62
7
176
1
 90
5
176
1
 90
0
176
1
 90
0
176
1
290
0
176
1
 90
1
176
1
 40
0.0
176
1
 90
0
176
1
290
0
176
1
290
1
176
1
290
1
176
1
290
0
176
1
290
0
176
1
290
0
176
1
290
0
176
1
290
0
176
1
290
0
176
1
 90
50
176
1
 40
0.0
176
1
 40
1.0
176
1
 90
0
176
1
 62
18
420
0
176
1
 90
50
176
1
 90
3
176
1
 62
5
420
255
176
1
290
0
176
1
 90
50
176
1
 90
50
176
1
 90
50
176
1
290
0
176
1
 90
50
176
1
 62
256
176
0
 40
1.0
176
0
 90
2
176
1
  1
strokes_ogs.tif
176
1
290
0
176
1
 40
1.0
176
1
 40
1.0
176
1
  0
VISUALSTYLE
  5
64
102
{ACAD_REACTORS
330
16
102
}
330
16
100
AcDbVisualStyle
  2
Gouraud
 70
2
177
3
291
1
 70
58
 90
2
176
1
 90
2
176
1
 90
0
176
1
 90
2
176
1
 40
0.6
176
1
 40
30.0
176
1
 62
7
420
16777215
176
1
 90
1
176
1
 90
4
176
1
 62
7
176
1
 62
257
176
1
 90
1
176
1
 90
1
176
1
 40
1.0
176
1
 90
8
176
1
 62
7
176
1
 40
1.0
176
1
 90
1
176
1
 90
6
176
1
 90
2
176
1
 62
7
176
1
 90
5
176
1
 90
0
176
1
 90
0
176
1
290
0
176
1
 90
1
176
1
 40
0.0
176
1
 90
0
176
1
290
0
176
1
290
1
176
1
290
1
176
1
290
0
176
1
290
0
176
1
290
0
176
1
290
0
176
1
290
0
176
1
290
0
176
1
 90
50
176
1
 40
0.0
176
1
 40
1.0
176
1
 90
0
176
1
 62
18
420
0
176
1
 90
50
176
1
 90
3
176
1
 62
5
420
255
176
1
290
0
176
1
 90
50
176
1
 90
50
176
1
 90
50
176
1
290
0
176
1
 90
50
176
1
 62
256
176
0
 40
1.0
176
0
 90
2
176
1
  1
strokes_ogs.tif
176
1
290
0
176
1
 40
1.0
176
1
 40
1.0
176
1
  0
VISUALSTYLE
  5
65
102
{ACAD_REACTORS
330
16
102
}
330
16
100
AcDbVisualStyle
  2
GouraudWithEdges
 70
3
177
3
291
1
 70
58
 90
2
176
1
 90
2
176
1
 90
0
176
1
 90
2
176
1
 40
0.6
176
1
 40
30.0
176
1
 62
7
420
16777215
176
1
 90
1
176
1
 90
4
176
1
 62
7
176
1
 62
257
176
1
 90
1
176
1
 90
1
176
1
 40
1.0
176
1
 90
8
176
1
 62
7
176
1
 40
1.0
176
1
 90
1
176
1
 90
6
176
1
 90
2
176
1
 62
7
176
1
 90
5
176
1
 90
0
176
1
 90
0
176
1
290
0
176
1
 90
1
176
1
 40
0.0
176
1
 90
0
176
1
290
0
176
1
290
1
176
1
290
1
176
1
290
0
176
1
290
0
176
1
290
0
176
1
290
0
176
1
290
0
176
1
290
0
176
1
 90
50
176
1
 40
0.0
176
1
 40
1.0
176
1
 90
0
176
1
 62
18
420
0
176
1
 90
50
176
1
 90
3
176
1
 62
5
420
255
176
1
290
0
176
1
 90
50
176
1
 90
50
176
1
 90
50
176
1
290
0
176
1
 90
50
176
1
 62
256
176
0
 40
1.0
176
0
 90
2
176
1
  1
strokes_ogs.tif
176
1
290
0
176
1
 40
1.0
176
1
 40
1.0
176
1
  0
VISUALSTYLE
  5
66
102
{ACAD_REACTORS
330
16
102
}
330
16
100
AcDbVisualStyle
  2
Hidden
 70
6
177
3
291
0
 70
58
 90
2
176
1
 90
2
176
1
 90
0
176
1
 90
1
176
1
 40
0.6
176
1
 40
30.0
176
1
 62
7
420
16777215
176
1
 90
1
176
1
 90
4
176
1
 62
7
176
1
 62
257
176
1
 90
1
176
1
 90
1
176
1
 40
1.0
176
1
 90
8
176
1
 62
7
176
1
 40
1.0
176
1
 90
1
176
1
 90
6
176
1
 90
2
176
1
 62
7
176
1
 90
5
176
1
 90
0
176
1
 90
0
176
1
290
0
176
1
 90
1
176
1
 40
0.0
176
1
 90
0
176
1
290
0
176
1
290
1
176
1
290
1
176
1
290
0
176
1
290
0
176
1
290
0
176
1
290
0
176
1
290
0
176
1
290
0
176
1
 90
50
176
1
 40
0.0
176
1
 40
1.0
176
1
 90
0
176
1
 62
18
420
0
176
1
 90
50
176
1
 90
3
176
1
 62
5
420
255
176
1
290
0
176
1
 90
50
176
1
 90
50
176
1
 90
50
176
1
290
0
176
1
 90
50
176
1
 62
256
176
0
 40
1.0
176
0
 90
2
176
1
  1
strokes_ogs.tif
176
1
290
0
176
1
 40
1.0
176
1
 40
1.0
176
1
  0
VISUALSTYLE
  5
67
102
{ACAD_REACTORS
330
16
102
}
330
16
100
AcDbVisualStyle
  2
JitterOff
 70
20
177
3
291
1
 70
58
 90
2
176
1
 90
2
176
1
 90
0
176
1
 90
2
176
1
 40
0.6
176
1
 40
30.0
176
1
 62
7
420
16777215
176
1
 90
1
176
1
 90
4
176
1
 62
7
176
1
 62
257
176
1
 90
1
176
1
 90
1
176
1
 40
1.0
176
1
 90
8
176
1
 62
7
176
1
 40
1.0
176
1
 90
1
176
1
 90
6
176
1
 90
2
176
1
 62
7
176
1
 90
5
176
1
 90
0
176
1
 90
0
176
1
290
0
176
1
 90
1
176
1
 40
0.0
176
1
 90
0
176
1
290
0
176
1
290
1
176
1
290
1
176
1
290
0
176
1
290
0
176
1
290
0
176
1
290
0
176
1
290
0
176
1
290
0
176
1
 90
50
176
1
 40
0.0
176
1
 40
1.0
176
1
 90
0
176
1
 62
18
420
0
176
1
 90
50
176
1
 90
3
176
1
 62
5
420
255
176
1
290
0
176
1
 90
50
176
1
 90
50
176
1
 90
50
176
1
290
0
176
1
 90
50
176
1
 62
256
176
0
 40
1.0
176
0
 90
2
176
1
  1
strokes_ogs.tif
176
1
290
0
176
1
 40
1.0
176
1
 40
1.0
176
1
  0
VISUALSTYLE
  5
68
102
{ACAD_REACTORS
330
16
102
}
330
16
100
AcDbVisualStyle
  2
Linepattern
 70
14
177
3
291
1
 70
58
 90
2
176
1
 90
2
176
1
 90
0
176
1
 90
2
176
1
 40
0.6
176
1
 40
30.0
176
1
 62
7
420
16777215
176
1
 90
1
176
1
 90
4
176
1
 62
7
176
1
 62
257
176
1
 90
1
176
1
 90
1
176
1
 40
1.0
176
1
 90
8
176
1
 62
7
176
1
 40
1.0
176
1
 90
1
176
1
 90
6
176
1
 90
2
176
1
 62
7
176
1
 90
5
176
1
 90
0
176
1
 90
0
176
1
290
0
176
1
 90
1
176
1
 40
0.0
176
1
 90
0
176
1
290
0
176
1
290
1
176
1
290
1
176
1
290
0
176
1
290
0
176
1
290
0
176
1
290
0
176
1
290
0
176
1
290
0
176
1
 90
50
176
1
 40
0.0
176
1
 40
1.0
176
1
 90
0
176
1
 62
18
420
0
176
1
 90
50
176
1
 90
3
176
1
 62
5
420
255
176
1
290
0
176
1
 90
50
176
1
 90
50
176
1
 90
50
176
1
290
0
176
1
 90
50
176
1
 62
256
176
0
 40
1.0
176
0
 90
2
176
1
  1
strokes_ogs.tif
176
1
290
0
176
1
 40
1.0
176
1
 40
1.0
176
1
  0
VISUALSTYLE
  5
69
102
{ACAD_REACTORS
330
16
102
}
330
16
100
AcDbVisualStyle
  2
Modeling
 70
10
177
3
291
0
 70
58
 90
2
176
1
 90
2
176
1
 90
0
176
1
 90
2
176
1
 40
0.6
176
1
 40
30.0
176
1
 62
7
420
16777215
176
1
 90
1
176
1
 90
4
176
1
 62
7
176
1
 62
257
176
1
 90
1
176
1
 90
1
176
1
 40
1.0
176
1
 90
8
176
1
 62
7
176
1
 40
1.0
176
1
 90
1
176
1
 90
6
176
1
 90
2
176
1
 62
7
176
1
 90
5
176
1
 90
0
176
1
 90
0
176
1
290
0
176
1
 90
1
176
1
 40
0.0
176
1
 90
0
176
1
290
0
176
1
290
1
176
1
290
1
176
1
290
0
176
1
290
0
176
1
290
0
176
1
290
0
176
1
290
0
176
1
290
0
176
1
 90
50
176
1
 40
0.0
176
1
 40
1.0
176
1
 90
0
176
1
 62
18
420
0
176
1
 90
50
176
1
 90
3
176
1
 62
5
420
255
176
1
290
0
176
1
 90
50
176
1
 90
50
176
1
 90
50
176
1
290
0
176
1
 90
50
176
1
 62
256
176
0
 40
1.0
176
0
 90
2
176
1
  1
strokes_ogs.tif
176
1
290
0
176
1
 40
1.0
176
1
 40
1.0
176
1
  0
VISUALSTYLE
  5
6A
102
{ACAD_REACTORS
330
16
102
}
330
16
100
AcDbVisualStyle
  2
OverhangOff
 70
21
177
3
291
1
 70
58
 90
2
176
1
 90
2
176
1
 90
0
176
1
 90
2
176
1
 40
0.6
176
1
 40
30.0
176
1
 62
7
420
16777215
176
1
 90
1
176
1
 90
4
176
1
 62
7
176
1
 62
257
176
1
 90
1
176
1
 90
1
176
1
 40
1.0
176
1
 90
8
176
1
 62
7
176
1
 40
1.0
176
1
 90
1
176
1
 90
6
176
1
 90
2
176
1
 62
7
176
1
 90
5
176
1
 90
0
176
1
 90
0
176
1
290
0
176
1
 90
1
176
1
 40
0.0
176
1
 90
0
176
1
290
0
176
1
290
1
176
1
290
1
176
1
290
0
176
1
290
0
176
1
290
0
176
1
290
0
176
1
290
0
176
1
290
0
176
1
 90
50
176
1
 40
0.0
176
1
 40
1.0
176
1
 90
0
176
1
 62
18
420
0
176
1
 90
50
176
1
 90
3
176
1
 62
5
420
255
176
1
290
0
176
1
 90
50
176
1
 90
50
176
1
 90
50
176
1
290
0
176
1
 90
50
176
1
 62
256
176
0
 40
1.0
176
0
 90
2
176
1
  1
strokes_ogs.tif
176
1
290
0
176
1
 40
1.0
176
1
 40
1.0
176
1
  0
VISUALSTYLE
  5
6B
102
{ACAD_REACTORS
330
16
102
}
330
16
100
AcDbVisualStyle
  2
Realistic
 70
8
177
3
291
0
 70
58
 90
2
176
1
 90
2
176
1
 90
0
176
1
 90
2
176
1
 40
0.6
176
1
 40
30.0
176
1
 62
7
420
16777215
176
1
 90
1
176
1
 90
4
176
1
 62
7
176
1
 62
257
176
1
 90
1
176
1
 90
1
176
1
 40
1.0
176
1
 90
8
176
1
 62
7
176
1
 40
1.0
176
1
 90
1
176
1
 90
6
176
1
 90
2
176
1
 62
7
176
1
 90
5
176
1
 90
0
176
1
 90
0
176
1
290
0
176
1
 90
1
176
1
 40
0.0
176
1
 90
0
176
1
290
0
176
1
290
1
176
1
290
1
176
1
290
0
176
1
290
0
176
1
290
0
176
1
290
0
176
1
290
0
176
1
290
0
176
1
 90
50
176
1
 40
0.0
176
1
 40
1.0
176
1
 90
0
176
1
 62
18
420
0
176
1
 90
50
176
1
 90
3
176
1
 62
5
420
255
176
1
290
0
176
1
 90
50
176
1
 90
50
176
1
 90
50
176
1
290
0
176
1
 90
50
176
1
 62
256
176
0
 40
1.0
176
0
 90
2
176
1
  1
strokes_ogs.tif
176
1
290
0
176
1
 40
1.0
176
1
 40
1.0
176
1
  0
VISUALSTYLE
  5
6C
102
{ACAD_REACTORS
330
16
102
}
330
16
100
AcDbVisualStyle
  2
Shaded
 70
27
177
3
291
0
 70
58
 90
2
176
1
 90
2
176
1
 90
0
176
1
 90
2
176
1
 40
0.6
176
1
 40
30.0
176
1
 62
7
420
16777215
176
1
 90
1
176
1
 90
4
176
1
 62
7
176
1
 62
257
176
1
 90
1
176
1
 90
1
176
1
 40
1.0
176
1
 90
8
176
1
 62
7
176
1
 40
1.0
176
1
 90
1
176
1
 90
6
176
1
 90
2
176
1
 62
7
176
1
 90
5
176
1
 90
0
176
1
 90
0
176
1
290
0
176
1
 90
1
176
1
 40
0.0
176
1
 90
0
176
1
290
0
176
1
290
1
176
1
290
1
176
1
290
0
176
1
290
0
176
1
290
0
176
1
290
0
176
1
290
0
176
1
290
0
176
1
 90
50
176
1
 40
0.0
176
1
 40
1.0
176
1
 90
0
176
1
 62
18
420
0
176
1
 90
50
176
1
 90
3
176
1
 62
5
420
255
176
1
290
0
176
1
 90
50
176
1
 90
50
176
1
 90
50
176
1
290
0
176
1
 90
50
176
1
 62
256
176
0
 40
1.0
176
0
 90
2
176
1
  1
strokes_ogs.tif
176
1
290
0
176
1
 40
1.0
176
1
 40
1.0
176
1
  0
VISUALSTYLE
  5
6D
102
{ACAD_REACTORS
330
16
102
}
330
16
100
AcDbVisualStyle
  2
Shaded with edges
 70
26
177
3
291
0
 70
58
 90
2
176
1
 90
2
176
1
 90
0
176
1
 90
2
176
1
 40
0.6
176
1
 40
30.0
176
1
 62
7
420
16777215
176
1
 90
1
176
1
 90
4
176
1
 62
7
176
1
 62
257
176
1
 90
1
176
1
 90
1
176
1
 40
1.0
176
1
 90
8
176
1
 62
7
176
1
 40
1.0
176
1
 90
1
176
1
 90
6
176
1
 90
2
176
1
 62
7
176
1
 90
5
176
1
 90
0
176
1
 90
0
176
1
290
0
176
1
 90
1
176
1
 40
0.0
176
1
 90
0
176
1
290
0
176
1
290
1
176
1
290
1
176
1
290
0
176
1
290
0
176
1
290
0
176
1
290
0
176
1
290
0
176
1
290
0
176
1
 90
50
176
1
 40
0.0
176
1
 40
1.0
176
1
 90
0
176
1
 62
18
420
0
176
1
 90
50
176
1
 90
3
176
1
 62
5
420
255
176
1
290
0
176
1
 90
50
176
1
 90
50
176
1
 90
50
176
1
290
0
176
1
 90
50
176
1
 62
256
176
0
 40
1.0
176
0
 90
2
176
1
  1
strokes_ogs.tif
176
1
290
0
176
1
 40
1.0
176
1
 40
1.0
176
1
  0
VISUALSTYLE
  5
6E
102
{ACAD_REACTORS
330
16
102
}
330
16
100
AcDbVisualStyle
  2
Shades of Gray
 70
23
177
3
291
0
 70
58
 90
2
176
1
 90
2
176
1
 90
0
176
1
 90
2
176
1
 40
0.6
176
1
 40
30.0
176
1
 62
7
420
16777215
176
1
 90
1
176
1
 90
4
176
1
 62
7
176
1
 62
257
176
1
 90
1
176
1
 90
1
176
1
 40
1.0
176
1
 90
8
176
1
 62
7
176
1
 40
1.0
176
1
 90
1
176
1
 90
6
176
1
 90
2
176
1
 62
7
176
1
 90
5
176
1
 90
0
176
1
 90
0
176
1
290
0
176
1
 90
1
176
1
 40
0.0
176
1
 90
0
176
1
290
0
176
1
290
1
176
1
290
1
176
1
290
0
176
1
290
0
176
1
290
0
176
1
290
0
176
1
290
0
176
1
290
0
176
1
 90
50
176
1
 40
0.0
176
1
 40
1.0
176
1
 90
0
176
1
 62
18
420
0
176
1
 90
50
176
1
 90
3
176
1
 62
5
420
255
176
1
290
0
176
1
 90
50
176
1
 90
50
176
1
 90
50
176
1
290
0
176
1
 90
50
176
1
 62
256
176
0
 40
1.0
176
0
 90
2
176
1
  1
strokes_ogs.tif
176
1
290
0
176
1
 40
1.0
176
1
 40
1.0
176
1
  0
VISUALSTYLE
  5
6F
102
{ACAD_REACTORS
330
16
102
}
330
16
100
AcDbVisualStyle
  2
Sketchy
 70
24
177
3
291
0
 70
58
 90
2
176
1
 90
2
176
1
 90
0
176
1
 90
1
176
1
 40
0.6
176
1
 40
30.0
176
1
 62
7
420
16777215
176
1
 90
1
176
1
 90
4
176
1
 62
7
176
1
 62
257
176
1
 90
1
176
1
 90
1
176
1
 40
1.0
176
1
 90
8
176
1
 62
7
176
1
 40
1.0
176
1
 90
1
176
1
 90
6
176
1
 90
2
176
1
 62
7
176
1
 90
5
176
1
 90
0
176
1
 90
0
176
1
290
0
176
1
 90
1
176
1
 40
0.0
176
1
 90
0
176
1
290
0
176
1
290
1
176
1
290
1
176
1
290
0
176
1
290
0
176
1
290
0
176
1
290
0
176
1
290
0
176
1
290
0
176
1
 90
50
176
1
 40
0.0
176
1
 40
1.0
176
1
 90
0
176
1
 62
18
420
0
176
1
 90
50
176
1
 90
3
176
1
 62
5
420
255
176
1
290
0
176
1
 90
50
176
1
 90
50
176
1
 90
50
176
1
290
0
176
1
 90
50
176
1
 62
256
176
0
 40
1.0
176
0
 90
2
176
1
  1
strokes_ogs.tif
176
1
290
0
176
1
 40
1.0
176
1
 40
1.0
176
1
  0
VISUALSTYLE
  5
70
102
{ACAD_REACTORS
330
16
102
}
330
16
100
AcDbVisualStyle
  2
Thicken
 70
13
177
3
291
1
 70
58
 90
2
176
1
 90
2
176
1
 90
0
176
1
 90
2
176
1
 40
0.6
176
1
 40
30.0
176
1
 62
7
420
16777215
176
1
 90
1
176
1
 90
4
176
1
 62
7
176
1
 62
257
176
1
 90
1
176
1
 90
1
176
1
 40
1.0
176
1
 90
8
176
1
 62
7
176
1
 40
1.0
176
1
 90
1
176
1
 90
6
176
1
 90
2
176
1
 62
7
176
1
 90
5
176
1
 90
0
176
1
 90
0
176
1
290
0
176
1
 90
1
176
1
 40
0.0
176
1
 90
0
176
1
290
0
176
1
290
1
176
1
290
1
176
1
290
0
176
1
290
0
176
1
290
0
176
1
290
0
176
1
290
0
176
1
290
0
176
1
 90
50
176
1
 40
0.0
176
1
 40
1.0
176
1
 90
0
176
1
 62
18
420
0
176
1
 90
50
176
1
 90
3
176
1
 62
5
420
255
176
1
290
0
176
1
 90
50
176
1
 90
50
176
1
 90
50
176
1
290
0
176
1
 90
50
176
1
 62
256
176
0
 40
1.0
176
0
 90
2
176
1
  1
strokes_ogs.tif
176
1
290
0
176
1
 40
1.0
176
1
 40
1.0
176
1
  0
VISUALSTYLE
  5
71
102
{ACAD_REACTORS
330
16
102
}
330
16
100
AcDbVisualStyle
  2
Wireframe
 70
5
177
3
291
0
 70
58
 90
2
176
1
 90
2
176
1
 90
0
176
1
 90
0
176
1
 40
0.6
176
1
 40
30.0
176
1
 62
7
420
16777215
176
1
 90
1
176
1
 90
4
176
1
 62
7
176
1
 62
257
176
1
 90
1
176
1
 90
1
176
1
 40
1.0
176
1
 90
8
176
1
 62
7
176
1
 40
1.0
176
1
 90
1
176
1
 90
6
176
1
 90
2
176
1
 62
7
176
1
 90
5
176
1
 90
0
176
1
 90
0
176
1
290
0
176
1
 90
1
176
1
 40
0.0
176
1
 90
0
176
1
290
0
176
1
290
1
176
1
290
1
176
1
290
0
176
1
290
0
176
1
290
0
176
1
290
0
176
1
290
0
176
1
290
0
176
1
 90
50
176
1
 40
0.0
176
1
 40
1.0
176
1
 90
0
176
1
 62
18
420
0
176
1
 90
50
176
1
 90
3
176
1
 62
5
420
255
176
1
290
0
176
1
 90
50
176
1
 90
50
176
1
 90
50
176
1
290
0
176
1
 90
50
176
1
 62
256
176
0
 40
1.0
176
0
 90
2
176
1
  1
strokes_ogs.tif
176
1
290
0
176
1
 40
1.0
176
1
 40
1.0
176
1
  0
VISUALSTYLE
  5
72
102
{ACAD_REACTORS
330
16
102
}
330
16
100
AcDbVisualStyle
  2
X-Ray
 70
25
177
3
291
0
 70
58
 90
2
176
1
 90
2
176
1
 90
0
176
1
 90
2
176
1
 40
0.5
176
1
 40
30.0
176
1
 62
7
420
16777215
176
1
 90
1
176
1
 90
4
176
1
 62
7
176
1
 62
257
176
1
 90
1
176
1
 90
1
176
1
 40
1.0
176
1
 90
8
176
1
 62
7
176
1
 40
1.0
176
1
 90
1
176
1
 90
6
176
1
 90
2
176
1
 62
7
176
1
 90
5
176
1
 90
0
176
1
 90
0
176
1
290
0
176
1
 90
1
176
1
 40
0.0
176
1
 90
0
176
1
290
0
176
1
290
1
176
1
290
1
176
1
290
0
176
1
290
0
176
1
290
0
176
1
290
0
176
1
290
0
176
1
290
0
176
1
 90
50
176
1
 40
0.0
176
1
 40
1.0
176
1
 90
0
176
1
 62
18
420
0
176
1
 90
50
176
1
 90
3
176
1
 62
5
420
255
176
1
290
0
176
1
 90
50
176
1
 90
50
176
1
 90
50
176
1
290
0
176
1
 90
50
176
1
 62
256
176
0
 40
1.0
176
0
 90
2
176
1
  1
strokes_ogs.tif
176
1
290
0
176
1
 40
1.0
176
1
 40
1.0
176
1
  0
DICTIONARYVAR
  5
29B
330
2D
100
DictionaryVariables
280
0
  1
1.4.4 @ 2026-10-08T17:38:12.334857+00:00
  0
ENDSEC
  0
EOF
